<svg xmlns="http://www.w3.org/2000/svg" viewBox="0 0 1920 1080"><defs><style>.cls-1,.cls-10,.cls-2,.cls-3,.cls-4,.cls-6,.cls-8{fill:none;}.cls-1,.cls-2,.cls-3,.cls-4,.cls-6,.cls-8{stroke:#000;}.cls-1,.cls-10,.cls-2,.cls-3,.cls-4,.cls-6{stroke-linecap:round;stroke-linejoin:round;}.cls-1,.cls-8{stroke-width:0.25px;}.cls-3{stroke-width:0.5px;}.cls-4{font-size:93.37px;font-family:ArialMT, Arial;}.cls-5{fill:#e0ae8c;}.cls-10,.cls-6{stroke-dasharray:2 2 2 2 2 2;}.cls-7{font-size:27px;}.cls-11,.cls-7,.cls-9{font-family:AvantGarde-Book, ITC Avant Garde Gothic;}.cls-8{stroke-miterlimit:10;}.cls-9{font-size:27.05px;}.cls-10{stroke:#e0ae8c;}.cls-11{font-size:18px;}</style></defs><g id="Livello_3" data-name="Livello 3"><line class="cls-1" x1="546.2" y1="506.07" x2="546.2" y2="465.81"/><line class="cls-1" x1="613.01" y1="506.07" x2="613.01" y2="465.81"/><line class="cls-2" x1="546.2" y1="506.49" x2="546.2" y2="506.49"/><line class="cls-2" x1="613.01" y1="506.49" x2="613.01" y2="506.49"/><line class="cls-2" x1="1175.08" y1="506.49" x2="1163.91" y2="506.49"/><line class="cls-2" x1="1175.08" y1="640.12" x2="1163.91" y2="640.12"/><line class="cls-2" x1="1163.91" y1="506.49" x2="1163.91" y2="640.12"/><line class="cls-2" x1="1175.08" y1="506.49" x2="1175.08" y2="640.12"/><line class="cls-1" x1="1163.91" y1="640.33" x2="1163.91" y2="714.81"/><line class="cls-1" x1="1175.08" y1="640.33" x2="1175.08" y2="714.81"/><line class="cls-2" x1="1163.91" y1="640.12" x2="1163.91" y2="640.12"/><line class="cls-2" x1="1175.08" y1="640.12" x2="1175.08" y2="640.12"/><line class="cls-1" x1="1175.08" y1="712.89" x2="1175.08" y2="712.89"/><line class="cls-1" x1="1163.7" y1="640.12" x2="1115.01" y2="640.12"/><line class="cls-1" x1="1163.7" y1="506.49" x2="1115.01" y2="506.49"/><line class="cls-2" x1="1163.91" y1="640.12" x2="1163.91" y2="640.12"/><line class="cls-2" x1="1163.91" y1="506.49" x2="1163.91" y2="506.49"/><line class="cls-1" x1="1115.86" y1="506.49" x2="1115.86" y2="506.49"/><line class="cls-3" x1="1478.24" y1="480.71" x2="1489.17" y2="475.25"/><line class="cls-3" x1="1514.02" y1="462.82" x2="1523.96" y2="457.85"/><line class="cls-3" x1="1523.96" y1="457.85" x2="1523.96" y2="510.53"/><line class="cls-3" x1="1478.24" y1="480.71" x2="1478.24" y2="533.39"/><polyline class="cls-3" points="1478.24 533.39 1479.73 537.37 1480.72 539.36 1482.21 540.85 1484.2 542.34 1486.19 543.33 1488.18 543.83 1490.16 544.33 1492.65 544.82 1494.64 544.33 1497.12 544.33 1499.11 543.33 1501.1 542.84 1503.09 541.84 1506.56 539.36 1510.04 536.87 1513.02 533.39 1516.01 530.41 1518.49 526.43 1520.48 522.96 1521.47 520.97 1522.47 518.98 1522.96 516.99 1523.46 515 1523.96 510.53"/><polyline class="cls-3" points="1489.17 475.25 1492.65 477.23 1508.55 469.78 1514.02 462.82"/><polyline class="cls-3" points="1488.18 475.74 1486.69 474.25 1486.69 473.26 1486.69 472.76 1486.69 471.77 1487.18 471.27 1488.67 469.78 1490.16 468.29 1492.15 467.79 1493.64 467.29 1495.13 466.8 1499.11 466.3 1500.6 466.3 1502.59 466.3 1506.07 467.29 1509.55 468.79"/><line class="cls-3" x1="1492.15" y1="489.16" x2="1497.62" y2="486.18"/><line class="cls-3" x1="1505.57" y1="481.71" x2="1509.55" y2="479.72"/><line class="cls-3" x1="1509.55" y1="479.72" x2="1509.55" y2="518.98"/><line class="cls-3" x1="1492.15" y1="489.16" x2="1492.15" y2="528.42"/><polyline class="cls-3" points="1497.62 484.69 1500.6 484.69 1503.58 485.19 1506.56 486.18 1509.55 487.17"/><line class="cls-3" x1="1497.62" y1="480.22" x2="1497.62" y2="486.18"/><line class="cls-3" x1="1497.62" y1="480.22" x2="1505.57" y2="476.24"/><line class="cls-3" x1="1505.57" y1="476.24" x2="1505.57" y2="481.71"/><line class="cls-3" x1="1509.55" y1="487.17" x2="1492.15" y2="495.62"/><polyline class="cls-3" points="1492.15 528.42 1494.64 530.41 1496.13 530.91 1497.62 531.4 1499.11 531.4 1500.6 530.91 1502.09 529.91 1503.09 529.42 1504.58 528.42 1505.57 527.43 1506.56 525.94 1507.56 524.94 1508.55 523.45 1509.05 521.96 1509.55 518.98"/><line class="cls-3" x1="1509.55" y1="507.55" x2="1492.15" y2="516"/><polygon class="cls-3" points="1483.7 480.71 1482.21 481.71 1481.22 482.2 1480.72 482.7 1480.23 484.19 1479.73 486.18 1480.23 487.67 1480.23 488.67 1480.72 489.16 1481.22 489.66 1482.21 490.16 1482.71 490.16 1483.7 490.16 1484.2 489.66 1485.2 489.16 1485.69 488.67 1486.19 488.17 1487.18 486.68 1487.18 484.69 1487.18 483.2 1487.18 482.2 1486.69 481.71 1486.19 481.21 1485.2 480.71 1483.7 480.71 1483.7 480.71"/><line class="cls-3" x1="1484.7" y1="480.71" x2="1482.21" y2="490.16"/><polygon class="cls-3" points="1483.7 521.47 1482.21 521.96 1481.22 522.46 1480.72 523.45 1480.23 524.94 1479.73 526.43 1480.23 528.42 1480.23 528.92 1480.72 529.91 1481.22 530.41 1482.21 530.91 1482.71 530.91 1483.7 530.91 1484.2 530.41 1485.2 529.91 1485.69 529.42 1486.19 528.42 1487.18 526.93 1487.18 525.44 1487.18 523.45 1487.18 522.96 1486.69 521.96 1486.19 521.47 1485.2 521.47 1483.7 521.47 1483.7 521.47"/><line class="cls-3" x1="1484.7" y1="521.47" x2="1482.21" y2="530.91"/><polygon class="cls-3" points="1519.48 462.82 1517.99 463.82 1517.5 464.31 1517 464.81 1516.01 466.3 1516.01 467.79 1516.01 469.78 1516.01 470.28 1516.5 471.27 1517.5 471.77 1517.99 472.26 1518.49 472.26 1519.48 472.26 1520.48 471.77 1520.97 471.27 1521.97 470.77 1522.47 469.78 1522.96 468.29 1522.96 466.8 1522.96 465.31 1522.96 464.31 1522.47 463.32 1521.97 463.32 1521.47 462.82 1519.48 462.82 1519.48 462.82"/><line class="cls-3" x1="1520.48" y1="462.82" x2="1517.99" y2="472.26"/><polygon class="cls-3" points="1519.48 503.57 1517.99 504.07 1517.5 504.57 1517 505.06 1516.01 507.05 1516.01 508.54 1516.01 510.03 1516.01 511.03 1516.5 511.53 1517.5 512.52 1517.99 512.52 1518.49 513.02 1519.48 512.52 1520.48 512.52 1520.97 512.02 1521.97 511.03 1522.47 510.53 1522.96 509.04 1522.96 507.55 1522.96 505.56 1522.96 504.57 1522.47 504.07 1521.97 503.57 1521.47 503.57 1519.48 503.57 1519.48 503.57"/><line class="cls-3" x1="1520.48" y1="503.57" x2="1517.99" y2="512.52"/><polygon class="cls-3" points="1496.63 467.79 1495.63 467.79 1494.64 468.29 1493.64 468.79 1493.15 469.28 1493.15 469.78 1492.65 470.28 1493.15 470.77 1493.15 471.27 1493.64 471.77 1494.64 472.26 1495.63 472.76 1496.63 472.76 1498.12 472.26 1499.11 471.77 1499.61 470.28 1499.61 469.78 1499.61 469.28 1499.11 468.79 1498.12 468.29 1496.63 467.79 1496.63 467.79"/><line class="cls-3" x1="1372.39" y1="480.71" x2="1383.82" y2="475.25"/><line class="cls-3" x1="1408.67" y1="462.82" x2="1418.61" y2="457.85"/><line class="cls-3" x1="1418.61" y1="457.85" x2="1418.61" y2="510.53"/><line class="cls-3" x1="1372.39" y1="480.71" x2="1372.39" y2="533.39"/><polyline class="cls-3" points="1372.39 533.39 1374.38 537.37 1375.37 539.36 1376.86 540.85 1378.35 542.34 1380.34 543.33 1382.83 543.83 1384.82 544.33 1387.3 544.82 1389.29 544.33 1391.77 544.33 1393.76 543.33 1395.75 542.84 1397.73 541.84 1401.21 539.36 1404.69 536.87 1407.67 533.39 1410.65 530.41 1413.14 526.43 1415.13 522.96 1416.12 520.97 1417.12 518.98 1417.61 516.99 1418.11 515 1418.61 510.53"/><polyline class="cls-3" points="1383.82 475.25 1387.3 477.23 1403.2 469.78 1408.67 462.82"/><line class="cls-3" x1="1386.8" y1="489.16" x2="1392.27" y2="486.18"/><line class="cls-3" x1="1400.22" y1="481.71" x2="1404.19" y2="479.72"/><line class="cls-3" x1="1404.19" y1="479.72" x2="1404.19" y2="518.98"/><line class="cls-3" x1="1386.8" y1="489.16" x2="1386.8" y2="528.42"/><line class="cls-3" x1="1392.27" y1="480.22" x2="1392.27" y2="486.18"/><line class="cls-3" x1="1392.27" y1="480.22" x2="1394.26" y2="479.22"/><line class="cls-3" x1="1400.22" y1="479.72" x2="1400.22" y2="481.71"/><line class="cls-3" x1="1404.19" y1="487.17" x2="1386.8" y2="495.62"/><polyline class="cls-3" points="1386.8 528.42 1389.29 530.41 1390.78 530.91 1391.77 531.4 1393.26 531.4 1394.75 530.91 1396.24 529.91 1397.73 529.42 1399.23 528.42 1400.22 527.43 1401.21 525.94 1402.21 524.94 1403.2 523.45 1403.7 521.96 1404.19 518.98"/><line class="cls-3" x1="1404.19" y1="507.55" x2="1386.8" y2="516"/><polygon class="cls-3" points="1377.86 480.71 1376.37 481.71 1375.87 482.2 1375.37 482.7 1374.88 484.19 1374.38 486.18 1374.38 487.67 1374.88 488.67 1375.37 489.16 1375.87 489.66 1376.37 490.16 1377.36 490.16 1378.35 490.16 1378.85 489.66 1379.85 489.16 1380.34 488.67 1380.84 488.17 1381.34 486.68 1381.83 484.69 1381.83 483.2 1381.34 482.2 1381.34 481.71 1380.84 481.21 1379.85 480.71 1377.86 480.71 1377.86 480.71"/><line class="cls-3" x1="1379.35" y1="480.71" x2="1376.86" y2="490.16"/><polygon class="cls-3" points="1377.86 521.47 1376.37 521.96 1375.87 522.46 1375.37 523.45 1374.88 524.94 1374.38 526.43 1374.38 528.42 1374.88 528.92 1375.37 529.91 1375.87 530.41 1376.37 530.91 1377.36 530.91 1378.35 530.91 1378.85 530.41 1379.85 529.91 1380.34 529.42 1380.84 528.42 1381.34 526.93 1381.83 525.44 1381.83 523.45 1381.34 522.96 1381.34 521.96 1380.84 521.47 1379.85 521.47 1377.86 521.47 1377.86 521.47"/><line class="cls-3" x1="1379.35" y1="521.47" x2="1376.86" y2="530.91"/><polygon class="cls-3" points="1414.13 462.82 1412.64 463.82 1411.65 464.31 1411.15 464.81 1410.65 466.3 1410.16 467.79 1410.65 469.78 1410.65 470.28 1411.15 471.27 1411.65 471.77 1412.64 472.26 1413.14 472.26 1414.13 472.26 1414.63 471.77 1415.63 471.27 1416.12 470.77 1416.62 469.78 1417.61 468.29 1417.61 466.8 1417.61 465.31 1417.61 464.31 1417.12 463.32 1416.62 463.32 1415.63 462.82 1414.13 462.82 1414.13 462.82"/><line class="cls-3" x1="1415.13" y1="462.82" x2="1412.64" y2="472.26"/><polygon class="cls-3" points="1414.13 503.57 1412.64 504.07 1411.65 504.57 1411.15 505.06 1410.65 507.05 1410.16 508.54 1410.65 510.03 1410.65 511.03 1411.15 511.53 1411.65 512.52 1412.64 512.52 1413.14 513.02 1414.13 512.52 1414.63 512.52 1415.63 512.02 1416.12 511.03 1416.62 510.53 1417.61 509.04 1417.61 507.55 1417.61 505.56 1417.61 504.57 1417.12 504.07 1416.62 503.57 1415.63 503.57 1414.13 503.57 1414.13 503.57"/><line class="cls-3" x1="1415.13" y1="503.57" x2="1412.64" y2="512.52"/><polygon class="cls-1" points="1396.24 435.99 1396.24 438.47 1398.73 439.46 1401.21 439.46 1403.7 438.47 1403.7 435.99 1396.24 435.99 1396.24 435.99"/><polyline class="cls-1" points="1396.24 435.99 1397.73 436.48 1399.72 436.98 1401.71 436.48 1403.7 435.99"/><polyline class="cls-1" points="1396.24 435.99 1397.73 435.49 1399.72 434.99 1401.71 435.49 1403.7 435.99"/><line class="cls-1" x1="1397.74" y1="456.36" x2="1402.21" y2="455.37"/><line class="cls-1" x1="1397.74" y1="454.87" x2="1402.21" y2="453.88"/><line class="cls-1" x1="1397.74" y1="450.4" x2="1402.21" y2="449.4"/><line class="cls-1" x1="1397.74" y1="449.4" x2="1402.21" y2="448.41"/><line class="cls-1" x1="1397.74" y1="448.91" x2="1402.21" y2="447.91"/><line class="cls-1" x1="1397.74" y1="447.91" x2="1402.21" y2="446.92"/><line class="cls-1" x1="1397.74" y1="446.92" x2="1402.21" y2="445.92"/><line class="cls-1" x1="1397.74" y1="446.42" x2="1402.21" y2="445.43"/><line class="cls-1" x1="1397.74" y1="445.43" x2="1402.21" y2="444.43"/><line class="cls-1" x1="1397.74" y1="444.93" x2="1402.21" y2="443.94"/><line class="cls-1" x1="1399.72" y1="439.96" x2="1399.72" y2="458.85"/><line class="cls-1" x1="1401.21" y1="439.46" x2="1401.21" y2="456.36"/><line class="cls-1" x1="1401.21" y1="457.35" x2="1401.21" y2="456.36"/><line class="cls-1" x1="1399.72" y1="457.35" x2="1401.21" y2="457.35"/><line class="cls-1" x1="1399.72" y1="457.35" x2="1398.73" y2="457.35"/><line class="cls-1" x1="1398.73" y1="457.35" x2="1398.23" y2="456.36"/><line class="cls-1" x1="1398.23" y1="439.46" x2="1398.23" y2="456.36"/><line class="cls-1" x1="1397.74" y1="455.86" x2="1402.21" y2="454.87"/><line class="cls-1" x1="1397.74" y1="454.37" x2="1402.21" y2="453.38"/><line class="cls-1" x1="1397.74" y1="453.38" x2="1402.21" y2="452.39"/><line class="cls-1" x1="1397.74" y1="452.39" x2="1402.21" y2="451.39"/><line class="cls-1" x1="1397.74" y1="451.89" x2="1402.21" y2="450.89"/><line class="cls-1" x1="1397.74" y1="450.89" x2="1402.21" y2="449.9"/><polyline class="cls-1" points="1396.24 442.45 1398.73 443.44 1401.21 443.44 1403.7 442.45"/><polyline class="cls-1" points="1396.24 441.45 1398.73 442.45 1401.21 442.45 1403.7 441.45"/><line class="cls-1" x1="1396.24" y1="441.45" x2="1396.24" y2="442.45"/><line class="cls-1" x1="1403.7" y1="441.45" x2="1403.7" y2="442.45"/><line class="cls-1" x1="1396.24" y1="441.45" x2="1398.23" y2="440.46"/><line class="cls-1" x1="1401.21" y1="440.46" x2="1403.7" y2="441.45"/><polyline class="cls-3" points="1403.2 469.78 1405.69 470.28 1406.68 470.77 1407.67 471.27 1408.17 471.77 1408.67 472.26 1409.16 473.26 1408.67 474.25 1408.67 475.25 1408.17 476.24 1407.18 476.74 1406.68 477.73 1404.69 478.73 1402.7 479.22 1400.72 479.22 1398.73 479.72 1396.74 479.22 1394.75 479.22 1390.78 478.23 1387.3 477.23"/><polygon class="cls-3" points="1399.72 477.73 1401.21 477.73 1402.21 477.23 1403.2 476.74 1403.7 475.74 1403.7 475.25 1403.7 474.75 1403.2 474.25 1403.2 473.76 1402.21 473.26 1400.72 472.76 1399.72 472.76 1398.73 473.26 1397.73 474.25 1396.74 475.25 1396.74 475.74 1396.74 476.24 1396.74 476.74 1397.24 476.74 1398.23 477.23 1399.72 477.73 1399.72 477.73"/><polyline class="cls-3" points="1403.2 487.67 1405.69 488.17 1406.68 488.67 1407.67 489.16 1408.17 489.66 1408.67 490.16 1409.16 491.15 1408.67 492.14 1408.67 493.14 1408.17 494.13 1407.18 494.63 1406.68 495.62 1404.69 496.62 1402.7 497.11 1400.72 497.61 1398.73 497.61 1396.74 497.61 1394.75 497.11 1390.78 496.12 1387.3 495.13"/><polygon class="cls-3" points="1399.72 495.62 1401.21 495.62 1402.21 495.13 1403.2 494.63 1403.7 493.63 1403.7 493.14 1403.7 492.64 1403.2 492.14 1403.2 491.65 1402.21 491.15 1400.72 490.65 1399.72 490.65 1398.73 491.15 1397.73 492.14 1396.74 493.14 1396.74 493.63 1396.74 494.13 1396.74 494.63 1397.24 494.63 1398.23 495.13 1399.72 495.62 1399.72 495.62"/><line class="cls-3" x1="1389.78" y1="504.57" x2="1395.25" y2="501.59"/><line class="cls-3" x1="1395.25" y1="501.59" x2="1395.25" y2="505.06"/><line class="cls-3" x1="1389.78" y1="508.05" x2="1395.25" y2="505.06"/><polyline class="cls-3" points="1398.73 497.61 1398.73 500.1 1404.19 497.11"/><polyline class="cls-1" points="1396.24 449.9 1398.73 450.89 1401.21 450.89 1403.7 449.9"/><polyline class="cls-1" points="1396.24 448.91 1398.73 449.9 1401.21 449.9 1403.7 448.91"/><line class="cls-1" x1="1396.24" y1="448.91" x2="1396.24" y2="449.9"/><line class="cls-1" x1="1403.7" y1="448.91" x2="1403.7" y2="449.9"/><line class="cls-1" x1="1396.24" y1="448.91" x2="1398.23" y2="447.91"/><line class="cls-1" x1="1401.21" y1="447.91" x2="1403.7" y2="448.91"/><line class="cls-3" x1="1386.8" y1="506.56" x2="1389.78" y2="508.05"/><line class="cls-3" x1="1386.8" y1="503.08" x2="1389.78" y2="504.57"/><polyline class="cls-2" points="1163.91 515.34 1170.65 515.34 1170.65 537.68 1163.91 537.68"/><path class="cls-2" d="M613,506.5h-1.43a65,65,0,0,0-65.12,65.34c0,36.3,30.07,68.26,66.25,68.26.48,0-.13,0,.35,0"/><polyline class="cls-2" points="613 640.12 902.37 640.12 902.37 506.49"/><line class="cls-2" x1="902.37" y1="506.49" x2="613.01" y2="506.49"/><line class="cls-1" x1="546.2" y1="573.51" x2="546.2" y2="715.15"/><line class="cls-1" x1="902.37" y1="573.51" x2="902.37" y2="715.15"/><line class="cls-2" x1="546.2" y1="573.3" x2="546.2" y2="573.3"/><line class="cls-2" x1="902.37" y1="573.3" x2="902.37" y2="573.3"/><line class="cls-1" x1="902.79" y1="640.12" x2="975.07" y2="640.12"/><line class="cls-1" x1="902.79" y1="506.49" x2="975.07" y2="506.49"/><line class="cls-2" x1="902.37" y1="640.12" x2="902.37" y2="640.12"/><line class="cls-2" x1="902.37" y1="506.49" x2="902.37" y2="506.49"/><line class="cls-1" x1="974.23" y1="506.49" x2="974.23" y2="506.49"/><text class="cls-4" transform="translate(404.77 263.85)">1</text><path class="cls-5" d="M1235.76,260.68c-36.18,0-65.12-29.66-65.12-66.73s28.94-66.72,65.12-66.72h290.83V260.85H1237.23Z"/><path class="cls-2" d="M1237.18,127.24h-1.42c-36.18,0-65.12,29.65-65.12,66.72s28.94,66.73,65.12,66.73h1.42"/><polyline class="cls-2" points="1237.23 260.85 1526.59 260.85 1526.59 127.23"/><line class="cls-2" x1="1526.59" y1="127.23" x2="1237.23" y2="127.23"/><path class="cls-6" d="M702.63,592a2.46,2.46,0,0,0,.18-.94,2.65,2.65,0,1,0-2.65,2.57,2.65,2.65,0,0,0,2.47-1.63"/><line class="cls-6" x1="702.78" y1="591.01" x2="702.78" y2="640.12"/><line class="cls-6" x1="697.52" y1="591.22" x2="697.52" y2="640.12"/><text class="cls-7" transform="translate(454.87 264.38)">WALL PANEL _ larch wood</text><text class="cls-7" transform="translate(555.17 471.34)">150</text><line class="cls-8" x1="547.96" y1="465.81" x2="611.24" y2="465.81"/><polygon points="546.2 465.81 548.68 466.83 548.1 465.81 548.68 464.8 546.2 465.81"/><polygon points="613 465.81 610.52 466.83 611.11 465.81 610.52 464.8 613 465.81"/><line class="cls-8" x1="547.83" y1="714.72" x2="900.68" y2="714.72"/><polygon points="546.06 714.72 548.55 715.74 547.96 714.72 548.55 713.71 546.06 714.72"/><polygon points="902.45 714.72 899.96 715.74 900.55 714.72 899.96 713.71 902.45 714.72"/><text class="cls-7" transform="translate(697.45 722.91)">800</text><text class="cls-7" transform="translate(1200.52 723.17)">25</text><line class="cls-8" x1="974.57" y1="508.57" x2="974.57" y2="638.35"/><polygon points="974.58 506.81 973.56 509.3 974.58 508.71 975.59 509.3 974.58 506.81"/><polygon points="974.58 640.12 973.56 637.63 974.58 638.22 975.59 637.63 974.58 640.12"/><text class="cls-7" transform="translate(952.25 577.05)">300</text><line class="cls-8" x1="1115.17" y1="508.32" x2="1115.17" y2="638.35"/><polygon points="1115.17 506.55 1114.15 509.04 1115.17 508.45 1116.18 509.04 1115.17 506.55"/><polygon points="1115.17 640.12 1114.15 637.63 1115.17 638.22 1116.18 637.63 1115.17 640.12"/><text class="cls-9" transform="translate(1092.84 576.93)">300</text><line class="cls-8" x1="1165.42" y1="714.98" x2="1173.39" y2="714.98"/><polygon points="1163.66 714.98 1166.15 716 1165.56 714.98 1166.15 713.96 1163.66 714.98"/><polygon points="1175.16 714.98 1172.67 716 1173.26 714.98 1172.67 713.96 1175.16 714.98"/><line class="cls-8" x1="1174.11" y1="714.98" x2="1229.59" y2="714.98"/><path class="cls-10" d="M1165.68,525.79a77.47,77.47,0,0,1,27.58-29.36c8.37-5.1,31-18.87,46.72-8.17,12.89,8.79,18.68,29.53,11.74,37.78-7.58,9-18.41,4.16-23.49,12.26-3.93,6.28-5.12,14,2.56,21.44,20.88,20.38,62.82,20.85,76.59,3.07,7.54-9.73,1.52-18.31,9.19-31.66,7.17-12.46,20.35-18.81,32-22.24"/><polygon class="cls-5" points="1355.38 507.15 1346.82 513.64 1348.05 509.11 1344.72 505.79 1355.38 507.15"/><path class="cls-10" d="M699.72,621c-7.52,12.05-22.24,31.36-47,41.36-5.5,2.23-25.64,9.71-73.54,1-64.73-11.73-80.8-35-102.12-24-21,10.8-29.09,45.43-24.52,70.47,5.8,31.7,52.57,20.52,66.9,58.22,8,21.11-8.28,54.06-13.72,71.76"/><polygon class="cls-5" points="504.15 846.72 502.57 836.09 505.96 839.35 510.47 838.03 504.15 846.72"/><text class="cls-11" transform="translate(414.01 875.5)">hole for cable passage<tspan x="31.66" y="21.6">diameter 12mm</tspan></text><rect class="cls-2" x="68.04" y="69.87" width="1785.04" height="940.58"/></g></svg>