<svg xmlns="http://www.w3.org/2000/svg" viewBox="0 0 1920 1080"><defs><style>.cls-1{font-size:93.37px;font-family:ArialMT, Arial;}.cls-1,.cls-3,.cls-4,.cls-6{fill:none;stroke:#000;}.cls-1,.cls-3,.cls-4{stroke-linecap:round;stroke-linejoin:round;}.cls-2{font-size:27px;}.cls-2,.cls-7{font-family:AvantGarde-Book, ITC Avant Garde Gothic;}.cls-4,.cls-6{stroke-width:0.25px;}.cls-5{fill:#e0ae8c;}.cls-6{stroke-miterlimit:10;}.cls-7{font-size:27.05px;}</style></defs><g id="Livello_3" data-name="Livello 3"><text class="cls-1" transform="translate(404.77 263.85)">5</text><text class="cls-2" transform="translate(472.49 264.38)">CLOTHES HANGERS _ larch wood</text><path class="cls-3" d="M909.48,551.87c0-.14,0-.29,0-.43a7.12,7.12,0,1,0,0,.43"/><polygon class="cls-3" points="1082.95 544.36 1082.95 633.78 1096.7 633.78 1096.7 544.36 1082.95 544.36 1082.95 544.36"/><line class="cls-4" x1="895.63" y1="551.69" x2="895.63" y2="575.19"/><line class="cls-4" x1="909.37" y1="551.69" x2="909.37" y2="575.19"/><line class="cls-3" x1="895.63" y1="551.3" x2="895.63" y2="551.3"/><line class="cls-3" x1="909.37" y1="551.3" x2="909.37" y2="551.3"/><line class="cls-4" x1="909.37" y1="573.95" x2="909.37" y2="573.95"/><line class="cls-4" x1="1097.09" y1="633.78" x2="1161.62" y2="633.78"/><line class="cls-4" x1="1097.09" y1="544.36" x2="1161.62" y2="544.36"/><line class="cls-3" x1="1096.7" y1="633.78" x2="1096.7" y2="633.78"/><line class="cls-3" x1="1096.7" y1="544.36" x2="1096.7" y2="544.36"/><line class="cls-4" x1="1157.66" y1="544.36" x2="1157.66" y2="544.36"/><rect class="cls-5" x="1510.66" y="175.12" width="13.74" height="89.42"/><rect class="cls-5" x="1478.49" y="175.12" width="13.74" height="89.42"/><rect class="cls-3" x="1478.49" y="175.12" width="13.74" height="89.42"/><rect class="cls-3" x="1510.66" y="175.12" width="13.74" height="89.42"/><line class="cls-6" x1="1161.32" y1="546.01" x2="1161.32" y2="632.01"/><polygon points="1161.32 544.25 1160.3 546.74 1161.32 546.14 1162.33 546.74 1161.32 544.25"/><polygon points="1161.32 633.78 1160.3 631.29 1161.32 631.88 1162.33 631.29 1161.32 633.78"/><text class="cls-7" transform="translate(1138.7 595.99)">130</text><line class="cls-6" x1="907.77" y1="575.49" x2="897.09" y2="575.49"/><polygon points="909.53 575.49 907.04 574.47 907.63 575.49 907.04 576.5 909.53 575.49"/><polygon points="895.32 575.49 897.81 574.47 897.22 575.49 897.81 576.5 895.32 575.49"/><line class="cls-6" x1="909.23" y1="575.49" x2="938.51" y2="575.49"/><text class="cls-7" transform="translate(931.38 584.64)">20</text><text class="cls-7" transform="translate(978.43 772.56)">X 2</text><rect class="cls-3" x="68.04" y="69.87" width="1785.04" height="940.58"/></g></svg>