<svg xmlns="http://www.w3.org/2000/svg" viewBox="0 0 1920 1080"><defs><style>.cls-1{font-size:27px;}.cls-1,.cls-3{font-family:AvantGarde-Book, ITC Avant Garde Gothic;}.cls-2,.cls-4,.cls-6,.cls-7,.cls-8{fill:none;stroke:#000;}.cls-2{stroke-miterlimit:10;}.cls-2,.cls-7{stroke-width:0.25px;}.cls-3{font-size:27.05px;}.cls-4{font-size:93.37px;font-family:ArialMT, Arial;}.cls-4,.cls-6,.cls-7,.cls-8{stroke-linecap:round;stroke-linejoin:round;}.cls-5{fill:#3d2120;}.cls-8{fill-rule:evenodd;}</style></defs><g id="Livello_3" data-name="Livello 3"><text class="cls-1" transform="translate(1170.43 541.88)">12</text><line class="cls-2" x1="1154.76" y1="533.6" x2="1156.81" y2="533.6"/><polygon points="1152.99 533.6 1155.48 534.62 1154.89 533.6 1155.48 532.59 1152.99 533.6"/><polygon points="1158.58 533.6 1156.09 534.62 1156.68 533.6 1156.09 532.59 1158.58 533.6"/><line class="cls-2" x1="1114.17" y1="555.07" x2="1114.17" y2="687.81"/><polygon points="1114.17 553.3 1113.15 555.79 1114.17 555.2 1115.19 555.79 1114.17 553.3"/><polygon points="1114.17 689.57 1113.15 687.09 1114.17 687.68 1115.19 687.09 1114.17 689.57"/><text class="cls-3" transform="translate(1091.55 629.81)">300</text><line class="cls-2" x1="931.11" y1="555.07" x2="931.11" y2="687.81"/><polygon points="931.11 553.3 930.09 555.79 931.11 555.2 932.12 555.79 931.11 553.3"/><polygon points="931.11 689.57 930.09 687.09 931.11 687.68 932.12 687.09 931.11 689.57"/><text class="cls-3" transform="translate(908.51 629.81)">300</text><line class="cls-2" x1="731.56" y1="555.07" x2="731.56" y2="633.43"/><polygon points="731.56 553.3 730.54 555.79 731.56 555.2 732.57 555.79 731.56 553.3"/><polygon points="731.56 635.19 730.54 632.7 731.56 633.29 732.57 632.7 731.56 635.19"/><line class="cls-2" x1="731.56" y1="645.92" x2="731.56" y2="687.89"/><polygon points="731.56 644.15 730.54 646.64 731.56 646.05 732.57 646.64 731.56 644.15"/><polygon points="731.56 689.66 730.54 687.17 731.56 687.76 732.57 687.17 731.56 689.66"/><text class="cls-3" transform="translate(709.32 604.75)">180</text><text class="cls-3" transform="translate(709.32 675.9)">100</text><line class="cls-2" x1="891.09" y1="521.11" x2="771.76" y2="521.11"/><polygon points="892.85 521.11 890.36 520.09 890.95 521.11 890.36 522.12 892.85 521.11"/><polygon points="769.99 521.11 772.48 520.09 771.89 521.11 772.48 522.12 769.99 521.11"/><line class="cls-2" x1="869.13" y1="623.91" x2="771.76" y2="623.91"/><polygon points="870.89 623.91 868.41 622.9 869 623.91 868.41 624.93 870.89 623.91"/><polygon points="769.99 623.91 772.48 622.9 771.89 623.91 772.48 624.93 769.99 623.91"/><text class="cls-3" transform="translate(807.97 530.59)">270</text><text class="cls-3" transform="translate(800.48 629.49)">220</text><text class="cls-4" transform="translate(404.77 263.85)">3</text><text class="cls-1" transform="translate(475.84 264.38)">PANEL _ wenge wood</text><path class="cls-5" d="M1524.46,126.28v83h-.06a62.77,62.77,0,0,1-122.65,9.7h99.62v-9.24H1399.46V126.28Z"/><polyline class="cls-6" points="1501.37 209.71 1501.37 218.95 1401.75 218.95 1401.62 218.95"/><path class="cls-6" d="M1401.7,218.77c0,.06,0,.12,0,.18a62.77,62.77,0,0,0,122.65-9.7"/><polyline class="cls-6" points="1524.46 209.71 1524.46 209.25 1524.46 126.28 1399.46 126.28 1399.46 209.71"/><line class="cls-6" x1="1399.46" y1="209.71" x2="1501.37" y2="209.71"/><polygon class="cls-6" points="1153.08 553.42 1153.08 689.65 1158.48 689.65 1158.48 553.42 1153.08 553.42 1153.08 553.42"/><line class="cls-7" x1="1153.08" y1="553.13" x2="1153.08" y2="533.63"/><line class="cls-7" x1="1158.48" y1="553.13" x2="1158.48" y2="533.63"/><line class="cls-6" x1="1153.08" y1="553.42" x2="1153.08" y2="553.42"/><line class="cls-6" x1="1158.48" y1="553.42" x2="1158.48" y2="553.42"/><line class="cls-7" x1="1158.48" y1="534.44" x2="1158.48" y2="534.44"/><line class="cls-7" x1="1152.78" y1="553.35" x2="1114.13" y2="553.35"/><line class="cls-7" x1="1152.78" y1="689.65" x2="1114.13" y2="689.65"/><line class="cls-6" x1="1153.08" y1="553.35" x2="1153.08" y2="553.35"/><line class="cls-6" x1="1153.08" y1="689.65" x2="1153.08" y2="689.65"/><line class="cls-7" x1="1129.21" y1="689.65" x2="1129.21" y2="689.65"/><polyline class="cls-6" points="869.89 635.11 869.89 644.24 772.15 644.24"/><polyline class="cls-6" points="892.6 635.11 892.6 553.42 770.1 553.42 770.1 635.11"/><line class="cls-6" x1="770.1" y1="635.11" x2="869.89" y2="635.11"/><line class="cls-7" x1="892.89" y1="553.42" x2="931.06" y2="553.42"/><line class="cls-7" x1="892.89" y1="689.65" x2="931.06" y2="689.65"/><line class="cls-6" x1="892.59" y1="553.42" x2="892.59" y2="553.42"/><line class="cls-7" x1="892.59" y1="553.13" x2="892.59" y2="520.94"/><line class="cls-7" x1="770.1" y1="553.13" x2="770.1" y2="520.94"/><line class="cls-6" x1="892.59" y1="553.42" x2="892.59" y2="553.42"/><line class="cls-6" x1="770.1" y1="553.42" x2="770.1" y2="553.42"/><line class="cls-7" x1="770.1" y1="531.52" x2="770.1" y2="531.52"/><line class="cls-6" x1="869.89" y1="635.11" x2="869.89" y2="635.11"/><line class="cls-6" x1="869.89" y1="644.24" x2="869.89" y2="644.24"/><line class="cls-7" x1="869.89" y1="634.89" x2="869.89" y2="624.31"/><line class="cls-6" x1="770.1" y1="634.89" x2="770.1" y2="624.31"/><line class="cls-6" x1="869.89" y1="635.11" x2="869.89" y2="635.11"/><line class="cls-6" x1="770.1" y1="635.11" x2="770.1" y2="635.11"/><line class="cls-6" x1="770.1" y1="625.11" x2="770.1" y2="625.11"/><line class="cls-7" x1="769.81" y1="635.11" x2="731.32" y2="635.11"/><line class="cls-7" x1="769.81" y1="553.42" x2="731.32" y2="553.42"/><line class="cls-6" x1="770.1" y1="635.11" x2="770.1" y2="635.11"/><line class="cls-6" x1="770.1" y1="553.42" x2="770.1" y2="553.42"/><line class="cls-7" x1="746.01" y1="553.42" x2="746.01" y2="553.42"/><line class="cls-7" x1="769.81" y1="689.65" x2="731.32" y2="689.65"/><line class="cls-7" x1="769.81" y1="644.24" x2="731.32" y2="644.24"/><line class="cls-7" x1="746.01" y1="644.24" x2="746.01" y2="644.24"/><polygon class="cls-8" points="829.38 689.57 834.2 689.57 830.47 689.57 829.38 689.57"/><polygon class="cls-6" points="892.6 553.42 770.1 553.42 770.1 635.11 869.89 635.11 869.89 644.24 772.15 644.24 773.24 647.81 774.55 651.39 776.09 654.82 777.84 658.18 779.81 661.39 781.93 664.53 784.26 667.45 786.75 670.3 789.45 673 792.29 675.48 795.29 677.82 798.35 679.94 801.64 681.83 804.92 683.59 808.43 685.12 811.93 686.43 815.58 687.53 819.23 688.4 822.95 688.99 826.68 689.43 830.47 689.57 834.2 689.57 837.99 689.28 841.71 688.77 845.44 688.04 849.09 687.02 852.66 685.85 856.17 684.46 859.53 682.86 862.88 681.03 866.02 678.99 869.09 676.8 872.01 674.39 874.78 671.76 877.34 669.06 879.82 666.14 882.01 663.14 884.05 659.93 885.95 656.65 887.56 653.29 889.02 649.78 890.26 646.21 891.28 642.56 892.01 638.91 892.6 635.11 892.6 553.42 892.6 553.42"/><polygon class="cls-6" points="1158.48 553.42 1153.08 553.42 1153.08 689.65 1158.48 689.65 1158.48 553.42 1158.48 553.42"/><line class="cls-7" x1="1158.48" y1="533.63" x2="1195.26" y2="533.63"/></g></svg>