<svg xmlns="http://www.w3.org/2000/svg" viewBox="0 0 1920 733.79"><defs><style>.cls-1{fill:#0a0a05;}.cls-2{fill:#dccbb2;}.cls-3{fill:#e6bca3;}.cls-4{fill:#bb866e;}.cls-14,.cls-5{fill:none;}.cls-5{stroke:#0a0a05;stroke-width:0.75px;}.cls-14,.cls-15,.cls-5{stroke-miterlimit:10;}.cls-6{fill:#34241d;}.cls-7{fill:#fff;}.cls-8{fill:#d8eeef;opacity:0.33;}.cls-9{fill:#926156;}.cls-10{fill:#3d2120;}.cls-11{fill:#2d1818;}.cls-12{fill:#e0ae8c;}.cls-13{fill:#fbc39a;}.cls-14{stroke:#212830;stroke-linecap:square;stroke-width:0;}.cls-15{stroke:#fff;opacity:0.1;}.cls-16{fill:#cac0b2;}.cls-17{fill:#2b2727;}.cls-18{fill:#e3e1e1;}.cls-19{fill:#e9e9e7;}.cls-20{fill:#cac1b4;}.cls-21{fill:#b6938b;}.cls-22{fill:#b6938c;}.cls-23{fill:#cec8bc;}.cls-24{fill:#fdfcf7;}.cls-25{fill:#cbc4b9;}.cls-26{fill:#ccc4b9;}.cls-27{fill:#cdc4bb;}.cls-28{fill:#b0968c;}.cls-29{fill:#fdfbf8;}.cls-30{fill:#fcfaf5;}.cls-31{fill:#cbc4b8;}.cls-32{fill:#f9f5f0;}.cls-33{fill:#fcf7f5;}.cls-34{fill:#ccc7bf;}.cls-35{fill:#fbf7f5;}.cls-36{fill:#fbfaf5;}.cls-37{fill:#fbf8f5;}.cls-38{fill:#312c29;}.cls-39{fill:#b39994;}.cls-40{fill:#898881;}.cls-41{fill:#fbf9f5;}.cls-42{fill:#9f9b96;}.cls-43{fill:#393b3a;}.cls-44{fill:#cac3b0;}.cls-45{fill:#69635b;}.cls-46{fill:#3a3a35;}.cls-47{fill:#cac2b7;}.cls-48{fill:#797065;}.cls-49{fill:#d0c6b8;}.cls-50{fill:#756f65;}.cls-51{fill:#80786d;}.cls-52{fill:#cbc5b8;}.cls-53{fill:#ccc3bc;}.cls-54{fill:#2f2f2d;}.cls-55{fill:#221f1c;}.cls-56{fill:#d2cbc1;}.cls-57{fill:#cfc9bd;}.cls-58{fill:#bab5aa;}.cls-59{fill:#f1e2e2;}.cls-60{fill:#ebe6dd;}.cls-61{fill:#766e64;}.cls-62{fill:#8e867b;}.cls-63{fill:#d5cdc1;}.cls-64{fill:#3c3a34;}</style></defs><g id="Livello_4" data-name="Livello 4"><path class="cls-1" d="M914.87,170c-1.5,0-1.65,2.93-4.83,4.83-2.32,1.39-4.71,1.26-9.5,1-4-.22-6.44-.35-9.33-1.67-3.25-1.48-4.08-3.09-7-3.33a7.53,7.53,0,0,0-5,1.17c-1.16.88-3.08,3.18-2.17,10.33,1.56,12.32,9.35,22.12,13.33,30.67,7,15.08,4.2,30.57,2.5,39.83a376.47,376.47,0,0,1-10.66,44c-.85,2.61-2,6.1-.34,8.83,4.45,7.17,27,6.54,36.17-4.5,7.9-9.5-1.1-18.28,3.83-40,5.11-22.44,16.87-22.51,16-38-.8-14.31-10.9-15.21-17-39.83C920.09,180.18,917.72,169.92,914.87,170Z"/><path class="cls-2" d="M915.79,171.29c.84-.33,2.61,1.32,6.13,4.62,3.92,3.69,3.86,4.16,6,6a37.32,37.32,0,0,0,10.75,6.25c4.72,2,4.66,1.11,8.5,2.75,3.32,1.42,9,3.84,12.37,9.5,1.87,3.11,2.18,6,2.75,10.75.47,3.93.22,6.62,1,13.25a38.71,38.71,0,0,0,.63,4.13c.78,3.64,1.51,4.11,1.75,6.75.2,2.31-.29,2.7.25,4.25.45,1.3,1.05,1.72,2.5,3.5a37.18,37.18,0,0,1,3.87,5.75c1.39,2.64.74,2.61,2.13,5.25,1.59,3,2.51,3.18,3.5,5.75a19.22,19.22,0,0,1,1,4.75c.5,3.73,0,4.39.62,7.37a15.1,15.1,0,0,0,1.38,4.38c1.39,2.7,2.64,2.76,3.25,4.87a8.45,8.45,0,0,1-.38,5,15.46,15.46,0,0,1-2.25,4c-3.09,4.62-2.89,4-3.5,5.13-2,3.49-1.3,4.56-3.5,7.87a8.7,8.7,0,0,1-3,3.13,9.43,9.43,0,0,1-4.75.87c-2.34,0-2.44-.61-4.12-.37s-1.74.8-3.88,1.25a6,6,0,0,1-3.5.12c-.93-.34-1.59-1.15-2.87-2.75-1.43-1.77-1.87-2.73-2.25-2.62s-.41,2.15-.38,2.62a35.88,35.88,0,0,0,3.88,14c2.1,3.69,3.19,12.13,5.37,29,1,7.49.53,6.49,2.13,22,1.17,11.39,1.76,17.08,2.62,22.5,1.21,7.61,2.21,10.46,7.5,29.75,4.24,15.46,7.12,26.45,11,41.25,4,15.41,5.23,20.35,5.92,23.25,1.57,6.64,1.89,8.4,3.25,13.5,2.7,10.15,4,15.23,5.08,17.75,2.32,5.68,5.47,11.43,3.33,13.84-.06.07-.51.43-1.41,1.16-2.53,2.05-3.51,2.72-4.59,3.59-4,3.19-3,4-6.08,5.91-1.58,1-2.6,1.28-3.58,2.67a7.94,7.94,0,0,0-1.25,3.58c-.82,4.65-.15,5.58-.92,8.92-1,4.2-2.55,5-3.08,5.25a1.8,1.8,0,0,1-1.17.17c-1.21-.34-1.35-2.35-2.42-5.17-.49-1.31-.54-1.09-1.66-3.5-1.6-3.44-2-5-3.59-9-.44-1.13-1.26-3.06-2.91-6.92-2.51-5.86-4.43-10.25-4.5-10.41-5.18-11.83-9.34-33-9.34-33-.27-1.41-4.12-16.61-11.83-47-7.2-28.4-10.8-42.6-13.17-51.17-2-7.11-4.35-15.49-6.66-27.33-.84-4.3-1.73-9.59-3.5-20.17-1.61-9.6-2.41-14.4-3.34-20.67-2.09-14.23-1.57-13.86-2.83-19.83-2.12-10.05-3.58-11.09-5-19.5a94.52,94.52,0,0,1-1.17-17.67c.32-10.59,2.49-18.14,5.84-29.5,5.53-18.75,8.3-28.13,10.33-31.33.76-1.19,3-4.59,2.5-8.67-.2-1.55-.74-2.67-2.67-6.16-3.21-5.83-4-6.86-4.83-8.5C913.49,181,913.62,172.12,915.79,171.29Z"/><path class="cls-2" d="M877.92,172.66c1.49.6-.33,5.06.75,11.88.88,5.6,3.21,9.6,5.12,12.87,3.07,5.26,4.63,7.94,8,9.63,2.18,1.09,3.72,1.07,6.5,2.87a23.43,23.43,0,0,1,4.88,4.5c6.05,7.58-.88,35.13-.88,35.13s-5.22,20.77-11.62,52c-2.12,10.32-3.57,18.64-4.63,24.75-1,5.51-3.3,19.29-5.75,37.5-1.28,9.49-2.26,16.78-3.25,27-.46,4.75-1.37,14.82-2,27.62-.2,4.08-1,21.9-.37,49.88.67,28.93,1,43.4,2.37,50.5,2.18,11.33,8.11,35.83,2.25,39.37a16.16,16.16,0,0,1-3.62,1.5,19.54,19.54,0,0,1-8.75.25c-5.38-.78-4.78.63-15,.63-9,0-8.1-1.09-14.38-.75-7.75.42-10.2,2.14-13.62.37s-4.89-5.57-5.75-8.25c-5.29-16.31-3.19-32.06-5-52.58-.64-7.42-.9-5.2-1.84-14.67-.74-7.52-1.44-17.69-1.16-41.83.25-21.62,0-32.49,1-35.5,3.44-10.56,10.91-22.7,7.5-25.67-1.12-1-2.57-.21-4.67-1.83s-2.93-4.36-3.67-7.17c-1.2-4.55-.15-5.38-1.66-8.33-1-1.89-1.71-2.15-2.34-4.17a10.84,10.84,0,0,1-.33-5.33c.51-2.53,1.63-2.89,2.17-5.17a10.4,10.4,0,0,0-.5-5.66c-.81-2.7-.93-6,.5-29.34.68-11.19,1-16.78,1.16-17.83,1-7.57,2-9.56,6.17-25.83,3.65-14.25,5.47-21.38,7.17-29.84,1.88-9.37,1.94-11.56,3.83-17,1.42-4.08,3.84-8.83,8.67-18.33a33,33,0,0,1,11.16-13.17c3.17-2.31,6.22-4.53,10.67-5.5s5,.47,7.67-.83c2.9-1.43,2.93-3.51,7.5-8.83C874.75,174.53,876.75,172.19,877.92,172.66Z"/><path class="cls-3" d="M915,111.16c1.33.21,2.92-.08,5.11,1.25,1.31.8,2.63,2.85,4.22,4.5a18.66,18.66,0,0,1,4,6.67,26.88,26.88,0,0,1,1.67,8c.18,2.3,1.09,10.14-.92,16.83-.28.93-.91,2.82-1.67,4.84-.89,2.38-1.55,3.82-1.75,4.25-.71,1.55-1.32,2.69-1.58,3.16-.52,1-1,1.72-1.25,2.17a24.82,24.82,0,0,1-2.25,3.33,19.23,19.23,0,0,1-2.5,2.5c-.5.41-.65.49-1.5,1.17,0,0-1,.82-2.08,1.75a39.63,39.63,0,0,0-4.42,5c-4.43,5.81-17.9,1.75-18.75,1.5-4.16-1.25-5.18-2.71-5.58-3.5a13.46,13.46,0,0,1-.92-4.92,25.27,25.27,0,0,1,0-2.75c.05-.79.09-.89.25-2.5s.25-2.49.25-3.25c0-1.28-.13-1.22-.17-2.83s.11-1.79,0-3a4,4,0,0,0-2.16-4,31.83,31.83,0,0,1-3.75-3.08,16.94,16.94,0,0,1-1.75-2.09,9,9,0,0,1-1.17-2,8.3,8.3,0,0,1-.5-1.91,15.44,15.44,0,0,1-.34-2.82,8.18,8.18,0,0,1,.28-2.21,3.73,3.73,0,0,1,2-1.51,4.26,4.26,0,0,1,2.2-.2,6.27,6.27,0,0,1,2.19,1.15c.83.52,1.31,1.38,2.25,3.09s1.08,2.34,1.67,2.5c.88.22,1.83-.75,2.25-1.17a9.56,9.56,0,0,0,2.17-4.25,39.29,39.29,0,0,1,3.16-5.67c1.45-2.38,3-4.25,7.75-9.16C911.37,111.64,913.18,110.88,915,111.16Z"/><path class="cls-4" d="M915.85,169c-.17-.52-1.75,0-4.37-.37-2.25-.28-3.86-1-7.06-2.56a32.66,32.66,0,0,1-7.75-4.57,38.44,38.44,0,0,1-4.44-4.5c-1.56-1.76-3.63-4.31-3.63-4.31h0s-.63-.17-.81,0,.35,1.22.38,1.25c4.79,7.81,2.89,6.15,5.81,9.5,6,6.85,8.95,10.28,12.69,10.06a12.52,12.52,0,0,0,3.37-.81C913,171.65,916.11,169.75,915.85,169Z"/><ellipse cx="929.45" cy="137.44" rx="5.53" ry="6.66"/><ellipse cx="913.23" cy="137.38" rx="6.06" ry="6.53"/><line class="cls-5" x1="925.78" y1="136.94" x2="917.12" y2="136.94"/><line class="cls-5" x1="908" y1="136.49" x2="886.62" y2="136.24"/><path class="cls-6" d="M930.25,132.5c-.55-.34-1.47-6.64-1.92-8.59-.72-3.11-2.54-5.06-4.75-7.41-1.91-2-5.42-5.79-8.83-5a8.26,8.26,0,0,0-2.42,1.33,34.28,34.28,0,0,0-5.5,4.5c-6.42,6.58-6.87,5.63-9.83,9.5-3.56,4.65-5.34,7-6,9.83a8.84,8.84,0,0,1-2.67,4.84c-1.18,1-2,.87-2.16.83a2.83,2.83,0,0,1-1.67-1.5,11.09,11.09,0,0,1-.85-2.17,4,4,0,0,0-1.27-1.81,4.33,4.33,0,0,0-2.63-1.35,4.64,4.64,0,0,0-3.42,1.16c-1,1-.55,2.38-.62,3.3a9.44,9.44,0,0,0,2,6.53A22.29,22.29,0,0,0,882.6,151a7.91,7.91,0,0,1,2,1.81,9.89,9.89,0,0,1,.67,3.5c0,3.29.32,5.29-.25,8.58-.72,4.14.59,5.15-.31,6.38-1.09,1.47-3.5,2-4,2.12a4.58,4.58,0,0,1-3.42.25c-1.33-.63-1.73-2.21-2.25-4.33s-.8-3.2-.33-4.67a8.07,8.07,0,0,1,3.5-4.08c1.51-1,2.38-.9,3.08-2a4.12,4.12,0,0,0,.5-2.83c-.25-1.36-1.14-2.11-2.08-3.09a51.5,51.5,0,0,1-3.5-4.66c-2.5-3.28-3-7.5-3.5-11.75-.45-3.75-.93-7.87.5-12.92a28.88,28.88,0,0,1,7.91-12.75,33.59,33.59,0,0,1,13.75-8.42,29.5,29.5,0,0,1,15.75-.58c8.17,2,13,7.08,15.42,9.67a21.34,21.34,0,0,1,4.92,8.29s1.81,3.11.75,12.79a.59.59,0,0,1-.2.42.49.49,0,0,1-.27.08.88.88,0,0,1-.33-.06Z"/></g><g id="Livello_5" data-name="Livello 5"><polygon class="cls-7" points="892.04 103.57 892.17 213.75 940.17 207.91 940.51 185.36 983.06 195.23 1026.72 368.34 1020.34 613.19 962.38 575.15 807.66 568.25 777.79 384.43 807.66 192.17 868.94 104.08 892.04 103.57"/><polygon class="cls-8" points="891.49 213.19 891.28 73.32 897.02 52.77 901.49 43.83 909.53 36.68 918.72 36.3 926.13 39.62 936.09 52.89 942.21 67.06 941.19 209.28 893.19 215.15 891.49 213.19"/></g><g id="Livello_2" data-name="Livello 2"><polygon class="cls-9" points="973.43 274.57 973.43 281.16 966.47 282.75 932.89 290.18 932.89 283.28 973.43 274.57"/><polygon class="cls-9" points="973.43 274.57 932.89 283.28 932.89 278.29 958.76 272.87 967.96 273.93 973.43 274.57"/><polygon class="cls-10" points="968.22 212.65 968.22 270.91 967.96 273.93 958.76 272.87 932.89 278.29 932.89 256.62 929.6 256.3 914.56 259.07 914.56 220.35 968.22 212.65"/><polygon class="cls-11" points="968.22 212.65 914.56 220.35 911.32 220.09 944.47 215.36 965.03 212.39 968.22 212.65"/><polygon class="cls-10" points="966.47 282.75 966.31 283.6 965.51 286.68 964.56 289.71 963.55 292.57 962.38 295.39 961.1 298.1 959.77 300.65 958.29 303.03 956.75 305.32 955.15 307.39 953.45 309.25 951.7 311 949.84 312.49 947.98 313.76 946.07 314.82 944.15 315.67 942.19 316.31 940.22 316.68 938.26 316.84 936.34 316.74 934.38 316.36 932.52 315.78 930.66 314.93 928.85 313.87 927.15 312.54 925.5 311.05 923.91 309.25 922.42 307.28 921.04 305.16 919.82 302.77 918.65 300.22 917.64 297.57 916.84 294.96 932.89 291.35 932.89 290.18 966.47 282.75"/><polygon class="cls-12" points="944.47 210.8 944.47 215.36 911.32 220.09 911.32 259.65 901.7 261.46 901.7 243.72 901.44 243.61 901.01 243.51 900.32 243.4 899.52 243.35 898.62 243.35 897.66 243.35 896.76 243.35 895.96 243.4 895.27 243.51 894.74 243.61 894.48 243.72 894.48 243.88 894.48 262.78 886.56 264.22 886.56 246.37 886.56 246.22 886.35 246.11 885.92 246 885.23 245.9 884.43 245.84 883.53 245.84 882.58 245.84 881.62 245.84 880.77 245.9 880.08 246 879.55 246.11 879.28 246.22 879.23 246.37 879.23 265.6 842.51 272.39 842.51 288.7 801.98 296.82 801.98 304.2 842.51 310.31 845.97 310.79 913.92 295.6 914.4 297.09 915.41 299.8 916.58 302.34 917.8 304.68 919.18 306.86 920.67 308.82 922.26 310.58 923.38 311.58 801.98 341.11 797.99 341.75 794.01 341.8 790.08 341.27 786.25 340.05 782.58 338.24 779.08 335.85 775.84 332.88 772.91 329.37 770.26 325.28 767.92 320.82 766.01 315.89 764.47 310.63 763.35 305.05 762.71 299.21 762.45 293.26 762.71 287.21 763.35 281.16 764.47 275.16 766.01 269.31 767.92 263.69 770.26 258.27 772.91 253.22 775.84 248.55 779.08 244.36 782.58 240.64 786.25 237.45 790.08 234.8 794.01 232.73 797.99 231.29 801.98 230.39 890.33 218.23 944.47 210.8"/><path class="cls-10" d="M944.47,75V210.8l-54.14,7.43V74.38h.06l1.38-11.21,3-10.19,4.51-8.55L905,38.11l6.43-3.77,6.8-1,6.64,1.75,6.21,4.36,5.26,6.63,4.15,8.5,2.76,9.82Zm-2.28,132.28V75.39l-1.12-9.83-2.5-9-3.82-7.76-4.84-6-5.63-3.93-6-1.59-1.81.32-4.36.63-5.84,3.46-5.16,5.78-4.14,7.81-2.76,9.24-1.28,10.78v138.6Z"/><polygon class="cls-11" points="942.19 75.39 942.19 207.29 939.64 207.08 939.64 75.39 942.19 75.39"/><polygon class="cls-11" points="941.07 65.56 942.19 75.39 939.64 75.39 938.52 65.61 935.97 56.64 932.2 48.89 927.36 42.89 921.73 38.9 916.42 37.58 918.23 37.26 924.28 38.85 929.91 42.78 934.75 48.83 938.57 56.59 941.07 65.56"/><polygon class="cls-11" points="942.19 207.29 892.88 213.88 892.88 213.29 939.64 207.08 942.19 207.29"/><polygon class="cls-11" points="936.34 316.74 933.1 316.26 931.19 315.89 929.28 315.3 927.42 314.45 925.66 313.39 923.91 312.12 923.38 311.58 922.26 310.58 920.67 308.82 919.18 306.86 917.8 304.68 916.58 302.34 915.41 299.8 914.4 297.09 913.92 295.6 916.84 294.96 917.64 297.57 918.65 300.22 919.82 302.77 921.04 305.16 922.42 307.28 923.91 309.25 925.5 311.05 927.15 312.54 928.85 313.87 930.66 314.93 932.52 315.78 934.38 316.36 936.34 316.74"/><polygon class="cls-9" points="932.89 290.18 932.89 291.35 916.84 294.96 913.92 295.6 845.97 310.79 845.97 291.78 845.97 272.82 879.23 266.61 879.23 294.22 879.44 294.38 879.92 294.54 880.56 294.64 881.41 294.7 882.31 294.75 883.27 294.75 884.22 294.7 885.07 294.64 885.76 294.54 886.29 294.38 886.56 294.22 886.56 294.06 886.56 265.23 894.48 263.79 894.48 290.93 894.69 291.09 895.17 291.25 895.8 291.35 896.6 291.46 897.56 291.46 898.46 291.46 899.42 291.46 900.21 291.35 900.91 291.25 901.38 291.09 901.65 290.93 901.7 290.77 901.7 262.46 932.89 256.62 932.89 278.29 932.89 283.28 932.89 290.18"/><polygon class="cls-9" points="932.89 256.62 901.7 262.46 901.7 261.46 911.32 259.65 914.56 259.07 929.6 256.3 932.89 256.62"/><polygon class="cls-11" points="918.23 33.33 911.43 34.34 905 38.11 899.31 44.43 894.8 52.98 891.77 63.17 890.39 74.38 890.33 74.38 883.85 74.43 885.23 63.28 888.26 53.14 892.83 44.64 898.51 38.32 904.94 34.55 911.74 33.54 918.23 33.33"/><polygon class="cls-11" points="914.56 220.35 914.56 259.07 911.32 259.65 911.32 220.09 914.56 220.35"/><polygon class="cls-13" points="901.7 262.46 901.7 290.77 901.65 290.93 901.38 291.09 900.91 291.25 900.21 291.35 899.42 291.46 898.46 291.46 897.56 291.46 896.6 291.46 895.8 291.35 895.17 291.25 894.69 291.09 894.48 290.93 894.48 263.79 894.48 262.78 894.48 243.88 894.69 243.99 895.17 244.09 895.8 244.14 896.6 244.25 897.56 244.25 898.46 244.25 899.42 244.25 900.21 244.14 900.91 244.09 901.38 243.99 901.65 243.88 901.7 243.72 901.7 261.46 901.7 262.46"/><polygon class="cls-13" points="901.7 243.72 901.65 243.88 901.38 243.99 900.91 244.09 900.21 244.14 899.42 244.25 898.46 244.25 897.56 244.25 896.6 244.25 895.8 244.14 895.17 244.09 894.69 243.99 894.48 243.88 894.48 243.72 894.74 243.61 895.27 243.51 895.96 243.4 896.76 243.35 897.66 243.35 898.62 243.35 899.52 243.35 900.32 243.4 901.01 243.51 901.44 243.61 901.7 243.72"/><polygon class="cls-9" points="894.48 262.78 894.48 263.79 886.56 265.23 886.56 264.22 894.48 262.78"/><polygon class="cls-11" points="890.33 74.38 890.33 218.23 883.8 217.7 883.8 74.43 883.85 74.43 890.33 74.38"/><polygon class="cls-12" points="890.33 218.23 801.98 230.39 795.23 229.75 883.8 217.7 890.33 218.23"/><polygon class="cls-13" points="886.56 294.06 886.56 294.22 886.29 294.38 885.76 294.54 885.07 294.64 884.22 294.7 883.27 294.75 882.31 294.75 881.41 294.7 880.56 294.64 879.92 294.54 879.44 294.38 879.23 294.22 879.23 266.61 879.23 265.6 879.23 246.37 879.44 246.48 879.92 246.59 880.56 246.69 881.41 246.75 882.31 246.8 883.27 246.8 884.22 246.75 885.07 246.69 885.76 246.59 886.29 246.48 886.56 246.37 886.56 264.22 886.56 265.23 886.56 294.06"/><polygon class="cls-13" points="886.56 246.22 886.56 246.37 886.29 246.48 885.76 246.59 885.07 246.69 884.22 246.75 883.27 246.8 882.31 246.8 881.41 246.75 880.56 246.69 879.92 246.59 879.44 246.48 879.23 246.37 879.28 246.22 879.55 246.11 880.08 246 880.77 245.9 881.62 245.84 882.58 245.84 883.53 245.84 884.43 245.84 885.23 245.9 885.92 246 886.35 246.11 886.56 246.22"/><polygon class="cls-9" points="879.23 265.6 879.23 266.61 845.97 272.82 842.51 272.39 879.23 265.6"/><polygon class="cls-9" points="845.97 291.78 845.97 310.79 842.51 310.31 842.51 302.72 842.51 291.35 842.51 288.7 842.51 272.39 845.97 272.82 845.97 291.78"/><polygon class="cls-9" points="842.51 302.72 842.51 310.31 801.98 304.2 801.98 296.82 842.51 302.72"/><polygon class="cls-9" points="842.51 291.35 842.51 302.72 801.98 296.82 842.51 288.7 842.51 291.35"/><polygon class="cls-12" points="801.98 230.39 797.99 231.29 794.01 232.73 790.08 234.8 786.25 237.45 782.58 240.64 779.08 244.36 775.84 248.55 772.91 253.22 770.26 258.27 767.92 263.69 766.01 269.31 764.47 275.16 763.35 281.16 762.71 287.21 762.45 293.26 762.71 299.21 763.35 305.05 764.47 310.63 766.01 315.89 767.92 320.82 770.26 325.28 772.91 329.37 775.84 332.88 779.08 335.85 782.58 338.24 786.25 340.05 790.08 341.27 783.33 340.05 779.5 338.88 775.84 337.07 772.33 334.68 769.09 331.71 766.11 328.21 763.46 324.17 761.17 319.71 759.21 314.77 757.67 309.51 756.6 303.99 755.91 298.2 755.7 292.31 755.91 286.25 756.6 280.25 757.67 274.25 759.21 268.47 761.17 262.84 763.46 257.47 766.11 252.43 769.09 247.81 772.33 243.61 775.84 239.9 779.5 236.71 783.33 234.11 787.26 232.04 791.24 230.6 795.23 229.75 801.98 230.39"/><line class="cls-14" x1="900.32" y1="243.4" x2="899.52" y2="243.35"/><line class="cls-14" x1="901.01" y1="243.51" x2="900.32" y2="243.4"/><line class="cls-14" x1="901.44" y1="243.61" x2="901.01" y2="243.51"/><line class="cls-14" x1="890.33" y1="218.23" x2="801.98" y2="230.39"/><line class="cls-14" x1="845.97" y1="310.79" x2="913.92" y2="295.6"/><line class="cls-14" x1="911.32" y1="259.65" x2="901.7" y2="261.46"/><line class="cls-14" x1="932.89" y1="290.18" x2="966.47" y2="282.75"/><line class="cls-14" x1="966.47" y1="282.75" x2="973.43" y2="281.16"/><line class="cls-14" x1="973.43" y1="274.57" x2="967.96" y2="273.93"/><line class="cls-14" x1="967.96" y1="273.93" x2="958.76" y2="272.87"/><line class="cls-14" x1="883.85" y1="74.43" x2="890.33" y2="74.38"/><line class="cls-14" x1="918.23" y1="37.26" x2="916.42" y2="37.58"/><line class="cls-14" x1="916.42" y1="37.58" x2="912.06" y2="38.21"/><line class="cls-14" x1="911.32" y1="220.09" x2="944.47" y2="215.36"/><line class="cls-14" x1="944.47" y1="215.36" x2="965.03" y2="212.39"/><line class="cls-14" x1="922.26" y1="310.58" x2="923.38" y2="311.58"/><line class="cls-14" x1="923.38" y1="311.58" x2="923.91" y2="312.12"/><line class="cls-14" x1="913.92" y1="295.6" x2="916.84" y2="294.96"/><line class="cls-14" x1="916.84" y1="294.96" x2="932.89" y2="291.35"/><line class="cls-14" x1="929.6" y1="256.3" x2="914.56" y2="259.07"/><line class="cls-14" x1="914.56" y1="259.07" x2="911.32" y2="259.65"/><line class="cls-14" x1="769.09" y1="331.71" x2="766.11" y2="328.21"/><line class="cls-14" x1="766.11" y1="328.21" x2="763.46" y2="324.17"/><line class="cls-14" x1="763.46" y1="324.17" x2="761.17" y2="319.71"/><line class="cls-14" x1="761.17" y1="319.71" x2="759.21" y2="314.77"/><line class="cls-14" x1="759.21" y1="314.77" x2="757.67" y2="309.51"/><line class="cls-14" x1="757.67" y1="309.51" x2="756.6" y2="303.99"/><line class="cls-14" x1="756.6" y1="303.99" x2="755.91" y2="298.2"/><line class="cls-14" x1="755.91" y1="298.2" x2="755.7" y2="292.31"/><line class="cls-14" x1="755.7" y1="292.31" x2="755.91" y2="286.25"/><line class="cls-14" x1="755.91" y1="286.25" x2="756.6" y2="280.25"/><line class="cls-14" x1="756.6" y1="280.25" x2="757.67" y2="274.25"/><line class="cls-14" x1="757.67" y1="274.25" x2="759.21" y2="268.47"/><line class="cls-14" x1="759.21" y1="268.47" x2="761.17" y2="262.84"/><line class="cls-14" x1="761.17" y1="262.84" x2="763.46" y2="257.47"/><line class="cls-14" x1="763.46" y1="257.47" x2="766.11" y2="252.43"/><line class="cls-14" x1="766.11" y1="252.43" x2="769.09" y2="247.81"/><line class="cls-14" x1="769.09" y1="247.81" x2="772.33" y2="243.61"/><line class="cls-14" x1="772.33" y1="243.61" x2="775.84" y2="239.9"/><line class="cls-14" x1="775.84" y1="239.9" x2="779.5" y2="236.71"/><line class="cls-14" x1="779.5" y1="236.71" x2="783.33" y2="234.11"/><line class="cls-14" x1="783.33" y1="234.11" x2="787.26" y2="232.04"/><line class="cls-14" x1="787.26" y1="232.04" x2="791.24" y2="230.6"/><line class="cls-14" x1="791.24" y1="230.6" x2="795.23" y2="229.75"/><line class="cls-14" x1="883.8" y1="217.7" x2="795.23" y2="229.75"/><line class="cls-14" x1="801.98" y1="341.11" x2="923.38" y2="311.58"/><line class="cls-14" x1="801.98" y1="341.11" x2="797.99" y2="341.75"/><line class="cls-14" x1="797.99" y1="341.75" x2="794.01" y2="341.8"/><line class="cls-14" x1="794.01" y1="341.8" x2="790.08" y2="341.27"/><line class="cls-14" x1="790.08" y1="341.27" x2="786.25" y2="340.05"/><line class="cls-14" x1="786.25" y1="340.05" x2="782.58" y2="338.24"/><line class="cls-14" x1="782.58" y1="338.24" x2="779.08" y2="335.85"/><line class="cls-14" x1="779.08" y1="335.85" x2="775.84" y2="332.88"/><line class="cls-14" x1="775.84" y1="332.88" x2="772.91" y2="329.37"/><line class="cls-14" x1="772.91" y1="329.37" x2="770.26" y2="325.28"/><line class="cls-14" x1="770.26" y1="325.28" x2="767.92" y2="320.82"/><line class="cls-14" x1="767.92" y1="320.82" x2="766.01" y2="315.89"/><line class="cls-14" x1="766.01" y1="315.89" x2="764.47" y2="310.63"/><line class="cls-14" x1="764.47" y1="310.63" x2="763.35" y2="305.05"/><line class="cls-14" x1="763.35" y1="305.05" x2="762.71" y2="299.21"/><line class="cls-14" x1="762.71" y1="299.21" x2="762.45" y2="293.26"/><line class="cls-14" x1="762.45" y1="293.26" x2="762.71" y2="287.21"/><line class="cls-14" x1="762.71" y1="287.21" x2="763.35" y2="281.16"/><line class="cls-14" x1="763.35" y1="281.16" x2="764.47" y2="275.16"/><line class="cls-14" x1="764.47" y1="275.16" x2="766.01" y2="269.31"/><line class="cls-14" x1="766.01" y1="269.31" x2="767.92" y2="263.69"/><line class="cls-14" x1="767.92" y1="263.69" x2="770.26" y2="258.27"/><line class="cls-14" x1="770.26" y1="258.27" x2="772.91" y2="253.22"/><line class="cls-14" x1="772.91" y1="253.22" x2="775.84" y2="248.55"/><line class="cls-14" x1="775.84" y1="248.55" x2="779.08" y2="244.36"/><line class="cls-14" x1="779.08" y1="244.36" x2="782.58" y2="240.64"/><line class="cls-14" x1="782.58" y1="240.64" x2="786.25" y2="237.45"/><line class="cls-14" x1="786.25" y1="237.45" x2="790.08" y2="234.8"/><line class="cls-14" x1="790.08" y1="234.8" x2="794.01" y2="232.73"/><line class="cls-14" x1="794.01" y1="232.73" x2="797.99" y2="231.29"/><line class="cls-14" x1="797.99" y1="231.29" x2="801.98" y2="230.39"/><line class="cls-14" x1="783.33" y1="340.05" x2="790.08" y2="341.27"/><line class="cls-14" x1="795.23" y1="229.75" x2="801.98" y2="230.39"/><line class="cls-14" x1="932.89" y1="256.62" x2="901.7" y2="262.46"/><line class="cls-14" x1="894.48" y1="263.79" x2="886.56" y2="265.23"/><line class="cls-14" x1="879.23" y1="266.61" x2="845.97" y2="272.82"/><line class="cls-14" x1="894.48" y1="262.78" x2="886.56" y2="264.22"/><line class="cls-14" x1="879.23" y1="265.6" x2="842.51" y2="272.39"/><line class="cls-14" x1="845.97" y1="272.82" x2="842.51" y2="272.39"/><line class="cls-14" x1="845.97" y1="310.79" x2="842.51" y2="310.31"/><line class="cls-14" x1="932.89" y1="256.62" x2="929.6" y2="256.3"/><line class="cls-14" x1="801.98" y1="304.2" x2="842.51" y2="310.31"/><line class="cls-14" x1="801.98" y1="296.82" x2="842.51" y2="302.72"/><line class="cls-14" x1="932.89" y1="283.28" x2="973.43" y2="274.57"/><line class="cls-14" x1="883.85" y1="74.43" x2="885.23" y2="63.28"/><line class="cls-14" x1="885.23" y1="63.28" x2="888.26" y2="53.14"/><line class="cls-14" x1="888.26" y1="53.14" x2="892.83" y2="44.64"/><line class="cls-14" x1="892.83" y1="44.64" x2="898.51" y2="38.32"/><line class="cls-14" x1="898.51" y1="38.32" x2="904.94" y2="34.55"/><line class="cls-14" x1="904.94" y1="34.55" x2="911.74" y2="33.54"/><line class="cls-14" x1="890.39" y1="74.38" x2="891.77" y2="63.17"/><line class="cls-14" x1="891.77" y1="63.17" x2="894.8" y2="52.98"/><line class="cls-14" x1="894.8" y1="52.98" x2="899.31" y2="44.43"/><line class="cls-14" x1="899.31" y1="44.43" x2="905" y2="38.11"/><line class="cls-14" x1="905" y1="38.11" x2="911.43" y2="34.34"/><line class="cls-14" x1="911.43" y1="34.34" x2="918.23" y2="33.33"/><line class="cls-14" x1="918.23" y1="33.33" x2="924.87" y2="35.08"/><line class="cls-14" x1="924.87" y1="35.08" x2="931.08" y2="39.44"/><line class="cls-14" x1="931.08" y1="39.44" x2="936.34" y2="46.07"/><line class="cls-14" x1="936.34" y1="46.07" x2="940.49" y2="54.57"/><line class="cls-14" x1="940.49" y1="54.57" x2="943.25" y2="64.39"/><line class="cls-14" x1="943.25" y1="64.39" x2="944.47" y2="75.01"/><line class="cls-14" x1="890.33" y1="218.23" x2="944.47" y2="210.8"/><line class="cls-14" x1="911.74" y1="33.54" x2="918.23" y2="33.33"/><line class="cls-14" x1="942.19" y1="75.39" x2="941.07" y2="65.56"/><line class="cls-14" x1="941.07" y1="65.56" x2="938.57" y2="56.59"/><line class="cls-14" x1="938.57" y1="56.59" x2="934.75" y2="48.83"/><line class="cls-14" x1="934.75" y1="48.83" x2="929.91" y2="42.78"/><line class="cls-14" x1="929.91" y1="42.78" x2="924.28" y2="38.85"/><line class="cls-14" x1="924.28" y1="38.85" x2="918.23" y2="37.26"/><line class="cls-14" x1="912.06" y1="38.21" x2="906.22" y2="41.67"/><line class="cls-14" x1="906.22" y1="41.67" x2="901.06" y2="47.45"/><line class="cls-14" x1="901.06" y1="47.45" x2="896.92" y2="55.26"/><line class="cls-14" x1="896.92" y1="55.26" x2="894.16" y2="64.5"/><line class="cls-14" x1="894.16" y1="64.5" x2="892.88" y2="75.28"/><line class="cls-14" x1="892.88" y1="213.88" x2="942.19" y2="207.29"/><line class="cls-14" x1="932.2" y1="48.89" x2="927.36" y2="42.89"/><line class="cls-14" x1="927.36" y1="42.89" x2="921.73" y2="38.9"/><line class="cls-14" x1="921.73" y1="38.9" x2="916.42" y2="37.58"/><line class="cls-14" x1="892.88" y1="213.29" x2="939.64" y2="207.08"/><line class="cls-14" x1="939.64" y1="75.39" x2="938.52" y2="65.61"/><line class="cls-14" x1="938.52" y1="65.61" x2="935.97" y2="56.64"/><line class="cls-14" x1="935.97" y1="56.64" x2="932.2" y2="48.89"/><line class="cls-14" x1="942.19" y1="207.29" x2="939.64" y2="207.08"/><line class="cls-14" x1="931.19" y1="315.89" x2="933.1" y2="316.26"/><line class="cls-14" x1="929.28" y1="315.3" x2="931.19" y2="315.89"/><line class="cls-14" x1="927.42" y1="314.45" x2="929.28" y2="315.3"/><line class="cls-14" x1="925.66" y1="313.39" x2="927.42" y2="314.45"/><line class="cls-14" x1="923.91" y1="312.12" x2="925.66" y2="313.39"/><line class="cls-14" x1="920.67" y1="308.82" x2="922.26" y2="310.58"/><line class="cls-14" x1="919.18" y1="306.86" x2="920.67" y2="308.82"/><line class="cls-14" x1="917.8" y1="304.68" x2="919.18" y2="306.86"/><line class="cls-14" x1="916.58" y1="302.34" x2="917.8" y2="304.68"/><line class="cls-14" x1="915.41" y1="299.8" x2="916.58" y2="302.34"/><line class="cls-14" x1="914.4" y1="297.09" x2="915.41" y2="299.8"/><line class="cls-14" x1="913.92" y1="295.6" x2="914.4" y2="297.09"/><line class="cls-14" x1="914.56" y1="220.35" x2="968.22" y2="212.65"/><line class="cls-14" x1="967.96" y1="273.93" x2="968.22" y2="270.91"/><line class="cls-14" x1="966.31" y1="283.6" x2="966.47" y2="282.75"/><line class="cls-14" x1="965.51" y1="286.68" x2="966.31" y2="283.6"/><line class="cls-14" x1="964.56" y1="289.71" x2="965.51" y2="286.68"/><line class="cls-14" x1="963.55" y1="292.57" x2="964.56" y2="289.71"/><line class="cls-14" x1="962.38" y1="295.39" x2="963.55" y2="292.57"/><line class="cls-14" x1="961.1" y1="298.1" x2="962.38" y2="295.39"/><line class="cls-14" x1="959.77" y1="300.65" x2="961.1" y2="298.1"/><line class="cls-14" x1="958.29" y1="303.03" x2="959.77" y2="300.65"/><line class="cls-14" x1="956.75" y1="305.32" x2="958.29" y2="303.03"/><line class="cls-14" x1="955.15" y1="307.39" x2="956.75" y2="305.32"/><line class="cls-14" x1="953.45" y1="309.25" x2="955.15" y2="307.39"/><line class="cls-14" x1="951.7" y1="311" x2="953.45" y2="309.25"/><line class="cls-14" x1="949.84" y1="312.49" x2="951.7" y2="311"/><line class="cls-14" x1="947.98" y1="313.76" x2="949.84" y2="312.49"/><line class="cls-14" x1="946.07" y1="314.82" x2="947.98" y2="313.76"/><line class="cls-14" x1="944.15" y1="315.67" x2="946.07" y2="314.82"/><line class="cls-14" x1="942.19" y1="316.31" x2="944.15" y2="315.67"/><line class="cls-14" x1="940.22" y1="316.68" x2="942.19" y2="316.31"/><line class="cls-14" x1="938.26" y1="316.84" x2="940.22" y2="316.68"/><line class="cls-14" x1="936.34" y1="316.74" x2="938.26" y2="316.84"/><line class="cls-14" x1="934.38" y1="316.36" x2="936.34" y2="316.74"/><line class="cls-14" x1="932.52" y1="315.78" x2="934.38" y2="316.36"/><line class="cls-14" x1="930.66" y1="314.93" x2="932.52" y2="315.78"/><line class="cls-14" x1="928.85" y1="313.87" x2="930.66" y2="314.93"/><line class="cls-14" x1="927.15" y1="312.54" x2="928.85" y2="313.87"/><line class="cls-14" x1="925.5" y1="311.05" x2="927.15" y2="312.54"/><line class="cls-14" x1="923.91" y1="309.25" x2="925.5" y2="311.05"/><line class="cls-14" x1="922.42" y1="307.28" x2="923.91" y2="309.25"/><line class="cls-14" x1="921.04" y1="305.16" x2="922.42" y2="307.28"/><line class="cls-14" x1="919.82" y1="302.77" x2="921.04" y2="305.16"/><line class="cls-14" x1="918.65" y1="300.22" x2="919.82" y2="302.77"/><line class="cls-14" x1="917.64" y1="297.57" x2="918.65" y2="300.22"/><line class="cls-14" x1="916.84" y1="294.96" x2="917.64" y2="297.57"/><line class="cls-14" x1="911.32" y1="220.09" x2="914.56" y2="220.35"/><line class="cls-14" x1="965.03" y1="212.39" x2="968.22" y2="212.65"/><line class="cls-14" x1="933.1" y1="316.26" x2="936.34" y2="316.74"/><line class="cls-14" x1="886.29" y1="294.38" x2="886.56" y2="294.22"/><line class="cls-14" x1="885.76" y1="294.54" x2="886.29" y2="294.38"/><line class="cls-14" x1="885.07" y1="294.64" x2="885.76" y2="294.54"/><line class="cls-14" x1="884.22" y1="294.7" x2="885.07" y2="294.64"/><line class="cls-14" x1="883.27" y1="294.75" x2="884.22" y2="294.7"/><line class="cls-14" x1="881.41" y1="294.7" x2="882.31" y2="294.75"/><line class="cls-14" x1="880.56" y1="294.64" x2="881.41" y2="294.7"/><line class="cls-14" x1="879.92" y1="294.54" x2="880.56" y2="294.64"/><line class="cls-14" x1="879.44" y1="294.38" x2="879.92" y2="294.54"/><line class="cls-14" x1="879.23" y1="294.22" x2="879.44" y2="294.38"/><line class="cls-14" x1="886.56" y1="246.22" x2="886.35" y2="246.11"/><line class="cls-14" x1="886.29" y1="246.48" x2="886.56" y2="246.37"/><line class="cls-14" x1="885.76" y1="246.59" x2="886.29" y2="246.48"/><line class="cls-14" x1="885.07" y1="246.69" x2="885.76" y2="246.59"/><line class="cls-14" x1="884.22" y1="246.75" x2="885.07" y2="246.69"/><line class="cls-14" x1="883.27" y1="246.8" x2="884.22" y2="246.75"/><line class="cls-14" x1="881.41" y1="246.75" x2="882.31" y2="246.8"/><line class="cls-14" x1="880.56" y1="246.69" x2="881.41" y2="246.75"/><line class="cls-14" x1="879.92" y1="246.59" x2="880.56" y2="246.69"/><line class="cls-14" x1="879.44" y1="246.48" x2="879.92" y2="246.59"/><line class="cls-14" x1="879.23" y1="246.37" x2="879.44" y2="246.48"/><line class="cls-14" x1="879.28" y1="246.22" x2="879.23" y2="246.37"/><line class="cls-14" x1="879.55" y1="246.11" x2="879.28" y2="246.22"/><line class="cls-14" x1="880.08" y1="246" x2="879.55" y2="246.11"/><line class="cls-14" x1="880.77" y1="245.9" x2="880.08" y2="246"/><line class="cls-14" x1="881.62" y1="245.84" x2="880.77" y2="245.9"/><line class="cls-14" x1="885.23" y1="245.9" x2="884.43" y2="245.84"/><line class="cls-14" x1="885.92" y1="246" x2="885.23" y2="245.9"/><line class="cls-14" x1="886.35" y1="246.11" x2="885.92" y2="246"/><line class="cls-14" x1="901.65" y1="290.93" x2="901.7" y2="290.77"/><line class="cls-14" x1="901.38" y1="291.09" x2="901.65" y2="290.93"/><line class="cls-14" x1="900.91" y1="291.25" x2="901.38" y2="291.09"/><line class="cls-14" x1="900.21" y1="291.35" x2="900.91" y2="291.25"/><line class="cls-14" x1="899.42" y1="291.46" x2="900.21" y2="291.35"/><line class="cls-14" x1="895.8" y1="291.35" x2="896.6" y2="291.46"/><line class="cls-14" x1="895.17" y1="291.25" x2="895.8" y2="291.35"/><line class="cls-14" x1="894.69" y1="291.09" x2="895.17" y2="291.25"/><line class="cls-14" x1="894.48" y1="290.93" x2="894.69" y2="291.09"/><line class="cls-14" x1="901.7" y1="243.72" x2="901.44" y2="243.61"/><line class="cls-14" x1="901.65" y1="243.88" x2="901.7" y2="243.72"/><line class="cls-14" x1="901.38" y1="243.99" x2="901.65" y2="243.88"/><line class="cls-14" x1="900.91" y1="244.09" x2="901.38" y2="243.99"/><line class="cls-14" x1="900.21" y1="244.14" x2="900.91" y2="244.09"/><line class="cls-14" x1="899.42" y1="244.25" x2="900.21" y2="244.14"/><line class="cls-14" x1="895.8" y1="244.14" x2="896.6" y2="244.25"/><line class="cls-14" x1="895.17" y1="244.09" x2="895.8" y2="244.14"/><line class="cls-14" x1="894.69" y1="243.99" x2="895.17" y2="244.09"/><line class="cls-14" x1="894.48" y1="243.88" x2="894.69" y2="243.99"/><line class="cls-14" x1="894.74" y1="243.61" x2="894.48" y2="243.72"/><line class="cls-14" x1="895.27" y1="243.51" x2="894.74" y2="243.61"/><line class="cls-14" x1="895.96" y1="243.4" x2="895.27" y2="243.51"/><line class="cls-14" x1="896.76" y1="243.35" x2="895.96" y2="243.4"/><line class="cls-14" x1="801.98" y1="296.82" x2="842.51" y2="288.7"/><line class="cls-14" x1="883.8" y1="217.7" x2="890.33" y2="218.23"/><line class="cls-14" x1="932.89" y1="278.29" x2="958.76" y2="272.87"/><line class="cls-14" x1="783.33" y1="340.05" x2="779.5" y2="338.88"/><line class="cls-14" x1="775.84" y1="337.07" x2="772.33" y2="334.68"/><line class="cls-14" x1="779.5" y1="338.88" x2="775.84" y2="337.07"/><line class="cls-14" x1="772.33" y1="334.68" x2="769.09" y2="331.71"/><ellipse class="cls-15" cx="854.22" cy="618.47" rx="105.09" ry="17.8" transform="translate(-107.82 186.41) rotate(-11.72)"/></g><g id="Livello_3" data-name="Livello 3"><path class="cls-16" d="M1022.49,203.29c.11-.13.26-.37.33-.35,9.26,2.54,11.39-4.49,14.2-10.58.62-1.35,1.12-2.76,1.68-4.14,1.52-.59,3.09-.08,4.63-.19,8.14-.41,16.55,1.35,24.17-3.09a12,12,0,0,1,2.19-.74,8.05,8.05,0,0,1,2.93-.3c4.61.66,6.23,3.8,6.55,8,.08,1.08-.41,2.43,1.44,2.41l0,0a20.58,20.58,0,0,0,3.11,4c8,7.25,15,15.3,19.91,25,.87,1.73,1.92,3.36,2.88,5-1.16,1.76.54,3.21.53,4.84.56,2.77.59,5.63,1.5,8.33.71,3.17-.08,6.47.88,9.62a8.66,8.66,0,0,1,0,3.21,16.59,16.59,0,0,0-.56,5.39c.12,8,.1,16.08,1.75,24a19.29,19.29,0,0,1-.08,6.9c-.11.65.07,1.05.1.38a2.38,2.38,0,0,1,.49-.06,1.67,1.67,0,0,1,1,.77,6.37,6.37,0,0,1,.28,4.13c-.18.8-.54,1.55-.8,2.33s-1.19,1.22-.26,2c-.25-1.46.57-1.06,1.34-.76,1.48,8.05,4.56,15.93,2.32,24.31-.5.45-1,.81-1.67.22-.39-.34,0-1-.62-1.23.27.4.07,1,.45,1.33a1.45,1.45,0,0,1,.62,1.22,3,3,0,0,1-.91,1.24c-4.35,2.07-9.13,1.57-13.66,1.91-13.85,1.05-27.69,2.25-41.55,3.29-2.55.19-5,.36-6.13,3.21-4.41,9.46-8.77,19-15,27.46-2.37,1.05-3.44,2.76-2.66,5.38-.41,3.91-3.22,6.49-5.37,9.4-1.68,2.28-3.08,4.73-4.67,7.05a2.77,2.77,0,0,1-1.34.29c1.14,2.48.62,5.18,1.08,7.74.21,1.14,1.25.65,2,.66a3.42,3.42,0,0,1,1.78.78c3.56,1.08,7.45-.51,10,1,.92.33,1,.27,1,.14-.71-.35-1.88.21-2.11-1.08,1.75-2.75,4.92-1.28,7.2-2.45a20.58,20.58,0,0,1,3.31-.45c9.81-.82,19.52-2.42,29.29-3.49a18.1,18.1,0,0,1,4.09-.43,15.93,15.93,0,0,0,5.45-.6,22,22,0,0,1,4.72-.41,18,18,0,0,0,6.15-.58,44.51,44.51,0,0,0,5.47-1.1,45.69,45.69,0,0,1,7.39-.36c3.44-.11,6.91.37,10.32-.37,1.94-.69,4.38,0,5.79-2.13,1.24-2.12.32-4.64,1.25-6.82a3.64,3.64,0,0,1,2-2.11c3.48-1.18,1.22-2,0-3.3-2.22-2.33-1.58-5.54-2.18-8.38-.77-3.66-.57-7.76-4-10.42-1.23-1.14-1.23-2.59-1-4.08,1-3.26,2.66-4,5.39-1.67,2,1.71,4.23,3.26,6.09,5.11,3.87,3.85,2.54,8.37.72,12.78,0,.63,1.23,0,.57,0-.31,0-.33-.14-.3-.42.07-.66,0-1.48.69-1.73s1.25.31,1.49,1c.84,2.26,1.46,5.3-.08,6.65-2.48,2.17-.27,3.54-.12,5.25,0-1-.5-2.25.66-2.69,1.38-.51,1.65.84,1.72,1.74.35,4.07,1.68,8.31,1.71,12,.08,8.56,3.68,16.33,3.81,24.74.06,4.53,1.5,8.92,2.11,13.41,1.14,4.62,2.12,9.28,3.49,13.85,2.68,15.58,5.43,31.15,8,46.75.78,4.7,2.58,9.27,2.1,14.15.15.76,0,1.41-.9,1s-.57-1.3-.64-.94c2.57,5.66,2.48,12.3-.36,18.84.69-.89.78-2.86,2.49-1.1a8.28,8.28,0,0,1,2.39,5.34,32.55,32.55,0,0,0,2.31,9.06c2,4.45.11,9.2,1.32,13.89,2,7.61,4.25,15.19,5.31,23a104.42,104.42,0,0,1,3,17c.27,3.52-1.09,5.5-4.81,6.2-9.72,1.84-19.49,3.59-29,6.1-6.68,1.76-13,4.86-20.13,4.73-6.56,2.74-13.42,1.64-20,1-11.79-1.19-23.1-.73-33.88,4.92a65.25,65.25,0,0,1-13,4.75c-4.13,1.13-8.68-.21-13-.69-.21-.25-.56-.47-.62-.75-1.69-7.32-1.69-7.31-9.36-7.32a55.25,55.25,0,0,1-6.44-.12c-7.3-.88-7.5-.93-7.52-8.36,0-3.85-2.23-4.28-5.06-4.46-5.19-2.22-10.7-.28-16.08-1.33-5.79-1.14-7-1.52-6.86-7.17,0-2.41-.8-5,1.11-7.2,2.85-1.71,2.3-4.59,2.32-7.17.06-15.32,0-30.64,0-46,0-4.46-.58-9,2.67-12.88.08-.64-.33-.47-.34-.41-.55,3-2.06,4.46-5.22,3.07-1.24-3.87-.57-7.85-.55-11.76,0-5.4-.48-10.79-.09-16.19l0,0c1.34-6.61-.08-13.37,1-20l.06-4c.35-.36.79-.74.78-1.23-.14-15.32,1.36-30.53,2.82-45.75.06-.65,0-1.32,0-2A9.72,9.72,0,0,1,994.7,403c2.94-3.46,2.25-7.73,2.67-11.77.11-1.1.2-2.51,1.57-2.75s.94,1.48,1.7,2a11,11,0,0,1,.34,5.28c-.13-1.17.71-3.41-.56-5.62-.73-2.18-1.63-4.35-.72-6.69a4.43,4.43,0,0,1,.88-1.05c.42-.38.76.24,1.14,0a1,1,0,0,0-1.25,0c-1.32.37-1.93-.76-2.82-1.3a8,8,0,0,1-2.13-2.61c-2.59-4.58-7.32-7.08-10.66-11-1.69-2-2.66,1.46-4.27.81-4.89-9.68,4.23-13.79,8-20,2.52-8.62,4.91-17.25,3.57-26.41a4.62,4.62,0,0,1,1.37-3.58l2.09-3c1.21-1.9,2.58-3.73,2.92-6v0c2.37-6.1,3.75-12.5,5.68-18.72.93-3-1.66-7.28,3.13-8.91-1.85-8.39,4.24-15.35,4.22-23.41a3,3,0,0,1,.07-.94c4.44-7,4.15-15.3,5.91-23l0,0c2-5.06,1.18-10.55,2.38-15.82C1021,213.56,1020.83,208.25,1022.49,203.29Z"/><path class="cls-17" d="M1068.59,185.5c-4.27,3.5-9.27,4.28-14.6,4-3.8-.18-7.62-.16-11.43-.22a4.59,4.59,0,0,0-4.83-3c-3.3-3.33-5.72-7.32-8.37-11.14-2.06-3-2.66-6.22-2.67-9.88,0-13,3.29-25.71,4-38.71.52-10.19,16.3-22.36,26.41-21.46,4.63.42,9.27,1,13.84,1.87,14.35,2.7,24,12.67,26.43,27.08a126.53,126.53,0,0,1,1.28,24.91c-.17,5.29-2.34,8.92-6.92,11.76-5,3.09-11,4.95-14.11,10.66a5,5,0,0,1-5,3.27l-2.09.59a14.66,14.66,0,0,0-3-1.57C1067.85,184.27,1069.41,184.17,1068.59,185.5Z"/><path class="cls-18" d="M1040.55,610.29c9.85,1.62,18.66-2.06,27-6.2,9.54-4.71,19.51-5.56,29.59-4.54,7.82.79,15.59.38,23.38.78-.54,9.64,1.75,19.29,0,28.93-2.87,3-7.66,1.8-10.44,4.92-.56.08-1.59.67-1.54.9.77,3.72,1.41,7.42-.38,11.06-5.13,3-10.7,1.18-16.07,1.47a15.68,15.68,0,0,1-3-.38c-7.61-1-7.88-.75-8.19,6.78-.1,2.28.84,5.14-2.34,6.37l-.15-10.45c-.08-5-.61-5.44-5.6-3.85-4.1,1.3-8.23,2.58-12.2,4.22-3,1.23-3.68.23-4.18-2.59-1.77-10.06-4-20-5.62-30.12-.77-4.73-2.52-7.3-7.66-6.32A2.55,2.55,0,0,1,1040.55,610.29Z"/><path class="cls-19" d="M1118.44,651.16c6.67,7.28,6.78,17.14,10.07,25.75,1.89,5-1.42,11.2-6.63,12.17-2.7.5-4,1.38-4.84,3.95-2.16,6.6-7.36,8.72-13.84,9.29-12.72,1.12-25.24-1.83-37.79-1.68-10.5.13-19.69-3.43-29.33-6-4.36-1.18-5.46-4.25-5.56-8.29-.11-4.27,2.7-5.92,6-6.83,6.84-1.85,14-2.05,20.73-4.79,7.18-2.91,13.92-6.11,19-12.08,1-1.17,1.78.76,2.34-.38,2.4,0,2.09,2.23,2.7,3.59a15.23,15.23,0,0,0,4.75,6.27c5.72,4.26,9.16,3.77,13.3-2.07a10.56,10.56,0,0,1,3.45-3.52c2.83-.86,4.77-3.23,7.52-4.32a3.27,3.27,0,0,0,1.83-4.11C1113.3,654.92,1115.19,652.42,1118.44,651.16Z"/><path class="cls-20" d="M1145.51,423.33c-.57-.57-1.75-1.33-1.64-1.68,1.66-5.18-2.33-9.76-1.44-14.9.42-2.41.66-5.07-1.85-7.09-.82-.66-1.18-2.54-1-3.73,1.39-8.35-3.34-16.08-2.8-24.44l-.57,6.05c-1.39-2.85-1.64-5.89-3.59-8.37-.44-.56-.71-3.27,1.77-1.24,1.42,1.16,1.06-.42,1.08-1,.07-1.82,0-3.65,0-5.58-1.74.5-.43,2.14-1.45,2.82-.15-.13-.47-.28-.48-.44a7.43,7.43,0,0,1,0-3c2.39-5.92-.51-9.85-4.94-13.07a14.27,14.27,0,0,1-2.91-2.57c-2.17-2.65-2.43.06-3.22,1.22-3.81-1.52-3-5.35-3.77-8.2-.88-3.36-2.3-5.62-5.81-6.25-.83-.7-.73-1.77.13-1.9,3.69-.55,2.94-3.19,2.87-5.57.46-8.73-2.14-17.09-2.92-25.66-.38-4.1-1.28-8.12-1.86-12.2.38-3.79-1.62-7.44-.71-11.27.46-2.09,1.42-4.19-.12-6.25a5.7,5.7,0,0,1-.66-1.36,20.24,20.24,0,0,1-.48-5.38c0-1.55,0-3.1,0-4.65-.15-1.76.66-3.52,0-5.29a22.58,22.58,0,0,1-.62-2.94c0-1,0-2,0-3-.07-1.71.23-3.46-.43-5.12a4.42,4.42,0,0,1-.35-2.95,2,2,0,0,1,1-1.14c6.86,13.75,14.42,27.26,14.77,43.23a27.42,27.42,0,0,0,1,7.86c2.45,5,2.43,10.6,3.61,15.89a316.38,316.38,0,0,1,5.9,34.64c1.28,12,4.64,23.54,5.48,35.53a21.6,21.6,0,0,0,1,7.94c1.77,3.12,1,6.74,1.94,10v0c1.8,5.53,2.31,11.29,3,17l0,0c1.24,1.53-.12,3.56,1,5.11,0,1.93.07,3.86.1,5.78C1147.36,421.66,1146.85,422.63,1145.51,423.33Z"/><path class="cls-21" d="M960.65,384.37c2.2-.17,3.26-2.14,4.94-3.14a53.09,53.09,0,0,1,6.09-3.81l0,0c1.57-3.53,6.35-3.51,7.86-7.11l1-1.15c3,.73,6.44-.34,9,2.83s4,6.25,2.12,10.2c-.89,2-2.27,3.84-2.47,6.14a6.32,6.32,0,0,1-1.34,3.09c-4.57.43-2.73,4.67-4.15,7l0,0c-2.73,1.07-2.95,3.84-4,6-.86,2.88-2.31,5.61-2.12,8.74-.82,3.95-4,4.27-7.16,4.6-3.78.39-7.57-.19-11.31-.62a11,11,0,0,0-6.64,1.07c-3.54,2.09-5.53.87-6.28-3-.87-4.44-1.19-8.83,1.51-12.85,2.41-3.47,2.1-8.38,5.88-11.13.76-1.8,1.15-3.84,3.07-4.93C957.69,385.22,959.29,385,960.65,384.37Z"/><path class="cls-22" d="M1103.36,667.23a13.45,13.45,0,0,0-2.37,2.47c-2.09,3.76-4.56,7.36-9.42,6.46-5.07-.95-8.85-4.2-11.15-8.9-.78-1.6-1.24-3.35-1.86-5l.06-1.85c1.53-2.82.64-5.87.72-8.8.16-6.46.08-6.73,6.67-6.12,5.8.53,11.58.82,17.39.79,1.95,0,4.09.38,5.24-1.9.83-3.32-.5-6.81.8-10.09,0-2,.81-2.93,2.87-3.22,2.77-.39,5.49-1.17,8.23-1.78.55,7.42-1.85,14.56-2.1,21.9l-6.07,7.08C1111.09,663,1105.88,663.75,1103.36,667.23Z"/><path class="cls-23" d="M989.57,574.3c0,2.31,0,4.63,0,7,0,4.39,2.49,6.13,6.6,6,2.94-.07,5.8,1.82,9-.61.93-.71,4.22,1.65,6.43,2.6-6.81.46-13.55-.57-20.32-1-2.44-.16-3.6-1.13-3.6-3.66q.06-50.05.08-100.1a7.34,7.34,0,0,1,.83-2.25c1.75,9.29.79,18.68,1,28,1.71,1.91,1.6,4.29,1.61,6.6q.06,25.4,0,50.78C991.17,570,991.28,572.38,989.57,574.3Z"/><path class="cls-24" d="M1139.49,374.41c-2.77-10.4-4-21.09-5.93-31.65-2.89-16-5.56-32-8.48-48a36.58,36.58,0,0,1-.58-6.42c1.54,1.51,2.53,1.65,3-1,0,2.69,0,5.39,0,8.09,0,2.34-.17,4.65,1.91,6.39a2.35,2.35,0,0,1,.86,2.68c-2.12,5.39,1.38,9.69,2.7,14.41a9.92,9.92,0,0,1,.51,2.38,106.73,106.73,0,0,0,1.83,17.32c1.15,6.35-.16,13.3,2.4,19.34C1140.06,363.47,1139.19,368.91,1139.49,374.41Z"/><path class="cls-25" d="M1011.53,258.29c.9,5.79-1.36,11-3.18,16.23-.76,2.21-.2,5.37-1.06,6.52-3.18,4.26-1.38,9.16-2.56,13.62-1.09,4.08-4.44,7.55-3.59,12.21.31,1.72-1.59,1.81-2.64,2.46,1.25-3.88.49-8.12,2.08-11.94,1.08-1.16-.28-2.91,1-4a3.49,3.49,0,0,0,.06-.91c1.1-1.89-.33-4.54,1.84-6.11C1006.31,277,1007.79,267.34,1011.53,258.29Z"/><path class="cls-26" d="M1164.5,529.31c-4.11-3.24-2.25-8.6-4.55-12.65-2.4-4.23-1.06,2.3-2.56-.08.87-6.65,1.75-13.92.73-21.27.2.7.38,1.41.61,2.1,0,.08.32.14.46.11s.27-.19.4-.3a178.75,178.75,0,0,1,5,29A2.77,2.77,0,0,1,1164.5,529.31Z"/><path class="cls-27" d="M1164.5,529.31l.06-3.13c3,10.07,3.55,20.62,5.85,30.84.67,3,1.57,6.09,1.1,9.28-1.59-2.41-1.5-5.27-2.22-7.91-1.6-5.85-4.46-11.53-5-17.44C1163.94,537.29,1164.86,533.23,1164.5,529.31Z"/><path class="cls-28" d="M990.56,382.34c1.9-7.83-1.47-11.94-9-11.09-1.71.19-.64-1.39-1-2.06a1.31,1.31,0,0,1,.08-.85c1.67-3.71,3.47-4.67,6.18-.7s8.1,5.64,9.79,10.66c-.84,1.79-2.51,2.79-3.86,4.09l-.32-.13C991.8,382.94,991.19,382.83,990.56,382.34Z"/><path class="cls-23" d="M994.52,409.25c.39,7.92-2.19,15.54-2.3,23.44-.11,7.71-2.49,15.33-.8,23.13.23,1.06,1.2,3.49-1.84,2.51-.68-9.68,1.51-19.26,1-28.93,1.45-4.15-.8-8.49.59-12.59C992.06,414.21,991.23,410.79,994.52,409.25Z"/><path class="cls-29" d="M994.52,409.25a55,55,0,0,0-3,14.92c-.11,1.77.5,3.69-.93,5.23a62.83,62.83,0,0,1,.66-22.43c.52-2.72,2.75-5.11,4.2-7.64,1.34,1.32,1,2.65,0,4C994,405.1,994.73,407.25,994.52,409.25Z"/><path class="cls-26" d="M1022.49,203.29c.2.26.63.59.57.77-3,9.53-1.39,19.76-4.54,29.25-.14.41-.68.7-1,1-.29-9.36,1.39-18.49,3.2-27.6A5.41,5.41,0,0,1,1022.49,203.29Z"/><path class="cls-30" d="M993.49,318.32c-1.65,5.44.89,11-.81,16.54-1.37,4.48-.69,9.58-4.13,13.45-2.67-4,1.52-6.69,2.1-10.09a84.86,84.86,0,0,0,.7-17.72C991.27,318.38,992,318.32,993.49,318.32Z"/><path class="cls-26" d="M1017.51,234.32c-.59,8,1,16.63-5.91,23A161.4,161.4,0,0,1,1017.51,234.32Z"/><path class="cls-31" d="M995.49,403.31l0-4,.15-2.9c.72-4,.77-8.16,2-12.1a2.91,2.91,0,0,0,0-.93c.66-.91-.26-2.29.9-3l2,2v8c-.67,0-1.81-2.57-1.95.21-.16,3.27,0,6.53-1,9.75C997.24,401.63,996.87,402.77,995.49,403.31Z"/><path class="cls-32" d="M952.39,418.24c3-3.44,6.86-1.59,10.28-1.45,2.8.11,5.62.4,8.43.27s5.16-1.1,6.4-3.87c.35,5.22-3.88,4.84-6.85,5C964.58,418.57,958.48,418.27,952.39,418.24Z"/><path class="cls-31" d="M1072.61,184.7l5-3.27,3,12.86c-1.84,2.1-3.11.85-2.68-1C1079.07,188.38,1076.29,186.36,1072.61,184.7Z"/><path class="cls-33" d="M953.5,391.3c-1.94,3.72-2.54,8.15-5.88,11.13-.61-3.58,2.28-6.26,2.49-9.7C950.19,391.37,951.72,390.27,953.5,391.3Z"/><path class="cls-34" d="M1145.51,423.33l1-3.09c1.72,5.22,2.26,10.66,2.94,16.08A38.31,38.31,0,0,1,1145.51,423.33Z"/><path class="cls-23" d="M989.52,462.3c-.12,6.68,1,13.42-1,20C988.93,475.64,987.6,468.89,989.52,462.3Z"/><path class="cls-35" d="M979.56,370.34c-1.22,3.92-4.73,5.31-7.86,7.11-1.65-3.37,2.67-5.45,3-5.27C977.36,373.75,977.89,370.62,979.56,370.34Z"/><path class="cls-36" d="M1145.48,409.37a79.31,79.31,0,0,1-3-17C1145.83,397.6,1145.72,403.47,1145.48,409.37Z"/><path class="cls-37" d="M987.48,391.3c.38-1,0-2.21,1.12-2.9.52-1.48.63-3.31,2.84-3.37,2.1,4.22-1,5.71-3.86,7.31-.3-.2-.42-.42-.35-.66S987.38,391.3,987.48,391.3Z"/><path class="cls-38" d="M1037.73,186.34c4-2.54,4.27-2.39,4.83,3-1.58.66-2.7-.3-3.86-1.1Z"/><path class="cls-37" d="M998.52,380.35c0,1.1.12,2.25-.9,3-1.36-1.71-3.24-.87-4.92-1a5.64,5.64,0,0,1,3.86-4.09C997.22,379,997.87,379.67,998.52,380.35Z"/><path class="cls-39" d="M987.48,391.3c0,.35.07.69.1,1l-3.94,6.08a28.78,28.78,0,0,0-.09-3.48C983.09,391.76,983.65,389.8,987.48,391.3Z"/><path class="cls-39" d="M979.62,404.45c.43-2.62-1-6.5,4-6A12.67,12.67,0,0,1,979.62,404.45Z"/><path class="cls-40" d="M1108.71,237.26l-.35,1.22c-.78.89.23,2.37-1,3.11-1.47-2.93-.64-6.1-.93-9.15-.41-1,.07-1.18.93-1Q1108,234.35,1108.71,237.26Z"/><path class="cls-39" d="M991.44,385l-2.84,3.37c-1.67-2.77,1.1-4.11,2-6.06l1.82-.08A3,3,0,0,1,991.44,385Z"/><path class="cls-37" d="M997.59,384.33a34.37,34.37,0,0,1-2,12.1C995.52,392.27,995.21,388.08,997.59,384.33Z"/><path class="cls-36" d="M1142.48,392.37c-1.4-3.19-1.66-6.61-1.94-10C1143.63,385.22,1142.2,389,1142.48,392.37Z"/><path class="cls-41" d="M1003.45,286.34c-.5,2.07-.52,4.28-1.85,6.1C1003.19,290.7,998.05,286.93,1003.45,286.34Z"/><path class="cls-35" d="M971.68,377.42a10.5,10.5,0,0,1-6.09,3.81A7.4,7.4,0,0,1,971.68,377.42Z"/><path class="cls-25" d="M998.5,309.31c1.19,3.05-1.19,4.38-2.92,6A12.13,12.13,0,0,1,998.5,309.31Z"/><path class="cls-33" d="M960.65,384.37a6.09,6.09,0,0,1-4.08,2C957.17,384.15,958.58,383.58,960.65,384.37Z"/><path class="cls-31" d="M1083.7,198.33c-1.8-.75-3.1-1.89-3.11-4A6.31,6.31,0,0,1,1083.7,198.33Z"/><path class="cls-41" d="M1001.55,293.36c-.08,1.4.34,2.92-1,4C1000.56,296,999.13,294.2,1001.55,293.36Z"/><path class="cls-36" d="M1146.46,414.45c-1.49-1.48-.83-3.37-1-5.11C1147.23,410.77,1146.29,412.71,1146.46,414.45Z"/><path class="cls-42" d="M1107.35,231.45l-.93,1c-1.06-1.37-1.36-2.72.07-4Z"/><path class="cls-43" d="M1112.51,331.18c4.64-.76,6.46,1.56,7.25,5.89.58,3.14,1,6.44,2.75,9.3a6,6,0,0,0,1,4.12c1.56,1.27,1,3.27,1.64,4.84-.82,3.87,1.11,8-1,10.83-.3,1.58,1,1.12.29,1.08-.29,0-.42-.1-.38-.24.37-1.5.16-3.37,2.33-3.77,1.37,3.58,2.57,7.19,1.29,11.08-.41,2.82,1,5.84-1,8.47-9.21,2.51-18.76,1.18-28.08,2.5a190.43,190.43,0,0,1-20.22,2.17,1.72,1.72,0,0,0-1.51,1.1c-10.07,1.67-20.17,3-30.35,3.71-2-1-4.18-.05-6.14-.56-.75,0-.11,1.13-.17.47,0,0,.06,0,.18-.05,1.24-.41,2.46-.61,3.53.42l-7.62,1.67a15.58,15.58,0,0,1-9.69,0l-1.09-.69c-3.06-2.51-2.29-5.93-2.16-9.19-.22-2.16,1.09-3.61,2.29-5.18,2.87-3.73,6.27-7.12,7.74-11.78a4.8,4.8,0,0,1,2.35-4.66l15-27.19c5-2.89,10.61-2.14,16-2.57,12.73-1,25.49-1.74,38.22-2.83C1107.48,329.86,1110.18,329.31,1112.51,331.18Z"/><path class="cls-35" d="M1112.51,331.18l-61.82,4.3c-.75-4,1.47-4.9,5-5.14,18.28-1.27,36.54-2.69,54.8-4.12a14.47,14.47,0,0,0,3.27-1.05c1-.48,2-.75,2.74.39C1120.82,331.42,1114.46,329.75,1112.51,331.18Z"/><path class="cls-44" d="M989.57,574.3v-64c5.72-.29,3.17-5.39,4.66-8.8,2,2.74,2,5.73.94,7.45-2,3.16-1.57,6.33-1.58,9.56-.05,17.12-.08,34.24,0,51.36C993.63,572.9,993.09,574.81,989.57,574.3Z"/><path class="cls-45" d="M1116.45,325.56l-2.74-.39a1,1,0,0,0-.07-.71h0c1.49-3.33,1-6.82.54-10.21-.66-5.05-1.68-10.06-2.55-15.08-.89-.86-.64-1.8-.22-2.77,0-1.6,0-3.21,0-4.81-.69-1.91-2.12-4,1-5.15,1.61,10.89,3.27,21.78,4.79,32.68C1117.44,321.26,1118.69,323.65,1116.45,325.56Z"/><path class="cls-20" d="M1127.66,374.31c-1.32-3.55-.37-7.54-2.12-11a15.09,15.09,0,0,1-1.35-7.86c-.24-1.65-.49-3.3-.73-4.94.28-.56.51-1.55.85-1.59,1.27-.17,1.67,1.05,1.78,1.92.21,1.56-.86,3.46.39,4.7,3.83,3.8-.27,8.86,2.57,12.73,1,1,.53-3,1.22-.86s2,4.45,2.36,7.46C1130.74,374.15,1129.2,371.86,1127.66,374.31Z"/><path class="cls-46" d="M1076.87,388.55c-2-1.92-.3-2.11,1.1-2.18,13.69-.69,27.24-3.27,41-3,2.36,0,4.53-.12,6.52-1.8,1.17-1,.85.72,1.19,1.24-1.46,2.07-3.48,2.2-5.7,1.66-3.75,1-7.65-.25-11.41.73l-7.62.27c-2.24.86-4.77-.18-7,1.05-1.39.77-3.12-.24-4.45.85l-4.71.09c-1.66.87-3.58-.09-5.25.75Z"/><path class="cls-25" d="M1110.65,291.11l-.25,2c.4-6.34-2.48-12.25-2.18-18.64.23-4.89-1-9.82-.69-14.78.13-1.78-.52-3.68.76-5.29,2.37,2.21.61,5.18,1.42,7.67a21,21,0,0,0,1.06,8.51c.25,1.62-.2,3.21-.24,4.82.08,2.17-.35,4.4.69,6.47C1111.84,285,1111,288,1110.65,291.11Z"/><path class="cls-47" d="M1023.36,384.29l2.16,9.19c-.16,1.11-.55,1.94-1.88,1.34-1-.47-1.92-.86-1.65-2.49.44-2.65.9-5.41-.85-7.92-.63-.92-.48-2.08.69-2.29C1022.2,382.05,1022.84,383.52,1023.36,384.29Z"/><path class="cls-48" d="M1110.65,291.11q-.14-4.91-.29-9.81c-.63-1.8-.18-3.65-.32-5.48.09-1-.32-2.19,1.07-2.67.64.15.83.53.55,1.13-.74,4.11,1.11,8.08.7,12.17-1.48,1.5-.5,3.46-1,5.15A6.32,6.32,0,0,0,1110.65,291.11Z"/><path class="cls-49" d="M1040.87,190.66h17.58v.49h-17.73Z"/><path class="cls-50" d="M1109.55,262.35c-1.71-2.45-.51-5.37-1.26-8l.15-2.85c-.33-1-1-2,.87-2.06l.38,3c.77,1.66-.17,3.56.74,5.2,0,1.58,0,3.16-.08,4.74C1110.08,262.83,1109.81,262.85,1109.55,262.35Z"/><path class="cls-51" d="M1109.31,249.46l-.87,2.06c-1.61-3.17-.64-6.63-1.09-9.93.29-1.05-.1-2.33,1-3.11l.36,3c.74,1.62-.25,3.5.75,5.08C1109.41,247.5,1109.36,248.48,1109.31,249.46Z"/><path class="cls-52" d="M1026.61,394.17l9.69,0,3.22.32-.07.59c-4,.19-8,.4-11.94.52C1026.67,395.66,1026.69,394.8,1026.61,394.17Z"/><path class="cls-53" d="M1035.74,362.67l-2.35,4.66C1032,364.9,1033,362.93,1035.74,362.67Z"/><path class="cls-43" d="M1109.57,385.17c3.71-1.71,7.6-.52,11.41-.73C1117.24,385.58,1113.39,385.21,1109.57,385.17Z"/><path class="cls-54" d="M1043.92,392.54l-4.38-.47c2.38-.64,4.74-1.43,7,.19Z"/><path class="cls-31" d="M1000.85,390.06a10.2,10.2,0,0,1,0,7.15Z"/><path class="cls-43" d="M1094.53,386.24c2.32-1.74,4.94-.61,7.42-.8l-5.44,1A1.37,1.37,0,0,1,1094.53,386.24Z"/><path class="cls-55" d="M1068.59,185.5c-.58-1.36-2.23-.85-3.47-1.75,2.42-.63,4.24-.61,5.4,1.54Z"/><path class="cls-56" d="M1111.4,296.41c.07.93.15,1.85.22,2.77l-.52,3.57C1110.47,299.68,1110,298,1111.4,296.41Z"/><path class="cls-57" d="M1113.64,324.46c-3.25-.94-.23-2.73-.3-4.09.1,1.37.19,2.73.29,4.1Z"/><path class="cls-58" d="M1094.53,386.24l2,.2c-1.79,1.61-4,.68-6,.9Z"/><path class="cls-43" d="M1080.58,388.18c1.58-1.46,3.47-.66,5.25-.75A9.76,9.76,0,0,1,1080.58,388.18Z"/><path class="cls-31" d="M1002.11,384.9c-.51-1.24-.87-2.09-1.23-2.94.3-.07.69-.29.88-.17C1002.83,382.44,1002.64,383.4,1002.11,384.9Z"/><path class="cls-49" d="M1040.42,193.28c-.34.55-.49,1-.82,1.26-.51.34-.9-.07-.88-.55a1.79,1.79,0,0,1,.53-1.16C1039.38,192.72,1039.93,193.08,1040.42,193.28Z"/><path class="cls-59" d="M1109.44,634.26c-.12,3.38,1.25,6.87-.8,10.09-1.31-3.36-.55-7-.88-10.41C1107.57,632,1108.76,634.49,1109.44,634.26Z"/><path class="cls-60" d="M1103.36,667.23c2.1-3.91,6.15-5.86,9-9,4.29,2.74-1.28,3.38-1.12,5.25C1108.14,663.71,1106.34,666.72,1103.36,667.23Z"/><path class="cls-61" d="M1109.55,262.35h.8c.09,2,.19,3.91.28,5.87.49,1,.73,2-.93,2C1110.11,267.6,1107.29,265,1109.55,262.35Z"/><path class="cls-62" d="M1109.7,270.23l.93-2a3.87,3.87,0,0,0,.84.13,5,5,0,0,1-.08,5c-.31.69-.63,1.38-.94,2.06-.41.31-.7.24-.85-.26Z"/><path class="cls-63" d="M1111.39,273.4c0-1.68,0-3.36.08-5,1.61,1.92,1.49,3.91.19,5.92C1111.56,274,1111.47,273.7,1111.39,273.4Z"/><path class="cls-16" d="M1110.43,257.62c-1.2-1.6-.73-3.43-.74-5.2C1111.14,254,1110.34,255.87,1110.43,257.62Z"/><path class="cls-16" d="M1109.47,246.52c-1.22-1.55-.78-3.35-.75-5.08C1110.11,243,1109.34,244.81,1109.47,246.52Z"/><path class="cls-64" d="M1124.19,355.43c.41,2.63,1.72,5.1,1.35,7.86l-1.4,5.16C1125.08,364.08,1122.35,359.71,1124.19,355.43Z"/><path class="cls-16" d="M1109.6,275.2l.85.26-.09,5.84C1108.83,279.43,1109.76,277.24,1109.6,275.2Z"/></g></svg>