<svg xmlns="http://www.w3.org/2000/svg" viewBox="0 0 1920 1080"><defs><style>.cls-1{font-size:93.37px;font-family:ArialMT, Arial;}.cls-1,.cls-11,.cls-4,.cls-5,.cls-6,.cls-7,.cls-8{fill:none;}.cls-1,.cls-4,.cls-5,.cls-6,.cls-7,.cls-8{stroke:#000;}.cls-1,.cls-11,.cls-4,.cls-5,.cls-7,.cls-8{stroke-linecap:round;stroke-linejoin:round;}.cls-2{font-size:27px;}.cls-10,.cls-13,.cls-2,.cls-3{font-family:AvantGarde-Book, ITC Avant Garde Gothic;}.cls-3{font-size:18px;}.cls-5,.cls-6{stroke-width:0.25px;}.cls-6{stroke-miterlimit:10;}.cls-7{stroke-width:0.5px;}.cls-11,.cls-7,.cls-8{stroke-dasharray:2 2 2 2 2 2;}.cls-9{fill:#926156;}.cls-10{font-size:27.05px;}.cls-11{stroke:#e0ae8c;}.cls-12{fill:#e0ae8c;}.cls-13{font-size:12px;}</style></defs><g id="Livello_3" data-name="Livello 3"><text class="cls-1" transform="translate(404.77 263.85)">4</text><text class="cls-2" transform="translate(466.49 264.38)">SHELF _ walnut</text><text class="cls-3" transform="translate(1257.8 705.97)">wireless charger</text><polygon class="cls-4" points="646.56 886.44 587.89 886.44 587.89 896.35 666.12 896.35 666.12 846.8 660.17 846.8 660.17 886.44 646.56 886.44 646.56 886.44"/><polygon class="cls-4" points="600.18 848.39 600.18 853.27 645.37 853.27 645.37 848.39 600.18 848.39 600.18 848.39"/><polyline class="cls-4" points="622.78 853.27 622.78 871.77 625.95 867.94"/><line class="cls-4" x1="622.78" y1="871.78" x2="619.87" y2="867.94"/><line class="cls-5" x1="666.38" y1="846.8" x2="729.62" y2="846.8"/><line class="cls-5" x1="666.38" y1="896.35" x2="729.62" y2="896.35"/><line class="cls-4" x1="666.12" y1="846.8" x2="666.12" y2="846.8"/><line class="cls-4" x1="666.12" y1="896.35" x2="666.12" y2="896.35"/><line class="cls-5" x1="727.82" y1="896.35" x2="727.82" y2="896.35"/><polygon class="cls-4" points="784.39 685.27 784.39 690.3 829.45 690.3 829.45 685.27 784.39 685.27 784.39 685.27"/><path class="cls-4" d="M899.92,687.5c0-.32,0-.64,0-1a22.6,22.6,0,1,0,0,1"/><line class="cls-6" x1="784.39" y1="690.56" x2="784.39" y2="714.08"/><line class="cls-6" x1="829.45" y1="690.56" x2="829.45" y2="714.08"/><line class="cls-4" x1="784.39" y1="690.3" x2="784.39" y2="690.3"/><line class="cls-4" x1="829.45" y1="690.3" x2="829.45" y2="690.3"/><line class="cls-6" x1="784" y1="690.3" x2="767.87" y2="690.3"/><line class="cls-6" x1="784" y1="685.27" x2="767.87" y2="685.27"/><polyline class="cls-6" points="768.02 690.36 768.02 702.78 752.43 702.78"/><line class="cls-4" x1="784.39" y1="690.3" x2="784.39" y2="690.3"/><line class="cls-4" x1="784.39" y1="685.27" x2="784.39" y2="685.27"/><polygon class="cls-4" points="532.64 457.44 532.64 507.13 720.93 507.13 720.93 457.44 532.64 457.44 532.64 457.44"/><line class="cls-5" x1="532.37" y1="507.13" x2="499.21" y2="507.13"/><line class="cls-5" x1="532.37" y1="457.44" x2="499.21" y2="457.44"/><line class="cls-4" x1="532.64" y1="507.13" x2="532.64" y2="507.13"/><line class="cls-4" x1="532.64" y1="457.44" x2="532.64" y2="457.44"/><line class="cls-5" x1="500.13" y1="457.44" x2="500.13" y2="457.44"/><line class="cls-5" x1="532.64" y1="507.39" x2="532.64" y2="535.8"/><line class="cls-5" x1="720.93" y1="507.39" x2="720.93" y2="535.8"/><line class="cls-4" x1="532.64" y1="507.13" x2="532.64" y2="507.13"/><line class="cls-4" x1="720.93" y1="507.13" x2="720.93" y2="507.13"/><line class="cls-5" x1="720.93" y1="534.88" x2="720.93" y2="534.88"/><polygon class="cls-4" points="1072.83 824.25 1072.83 896.66 1370.13 896.66 1370.13 824.25 1072.83 824.25 1072.83 824.25"/><line class="cls-5" x1="1370.4" y1="824.25" x2="1394.18" y2="824.25"/><line class="cls-4" x1="1370.13" y1="824.25" x2="1370.13" y2="824.25"/><line class="cls-4" x1="1370.13" y1="896.66" x2="1370.13" y2="896.66"/><line class="cls-5" x1="1072.83" y1="893.1" x2="1072.83" y2="957.19"/><line class="cls-5" x1="1370.13" y1="897.06" x2="1370.13" y2="957.19"/><line class="cls-4" x1="1072.83" y1="892.7" x2="1072.83" y2="892.7"/><line class="cls-4" x1="1370.13" y1="896.66" x2="1370.13" y2="896.66"/><path class="cls-4" d="M1192.11,860c0-.29,0-.59,0-.89a22.51,22.51,0,1,0,0,.89"/><line class="cls-4" x1="1169.69" y1="851.34" x2="1169.69" y2="868.25"/><line class="cls-4" x1="1164.01" y1="859.79" x2="1176.03" y2="859.79"/><line class="cls-5" x1="1165.99" y1="836.93" x2="1165.99" y2="818.3"/><line class="cls-5" x1="1173.39" y1="836.93" x2="1173.39" y2="818.3"/><line class="cls-5" x1="1147.22" y1="858.87" x2="1147.22" y2="777.73"/><line class="cls-5" x1="1192.28" y1="858.87" x2="1192.28" y2="777.73"/><line class="cls-4" x1="1147.22" y1="859.13" x2="1147.22" y2="859.13"/><line class="cls-4" x1="1192.28" y1="859.13" x2="1192.28" y2="859.13"/><line class="cls-5" x1="1165.99" y1="818.04" x2="1165.99" y2="802.71"/><polyline class="cls-5" points="1173.39 818.04 1173.39 802.71 1178.79 802.71"/><line class="cls-5" x1="1165.99" y1="818.3" x2="1165.99" y2="818.3"/><line class="cls-5" x1="1173.39" y1="818.3" x2="1173.39" y2="818.3"/><line class="cls-5" x1="1173.39" y1="803.5" x2="1173.39" y2="803.5"/><line class="cls-5" x1="1072.57" y1="902.61" x2="1045.21" y2="902.61"/><line class="cls-5" x1="1072.57" y1="824.25" x2="1045.21" y2="824.25"/><line class="cls-4" x1="1072.83" y1="902.61" x2="1072.83" y2="902.61"/><line class="cls-4" x1="1072.83" y1="824.25" x2="1072.83" y2="824.25"/><line class="cls-5" x1="1053.94" y1="824.25" x2="1053.94" y2="824.25"/><polyline class="cls-4" points="1072.83 896.66 1072.83 902.61 1261.12 902.61 1261.12 896.66"/><line class="cls-5" x1="1169.42" y1="881.73" x2="1154.23" y2="881.73"/><line class="cls-4" x1="1169.42" y1="896.66" x2="1154.23" y2="896.66"/><line class="cls-4" x1="1169.69" y1="881.73" x2="1169.69" y2="881.73"/><line class="cls-4" x1="1169.69" y1="896.66" x2="1169.69" y2="896.66"/><line class="cls-4" x1="1155.15" y1="896.66" x2="1155.15" y2="896.66"/><polygon class="cls-7" points="600.18 886.44 645.37 886.44 645.37 891.47 600.18 891.47 600.18 886.44 600.18 886.44"/><line class="cls-4" x1="877.58" y1="678.02" x2="877.58" y2="694.94"/><line class="cls-4" x1="871.9" y1="686.48" x2="883.93" y2="686.48"/><line class="cls-6" x1="854.95" y1="688.45" x2="854.95" y2="730.2"/><line class="cls-6" x1="900.01" y1="688.45" x2="900.01" y2="730.2"/><line class="cls-4" x1="854.95" y1="688.18" x2="854.95" y2="688.18"/><line class="cls-4" x1="900.01" y1="688.18" x2="900.01" y2="688.18"/><line class="cls-8" x1="532.7" y1="497.98" x2="719.94" y2="497.98"/><line class="cls-5" x1="1370.4" y1="896.66" x2="1394.21" y2="896.66"/><line class="cls-5" x1="1370.4" y1="902.61" x2="1394.09" y2="902.61"/><line class="cls-4" x1="1370.13" y1="896.66" x2="1370.13" y2="896.66"/><rect class="cls-9" x="1418.27" y="253.15" width="109.01" height="9.91"/><polygon class="cls-9" points="1418.27 253.15 1418.27 263.06 1229.98 263.06 1229.98 213.51 1418.27 213.51 1418.27 253.15"/><polygon class="cls-4" points="1418.27 253.15 1418.27 213.51 1229.98 213.51 1229.98 263.06 1418.27 263.06 1418.27 253.15"/><polyline class="cls-4" points="1418.27 263.06 1527.28 263.06 1527.28 253.15 1418.27 253.15"/><polygon class="cls-7" points="587.89 888.43 600.19 888.43 600.19 894.37 587.89 894.37 587.89 888.43 587.89 888.43"/><line class="cls-6" x1="587.5" y1="894.37" x2="576.27" y2="894.37"/><line class="cls-6" x1="587.5" y1="888.43" x2="576.27" y2="888.43"/><line class="cls-4" x1="587.89" y1="894.37" x2="587.89" y2="894.37"/><line class="cls-4" x1="587.89" y1="888.43" x2="587.89" y2="888.43"/><line class="cls-5" x1="587.89" y1="896.75" x2="587.89" y2="932.43"/><line class="cls-5" x1="660.17" y1="896.75" x2="660.17" y2="932.43"/><line class="cls-4" x1="587.89" y1="896.35" x2="587.89" y2="896.35"/><line class="cls-4" x1="660.17" y1="896.35" x2="660.17" y2="896.35"/><line class="cls-5" x1="660.17" y1="930.34" x2="660.17" y2="930.34"/><polyline class="cls-4" points="720.93 498.01 829.94 498.01 829.94 507.13 720.93 507.13"/><line class="cls-5" x1="1072.83" y1="903.01" x2="1072.83" y2="928.77"/><line class="cls-5" x1="1261.12" y1="903.01" x2="1261.12" y2="928.77"/><line class="cls-4" x1="1072.83" y1="902.61" x2="1072.83" y2="902.61"/><line class="cls-4" x1="1261.12" y1="902.61" x2="1261.12" y2="902.61"/><line class="cls-5" x1="1261.12" y1="927.98" x2="1261.12" y2="927.98"/><line class="cls-6" x1="587.5" y1="896.35" x2="534.43" y2="896.35"/><line class="cls-6" x1="587.5" y1="886.44" x2="534.43" y2="886.44"/><line class="cls-4" x1="587.89" y1="896.35" x2="587.89" y2="896.35"/><line class="cls-4" x1="587.89" y1="886.44" x2="587.89" y2="886.44"/><path class="cls-4" d="M1074.29,397.19h-1a74.22,74.22,0,0,0,0,148.44h1"/><polyline class="cls-4" points="1073.79 545.72 1395.93 545.72 1395.93 397.05"/><line class="cls-4" x1="1395.93" y1="397.05" x2="1073.79" y2="397.05"/><path class="cls-8" d="M1173.61,492a2.84,2.84,0,0,0,.09-.72,2.88,2.88,0,1,0-.09.72"/><line class="cls-8" x1="1173.68" y1="491.27" x2="1173.68" y2="545.71"/><line class="cls-8" x1="1167.74" y1="491.4" x2="1167.74" y2="545.71"/><polyline class="cls-4" points="1073.79 446.61 1262.08 446.61 1262.08 486.25 1371.09 486.25 1371.09 496.16 1262.08 496.16"/><line class="cls-5" x1="1073.52" y1="496.16" x2="1050.53" y2="496.16"/><line class="cls-5" x1="1073.52" y1="545.71" x2="1050.53" y2="545.71"/><line class="cls-4" x1="1073.79" y1="496.16" x2="1073.79" y2="496.16"/><line class="cls-4" x1="1073.79" y1="545.71" x2="1073.79" y2="545.71"/><line class="cls-5" x1="998.53" y1="471.05" x2="998.53" y2="372.6"/><line class="cls-5" x1="1073.79" y1="471.05" x2="1073.79" y2="372.6"/><line class="cls-4" x1="1073.79" y1="471.45" x2="1073.79" y2="471.45"/><line class="cls-5" x1="1073.79" y1="373.53" x2="1073.79" y2="373.53"/><line class="cls-4" x1="1073.79" y1="446.61" x2="1073.79" y2="496.16"/><line class="cls-4" x1="1073.79" y1="496.16" x2="1262.08" y2="496.16"/><line class="cls-4" x1="1262.08" y1="496.16" x2="1262.08" y2="486.25"/><line class="cls-8" x1="1262.08" y1="486.25" x2="1073.79" y2="486.25"/><line class="cls-4" x1="1073.79" y1="471.45" x2="1073.79" y2="471.45"/><line class="cls-4" x1="1073.79" y1="446.61" x2="1073.79" y2="446.61"/><line class="cls-6" x1="1100.07" y1="372.91" x2="1028.21" y2="372.91"/><polygon points="1101.83 372.91 1099.34 371.89 1099.93 372.91 1099.34 373.93 1101.83 372.91"/><polygon points="1026.44 372.91 1028.93 371.89 1028.34 372.91 1028.93 373.93 1026.44 372.91"/><text class="cls-10" transform="translate(1012.08 381.13)">150</text><line class="cls-6" x1="1051.26" y1="544.14" x2="1051.26" y2="497.94"/><polygon points="1051.26 545.91 1052.27 543.42 1051.26 544.01 1050.24 543.42 1051.26 545.91"/><polygon points="1051.26 496.18 1052.27 498.67 1051.26 498.08 1050.24 498.67 1051.26 496.18"/><text class="cls-10" transform="translate(1029.12 529.56)">100</text><line class="cls-6" x1="499.53" y1="505.46" x2="499.53" y2="459.26"/><polygon points="499.53 507.23 500.55 504.74 499.53 505.33 498.52 504.74 499.53 507.23"/><polygon points="499.53 457.5 500.55 459.99 499.53 459.39 498.52 459.99 499.53 457.5"/><text class="cls-10" transform="translate(477.4 490.88)">100</text><line class="cls-6" x1="719.49" y1="535.44" x2="534.43" y2="535.44"/><polygon points="721.25 535.44 718.76 534.42 719.36 535.44 718.76 536.46 721.25 535.44"/><polygon points="532.66 535.44 535.15 534.42 534.56 535.44 535.15 536.46 532.66 535.44"/><text class="cls-10" transform="translate(599.6 546.69)">600</text><line class="cls-6" x1="898.55" y1="729.66" x2="856.69" y2="729.66"/><polygon points="900.32 729.66 897.83 728.65 898.42 729.66 897.83 730.68 900.32 729.66"/><polygon points="854.92 729.66 857.41 728.65 856.82 729.66 857.41 730.68 854.92 729.66"/><text class="cls-10" transform="translate(864.25 741.37)">91</text><line class="cls-6" x1="827.9" y1="714.39" x2="786.03" y2="714.39"/><polygon points="829.67 714.39 827.18 713.37 827.77 714.39 827.18 715.4 829.67 714.39"/><polygon points="784.27 714.39 786.76 713.37 786.17 714.39 786.76 715.4 784.27 714.39"/><text class="cls-10" transform="translate(793.26 725.07)">91</text><line class="cls-6" x1="767.93" y1="688.66" x2="767.93" y2="686.95"/><polygon points="767.93 690.43 768.94 687.94 767.93 688.53 766.91 687.94 767.93 690.43"/><polygon points="767.93 685.19 768.94 687.67 767.93 687.08 766.91 687.67 767.93 685.19"/><text class="cls-10" transform="translate(725.05 713.75)">10</text><path class="cls-11" d="M627.49,849c-23.44-16.44-34.14-43.83-27.06-66.89,7.73-25.21,34.28-37.4,53.61-39.32,27.51-2.73,33.31,43.06,73,50.55,15.59,2.94,55.08,2.13,78.13-20.42,12.91-12.63,17-25.28,18.1-34.82"/><polygon class="cls-12" points="823.58 731.06 827.13 741.21 823.19 738.64 819.01 740.79 823.58 731.06"/><line class="cls-6" x1="1045.34" y1="901.09" x2="1045.34" y2="826.2"/><polygon points="1045.34 902.85 1046.36 900.36 1045.34 900.95 1044.32 900.36 1045.34 902.85"/><polygon points="1045.34 824.43 1046.36 826.92 1045.34 826.33 1044.32 826.92 1045.34 824.43"/><text class="cls-10" transform="translate(1022.4 874.9)">158</text><line class="cls-6" x1="729.49" y1="894.96" x2="729.49" y2="848.06"/><polygon points="729.49 896.72 730.51 894.24 729.49 894.83 728.48 894.24 729.49 896.72"/><polygon points="729.49 846.3 730.51 848.78 729.49 848.2 728.48 848.78 729.49 846.3"/><text class="cls-10" transform="translate(706.55 880.85)">100</text><line class="cls-6" x1="1394.1" y1="894.9" x2="1394.1" y2="826.2"/><polygon points="1394.1 896.66 1395.12 894.18 1394.1 894.77 1393.08 894.18 1394.1 896.66"/><polygon points="1394.1 824.43 1395.12 826.92 1394.1 826.33 1393.08 826.92 1394.1 824.43"/><line class="cls-6" x1="1394.1" y1="900.87" x2="1394.1" y2="898.03"/><polygon points="1394.1 902.64 1395.12 900.15 1394.1 900.74 1393.08 900.15 1394.1 902.64"/><polygon points="1394.1 896.26 1395.12 898.75 1394.1 898.16 1393.08 898.75 1394.1 896.26"/><text class="cls-10" transform="translate(1371.16 870.56)">146</text><text class="cls-10" transform="translate(1397.53 921.15)">12</text><line class="cls-6" x1="1154.15" y1="895.26" x2="1154.15" y2="883.45"/><polygon points="1154.15 897.02 1155.17 894.53 1154.15 895.12 1153.13 894.53 1154.15 897.02"/><polygon points="1154.15 881.68 1155.17 884.17 1154.15 883.58 1153.13 884.17 1154.15 881.68"/><text class="cls-13" transform="translate(1147.83 894.17)">30</text><line class="cls-6" x1="1074.72" y1="928.83" x2="1259.49" y2="928.83"/><polygon points="1072.96 928.83 1075.45 929.85 1074.86 928.83 1075.45 927.81 1072.96 928.83"/><polygon points="1261.25 928.83 1258.77 929.85 1259.36 928.83 1258.77 927.81 1261.25 928.83"/><line class="cls-6" x1="1074.6" y1="957.43" x2="1368.37" y2="957.43"/><polygon points="1072.83 957.43 1075.32 958.44 1074.73 957.43 1075.32 956.41 1072.83 957.43"/><polygon points="1370.14 957.43 1367.65 958.44 1368.24 957.43 1367.65 956.41 1370.14 957.43"/><text class="cls-10" transform="translate(1143.3 936.26)">380</text><text class="cls-10" transform="translate(1200.24 965.88)">600</text><line class="cls-6" x1="1149.06" y1="777.91" x2="1190.34" y2="777.91"/><polygon points="1147.29 777.91 1149.78 778.93 1149.19 777.91 1149.78 776.9 1147.29 777.91"/><polygon points="1192.11 777.91 1189.62 778.93 1190.21 777.91 1189.62 776.9 1192.11 777.91"/><line class="cls-6" x1="1167.66" y1="802.87" x2="1171.79" y2="802.87"/><polygon points="1165.89 802.87 1168.38 803.89 1167.79 802.87 1168.38 801.86 1165.89 802.87"/><polygon points="1173.56 802.87 1171.07 803.89 1171.66 802.87 1171.07 801.86 1173.56 802.87"/><text class="cls-13" transform="translate(1163.47 781.59)">91</text><text class="cls-13" transform="translate(1175.81 806.7)">15</text><polyline class="cls-5" points="1394.09 902.61 1394.09 909.96 1403.73 909.96"/><line class="cls-6" x1="658.53" y1="932.38" x2="589.76" y2="932.38"/><polygon points="660.3 932.38 657.81 931.37 658.4 932.38 657.81 933.4 660.3 932.38"/><polygon points="587.99 932.38 590.48 931.37 589.89 932.38 590.48 933.4 587.99 932.38"/><text class="cls-10" transform="translate(601.54 942.81)">146</text><line class="cls-6" x1="576.38" y1="892.51" x2="576.38" y2="890.13"/><polygon points="576.38 894.28 577.4 891.79 576.38 892.38 575.37 891.79 576.38 894.28"/><polygon points="576.38 888.36 577.4 890.85 576.38 890.26 575.37 890.85 576.38 888.36"/><line class="cls-6" x1="534.51" y1="888.21" x2="534.51" y2="894.7"/><polygon points="534.51 886.45 533.49 888.93 534.51 888.34 535.53 888.93 534.51 886.45"/><polygon points="534.51 896.47 533.49 893.98 534.51 894.57 535.53 893.98 534.51 896.47"/><polyline class="cls-6" points="534.43 896.35 534.43 907.62 515.91 907.62"/><polyline class="cls-6" points="576.43 894.32 576.43 924.59 557.92 924.59"/><text class="cls-13" transform="translate(503.55 912.15)">20</text><text class="cls-13" transform="translate(545.63 928.22)">12</text><path class="cls-11" d="M1183.06,864.34c26-21.93,42.66-23.28,53.11-20.43,17.29,4.73,21,21.93,41.87,27.58,15.33,4.16,28.83-1,39.83-5.11,24.29-9.18,64.37-35.12,64.34-69.44,0-18.69-11.91-34.2-32.68-61.28-5.31-6.93-10.33-12.74-14.56-17.34"/><polygon class="cls-12" points="1330.13 713.19 1339.86 717.75 1335.27 718.77 1333.89 723.26 1330.13 713.19"/></g></svg>