<svg xmlns="http://www.w3.org/2000/svg" viewBox="0 0 1920 1080"><defs><style>.cls-1,.cls-3,.cls-6,.cls-7,.cls-8{fill:none;stroke:#000;}.cls-1{stroke-miterlimit:10;}.cls-1,.cls-7{stroke-width:0.25px;}.cls-2{font-size:27px;font-family:AvantGarde-Book, ITC Avant Garde Gothic;}.cls-3{font-size:93.37px;font-family:ArialMT, Arial;}.cls-3,.cls-6,.cls-7,.cls-8{stroke-linecap:round;stroke-linejoin:round;}.cls-4{fill:#3d2120;}.cls-5{fill:#dfeaea;}.cls-8{fill-rule:evenodd;}</style></defs><g id="Livello_3" data-name="Livello 3"><line class="cls-1" x1="657.89" y1="454.38" x2="657.89" y2="695.32"/><polygon points="657.89 452.62 656.88 455.1 657.89 454.51 658.91 455.1 657.89 452.62"/><polygon points="657.89 697.09 656.88 694.6 657.89 695.19 658.91 694.6 657.89 697.09"/><text class="cls-2" transform="translate(633.93 590.93)">552</text><line class="cls-1" x1="816.43" y1="762.47" x2="700.21" y2="762.47"/><polygon points="818.19 762.47 815.7 761.45 816.29 762.47 815.7 763.48 818.19 762.47"/><polygon points="698.45 762.47 700.93 761.45 700.34 762.47 700.93 763.48 698.45 762.47"/><text class="cls-2" transform="translate(736.87 770.96)">270</text><line class="cls-1" x1="878.24" y1="454.29" x2="878.24" y2="456.14"/><polygon points="878.24 452.53 877.22 455.01 878.24 454.42 879.26 455.01 878.24 452.53"/><polygon points="878.24 457.9 877.22 455.42 878.24 456.01 879.26 455.42 878.24 457.9"/><text class="cls-2" transform="translate(879.46 450.07)">12</text><line class="cls-1" x1="985.23" y1="459.38" x2="985.23" y2="510.41"/><polygon points="985.23 457.62 984.22 460.1 985.23 459.51 986.25 460.1 985.23 457.62"/><polygon points="985.23 512.17 984.22 509.68 985.23 510.27 986.25 509.68 985.23 512.17"/><text class="cls-2" transform="translate(960.77 495.05)">123</text><text class="cls-2" transform="translate(1174.87 587.52)">528</text><line class="cls-1" x1="1197.28" y1="459.7" x2="1197.28" y2="690.36"/><polygon points="1197.28 457.94 1196.26 460.42 1197.28 459.83 1198.29 460.42 1197.28 457.94"/><polygon points="1197.28 692.13 1196.26 689.64 1197.28 690.23 1198.29 689.64 1197.28 692.13"/><line class="cls-1" x1="1118.66" y1="762.45" x2="1012.68" y2="762.45"/><polygon points="1120.42 762.45 1117.94 761.43 1118.53 762.45 1117.94 763.46 1120.42 762.45"/><polygon points="1010.91 762.45 1013.4 761.43 1012.81 762.45 1013.4 763.46 1010.91 762.45"/><text class="cls-2" transform="translate(1043.54 771.92)">246</text><text class="cls-3" transform="translate(406.89 264.19)">2</text><text class="cls-2" transform="translate(474 264.72)">MIRROR _ wenge wood</text><path class="cls-4" d="M1396.28,186.82c0-.33,0-.66,0-1,0-32.62,26.56-58.71,59.75-58.71s59.75,26.09,59.75,58.71c0,.33,0,.66,0,1h-.1V297.6l.14,68.59-.14,5.36H1396.13V186.82Zm114,179.37V186.82l-.13-.08c0-.3,0-.61,0-.91,0-29.72-24.1-53.49-54.22-53.49s-54.22,23.77-54.22,53.49c0,.33,0,.66,0,1h-.25V366.19Z"/><path class="cls-5" d="M1401.74,186.82c0-.33,0-.66,0-1,0-29.72,24.1-53.49,54.22-53.49s54.22,23.77,54.22,53.49c0,.3,0,.61,0,.91l.13.08V366.19h-108.8V186.82Z"/><path class="cls-6" d="M1510.16,186.74c0-.3,0-.61,0-.91,0-29.72-24.1-53.49-54.22-53.49s-54.22,23.77-54.22,53.49c0,.33,0,.66,0,1h0"/><polyline class="cls-6" points="1510.29 186.82 1510.29 297.6 1510.29 366.19 1401.49 366.19"/><line class="cls-6" x1="1401.49" y1="366.19" x2="1401.49" y2="186.82"/><polyline class="cls-6" points="1396.13 371.55 1515.66 371.55 1515.8 366.19 1515.66 297.6 1515.66 186.82"/><path class="cls-6" d="M1515.76,186.83h0c0-.33,0-.66,0-1,0-32.62-26.55-58.71-59.75-58.71s-59.75,26.09-59.75,58.71c0,.33,0,.66,0,1h0"/><polyline class="cls-6" points="1396.13 186.82 1396.13 366.19 1396.13 371.55"/><line class="cls-6" x1="1428.02" y1="233.67" x2="1472.19" y2="197.12"/><line class="cls-6" x1="1423.79" y1="275.73" x2="1467.82" y2="239.03"/><line class="cls-6" x1="1450.6" y1="293.93" x2="1494.77" y2="257.38"/><line class="cls-6" x1="1028.25" y1="574.01" x2="1072.42" y2="537.46"/><line class="cls-6" x1="1024.01" y1="616.07" x2="1068.18" y2="579.37"/><line class="cls-6" x1="1050.97" y1="634.41" x2="1094.99" y2="597.72"/><line class="cls-7" x1="758.91" y1="452.92" x2="878.29" y2="452.92"/><line class="cls-6" x1="818.18" y1="697.35" x2="818.18" y2="697.35"/><line class="cls-6" x1="758.63" y1="452.92" x2="758.63" y2="452.92"/><line class="cls-7" x1="758.91" y1="452.92" x2="876.16" y2="452.92"/><line class="cls-7" x1="761.29" y1="458.03" x2="878.55" y2="458.03"/><line class="cls-6" x1="758.63" y1="452.92" x2="758.63" y2="452.92"/><line class="cls-6" x1="758.48" y1="458.15" x2="758.48" y2="458.15"/><line class="cls-7" x1="1011.03" y1="692.27" x2="1011.03" y2="762.27"/><line class="cls-7" x1="1119.83" y1="692.27" x2="1119.83" y2="762.27"/><line class="cls-6" x1="1011.03" y1="692.13" x2="1011.03" y2="692.13"/><line class="cls-6" x1="1119.83" y1="692.13" x2="1119.83" y2="692.13"/><line class="cls-7" x1="1010.75" y1="512.62" x2="985.35" y2="512.62"/><line class="cls-7" x1="1009.75" y1="458.15" x2="986.07" y2="458.15"/><line class="cls-6" x1="1011.03" y1="512.62" x2="1011.03" y2="512.62"/><line class="cls-7" x1="698.37" y1="697.35" x2="658.01" y2="697.35"/><line class="cls-7" x1="758.2" y1="452.92" x2="658.01" y2="452.92"/><line class="cls-6" x1="698.65" y1="697.35" x2="698.65" y2="697.35"/><line class="cls-6" x1="758.48" y1="452.92" x2="758.48" y2="452.92"/><line class="cls-7" x1="698.65" y1="701.87" x2="698.65" y2="762.81"/><line class="cls-7" x1="818.18" y1="663.06" x2="818.18" y2="762.81"/><line class="cls-6" x1="698.65" y1="692.13" x2="698.65" y2="692.13"/><line class="cls-6" x1="818.18" y1="662.78" x2="818.18" y2="662.78"/><line class="cls-7" x1="818.18" y1="737.29" x2="818.18" y2="737.29"/><polyline class="cls-6" points="812.81 512.62 812.81 623.4 812.81 692.13 704.01 692.13"/><line class="cls-6" x1="704.01" y1="692.13" x2="704.01" y2="512.62"/><line class="cls-6" x1="1119.83" y1="692.13" x2="1011.03" y2="692.13"/><polyline class="cls-6" points="1119.83 692.13 1119.83 623.4 1119.83 512.62"/><path class="cls-6" d="M1119.72,512.56c0-.33,0-.67,0-1,0-29.67-24.16-53.41-54.35-53.41S1011,481.89,1011,511.56c0,.36,0,.73,0,1.09"/><line class="cls-6" x1="1011.03" y1="512.62" x2="1011.03" y2="692.13"/><line class="cls-7" x1="1065.64" y1="692.13" x2="1199.42" y2="692.13"/><line class="cls-7" x1="1065.64" y1="458.15" x2="1198.28" y2="458.15"/><line class="cls-6" x1="1065.36" y1="692.13" x2="1065.36" y2="692.13"/><line class="cls-6" x1="1065.36" y1="458.15" x2="1065.36" y2="458.15"/><polyline class="cls-6" points="698.65 697.36 818.18 697.36 818.32 692.13 818.18 623.4 818.18 512.62"/><polyline class="cls-6" points="698.65 512.62 698.65 692.13 698.65 697.36"/><polygon class="cls-8" points="756.65 452.92 763.99 453.06 752.98 453.06 756.65 452.92"/><polygon class="cls-8" points="756.65 452.92 760.32 452.92 763.99 453.06 756.65 452.92"/><polygon class="cls-6" points="698.65 512.62 698.65 692.13 698.65 697.36 818.18 697.36 818.32 692.13 818.18 623.4 818.18 512.62 818.03 508.95 817.75 505.28 817.19 501.61 816.34 498.08 815.35 494.56 814.08 491.03 812.67 487.64 811.12 484.39 809.28 481.15 807.17 478.04 804.91 475.22 802.51 472.4 799.97 469.72 797.29 467.18 794.47 464.92 791.36 462.8 788.26 460.83 785.01 459.13 781.77 457.58 778.24 456.31 774.71 455.18 771.18 454.19 767.66 453.63 763.99 453.06 760.32 452.92 756.65 452.92 752.98 453.06 749.31 453.63 745.64 454.19 742.12 455.18 738.59 456.31 735.2 457.58 731.81 459.13 728.57 460.83 725.46 462.8 722.36 464.92 719.54 467.18 716.86 469.72 714.32 472.4 711.92 475.22 709.66 478.04 707.68 481.15 705.85 484.39 704.15 487.64 702.74 491.03 701.47 494.56 700.49 498.08 699.64 501.61 699.07 505.28 698.79 508.95 698.65 512.62 698.65 512.62"/><polygon class="cls-6" points="812.81 512.62 812.81 623.4 812.81 692.13 704.01 692.13 704.01 512.62 704.15 509.09 704.44 505.56 705 502.04 705.85 498.51 706.84 495.12 708.11 491.87 709.66 488.63 711.21 485.38 713.19 482.42 715.3 479.45 717.56 476.77 719.96 474.09 722.5 471.69 725.32 469.44 728.14 467.32 731.25 465.48 734.35 463.79 737.6 462.38 740.99 461.11 744.37 459.98 747.76 459.27 751.29 458.57 754.82 458.29 758.48 458.14 762.01 458.29 765.54 458.57 769.07 459.27 772.45 459.98 775.98 461.11 779.23 462.38 782.47 463.79 785.58 465.48 788.68 467.32 791.5 469.44 794.33 471.69 796.87 474.09 799.41 476.77 801.66 479.45 803.64 482.42 805.62 485.38 807.31 488.63 808.72 491.87 809.99 495.12 810.98 498.51 811.83 502.04 812.39 505.56 812.81 509.09 812.81 512.62 812.81 512.62"/><line class="cls-1" x1="880.37" y1="452.87" x2="880.37" y2="444"/><line class="cls-1" x1="880.28" y1="443.91" x2="905.02" y2="443.91"/><rect class="cls-6" x="68.04" y="69.87" width="1785.04" height="940.58"/></g></svg>