<svg xmlns="http://www.w3.org/2000/svg" viewBox="0 0 1920 1080"><defs><style>.cls-1{fill:#0a0a05;}.cls-2{fill:#dccbb2;}.cls-3{fill:#e6bca3;}.cls-4{fill:#bb866e;}.cls-14,.cls-5{fill:none;}.cls-5{stroke:#0a0a05;stroke-width:0.75px;}.cls-14,.cls-15,.cls-5{stroke-miterlimit:10;}.cls-6{fill:#34241d;}.cls-7{fill:#fff;}.cls-8{fill:#d8eeef;opacity:0.33;}.cls-9{fill:#926156;}.cls-10{fill:#3d2120;}.cls-11{fill:#2d1818;}.cls-12{fill:#e0ae8c;}.cls-13{fill:#fbc39a;}.cls-14{stroke:#212830;stroke-linecap:square;stroke-width:0;}.cls-15{stroke:#fff;opacity:0.1;}.cls-16{fill:#cac0b2;}.cls-17{fill:#2b2727;}.cls-18{fill:#e3e1e1;}.cls-19{fill:#e9e9e7;}.cls-20{fill:#cac1b4;}.cls-21{fill:#b6938b;}.cls-22{fill:#b6938c;}.cls-23{fill:#cec8bc;}.cls-24{fill:#fdfcf7;}.cls-25{fill:#cbc4b9;}.cls-26{fill:#ccc4b9;}.cls-27{fill:#cdc4bb;}.cls-28{fill:#b0968c;}.cls-29{fill:#fdfbf8;}.cls-30{fill:#fcfaf5;}.cls-31{fill:#cbc4b8;}.cls-32{fill:#f9f5f0;}.cls-33{fill:#fcf7f5;}.cls-34{fill:#ccc7bf;}.cls-35{fill:#fbf7f5;}.cls-36{fill:#fbfaf5;}.cls-37{fill:#fbf8f5;}.cls-38{fill:#312c29;}.cls-39{fill:#b39994;}.cls-40{fill:#898881;}.cls-41{fill:#fbf9f5;}.cls-42{fill:#9f9b96;}.cls-43{fill:#393b3a;}.cls-44{fill:#cac3b0;}.cls-45{fill:#69635b;}.cls-46{fill:#3a3a35;}.cls-47{fill:#cac2b7;}.cls-48{fill:#797065;}.cls-49{fill:#d0c6b8;}.cls-50{fill:#756f65;}.cls-51{fill:#80786d;}.cls-52{fill:#cbc5b8;}.cls-53{fill:#ccc3bc;}.cls-54{fill:#2f2f2d;}.cls-55{fill:#221f1c;}.cls-56{fill:#d2cbc1;}.cls-57{fill:#cfc9bd;}.cls-58{fill:#bab5aa;}.cls-59{fill:#f1e2e2;}.cls-60{fill:#ebe6dd;}.cls-61{fill:#766e64;}.cls-62{fill:#8e867b;}.cls-63{fill:#d5cdc1;}.cls-64{fill:#3c3a34;}</style></defs><g id="Livello_4" data-name="Livello 4"><path class="cls-1" d="M914.87,363c-1.5,0-1.65,2.93-4.83,4.83-2.32,1.39-4.71,1.26-9.5,1-4-.22-6.44-.35-9.33-1.67-3.25-1.48-4.08-3.09-7-3.33a7.59,7.59,0,0,0-5,1.17c-1.16.88-3.08,3.18-2.17,10.33,1.56,12.32,9.35,22.12,13.33,30.67,7,15.08,4.2,30.58,2.5,39.83a376.47,376.47,0,0,1-10.66,44c-.85,2.61-2,6.1-.34,8.83,4.45,7.18,27,6.54,36.17-4.5,7.9-9.5-1.1-18.28,3.83-40,5.11-22.44,16.87-22.5,16-38-.8-14.31-10.9-15.21-17-39.83C920.09,373.2,917.72,362.94,914.87,363Z"/><path class="cls-2" d="M915.79,364.31c.84-.32,2.61,1.32,6.13,4.62,3.92,3.7,3.86,4.16,6,6a37.32,37.32,0,0,0,10.75,6.25c4.72,2,4.66,1.11,8.5,2.75,3.32,1.43,9,3.84,12.37,9.5,1.87,3.11,2.18,6,2.75,10.75.47,3.93.22,6.62,1,13.25a38.71,38.71,0,0,0,.63,4.13c.78,3.64,1.51,4.12,1.75,6.75.2,2.31-.29,2.7.25,4.25.45,1.31,1.05,1.72,2.5,3.5a37.18,37.18,0,0,1,3.87,5.75c1.39,2.64.74,2.61,2.13,5.25,1.59,3,2.51,3.19,3.5,5.75a19.32,19.32,0,0,1,1,4.75c.5,3.73,0,4.39.62,7.37a15.1,15.1,0,0,0,1.38,4.38c1.39,2.7,2.64,2.76,3.25,4.87a8.45,8.45,0,0,1-.38,5,15.46,15.46,0,0,1-2.25,4c-3.09,4.62-2.89,4.05-3.5,5.13-2,3.49-1.3,4.57-3.5,7.87a8.7,8.7,0,0,1-3,3.13,9.43,9.43,0,0,1-4.75.87c-2.34,0-2.44-.61-4.12-.37s-1.74.8-3.88,1.25c-1.49.31-2.45.52-3.5.12s-1.59-1.15-2.87-2.75c-1.43-1.77-1.87-2.73-2.25-2.62s-.41,2.15-.38,2.62a35.88,35.88,0,0,0,3.88,14c2.1,3.69,3.19,12.13,5.37,29,1,7.5.53,6.49,2.13,22,1.17,11.39,1.76,17.08,2.62,22.5,1.21,7.62,2.21,10.46,7.5,29.75,4.24,15.46,7.12,26.45,11,41.25,4,15.41,5.23,20.35,5.92,23.25,1.57,6.65,1.89,8.41,3.25,13.5,2.7,10.15,4,15.23,5.08,17.75,2.32,5.68,5.47,11.43,3.33,13.84-.06.07-.51.43-1.41,1.16-2.53,2.05-3.51,2.72-4.59,3.59-4,3.19-3,4-6.08,5.91-1.58,1-2.6,1.28-3.58,2.67a7.94,7.94,0,0,0-1.25,3.58c-.82,4.65-.15,5.58-.92,8.92-1,4.2-2.55,5-3.08,5.25a1.8,1.8,0,0,1-1.17.17c-1.21-.34-1.35-2.35-2.42-5.17-.49-1.31-.54-1.09-1.66-3.5-1.6-3.44-2-5-3.59-9-.44-1.13-1.26-3.06-2.91-6.92-2.51-5.86-4.43-10.25-4.5-10.41-5.18-11.83-9.34-33-9.34-33-.27-1.4-4.12-16.6-11.83-47-7.2-28.4-10.8-42.6-13.17-51.17-2-7.11-4.35-15.49-6.66-27.33-.84-4.3-1.73-9.59-3.5-20.17-1.61-9.6-2.41-14.39-3.34-20.67-2.09-14.23-1.57-13.86-2.83-19.83-2.12-10.05-3.58-11.09-5-19.5a94.52,94.52,0,0,1-1.17-17.67c.32-10.59,2.49-18.14,5.84-29.5,5.53-18.75,8.3-28.13,10.33-31.33.76-1.19,3-4.59,2.5-8.67-.2-1.55-.74-2.67-2.67-6.16-3.21-5.83-4-6.86-4.83-8.5C913.49,374.05,913.62,365.14,915.79,364.31Z"/><path class="cls-2" d="M877.92,365.68c1.49.61-.33,5.06.75,11.88.88,5.61,3.21,9.6,5.12,12.87,3.07,5.26,4.63,7.94,8,9.63,2.18,1.09,3.72,1.07,6.5,2.87a23.43,23.43,0,0,1,4.88,4.5c6.05,7.58-.88,35.13-.88,35.13s-5.22,20.77-11.62,52c-2.12,10.32-3.57,18.64-4.63,24.75-1,5.51-3.3,19.3-5.75,37.5-1.28,9.49-2.26,16.79-3.25,27-.46,4.75-1.37,14.82-2,27.62-.2,4.08-1,21.9-.37,49.88.67,28.93,1,43.4,2.37,50.5,2.18,11.33,8.11,35.84,2.25,39.37a16.16,16.16,0,0,1-3.62,1.5,19.39,19.39,0,0,1-8.75.25c-5.38-.77-4.78.63-15,.63-9,0-8.1-1.09-14.38-.75-7.75.42-10.2,2.14-13.62.37s-4.89-5.57-5.75-8.25c-5.29-16.31-3.19-32.06-5-52.58-.64-7.41-.9-5.2-1.84-14.67-.74-7.52-1.44-17.69-1.16-41.83.25-21.61,0-32.49,1-35.5,3.44-10.56,10.91-22.7,7.5-25.67-1.12-1-2.57-.21-4.67-1.83s-2.93-4.36-3.67-7.17c-1.2-4.55-.15-5.38-1.66-8.33-1-1.89-1.71-2.15-2.34-4.17a10.84,10.84,0,0,1-.33-5.33c.51-2.53,1.63-2.89,2.17-5.17a10.41,10.41,0,0,0-.5-5.66c-.81-2.69-.93-6,.5-29.34.68-11.19,1-16.78,1.16-17.83,1-7.57,2-9.56,6.17-25.83,3.65-14.25,5.47-21.38,7.17-29.84,1.88-9.37,1.94-11.56,3.83-17,1.42-4.08,3.84-8.83,8.67-18.33a33,33,0,0,1,11.16-13.17c3.17-2.3,6.22-4.52,10.67-5.5s5,.48,7.67-.83c2.9-1.43,2.93-3.51,7.5-8.83C874.75,367.55,876.75,365.22,877.92,365.68Z"/><path class="cls-3" d="M915,304.18c1.33.21,2.92-.08,5.11,1.25,1.31.8,2.63,2.85,4.22,4.5a18.66,18.66,0,0,1,4,6.67,27,27,0,0,1,1.67,8c.18,2.3,1.09,10.14-.92,16.83-.28.93-.91,2.82-1.67,4.84-.89,2.38-1.55,3.83-1.75,4.25-.71,1.55-1.32,2.69-1.58,3.16-.52,1-1,1.72-1.25,2.17a24.82,24.82,0,0,1-2.25,3.33,19.23,19.23,0,0,1-2.5,2.5c-.5.41-.65.49-1.5,1.17,0,0-1,.82-2.08,1.75a39.63,39.63,0,0,0-4.42,5c-4.43,5.81-17.9,1.76-18.75,1.5-4.16-1.25-5.18-2.71-5.58-3.5a13.46,13.46,0,0,1-.92-4.92,25.37,25.37,0,0,1,0-2.75c.05-.79.09-.89.25-2.5s.25-2.49.25-3.25c0-1.28-.13-1.21-.17-2.83s.11-1.79,0-3a4,4,0,0,0-2.16-4,31.83,31.83,0,0,1-3.75-3.08,16.94,16.94,0,0,1-1.75-2.09,9,9,0,0,1-1.17-2,8.3,8.3,0,0,1-.5-1.91,15.44,15.44,0,0,1-.34-2.82,8,8,0,0,1,.28-2.2,3.68,3.68,0,0,1,2-1.52,4.26,4.26,0,0,1,2.2-.2,6.27,6.27,0,0,1,2.19,1.15c.83.52,1.31,1.38,2.25,3.09s1.08,2.34,1.67,2.5c.88.22,1.83-.75,2.25-1.17a9.56,9.56,0,0,0,2.17-4.25,39.29,39.29,0,0,1,3.16-5.67c1.45-2.38,3-4.25,7.75-9.16C911.37,304.66,913.18,303.9,915,304.18Z"/><path class="cls-4" d="M915.85,362c-.17-.53-1.75-.05-4.37-.38-2.25-.28-3.86-1-7.06-2.56a33,33,0,0,1-7.75-4.56,40.05,40.05,0,0,1-4.44-4.5c-1.56-1.77-3.63-4.32-3.63-4.32h0s-.63-.17-.81,0,.35,1.22.38,1.25c4.79,7.81,2.89,6.16,5.81,9.5,6,6.86,8.95,10.28,12.69,10.07a12.9,12.9,0,0,0,3.37-.82C913,364.67,916.11,362.77,915.85,362Z"/><ellipse cx="929.45" cy="330.46" rx="5.53" ry="6.66"/><ellipse cx="913.23" cy="330.4" rx="6.06" ry="6.53"/><line class="cls-5" x1="925.78" y1="329.96" x2="917.12" y2="329.96"/><line class="cls-5" x1="908" y1="329.51" x2="886.62" y2="329.26"/><path class="cls-6" d="M930.25,325.52c-.55-.34-1.47-6.64-1.92-8.59-.72-3.11-2.54-5.06-4.75-7.41-1.91-2-5.42-5.79-8.83-5a8.26,8.26,0,0,0-2.42,1.33,34.28,34.28,0,0,0-5.5,4.5c-6.42,6.58-6.87,5.63-9.83,9.5-3.56,4.65-5.34,7-6,9.83a8.84,8.84,0,0,1-2.67,4.84c-1.18,1-2,.87-2.16.83a2.83,2.83,0,0,1-1.67-1.5,10.83,10.83,0,0,1-.85-2.17,4,4,0,0,0-1.27-1.81,4.33,4.33,0,0,0-2.63-1.35,4.64,4.64,0,0,0-3.42,1.16c-1,1-.55,2.38-.62,3.3a9.44,9.44,0,0,0,2,6.53A22.29,22.29,0,0,0,882.6,344a7.91,7.91,0,0,1,2,1.81,9.93,9.93,0,0,1,.67,3.5c0,3.29.32,5.29-.25,8.58-.72,4.14.59,5.15-.31,6.38-1.09,1.47-3.5,1.95-4,2.12a4.53,4.53,0,0,1-3.42.25c-1.33-.62-1.73-2.21-2.25-4.33s-.8-3.2-.33-4.67a8.07,8.07,0,0,1,3.5-4.08c1.51-1,2.38-.9,3.08-2a4.12,4.12,0,0,0,.5-2.83c-.25-1.36-1.14-2.11-2.08-3.09a51.5,51.5,0,0,1-3.5-4.66c-2.5-3.28-3-7.5-3.5-11.75-.45-3.75-.93-7.87.5-12.92a28.88,28.88,0,0,1,7.91-12.75,33.59,33.59,0,0,1,13.75-8.42,29.5,29.5,0,0,1,15.75-.58c8.17,2,13,7.08,15.42,9.67a21.34,21.34,0,0,1,4.92,8.29s1.81,3.11.75,12.79c0,.29-.15.39-.2.42a.49.49,0,0,1-.27.08.72.72,0,0,1-.33-.06Z"/></g><g id="Livello_5" data-name="Livello 5"><polygon class="cls-7" points="892.04 296.6 892.17 406.77 940.17 400.94 940.51 378.38 983.06 388.25 1026.72 561.36 1020.34 806.21 962.38 768.17 807.66 761.28 777.79 577.45 807.66 385.19 868.94 297.11 892.04 296.6"/><polygon class="cls-8" points="891.49 406.21 891.28 266.34 897.02 245.79 901.49 236.85 909.53 229.7 918.72 229.32 926.13 232.64 936.09 245.91 942.21 260.08 941.19 402.3 893.19 408.17 891.49 406.21"/></g><g id="Livello_2" data-name="Livello 2"><polygon class="cls-9" points="973.43 467.59 973.43 474.18 966.47 475.77 932.89 483.2 932.89 476.3 973.43 467.59"/><polygon class="cls-9" points="973.43 467.59 932.89 476.3 932.89 471.31 958.76 465.89 967.96 466.95 973.43 467.59"/><polygon class="cls-10" points="968.22 405.67 968.22 463.93 967.96 466.95 958.76 465.89 932.89 471.31 932.89 449.64 929.6 449.32 914.56 452.09 914.56 413.37 968.22 405.67"/><polygon class="cls-11" points="968.22 405.67 914.56 413.37 911.32 413.11 944.47 408.38 965.03 405.41 968.22 405.67"/><polygon class="cls-10" points="966.47 475.77 966.31 476.62 965.51 479.7 964.56 482.73 963.55 485.59 962.38 488.41 961.1 491.12 959.77 493.67 958.29 496.05 956.75 498.34 955.15 500.41 953.45 502.27 951.7 504.02 949.84 505.51 947.98 506.78 946.07 507.84 944.15 508.69 942.19 509.33 940.22 509.7 938.26 509.86 936.34 509.76 934.38 509.38 932.52 508.8 930.66 507.95 928.85 506.89 927.15 505.56 925.5 504.07 923.91 502.27 922.42 500.3 921.04 498.18 919.82 495.79 918.65 493.24 917.64 490.59 916.84 487.98 932.89 484.37 932.89 483.2 966.47 475.77"/><polygon class="cls-12" points="944.47 403.82 944.47 408.38 911.32 413.11 911.32 452.67 901.7 454.48 901.7 436.74 901.44 436.63 901.01 436.53 900.32 436.42 899.52 436.37 898.62 436.37 897.66 436.37 896.76 436.37 895.96 436.42 895.27 436.53 894.74 436.63 894.48 436.74 894.48 436.9 894.48 455.8 886.56 457.24 886.56 439.39 886.56 439.24 886.35 439.13 885.92 439.02 885.23 438.92 884.43 438.86 883.53 438.86 882.58 438.86 881.62 438.86 880.77 438.92 880.08 439.02 879.55 439.13 879.28 439.24 879.23 439.39 879.23 458.62 842.51 465.41 842.51 481.72 801.98 489.84 801.98 497.22 842.51 503.33 845.97 503.81 913.92 488.62 914.4 490.11 915.41 492.82 916.58 495.36 917.8 497.7 919.18 499.88 920.67 501.84 922.26 503.6 923.38 504.6 801.98 534.13 797.99 534.77 794.01 534.82 790.08 534.29 786.25 533.07 782.58 531.26 779.08 528.87 775.84 525.9 772.91 522.39 770.26 518.3 767.92 513.84 766.01 508.91 764.47 503.65 763.35 498.07 762.71 492.23 762.45 486.28 762.71 480.23 763.35 474.18 764.47 468.18 766.01 462.33 767.92 456.71 770.26 451.29 772.91 446.24 775.84 441.57 779.08 437.38 782.58 433.66 786.25 430.47 790.08 427.82 794.01 425.75 797.99 424.31 801.98 423.41 890.33 411.25 944.47 403.82"/><path class="cls-10" d="M944.47,268V403.82l-54.14,7.43V267.4h.06l1.38-11.21,3-10.19,4.51-8.55,5.69-6.32,6.43-3.77,6.8-1,6.64,1.75,6.21,4.36,5.26,6.63,4.15,8.5,2.76,9.82Zm-2.28,132.28V268.41l-1.12-9.83-2.5-9-3.82-7.76-4.84-6-5.63-3.93-6-1.59-1.81.32-4.36.63-5.84,3.46-5.16,5.78-4.14,7.81-2.76,9.24-1.28,10.78V406.9Z"/><polygon class="cls-11" points="942.19 268.41 942.19 400.31 939.64 400.1 939.64 268.41 942.19 268.41"/><polygon class="cls-11" points="941.07 258.58 942.19 268.41 939.64 268.41 938.52 258.63 935.97 249.66 932.2 241.91 927.36 235.91 921.73 231.92 916.42 230.6 918.23 230.28 924.28 231.87 929.91 235.8 934.75 241.85 938.57 249.61 941.07 258.58"/><polygon class="cls-11" points="942.19 400.31 892.88 406.9 892.88 406.31 939.64 400.1 942.19 400.31"/><polygon class="cls-11" points="936.34 509.76 933.1 509.28 931.19 508.91 929.28 508.32 927.42 507.47 925.66 506.41 923.91 505.14 923.38 504.6 922.26 503.6 920.67 501.84 919.18 499.88 917.8 497.7 916.58 495.36 915.41 492.82 914.4 490.11 913.92 488.62 916.84 487.98 917.64 490.59 918.65 493.24 919.82 495.79 921.04 498.18 922.42 500.3 923.91 502.27 925.5 504.07 927.15 505.56 928.85 506.89 930.66 507.95 932.52 508.8 934.38 509.38 936.34 509.76"/><polygon class="cls-9" points="932.89 483.2 932.89 484.37 916.84 487.98 913.92 488.62 845.97 503.81 845.97 484.8 845.97 465.84 879.23 459.63 879.23 487.24 879.44 487.4 879.92 487.56 880.56 487.66 881.41 487.72 882.31 487.77 883.27 487.77 884.22 487.72 885.07 487.66 885.76 487.56 886.29 487.4 886.56 487.24 886.56 487.08 886.56 458.25 894.48 456.81 894.48 483.95 894.69 484.11 895.17 484.27 895.8 484.37 896.6 484.48 897.56 484.48 898.46 484.48 899.42 484.48 900.21 484.37 900.91 484.27 901.38 484.11 901.65 483.95 901.7 483.79 901.7 455.48 932.89 449.64 932.89 471.31 932.89 476.3 932.89 483.2"/><polygon class="cls-9" points="932.89 449.64 901.7 455.48 901.7 454.48 911.32 452.67 914.56 452.09 929.6 449.32 932.89 449.64"/><polygon class="cls-11" points="918.23 226.35 911.43 227.36 905 231.13 899.31 237.45 894.8 246 891.77 256.19 890.39 267.4 890.33 267.4 883.85 267.45 885.23 256.3 888.26 246.16 892.83 237.66 898.51 231.34 904.94 227.57 911.74 226.56 918.23 226.35"/><polygon class="cls-11" points="914.56 413.37 914.56 452.09 911.32 452.67 911.32 413.11 914.56 413.37"/><polygon class="cls-13" points="901.7 455.48 901.7 483.79 901.65 483.95 901.38 484.11 900.91 484.27 900.21 484.37 899.42 484.48 898.46 484.48 897.56 484.48 896.6 484.48 895.8 484.37 895.17 484.27 894.69 484.11 894.48 483.95 894.48 456.81 894.48 455.8 894.48 436.9 894.69 437.01 895.17 437.11 895.8 437.16 896.6 437.27 897.56 437.27 898.46 437.27 899.42 437.27 900.21 437.16 900.91 437.11 901.38 437.01 901.65 436.9 901.7 436.74 901.7 454.48 901.7 455.48"/><polygon class="cls-13" points="901.7 436.74 901.65 436.9 901.38 437.01 900.91 437.11 900.21 437.16 899.42 437.27 898.46 437.27 897.56 437.27 896.6 437.27 895.8 437.16 895.17 437.11 894.69 437.01 894.48 436.9 894.48 436.74 894.74 436.63 895.27 436.53 895.96 436.42 896.76 436.37 897.66 436.37 898.62 436.37 899.52 436.37 900.32 436.42 901.01 436.53 901.44 436.63 901.7 436.74"/><polygon class="cls-9" points="894.48 455.8 894.48 456.81 886.56 458.25 886.56 457.24 894.48 455.8"/><polygon class="cls-11" points="890.33 267.4 890.33 411.25 883.8 410.72 883.8 267.45 883.85 267.45 890.33 267.4"/><polygon class="cls-12" points="890.33 411.25 801.98 423.41 795.23 422.77 883.8 410.72 890.33 411.25"/><polygon class="cls-13" points="886.56 487.08 886.56 487.24 886.29 487.4 885.76 487.56 885.07 487.66 884.22 487.72 883.27 487.77 882.31 487.77 881.41 487.72 880.56 487.66 879.92 487.56 879.44 487.4 879.23 487.24 879.23 459.63 879.23 458.62 879.23 439.39 879.44 439.5 879.92 439.61 880.56 439.71 881.41 439.77 882.31 439.82 883.27 439.82 884.22 439.77 885.07 439.71 885.76 439.61 886.29 439.5 886.56 439.39 886.56 457.24 886.56 458.25 886.56 487.08"/><polygon class="cls-13" points="886.56 439.24 886.56 439.39 886.29 439.5 885.76 439.61 885.07 439.71 884.22 439.77 883.27 439.82 882.31 439.82 881.41 439.77 880.56 439.71 879.92 439.61 879.44 439.5 879.23 439.39 879.28 439.24 879.55 439.13 880.08 439.02 880.77 438.92 881.62 438.86 882.58 438.86 883.53 438.86 884.43 438.86 885.23 438.92 885.92 439.02 886.35 439.13 886.56 439.24"/><polygon class="cls-9" points="879.23 458.62 879.23 459.63 845.97 465.84 842.51 465.41 879.23 458.62"/><polygon class="cls-9" points="845.97 484.8 845.97 503.81 842.51 503.33 842.51 495.74 842.51 484.37 842.51 481.72 842.51 465.41 845.97 465.84 845.97 484.8"/><polygon class="cls-9" points="842.51 495.74 842.51 503.33 801.98 497.22 801.98 489.84 842.51 495.74"/><polygon class="cls-9" points="842.51 484.37 842.51 495.74 801.98 489.84 842.51 481.72 842.51 484.37"/><polygon class="cls-12" points="801.98 423.41 797.99 424.31 794.01 425.75 790.08 427.82 786.25 430.47 782.58 433.66 779.08 437.38 775.84 441.57 772.91 446.24 770.26 451.29 767.92 456.71 766.01 462.33 764.47 468.18 763.35 474.18 762.71 480.23 762.45 486.28 762.71 492.23 763.35 498.07 764.47 503.65 766.01 508.91 767.92 513.84 770.26 518.3 772.91 522.39 775.84 525.9 779.08 528.87 782.58 531.26 786.25 533.07 790.08 534.29 783.33 533.07 779.5 531.9 775.84 530.09 772.33 527.7 769.09 524.73 766.11 521.23 763.46 517.19 761.17 512.73 759.21 507.79 757.67 502.53 756.6 497.01 755.91 491.22 755.7 485.33 755.91 479.27 756.6 473.27 757.67 467.27 759.21 461.49 761.17 455.86 763.46 450.49 766.11 445.45 769.09 440.83 772.33 436.63 775.84 432.92 779.5 429.73 783.33 427.13 787.26 425.06 791.24 423.62 795.23 422.77 801.98 423.41"/><line class="cls-14" x1="900.32" y1="436.42" x2="899.52" y2="436.37"/><line class="cls-14" x1="901.01" y1="436.53" x2="900.32" y2="436.42"/><line class="cls-14" x1="901.44" y1="436.63" x2="901.01" y2="436.53"/><line class="cls-14" x1="890.33" y1="411.25" x2="801.98" y2="423.41"/><line class="cls-14" x1="845.97" y1="503.81" x2="913.92" y2="488.62"/><line class="cls-14" x1="911.32" y1="452.67" x2="901.7" y2="454.48"/><line class="cls-14" x1="932.89" y1="483.2" x2="966.47" y2="475.77"/><line class="cls-14" x1="966.47" y1="475.77" x2="973.43" y2="474.18"/><line class="cls-14" x1="973.43" y1="467.59" x2="967.96" y2="466.95"/><line class="cls-14" x1="967.96" y1="466.95" x2="958.76" y2="465.89"/><line class="cls-14" x1="883.85" y1="267.45" x2="890.33" y2="267.4"/><line class="cls-14" x1="918.23" y1="230.28" x2="916.42" y2="230.6"/><line class="cls-14" x1="916.42" y1="230.6" x2="912.06" y2="231.23"/><line class="cls-14" x1="911.32" y1="413.11" x2="944.47" y2="408.38"/><line class="cls-14" x1="944.47" y1="408.38" x2="965.03" y2="405.41"/><line class="cls-14" x1="922.26" y1="503.6" x2="923.38" y2="504.6"/><line class="cls-14" x1="923.38" y1="504.6" x2="923.91" y2="505.14"/><line class="cls-14" x1="913.92" y1="488.62" x2="916.84" y2="487.98"/><line class="cls-14" x1="916.84" y1="487.98" x2="932.89" y2="484.37"/><line class="cls-14" x1="929.6" y1="449.32" x2="914.56" y2="452.09"/><line class="cls-14" x1="914.56" y1="452.09" x2="911.32" y2="452.67"/><line class="cls-14" x1="769.09" y1="524.73" x2="766.11" y2="521.23"/><line class="cls-14" x1="766.11" y1="521.23" x2="763.46" y2="517.19"/><line class="cls-14" x1="763.46" y1="517.19" x2="761.17" y2="512.73"/><line class="cls-14" x1="761.17" y1="512.73" x2="759.21" y2="507.79"/><line class="cls-14" x1="759.21" y1="507.79" x2="757.67" y2="502.53"/><line class="cls-14" x1="757.67" y1="502.53" x2="756.6" y2="497.01"/><line class="cls-14" x1="756.6" y1="497.01" x2="755.91" y2="491.22"/><line class="cls-14" x1="755.91" y1="491.22" x2="755.7" y2="485.33"/><line class="cls-14" x1="755.7" y1="485.33" x2="755.91" y2="479.27"/><line class="cls-14" x1="755.91" y1="479.27" x2="756.6" y2="473.27"/><line class="cls-14" x1="756.6" y1="473.27" x2="757.67" y2="467.27"/><line class="cls-14" x1="757.67" y1="467.27" x2="759.21" y2="461.49"/><line class="cls-14" x1="759.21" y1="461.49" x2="761.17" y2="455.86"/><line class="cls-14" x1="761.17" y1="455.86" x2="763.46" y2="450.49"/><line class="cls-14" x1="763.46" y1="450.49" x2="766.11" y2="445.45"/><line class="cls-14" x1="766.11" y1="445.45" x2="769.09" y2="440.83"/><line class="cls-14" x1="769.09" y1="440.83" x2="772.33" y2="436.63"/><line class="cls-14" x1="772.33" y1="436.63" x2="775.84" y2="432.92"/><line class="cls-14" x1="775.84" y1="432.92" x2="779.5" y2="429.73"/><line class="cls-14" x1="779.5" y1="429.73" x2="783.33" y2="427.13"/><line class="cls-14" x1="783.33" y1="427.13" x2="787.26" y2="425.06"/><line class="cls-14" x1="787.26" y1="425.06" x2="791.24" y2="423.62"/><line class="cls-14" x1="791.24" y1="423.62" x2="795.23" y2="422.77"/><line class="cls-14" x1="883.8" y1="410.72" x2="795.23" y2="422.77"/><line class="cls-14" x1="801.98" y1="534.13" x2="923.38" y2="504.6"/><line class="cls-14" x1="801.98" y1="534.13" x2="797.99" y2="534.77"/><line class="cls-14" x1="797.99" y1="534.77" x2="794.01" y2="534.82"/><line class="cls-14" x1="794.01" y1="534.82" x2="790.08" y2="534.29"/><line class="cls-14" x1="790.08" y1="534.29" x2="786.25" y2="533.07"/><line class="cls-14" x1="786.25" y1="533.07" x2="782.58" y2="531.26"/><line class="cls-14" x1="782.58" y1="531.26" x2="779.08" y2="528.87"/><line class="cls-14" x1="779.08" y1="528.87" x2="775.84" y2="525.9"/><line class="cls-14" x1="775.84" y1="525.9" x2="772.91" y2="522.39"/><line class="cls-14" x1="772.91" y1="522.39" x2="770.26" y2="518.3"/><line class="cls-14" x1="770.26" y1="518.3" x2="767.92" y2="513.84"/><line class="cls-14" x1="767.92" y1="513.84" x2="766.01" y2="508.91"/><line class="cls-14" x1="766.01" y1="508.91" x2="764.47" y2="503.65"/><line class="cls-14" x1="764.47" y1="503.65" x2="763.35" y2="498.07"/><line class="cls-14" x1="763.35" y1="498.07" x2="762.71" y2="492.23"/><line class="cls-14" x1="762.71" y1="492.23" x2="762.45" y2="486.28"/><line class="cls-14" x1="762.45" y1="486.28" x2="762.71" y2="480.23"/><line class="cls-14" x1="762.71" y1="480.23" x2="763.35" y2="474.18"/><line class="cls-14" x1="763.35" y1="474.18" x2="764.47" y2="468.18"/><line class="cls-14" x1="764.47" y1="468.18" x2="766.01" y2="462.33"/><line class="cls-14" x1="766.01" y1="462.33" x2="767.92" y2="456.71"/><line class="cls-14" x1="767.92" y1="456.71" x2="770.26" y2="451.29"/><line class="cls-14" x1="770.26" y1="451.29" x2="772.91" y2="446.24"/><line class="cls-14" x1="772.91" y1="446.24" x2="775.84" y2="441.57"/><line class="cls-14" x1="775.84" y1="441.57" x2="779.08" y2="437.38"/><line class="cls-14" x1="779.08" y1="437.38" x2="782.58" y2="433.66"/><line class="cls-14" x1="782.58" y1="433.66" x2="786.25" y2="430.47"/><line class="cls-14" x1="786.25" y1="430.47" x2="790.08" y2="427.82"/><line class="cls-14" x1="790.08" y1="427.82" x2="794.01" y2="425.75"/><line class="cls-14" x1="794.01" y1="425.75" x2="797.99" y2="424.31"/><line class="cls-14" x1="797.99" y1="424.31" x2="801.98" y2="423.41"/><line class="cls-14" x1="783.33" y1="533.07" x2="790.08" y2="534.29"/><line class="cls-14" x1="795.23" y1="422.77" x2="801.98" y2="423.41"/><line class="cls-14" x1="932.89" y1="449.64" x2="901.7" y2="455.48"/><line class="cls-14" x1="894.48" y1="456.81" x2="886.56" y2="458.25"/><line class="cls-14" x1="879.23" y1="459.63" x2="845.97" y2="465.84"/><line class="cls-14" x1="894.48" y1="455.8" x2="886.56" y2="457.24"/><line class="cls-14" x1="879.23" y1="458.62" x2="842.51" y2="465.41"/><line class="cls-14" x1="845.97" y1="465.84" x2="842.51" y2="465.41"/><line class="cls-14" x1="845.97" y1="503.81" x2="842.51" y2="503.33"/><line class="cls-14" x1="932.89" y1="449.64" x2="929.6" y2="449.32"/><line class="cls-14" x1="801.98" y1="497.22" x2="842.51" y2="503.33"/><line class="cls-14" x1="801.98" y1="489.84" x2="842.51" y2="495.74"/><line class="cls-14" x1="932.89" y1="476.3" x2="973.43" y2="467.59"/><line class="cls-14" x1="883.85" y1="267.45" x2="885.23" y2="256.3"/><line class="cls-14" x1="885.23" y1="256.3" x2="888.26" y2="246.16"/><line class="cls-14" x1="888.26" y1="246.16" x2="892.83" y2="237.66"/><line class="cls-14" x1="892.83" y1="237.66" x2="898.51" y2="231.34"/><line class="cls-14" x1="898.51" y1="231.34" x2="904.94" y2="227.57"/><line class="cls-14" x1="904.94" y1="227.57" x2="911.74" y2="226.56"/><line class="cls-14" x1="890.39" y1="267.4" x2="891.77" y2="256.19"/><line class="cls-14" x1="891.77" y1="256.19" x2="894.8" y2="246"/><line class="cls-14" x1="894.8" y1="246" x2="899.31" y2="237.45"/><line class="cls-14" x1="899.31" y1="237.45" x2="905" y2="231.13"/><line class="cls-14" x1="905" y1="231.13" x2="911.43" y2="227.36"/><line class="cls-14" x1="911.43" y1="227.36" x2="918.23" y2="226.35"/><line class="cls-14" x1="918.23" y1="226.35" x2="924.87" y2="228.1"/><line class="cls-14" x1="924.87" y1="228.1" x2="931.08" y2="232.46"/><line class="cls-14" x1="931.08" y1="232.46" x2="936.34" y2="239.09"/><line class="cls-14" x1="936.34" y1="239.09" x2="940.49" y2="247.59"/><line class="cls-14" x1="940.49" y1="247.59" x2="943.25" y2="257.41"/><line class="cls-14" x1="943.25" y1="257.41" x2="944.47" y2="268.03"/><line class="cls-14" x1="890.33" y1="411.25" x2="944.47" y2="403.82"/><line class="cls-14" x1="911.74" y1="226.56" x2="918.23" y2="226.35"/><line class="cls-14" x1="942.19" y1="268.41" x2="941.07" y2="258.58"/><line class="cls-14" x1="941.07" y1="258.58" x2="938.57" y2="249.61"/><line class="cls-14" x1="938.57" y1="249.61" x2="934.75" y2="241.85"/><line class="cls-14" x1="934.75" y1="241.85" x2="929.91" y2="235.8"/><line class="cls-14" x1="929.91" y1="235.8" x2="924.28" y2="231.87"/><line class="cls-14" x1="924.28" y1="231.87" x2="918.23" y2="230.28"/><line class="cls-14" x1="912.06" y1="231.23" x2="906.22" y2="234.69"/><line class="cls-14" x1="906.22" y1="234.69" x2="901.06" y2="240.47"/><line class="cls-14" x1="901.06" y1="240.47" x2="896.92" y2="248.28"/><line class="cls-14" x1="896.92" y1="248.28" x2="894.16" y2="257.52"/><line class="cls-14" x1="894.16" y1="257.52" x2="892.88" y2="268.3"/><line class="cls-14" x1="892.88" y1="406.9" x2="942.19" y2="400.31"/><line class="cls-14" x1="932.2" y1="241.91" x2="927.36" y2="235.91"/><line class="cls-14" x1="927.36" y1="235.91" x2="921.73" y2="231.92"/><line class="cls-14" x1="921.73" y1="231.92" x2="916.42" y2="230.6"/><line class="cls-14" x1="892.88" y1="406.31" x2="939.64" y2="400.1"/><line class="cls-14" x1="939.64" y1="268.41" x2="938.52" y2="258.63"/><line class="cls-14" x1="938.52" y1="258.63" x2="935.97" y2="249.66"/><line class="cls-14" x1="935.97" y1="249.66" x2="932.2" y2="241.91"/><line class="cls-14" x1="942.19" y1="400.31" x2="939.64" y2="400.1"/><line class="cls-14" x1="931.19" y1="508.91" x2="933.1" y2="509.28"/><line class="cls-14" x1="929.28" y1="508.32" x2="931.19" y2="508.91"/><line class="cls-14" x1="927.42" y1="507.47" x2="929.28" y2="508.32"/><line class="cls-14" x1="925.66" y1="506.41" x2="927.42" y2="507.47"/><line class="cls-14" x1="923.91" y1="505.14" x2="925.66" y2="506.41"/><line class="cls-14" x1="920.67" y1="501.84" x2="922.26" y2="503.6"/><line class="cls-14" x1="919.18" y1="499.88" x2="920.67" y2="501.84"/><line class="cls-14" x1="917.8" y1="497.7" x2="919.18" y2="499.88"/><line class="cls-14" x1="916.58" y1="495.36" x2="917.8" y2="497.7"/><line class="cls-14" x1="915.41" y1="492.82" x2="916.58" y2="495.36"/><line class="cls-14" x1="914.4" y1="490.11" x2="915.41" y2="492.82"/><line class="cls-14" x1="913.92" y1="488.62" x2="914.4" y2="490.11"/><line class="cls-14" x1="914.56" y1="413.37" x2="968.22" y2="405.67"/><line class="cls-14" x1="967.96" y1="466.95" x2="968.22" y2="463.93"/><line class="cls-14" x1="966.31" y1="476.62" x2="966.47" y2="475.77"/><line class="cls-14" x1="965.51" y1="479.7" x2="966.31" y2="476.62"/><line class="cls-14" x1="964.56" y1="482.73" x2="965.51" y2="479.7"/><line class="cls-14" x1="963.55" y1="485.59" x2="964.56" y2="482.73"/><line class="cls-14" x1="962.38" y1="488.41" x2="963.55" y2="485.59"/><line class="cls-14" x1="961.1" y1="491.12" x2="962.38" y2="488.41"/><line class="cls-14" x1="959.77" y1="493.67" x2="961.1" y2="491.12"/><line class="cls-14" x1="958.29" y1="496.05" x2="959.77" y2="493.67"/><line class="cls-14" x1="956.75" y1="498.34" x2="958.29" y2="496.05"/><line class="cls-14" x1="955.15" y1="500.41" x2="956.75" y2="498.34"/><line class="cls-14" x1="953.45" y1="502.27" x2="955.15" y2="500.41"/><line class="cls-14" x1="951.7" y1="504.02" x2="953.45" y2="502.27"/><line class="cls-14" x1="949.84" y1="505.51" x2="951.7" y2="504.02"/><line class="cls-14" x1="947.98" y1="506.78" x2="949.84" y2="505.51"/><line class="cls-14" x1="946.07" y1="507.84" x2="947.98" y2="506.78"/><line class="cls-14" x1="944.15" y1="508.69" x2="946.07" y2="507.84"/><line class="cls-14" x1="942.19" y1="509.33" x2="944.15" y2="508.69"/><line class="cls-14" x1="940.22" y1="509.7" x2="942.19" y2="509.33"/><line class="cls-14" x1="938.26" y1="509.86" x2="940.22" y2="509.7"/><line class="cls-14" x1="936.34" y1="509.76" x2="938.26" y2="509.86"/><line class="cls-14" x1="934.38" y1="509.38" x2="936.34" y2="509.76"/><line class="cls-14" x1="932.52" y1="508.8" x2="934.38" y2="509.38"/><line class="cls-14" x1="930.66" y1="507.95" x2="932.52" y2="508.8"/><line class="cls-14" x1="928.85" y1="506.89" x2="930.66" y2="507.95"/><line class="cls-14" x1="927.15" y1="505.56" x2="928.85" y2="506.89"/><line class="cls-14" x1="925.5" y1="504.07" x2="927.15" y2="505.56"/><line class="cls-14" x1="923.91" y1="502.27" x2="925.5" y2="504.07"/><line class="cls-14" x1="922.42" y1="500.3" x2="923.91" y2="502.27"/><line class="cls-14" x1="921.04" y1="498.18" x2="922.42" y2="500.3"/><line class="cls-14" x1="919.82" y1="495.79" x2="921.04" y2="498.18"/><line class="cls-14" x1="918.65" y1="493.24" x2="919.82" y2="495.79"/><line class="cls-14" x1="917.64" y1="490.59" x2="918.65" y2="493.24"/><line class="cls-14" x1="916.84" y1="487.98" x2="917.64" y2="490.59"/><line class="cls-14" x1="911.32" y1="413.11" x2="914.56" y2="413.37"/><line class="cls-14" x1="965.03" y1="405.41" x2="968.22" y2="405.67"/><line class="cls-14" x1="933.1" y1="509.28" x2="936.34" y2="509.76"/><line class="cls-14" x1="886.29" y1="487.4" x2="886.56" y2="487.24"/><line class="cls-14" x1="885.76" y1="487.56" x2="886.29" y2="487.4"/><line class="cls-14" x1="885.07" y1="487.66" x2="885.76" y2="487.56"/><line class="cls-14" x1="884.22" y1="487.72" x2="885.07" y2="487.66"/><line class="cls-14" x1="883.27" y1="487.77" x2="884.22" y2="487.72"/><line class="cls-14" x1="881.41" y1="487.72" x2="882.31" y2="487.77"/><line class="cls-14" x1="880.56" y1="487.66" x2="881.41" y2="487.72"/><line class="cls-14" x1="879.92" y1="487.56" x2="880.56" y2="487.66"/><line class="cls-14" x1="879.44" y1="487.4" x2="879.92" y2="487.56"/><line class="cls-14" x1="879.23" y1="487.24" x2="879.44" y2="487.4"/><line class="cls-14" x1="886.56" y1="439.24" x2="886.35" y2="439.13"/><line class="cls-14" x1="886.29" y1="439.5" x2="886.56" y2="439.39"/><line class="cls-14" x1="885.76" y1="439.61" x2="886.29" y2="439.5"/><line class="cls-14" x1="885.07" y1="439.71" x2="885.76" y2="439.61"/><line class="cls-14" x1="884.22" y1="439.77" x2="885.07" y2="439.71"/><line class="cls-14" x1="883.27" y1="439.82" x2="884.22" y2="439.77"/><line class="cls-14" x1="881.41" y1="439.77" x2="882.31" y2="439.82"/><line class="cls-14" x1="880.56" y1="439.71" x2="881.41" y2="439.77"/><line class="cls-14" x1="879.92" y1="439.61" x2="880.56" y2="439.71"/><line class="cls-14" x1="879.44" y1="439.5" x2="879.92" y2="439.61"/><line class="cls-14" x1="879.23" y1="439.39" x2="879.44" y2="439.5"/><line class="cls-14" x1="879.28" y1="439.24" x2="879.23" y2="439.39"/><line class="cls-14" x1="879.55" y1="439.13" x2="879.28" y2="439.24"/><line class="cls-14" x1="880.08" y1="439.02" x2="879.55" y2="439.13"/><line class="cls-14" x1="880.77" y1="438.92" x2="880.08" y2="439.02"/><line class="cls-14" x1="881.62" y1="438.86" x2="880.77" y2="438.92"/><line class="cls-14" x1="885.23" y1="438.92" x2="884.43" y2="438.86"/><line class="cls-14" x1="885.92" y1="439.02" x2="885.23" y2="438.92"/><line class="cls-14" x1="886.35" y1="439.13" x2="885.92" y2="439.02"/><line class="cls-14" x1="901.65" y1="483.95" x2="901.7" y2="483.79"/><line class="cls-14" x1="901.38" y1="484.11" x2="901.65" y2="483.95"/><line class="cls-14" x1="900.91" y1="484.27" x2="901.38" y2="484.11"/><line class="cls-14" x1="900.21" y1="484.37" x2="900.91" y2="484.27"/><line class="cls-14" x1="899.42" y1="484.48" x2="900.21" y2="484.37"/><line class="cls-14" x1="895.8" y1="484.37" x2="896.6" y2="484.48"/><line class="cls-14" x1="895.17" y1="484.27" x2="895.8" y2="484.37"/><line class="cls-14" x1="894.69" y1="484.11" x2="895.17" y2="484.27"/><line class="cls-14" x1="894.48" y1="483.95" x2="894.69" y2="484.11"/><line class="cls-14" x1="901.7" y1="436.74" x2="901.44" y2="436.63"/><line class="cls-14" x1="901.65" y1="436.9" x2="901.7" y2="436.74"/><line class="cls-14" x1="901.38" y1="437.01" x2="901.65" y2="436.9"/><line class="cls-14" x1="900.91" y1="437.11" x2="901.38" y2="437.01"/><line class="cls-14" x1="900.21" y1="437.16" x2="900.91" y2="437.11"/><line class="cls-14" x1="899.42" y1="437.27" x2="900.21" y2="437.16"/><line class="cls-14" x1="895.8" y1="437.16" x2="896.6" y2="437.27"/><line class="cls-14" x1="895.17" y1="437.11" x2="895.8" y2="437.16"/><line class="cls-14" x1="894.69" y1="437.01" x2="895.17" y2="437.11"/><line class="cls-14" x1="894.48" y1="436.9" x2="894.69" y2="437.01"/><line class="cls-14" x1="894.74" y1="436.63" x2="894.48" y2="436.74"/><line class="cls-14" x1="895.27" y1="436.53" x2="894.74" y2="436.63"/><line class="cls-14" x1="895.96" y1="436.42" x2="895.27" y2="436.53"/><line class="cls-14" x1="896.76" y1="436.37" x2="895.96" y2="436.42"/><line class="cls-14" x1="801.98" y1="489.84" x2="842.51" y2="481.72"/><line class="cls-14" x1="883.8" y1="410.72" x2="890.33" y2="411.25"/><line class="cls-14" x1="932.89" y1="471.31" x2="958.76" y2="465.89"/><line class="cls-14" x1="783.33" y1="533.07" x2="779.5" y2="531.9"/><line class="cls-14" x1="775.84" y1="530.09" x2="772.33" y2="527.7"/><line class="cls-14" x1="779.5" y1="531.9" x2="775.84" y2="530.09"/><line class="cls-14" x1="772.33" y1="527.7" x2="769.09" y2="524.73"/><ellipse class="cls-15" cx="854.22" cy="811.49" rx="105.09" ry="17.8" transform="translate(-147.03 190.43) rotate(-11.72)"/></g><g id="Livello_3" data-name="Livello 3"><path class="cls-16" d="M1022.49,396.31c.11-.12.26-.37.33-.35,9.26,2.54,11.39-4.49,14.2-10.58.62-1.35,1.12-2.76,1.68-4.14,1.52-.59,3.09-.08,4.63-.19,8.14-.41,16.55,1.35,24.17-3.09a12.83,12.83,0,0,1,2.19-.74,7.83,7.83,0,0,1,2.93-.29c4.61.65,6.23,3.79,6.55,8,.08,1.09-.41,2.43,1.44,2.42l0,0a20.58,20.58,0,0,0,3.11,4c8,7.25,15,15.3,19.91,25,.87,1.73,1.92,3.37,2.88,5-1.16,1.76.54,3.21.53,4.84.56,2.77.59,5.63,1.5,8.33.71,3.17-.08,6.47.88,9.62a8.66,8.66,0,0,1,0,3.21,16.59,16.59,0,0,0-.56,5.39c.12,8,.1,16.08,1.75,24a19.29,19.29,0,0,1-.08,6.9c-.11.65.07,1,.1.39a2.15,2.15,0,0,1,.49-.07,1.7,1.7,0,0,1,1,.77,6.37,6.37,0,0,1,.28,4.13c-.18.8-.54,1.55-.8,2.33s-1.19,1.22-.26,2c-.25-1.46.57-1.07,1.34-.76,1.48,8,4.56,15.92,2.32,24.3-.5.45-1,.81-1.67.22-.39-.34,0-1-.62-1.23.27.41.07,1,.45,1.33a1.46,1.46,0,0,1,.62,1.23,3.07,3.07,0,0,1-.91,1.23c-4.35,2.07-9.13,1.57-13.66,1.91-13.85,1.05-27.69,2.25-41.55,3.29-2.55.19-5,.36-6.13,3.21-4.41,9.46-8.77,19-15,27.46-2.37,1.06-3.44,2.76-2.66,5.38-.41,3.92-3.22,6.5-5.37,9.4-1.68,2.28-3.08,4.73-4.67,7a2.77,2.77,0,0,1-1.34.29c1.14,2.48.62,5.18,1.08,7.74.21,1.14,1.25.65,2,.66a3.5,3.5,0,0,1,1.78.78c3.56,1.08,7.45-.51,10,1,.92.33,1,.27,1,.14-.71-.35-1.88.21-2.11-1.08,1.75-2.75,4.92-1.28,7.2-2.45a21.77,21.77,0,0,1,3.31-.45c9.81-.82,19.52-2.42,29.29-3.49a18.69,18.69,0,0,1,4.09-.43,15.69,15.69,0,0,0,5.45-.6,21.41,21.41,0,0,1,4.72-.4,18.22,18.22,0,0,0,6.15-.59,44.51,44.51,0,0,0,5.47-1.1,45.69,45.69,0,0,1,7.39-.36c3.44-.11,6.91.37,10.32-.37,1.94-.69,4.38,0,5.79-2.12,1.24-2.13.32-4.65,1.25-6.83a3.59,3.59,0,0,1,2-2.1c3.48-1.19,1.22-2,0-3.31-2.22-2.33-1.58-5.53-2.18-8.38-.77-3.66-.57-7.76-4-10.42-1.23-1.14-1.23-2.58-1-4.08,1-3.26,2.66-4,5.39-1.67,2,1.71,4.23,3.26,6.09,5.11,3.87,3.85,2.54,8.37.72,12.78,0,.63,1.23,0,.57,0-.31,0-.33-.14-.3-.41.07-.67,0-1.48.69-1.74s1.25.31,1.49,1c.84,2.26,1.46,5.3-.08,6.65-2.48,2.17-.27,3.54-.12,5.25,0-1-.5-2.25.66-2.69,1.38-.51,1.65.84,1.72,1.74.35,4.07,1.68,8.32,1.71,12,.08,8.56,3.68,16.34,3.81,24.74.06,4.53,1.5,8.92,2.11,13.41,1.14,4.62,2.12,9.28,3.49,13.85,2.68,15.58,5.43,31.15,8,46.75.78,4.7,2.58,9.27,2.1,14.16.15.75,0,1.4-.9,1s-.57-1.29-.64-.93c2.57,5.65,2.48,12.29-.36,18.83.69-.89.78-2.85,2.49-1.1a8.3,8.3,0,0,1,2.39,5.34,32.46,32.46,0,0,0,2.31,9.06c2,4.45.11,9.2,1.32,13.89,2,7.61,4.25,15.19,5.31,23a104.42,104.42,0,0,1,3,17c.27,3.52-1.09,5.5-4.81,6.2-9.72,1.84-19.49,3.6-29,6.1-6.68,1.76-13,4.86-20.13,4.73-6.56,2.74-13.42,1.65-20,1-11.79-1.19-23.1-.72-33.88,4.92a65.25,65.25,0,0,1-13,4.75c-4.13,1.14-8.68-.21-13-.69-.21-.25-.56-.46-.62-.74-1.69-7.32-1.69-7.32-9.36-7.32a57.54,57.54,0,0,1-6.44-.13c-7.3-.88-7.5-.93-7.52-8.36,0-3.85-2.23-4.28-5.06-4.46-5.19-2.22-10.7-.28-16.08-1.33-5.79-1.14-7-1.52-6.86-7.16,0-2.42-.8-5,1.11-7.21,2.85-1.71,2.3-4.59,2.32-7.17.06-15.32,0-30.64,0-46,0-4.45-.58-9,2.67-12.88.08-.64-.33-.47-.34-.41-.55,3-2.06,4.46-5.22,3.07-1.24-3.87-.57-7.85-.55-11.76,0-5.4-.48-10.79-.09-16.19l0,0c1.34-6.62-.08-13.38,1-20l.06-4c.35-.36.79-.74.78-1.23-.14-15.31,1.36-30.53,2.82-45.75.06-.65,0-1.32,0-2A9.73,9.73,0,0,1,994.7,596c2.94-3.46,2.25-7.73,2.67-11.77.11-1.1.2-2.51,1.57-2.75s.94,1.48,1.7,2a11,11,0,0,1,.34,5.28c-.13-1.17.71-3.41-.56-5.61-.73-2.19-1.63-4.35-.72-6.7a4.64,4.64,0,0,1,.88-1.05c.42-.38.76.25,1.14,0a1,1,0,0,0-1.25,0c-1.32.37-1.93-.75-2.82-1.3a7.93,7.93,0,0,1-2.13-2.61c-2.59-4.58-7.32-7.08-10.66-11-1.69-2-2.66,1.47-4.27.81-4.89-9.68,4.23-13.79,8-20,2.52-8.62,4.91-17.25,3.57-26.41a4.63,4.63,0,0,1,1.37-3.58l2.09-3c1.21-1.9,2.58-3.73,2.92-6v0c2.37-6.1,3.75-12.49,5.68-18.72.93-3-1.66-7.28,3.13-8.91-1.85-8.39,4.24-15.35,4.22-23.4a3,3,0,0,1,.07-.95c4.44-7,4.15-15.3,5.91-23l0,0c2-5.06,1.18-10.55,2.38-15.82C1021,406.59,1020.83,401.27,1022.49,396.31Z"/><path class="cls-17" d="M1068.59,378.52c-4.27,3.5-9.27,4.28-14.6,4-3.8-.18-7.62-.16-11.43-.22a4.57,4.57,0,0,0-4.83-3c-3.3-3.33-5.72-7.32-8.37-11.15-2.06-3-2.66-6.22-2.67-9.88,0-13,3.29-25.71,4-38.71.52-10.19,16.3-22.36,26.41-21.46,4.63.42,9.27,1,13.84,1.87,14.35,2.7,24,12.67,26.43,27.08a126.59,126.59,0,0,1,1.28,24.92c-.17,5.28-2.34,8.91-6.92,11.75-5,3.09-11,5-14.11,10.66a5,5,0,0,1-5,3.27l-2.09.59a14.66,14.66,0,0,0-3-1.57C1067.85,377.29,1069.41,377.19,1068.59,378.52Z"/><path class="cls-18" d="M1040.55,803.31c9.85,1.62,18.66-2.06,27-6.2,9.54-4.71,19.51-5.56,29.59-4.54,7.82.8,15.59.38,23.38.78-.54,9.64,1.75,19.29,0,28.93-2.87,3-7.66,1.8-10.44,4.92-.56.09-1.59.68-1.54.9.77,3.72,1.41,7.42-.38,11.06-5.13,3-10.7,1.18-16.07,1.47a15.68,15.68,0,0,1-3-.38c-7.61-1-7.88-.75-8.19,6.78-.1,2.28.84,5.14-2.34,6.37l-.15-10.45c-.08-5-.61-5.44-5.6-3.85-4.1,1.3-8.23,2.58-12.2,4.22-3,1.23-3.68.23-4.18-2.58-1.77-10.07-4-20-5.62-30.13-.77-4.73-2.52-7.29-7.66-6.32A2.55,2.55,0,0,1,1040.55,803.31Z"/><path class="cls-19" d="M1118.44,844.18c6.67,7.28,6.78,17.14,10.07,25.75,1.89,5-1.42,11.2-6.63,12.17-2.7.5-4,1.38-4.84,4-2.16,6.59-7.36,8.71-13.84,9.28-12.72,1.12-25.24-1.83-37.79-1.68-10.5.14-19.69-3.42-29.33-6-4.36-1.18-5.46-4.25-5.56-8.29-.11-4.27,2.7-5.92,6-6.83,6.84-1.85,14-2,20.73-4.79,7.18-2.91,13.92-6.11,19-12.07,1-1.18,1.78.75,2.34-.39,2.4,0,2.09,2.23,2.7,3.59a15.23,15.23,0,0,0,4.75,6.27c5.72,4.26,9.16,3.77,13.3-2.06a10.59,10.59,0,0,1,3.45-3.53c2.83-.85,4.77-3.23,7.52-4.32a3.27,3.27,0,0,0,1.83-4.11C1113.3,847.94,1115.19,845.44,1118.44,844.18Z"/><path class="cls-20" d="M1145.51,616.35c-.57-.57-1.75-1.33-1.64-1.68,1.66-5.18-2.33-9.76-1.44-14.9.42-2.41.66-5.07-1.85-7.08-.82-.66-1.18-2.54-1-3.74,1.39-8.35-3.34-16.08-2.8-24.44l-.57,6c-1.39-2.85-1.64-5.89-3.59-8.37-.44-.56-.71-3.27,1.77-1.24,1.42,1.16,1.06-.42,1.08-1,.07-1.82,0-3.64,0-5.57-1.74.49-.43,2.13-1.45,2.81-.15-.13-.47-.27-.48-.44a7.43,7.43,0,0,1,0-3c2.39-5.92-.51-9.85-4.94-13.06a14.62,14.62,0,0,1-2.91-2.58c-2.17-2.65-2.43.06-3.22,1.22-3.81-1.52-3-5.35-3.77-8.2-.88-3.36-2.3-5.62-5.81-6.25-.83-.7-.73-1.77.13-1.9,3.69-.55,2.94-3.19,2.87-5.57.46-8.73-2.14-17.09-2.92-25.66-.38-4.1-1.28-8.12-1.86-12.19.38-3.8-1.62-7.45-.71-11.28.46-2.09,1.42-4.19-.12-6.25a5.64,5.64,0,0,1-.66-1.35,20.32,20.32,0,0,1-.48-5.38c0-1.55,0-3.1,0-4.65-.15-1.77.66-3.53,0-5.3a22.58,22.58,0,0,1-.62-2.94c0-1,0-2,0-3-.07-1.71.23-3.46-.43-5.12a4.42,4.42,0,0,1-.35-2.95,2,2,0,0,1,1-1.14c6.86,13.75,14.42,27.26,14.77,43.23a27.42,27.42,0,0,0,1,7.86c2.45,5,2.43,10.6,3.61,15.89a316.38,316.38,0,0,1,5.9,34.64c1.28,12,4.64,23.54,5.48,35.53a21.6,21.6,0,0,0,1,7.94c1.77,3.12,1,6.74,1.94,10v0c1.8,5.53,2.31,11.29,3,17l0,0c1.24,1.53-.12,3.56,1,5.11,0,1.93.07,3.86.1,5.79C1147.36,614.68,1146.85,615.65,1145.51,616.35Z"/><path class="cls-21" d="M960.65,577.39c2.2-.17,3.26-2.14,4.94-3.14a53.09,53.09,0,0,1,6.09-3.81l0,0c1.57-3.53,6.35-3.51,7.86-7.11l1-1.15c3,.74,6.44-.34,9,2.83s4,6.25,2.12,10.21c-.89,2-2.27,3.83-2.47,6.13a6.32,6.32,0,0,1-1.34,3.09c-4.57.43-2.73,4.67-4.15,7l0,0c-2.73,1.07-2.95,3.84-4,6-.86,2.88-2.31,5.61-2.12,8.74-.82,4-4,4.28-7.16,4.6-3.78.39-7.57-.19-11.31-.62a11,11,0,0,0-6.64,1.07c-3.54,2.09-5.53.87-6.28-3-.87-4.44-1.19-8.82,1.51-12.85,2.41-3.47,2.1-8.38,5.88-11.12.76-1.81,1.15-3.85,3.07-4.94C957.69,578.24,959.29,578.05,960.65,577.39Z"/><path class="cls-22" d="M1103.36,860.25a13.45,13.45,0,0,0-2.37,2.47c-2.09,3.77-4.56,7.36-9.42,6.46-5.07-.95-8.85-4.2-11.15-8.9-.78-1.6-1.24-3.35-1.86-5l.06-1.85c1.53-2.82.64-5.87.72-8.8.16-6.46.08-6.73,6.67-6.12,5.8.53,11.58.82,17.39.79,1.95,0,4.09.38,5.24-1.9.83-3.32-.5-6.81.8-10.09,0-2,.81-2.93,2.87-3.22,2.77-.39,5.49-1.17,8.23-1.78.55,7.42-1.85,14.56-2.1,21.9l-6.07,7.08C1111.09,856,1105.88,856.77,1103.36,860.25Z"/><path class="cls-23" d="M989.57,767.32c0,2.32,0,4.63,0,6.95,0,4.39,2.49,6.14,6.6,6,2.94-.07,5.8,1.82,9-.6.93-.72,4.22,1.64,6.43,2.59-6.81.46-13.55-.57-20.32-1-2.44-.15-3.6-1.13-3.6-3.66q.06-50.05.08-100.09a7.39,7.39,0,0,1,.83-2.26c1.75,9.29.79,18.68,1,28,1.71,1.91,1.6,4.29,1.61,6.6q.06,25.4,0,50.78C991.17,763,991.28,765.4,989.57,767.32Z"/><path class="cls-24" d="M1139.49,567.43c-2.77-10.4-4-21.09-5.93-31.65-2.89-16-5.56-32-8.48-48a36.58,36.58,0,0,1-.58-6.42c1.54,1.51,2.53,1.65,3-1,0,2.7,0,5.39,0,8.09,0,2.34-.17,4.65,1.91,6.39a2.37,2.37,0,0,1,.86,2.69c-2.12,5.38,1.38,9.68,2.7,14.4a10,10,0,0,1,.51,2.38,106.61,106.61,0,0,0,1.83,17.32c1.15,6.35-.16,13.3,2.4,19.34C1140.06,556.5,1139.19,561.93,1139.49,567.43Z"/><path class="cls-25" d="M1011.53,451.32c.9,5.79-1.36,11-3.18,16.22-.76,2.21-.2,5.37-1.06,6.52-3.18,4.26-1.38,9.16-2.56,13.62-1.09,4.08-4.44,7.55-3.59,12.21.31,1.73-1.59,1.81-2.64,2.46,1.25-3.88.49-8.12,2.08-11.93,1.08-1.17-.28-2.92,1-4a3.49,3.49,0,0,0,.06-.91c1.1-1.89-.33-4.54,1.84-6.11C1006.31,470.06,1007.79,460.36,1011.53,451.32Z"/><path class="cls-26" d="M1164.5,722.33c-4.11-3.24-2.25-8.6-4.55-12.65-2.4-4.23-1.06,2.3-2.56-.08.87-6.65,1.75-13.92.73-21.27.2.7.38,1.41.61,2.1,0,.09.32.14.46.11s.27-.19.4-.29a178.44,178.44,0,0,1,5,29A2.77,2.77,0,0,1,1164.5,722.33Z"/><path class="cls-27" d="M1164.5,722.33l.06-3.13c3,10.07,3.55,20.62,5.85,30.84.67,3,1.57,6.09,1.1,9.28-1.59-2.41-1.5-5.27-2.22-7.9-1.6-5.86-4.46-11.54-5-17.45C1163.94,730.31,1164.86,726.25,1164.5,722.33Z"/><path class="cls-28" d="M990.56,575.36c1.9-7.83-1.47-11.94-9-11.09-1.71.19-.64-1.39-1-2.06a1.31,1.31,0,0,1,.08-.85c1.67-3.71,3.47-4.67,6.18-.7s8.1,5.64,9.79,10.66c-.84,1.79-2.51,2.79-3.86,4.09l-.32-.12C991.8,576,991.19,575.85,990.56,575.36Z"/><path class="cls-23" d="M994.52,602.27c.39,7.92-2.19,15.54-2.3,23.44-.11,7.71-2.49,15.33-.8,23.14.23,1,1.2,3.48-1.84,2.5-.68-9.68,1.51-19.26,1-28.93,1.45-4.14-.8-8.49.59-12.59C992.06,607.23,991.23,603.81,994.52,602.27Z"/><path class="cls-29" d="M994.52,602.27a55.08,55.08,0,0,0-3,14.92c-.11,1.77.5,3.69-.93,5.23a62.83,62.83,0,0,1,.66-22.43c.52-2.72,2.75-5.11,4.2-7.64,1.34,1.32,1,2.65,0,4C994,598.12,994.73,600.28,994.52,602.27Z"/><path class="cls-26" d="M1022.49,396.31c.2.26.63.59.57.77-3,9.53-1.39,19.76-4.54,29.25-.14.42-.68.7-1,1-.29-9.36,1.39-18.49,3.2-27.6A5.41,5.41,0,0,1,1022.49,396.31Z"/><path class="cls-30" d="M993.49,511.34c-1.65,5.44.89,11-.81,16.54-1.37,4.48-.69,9.59-4.13,13.45-2.67-4,1.52-6.69,2.1-10.09a84.86,84.86,0,0,0,.7-17.72C991.27,511.4,992,511.34,993.49,511.34Z"/><path class="cls-26" d="M1017.51,427.34c-.59,8,1,16.63-5.91,23A161.74,161.74,0,0,1,1017.51,427.34Z"/><path class="cls-31" d="M995.49,596.34l0-4,.15-2.9c.72-4,.77-8.16,2-12.1a2.91,2.91,0,0,0,0-.93c.66-.91-.26-2.29.9-3l2,2v8c-.67,0-1.81-2.58-1.95.2-.16,3.28,0,6.53-1,9.75C997.24,594.66,996.87,595.79,995.49,596.34Z"/><path class="cls-32" d="M952.39,611.26c3-3.44,6.86-1.59,10.28-1.45,2.8.11,5.62.4,8.43.27s5.16-1.1,6.4-3.87c.35,5.22-3.88,4.84-6.85,5C964.58,611.59,958.48,611.29,952.39,611.26Z"/><path class="cls-31" d="M1072.61,377.72l5-3.27,3,12.86c-1.84,2.1-3.11.85-2.68-1C1079.07,381.4,1076.29,379.39,1072.61,377.72Z"/><path class="cls-33" d="M953.5,584.33c-1.94,3.71-2.54,8.14-5.88,11.12-.61-3.58,2.28-6.26,2.49-9.7C950.19,584.39,951.72,583.29,953.5,584.33Z"/><path class="cls-34" d="M1145.51,616.35l1-3.09c1.72,5.22,2.26,10.66,2.94,16.08A38.31,38.31,0,0,1,1145.51,616.35Z"/><path class="cls-23" d="M989.52,655.32c-.12,6.68,1,13.42-1,20C988.93,668.66,987.6,661.91,989.52,655.32Z"/><path class="cls-35" d="M979.56,563.36c-1.22,3.92-4.73,5.31-7.86,7.11-1.65-3.36,2.67-5.44,3-5.26C977.36,566.77,977.89,563.64,979.56,563.36Z"/><path class="cls-36" d="M1145.48,602.39a79.31,79.31,0,0,1-3-17C1145.83,590.62,1145.72,596.5,1145.48,602.39Z"/><path class="cls-37" d="M987.48,584.33c.38-1,0-2.22,1.12-2.91.52-1.48.63-3.31,2.84-3.37,2.1,4.23-1,5.71-3.86,7.31-.3-.2-.42-.42-.35-.66S987.38,584.33,987.48,584.33Z"/><path class="cls-38" d="M1037.73,379.37c4-2.55,4.27-2.4,4.83,3-1.58.66-2.7-.3-3.86-1.1C1038.38,380.61,1038.05,380,1037.73,379.37Z"/><path class="cls-37" d="M998.52,573.37c0,1.1.12,2.25-.9,3-1.36-1.71-3.24-.86-4.92-1a5.64,5.64,0,0,1,3.86-4.09C997.22,572,997.87,572.69,998.52,573.37Z"/><path class="cls-39" d="M987.48,584.33c0,.34.07.68.1,1l-3.94,6.08a28.78,28.78,0,0,0-.09-3.48C983.09,584.78,983.65,582.82,987.48,584.33Z"/><path class="cls-39" d="M979.62,597.47c.43-2.62-1-6.5,4-6A12.67,12.67,0,0,1,979.62,597.47Z"/><path class="cls-40" d="M1108.71,430.28c-.12.41-.23.82-.35,1.22-.78.9.23,2.37-1,3.11-1.47-2.93-.64-6.1-.93-9.15-.41-1,.07-1.18.93-1C1107.8,426.41,1108.25,428.34,1108.71,430.28Z"/><path class="cls-39" d="M991.44,578.05l-2.84,3.37c-1.67-2.77,1.1-4.11,2-6.06l1.82-.07C992.7,576.42,992.08,577.24,991.44,578.05Z"/><path class="cls-37" d="M997.59,577.35a34.37,34.37,0,0,1-2,12.1C995.52,585.29,995.21,581.1,997.59,577.35Z"/><path class="cls-36" d="M1142.48,585.39c-1.4-3.19-1.66-6.61-1.94-10C1143.63,578.24,1142.2,582,1142.48,585.39Z"/><path class="cls-41" d="M1003.45,479.36c-.5,2.07-.52,4.29-1.85,6.11C1003.19,483.73,998.05,480,1003.45,479.36Z"/><path class="cls-35" d="M971.68,570.44a10.45,10.45,0,0,1-6.09,3.81A7.4,7.4,0,0,1,971.68,570.44Z"/><path class="cls-25" d="M998.5,502.33c1.19,3.05-1.19,4.39-2.92,6A12.13,12.13,0,0,1,998.5,502.33Z"/><path class="cls-33" d="M960.65,577.39a6.09,6.09,0,0,1-4.08,2C957.17,577.17,958.58,576.6,960.65,577.39Z"/><path class="cls-31" d="M1083.7,391.35c-1.8-.74-3.1-1.89-3.11-4A6.34,6.34,0,0,1,1083.7,391.35Z"/><path class="cls-41" d="M1001.55,486.38c-.08,1.4.34,2.92-1,4C1000.56,489,999.13,487.22,1001.55,486.38Z"/><path class="cls-36" d="M1146.46,607.47c-1.49-1.48-.83-3.37-1-5.11C1147.23,603.79,1146.29,605.74,1146.46,607.47Z"/><path class="cls-42" d="M1107.35,424.47l-.93,1c-1.06-1.37-1.36-2.72.07-4Z"/><path class="cls-43" d="M1112.51,524.2c4.64-.76,6.46,1.56,7.25,5.89.58,3.14,1,6.44,2.75,9.3a6,6,0,0,0,1,4.12c1.56,1.27,1,3.27,1.64,4.84-.82,3.87,1.11,8-1,10.83-.3,1.59,1,1.12.29,1.08-.29,0-.42-.1-.38-.24.37-1.5.16-3.37,2.33-3.77,1.37,3.59,2.57,7.19,1.29,11.09-.41,2.81,1,5.84-1,8.46-9.21,2.51-18.76,1.18-28.08,2.5a190.43,190.43,0,0,1-20.22,2.17,1.72,1.72,0,0,0-1.51,1.11c-10.07,1.66-20.17,3-30.35,3.7-2-1-4.18,0-6.14-.56-.75,0-.11,1.13-.17.47,0,0,.06,0,.18-.05,1.24-.41,2.46-.61,3.53.42l-7.62,1.68a15.65,15.65,0,0,1-9.69,0l-1.09-.69c-3.06-2.51-2.29-5.93-2.16-9.19-.22-2.16,1.09-3.61,2.29-5.18,2.87-3.73,6.27-7.12,7.74-11.77a4.81,4.81,0,0,1,2.35-4.67l15-27.19c5-2.88,10.61-2.14,16-2.57,12.73-1,25.49-1.74,38.22-2.83C1107.48,522.88,1110.18,522.33,1112.51,524.2Z"/><path class="cls-35" d="M1112.51,524.2l-61.82,4.3c-.75-4,1.47-4.9,5-5.14,18.28-1.27,36.54-2.69,54.8-4.11a14.5,14.5,0,0,0,3.27-1.06c1-.48,2-.75,2.74.39C1120.82,524.44,1114.46,522.77,1112.51,524.2Z"/><path class="cls-44" d="M989.57,767.32v-64c5.72-.29,3.17-5.39,4.66-8.8,2,2.74,2,5.73.94,7.45-2,3.16-1.57,6.33-1.58,9.56-.05,17.12-.08,34.24,0,51.37C993.63,765.92,993.09,767.83,989.57,767.32Z"/><path class="cls-45" d="M1116.45,518.58l-2.74-.39a1,1,0,0,0-.07-.71h0c1.49-3.33,1-6.82.54-10.21-.66-5-1.68-10.06-2.55-15.08-.89-.86-.64-1.8-.22-2.76,0-1.61,0-3.22,0-4.82-.69-1.91-2.12-3.95,1-5.15,1.61,10.89,3.27,21.78,4.79,32.68C1117.44,514.28,1118.69,516.67,1116.45,518.58Z"/><path class="cls-20" d="M1127.66,567.34c-1.32-3.56-.37-7.55-2.12-11a15.09,15.09,0,0,1-1.35-7.86c-.24-1.65-.49-3.29-.73-4.94.28-.56.51-1.55.85-1.59,1.27-.16,1.67,1.05,1.78,1.92.21,1.56-.86,3.46.39,4.7,3.83,3.8-.27,8.86,2.57,12.73,1,1,.53-3,1.22-.86s2,4.45,2.36,7.46C1130.74,567.17,1129.2,564.88,1127.66,567.34Z"/><path class="cls-46" d="M1076.87,581.58c-2-1.93-.3-2.12,1.1-2.19,13.69-.68,27.24-3.26,41-3,2.36,0,4.53-.12,6.52-1.79,1.17-1,.85.72,1.19,1.23-1.46,2.07-3.48,2.2-5.7,1.66-3.75,1-7.65-.25-11.41.73l-7.62.27c-2.24.86-4.77-.18-7,1-1.39.77-3.12-.24-4.45.85l-4.71.09c-1.66.87-3.58-.09-5.25.75Z"/><path class="cls-25" d="M1110.65,484.13l-.25,2c.4-6.34-2.48-12.24-2.18-18.64.23-4.89-1-9.82-.69-14.78.13-1.78-.52-3.67.76-5.29,2.37,2.21.61,5.18,1.42,7.68a21,21,0,0,0,1.06,8.5c.25,1.62-.2,3.21-.24,4.82.08,2.17-.35,4.4.69,6.47C1111.84,478,1111,481.05,1110.65,484.13Z"/><path class="cls-47" d="M1023.36,577.31l2.16,9.19c-.16,1.11-.55,2-1.88,1.34-1-.47-1.92-.86-1.65-2.49.44-2.65.9-5.41-.85-7.92-.63-.91-.48-2.08.69-2.29C1022.2,575.07,1022.84,576.54,1023.36,577.31Z"/><path class="cls-48" d="M1110.65,484.13q-.14-4.9-.29-9.81c-.63-1.79-.18-3.65-.32-5.48.09-1-.32-2.19,1.07-2.67.64.15.83.53.55,1.13-.74,4.11,1.11,8.08.7,12.17-1.48,1.5-.5,3.46-1,5.15A6.32,6.32,0,0,0,1110.65,484.13Z"/><path class="cls-49" d="M1040.87,383.68h17.58v.5h-17.73Z"/><path class="cls-50" d="M1109.55,455.37c-1.71-2.45-.51-5.37-1.26-8l.15-2.85c-.33-1-1-2,.87-2.06l.38,3c.77,1.65-.17,3.55.74,5.19,0,1.58,0,3.16-.08,4.74C1110.08,455.85,1109.81,455.87,1109.55,455.37Z"/><path class="cls-51" d="M1109.31,442.48l-.87,2.06c-1.61-3.17-.64-6.63-1.09-9.93.29-1.05-.1-2.32,1-3.11l.36,3c.74,1.62-.25,3.5.75,5.08C1109.41,440.52,1109.36,441.5,1109.31,442.48Z"/><path class="cls-52" d="M1026.61,587.19l9.69,0,3.22.31-.07.6c-4,.18-8,.39-11.94.51C1026.67,588.68,1026.69,587.82,1026.61,587.19Z"/><path class="cls-53" d="M1035.74,555.69l-2.35,4.67C1032,557.92,1033,556,1035.74,555.69Z"/><path class="cls-43" d="M1109.57,578.19c3.71-1.71,7.6-.52,11.41-.73C1117.24,578.6,1113.39,578.23,1109.57,578.19Z"/><path class="cls-54" d="M1043.92,585.56l-4.38-.47c2.38-.64,4.74-1.43,7,.19Z"/><path class="cls-31" d="M1000.85,583.08a10.2,10.2,0,0,1,0,7.15Z"/><path class="cls-43" d="M1094.53,579.26c2.32-1.74,4.94-.61,7.42-.8l-5.44,1A1.37,1.37,0,0,1,1094.53,579.26Z"/><path class="cls-55" d="M1068.59,378.52c-.58-1.36-2.23-.85-3.47-1.75,2.42-.63,4.24-.61,5.4,1.54Z"/><path class="cls-56" d="M1111.4,489.44c.07.92.15,1.84.22,2.76l-.52,3.57C1110.47,492.7,1110,491,1111.4,489.44Z"/><path class="cls-57" d="M1113.64,517.48c-3.25-.94-.23-2.73-.3-4.09.1,1.37.19,2.73.29,4.1Z"/><path class="cls-58" d="M1094.53,579.26l2,.2c-1.79,1.62-4,.69-6,.9Z"/><path class="cls-43" d="M1080.58,581.2c1.58-1.46,3.47-.66,5.25-.75A9.76,9.76,0,0,1,1080.58,581.2Z"/><path class="cls-31" d="M1002.11,577.92c-.51-1.24-.87-2.09-1.23-2.94.3-.07.69-.29.88-.17C1002.83,575.46,1002.64,576.42,1002.11,577.92Z"/><path class="cls-49" d="M1040.42,386.3c-.34.55-.49,1-.82,1.26-.51.34-.9-.07-.88-.55a1.79,1.79,0,0,1,.53-1.16C1039.38,385.74,1039.93,386.1,1040.42,386.3Z"/><path class="cls-59" d="M1109.44,827.28c-.12,3.38,1.25,6.87-.8,10.09-1.31-3.36-.55-7-.88-10.41C1107.57,825,1108.76,827.51,1109.44,827.28Z"/><path class="cls-60" d="M1103.36,860.25c2.1-3.9,6.15-5.86,9-9,4.29,2.74-1.28,3.39-1.12,5.25C1108.14,856.73,1106.34,859.74,1103.36,860.25Z"/><path class="cls-61" d="M1109.55,455.37h.8c.09,2,.19,3.91.28,5.87.49,1,.73,2-.93,2C1110.11,460.62,1107.29,458,1109.55,455.37Z"/><path class="cls-62" d="M1109.7,463.26l.93-2a3.87,3.87,0,0,0,.84.13,5,5,0,0,1-.08,5c-.31.69-.63,1.38-.94,2.06-.41.31-.7.24-.85-.26Z"/><path class="cls-63" d="M1111.39,466.42c0-1.68,0-3.36.08-5,1.61,1.93,1.49,3.91.19,5.92C1111.56,467,1111.47,466.72,1111.39,466.42Z"/><path class="cls-16" d="M1110.43,450.64c-1.2-1.6-.73-3.43-.74-5.19C1111.14,447,1110.34,448.89,1110.43,450.64Z"/><path class="cls-16" d="M1109.47,439.54c-1.22-1.55-.78-3.35-.75-5.08C1110.11,436,1109.34,437.83,1109.47,439.54Z"/><path class="cls-64" d="M1124.19,548.45c.41,2.63,1.72,5.1,1.35,7.86l-1.4,5.17C1125.08,557.1,1122.35,552.73,1124.19,548.45Z"/><path class="cls-16" d="M1109.6,468.22l.85.26-.09,5.84C1108.83,472.45,1109.76,470.26,1109.6,468.22Z"/></g></svg>