<svg id="Livello_1" data-name="Livello 1" xmlns="http://www.w3.org/2000/svg" viewBox="0 0 1920 1080"><defs><style>.cls-1{fill:#98afb7;}.cls-2{fill:#687d89;}.cls-3{fill:#fff;}.cls-4{fill:none;stroke:#000;stroke-linecap:round;stroke-linejoin:round;stroke-width:0.5px;}</style></defs><polygon class="cls-1" points="470.49 909.08 470.49 932.23 470.49 960.47 419.09 960.47 419.09 857.7 470.49 857.7 470.49 885.92 470.49 909.08"/><polygon class="cls-1" points="1068.54 438.71 1068.42 368.29 1120.44 368.29 1120.44 681.66 1644.47 681.66 1644.47 949.99 1069.37 950.95 1068.8 602.06 1068.54 438.71"/><path class="cls-2" d="M496.18,749.54V709.25h29.5v-.94h40.91v.94H673.82v22.52H658v2.55h-2.38c.18-1.1.42-2.18.69-3.24l-1.52-.37c-.3,1.19-.57,2.41-.76,3.64h0l-.13,0h-1.59l-.57,2.46.25.07h1.59l.1,0a44.57,44.57,0,0,0,.89,15.52h-2.58l1,2.54h2.23c.24.82.51,1.65.79,2.46l1.51-.32c-.26-.71-.49-1.42-.7-2.14H658v2.54h15.86v14.59H640.18V782.2H537.41v77.09H640.18v13H750.89v47H565.65V949H534.88v1h-38.7V939.85l-18.08-4.46V882.76l18.08-4.45V749.54Z"/><path class="cls-2" d="M731.82,810.32a9.65,9.65,0,0,0,.84,17.91v.29h18.23v10.14H732.63v.1a9.65,9.65,0,0,0-.61,18h18.87V866.9H696.57c0-.8.09-1.57.09-2.38A38.45,38.45,0,0,0,658,826h-2.23V866.9H645.26V802.83H702V777.14H710v.94h2.22v-.94h38.69v33.3h-19Z"/><path class="cls-2" d="M676.35,866.9H657.64V826H658a38.45,38.45,0,0,1,38.7,38.54c0,.81,0,1.58-.09,2.38Z"/><path class="cls-2" d="M657,752.39h-.89a44.77,44.77,0,0,1-1.2-10.31,40.92,40.92,0,0,1,.32-5.23H658v15.54Z"/><path class="cls-2" d="M632.89,479v-.62l.32-.65v-.62l.32-.64v-.95l.32-.64.31-.64.32-1,.64-.64.32-.62.62-1,.65-.63.62-.94.64-.64.63-.95.64-1,.94-.63,1-1,.62-.94,1-1,.95-.94.64-1.27.94-.94.64-1.28.63-.31.32-.64.32-.64.32-.63.31-.64.32-.62.32-.32.32-.64v-.63l.32-.64v-.62l.3-.65v-1.26l.32-.64v-.95l-.32-.64v-.62l-.3-.32v-.65l-.32-.62-.32-.32-.32-.64-.32-.31-.63-.32-.32-.32-.64-.32-.63-.32-.64-.3-.62-.32-.64-.32-.63-.32-1-.33h-.62l-1-.3-.62-.32h-1l-1.91-.32-3.48-.64L632,440h-1l-.62-.32-1.59-.32-1.58-.32-1.59-.62-1-.32-.64-.32-.94-.31-.64-.32-.95-.32-1-.32-.62-.62-1-.33-.94-.32-1-.64-.95-.3-1.27-.64-.94-.64-1.28-.63h0a.68.68,0,0,0,0-.2,11.66,11.66,0,1,0-20.12,8.13,11.77,11.77,0,0,0-5.35-1.3,11.65,11.65,0,0,0-3.83,22.64l-.19.54.62.64.33.95.64.64.62.62,1.27,1.59,1.26,1.28,1.29,1.27,1.26,1.58,1.27,1.27,1.26.94,1.27,1.27.64.64.32.64.63.63.64.32.32.64.62.62,1,1,.95,1.28.64.95,1,1.26.64,1,.62.95,1,.95.63,1,1.26,1.89,1,1,.62.94.64,1,.95.62.64,1,.62.63,1,1,.32.3.3.32.32.33H612l.32.32.31.3.64.32h.32l.32.32.62.32h.32l.33.32h.94l.64.31h3.8l1-.31h.63l1-.32.62-.32,1-.32.63-.32.64-.62.63-.33.64-.62.62-.64.64-.64.32-.63.63-.64.32-.62.64-.64.32-.95.3-.64.32-.95.33-.64L632,486v-.64l.32-.95v-.64l.3-.63v-1l.32-1.58V479Zm-32.68,87.55V604l.33.32h52l74.88-.32h1.89V566.21h-2.53l-.32-.32v-.32l-.32-.31h-.31l-.32-.32h-.32l-.32-.32h-.63l-.64-.32h-.94l-.32-.3h-1.91l-.32-.32h-4.76l-.62-.32H699.51l-1,.32h-5.71l-.62.32H690l-.64.3h-.62l-.33.32h-.32l-.32.32h-.3l-.32.32-.32.31h-.32l-.32.32v.32l-.31.32v3.17l-.64-1.26v-1.29h-.32v-1.26h-.3v-.32l-.32-.31H684l-.32-.32h-.33v-.32h-.94l-.64-.32h-1l-.32-.3h-1.91l-.3-.32H673.5l-.64-.32H657.64l-.95.32H651l-.31.32h-2.22l-1,.3h-.64l-.32.32h-.32l-.31.32h-.32l-.32.32-.32.31h-.3l-.32.32v.32l-.32.32v-.32l-.32-.32-.32-.32-.31-.31-.32-.32h-.32l-.64-.32h-.3l-.32-.32h-.65l-.62-.3H638l-1-.32H631.3l-.94-.32H615.14l-1,.32h-4.44l-.32.32h-1.89l-.32.3h-.94l-.64.32H605l-.62.32H604l-.32.32h-.32l-.31.31-.32.32v.32h-2.22v.32Zm-122.11,5.7V545.92l18.08-4.46V357.83h546.23v50.11l18.08,4.45V465l-18.08,4.46V571.29l18.08,4.44v52.64l-18.08,4.44v70.74h-203v.64h-5.08v27.58h-1.91V715h-1.26v.24a24.58,24.58,0,0,0-20,16.56h-7.25A24.45,24.45,0,0,0,780.56,715c-.27,0-.54,0-.79,0v0h-1.59v16.8h-6.67V704.19H566.59v.94H525.68v-.94h-29.5V597.92H478.1Zm130-62.48v-.32h0a11.89,11.89,0,1,0-13.59,12.25,10.85,10.85,0,0,0,1.73.12A11.92,11.92,0,0,0,608.15,509.75Zm198.22,10.48a7.27,7.27,0,0,0,.29,1H809v1.23h9.82v7.93H809v2.22h-2.31c-.14.62-.24,1.26-.32,1.9a37.62,37.62,0,0,0-.37,4.43,38.33,38.33,0,0,0,.79,8.89h-.89c.15.76.33,1.5.55,2.23H809v2.21h9.82v6.35h5.41v10.14h2.21v2.55l-.09.39c.74.15,1.5.28,2.26.38a37.47,37.47,0,0,0,8.16.27,34.07,34.07,0,0,0,4.89-.69c.74-.15,1.49-.34,2.23-.54v-2.36h2.21V558.6h7.61v10.14h2.23v2.31c.74.2,1.49.39,2.23.54a37.79,37.79,0,0,0,8.89.85,41.4,41.4,0,0,0,4.49-.36c.74-.1,1.49-.24,2.23-.37l-.08-.42v-2.55h2.22V558.6H990.7V496.75H875.87v-9.84h-2.22v-2.53l0-.12c-.74-.13-1.49-.27-2.25-.37a37.84,37.84,0,0,0-13.31.37c-.76.14-1.5.32-2.23.53v2.12h-2.23v9.84h-7.61v-9.84h-2.21v-2.53c-.74-.17-1.49-.3-2.23-.42a35.77,35.77,0,0,0-3.9-.42,37,37,0,0,0-9.1.62,19.88,19.88,0,0,0-2.22.49v2.26h-2.21v9.84h-5.41v3.8H809v2.23h-2.36c-.14.72-.26,1.47-.34,2.21a36.09,36.09,0,0,0-.34,4.44,39.4,39.4,0,0,0,1.4,10.78h-.91ZM573.9,646.14H759.14V628.07H573.9Zm283.58,0H991V615.05H857.48ZM742.94,564.2a12.05,12.05,0,1,0-10.45-12A12.06,12.06,0,0,0,742.94,564.2Zm60.93-123.91H991V404.12H573.26v5.4H803.87v30.77Z"/><polygon class="cls-1" points="470.49 572.23 470.49 595.39 470.49 623.61 419.09 623.61 419.09 520.86 470.49 520.86 470.49 549.08 470.49 572.23"/><path class="cls-2" d="M867,572.44a37.79,37.79,0,0,1-8.89-.85v-2.85h13.31v2.87l.07.47A41.4,41.4,0,0,1,867,572.44Z"/><path class="cls-2" d="M836.72,572.33a37.47,37.47,0,0,1-8.16-.27l.05-.45v-2.87h13v2.9A34.07,34.07,0,0,1,836.72,572.33Z"/><path class="cls-2" d="M809,547.81h-2.21a38.33,38.33,0,0,1-.79-8.89,37.62,37.62,0,0,1,.37-4.43H809Z"/><path class="cls-3" d="M807.6,521.21h-.94a7.27,7.27,0,0,1-.29-1l0,0h.91C807.4,520.55,807.5,520.87,807.6,521.21Z"/><path class="cls-3" d="M809,521.21H807.6c-.1-.34-.2-.66-.29-1H809Z"/><path class="cls-2" d="M809,520.21h-1.64a39.4,39.4,0,0,1-1.4-10.78,36.09,36.09,0,0,1,.34-4.44H809Z"/><path class="cls-2" d="M841.61,486.91h-13v-2.75a37,37,0,0,1,9.1-.62,35.77,35.77,0,0,1,3.9.42Z"/><path class="cls-2" d="M871.43,486.91H858.12v-2.65a37.84,37.84,0,0,1,13.31-.37Z"/><path class="cls-2" d="M812.43,352.76h-8c0-.73,0-1.47,0-2.22A38.46,38.46,0,0,0,792.07,322l.07-.06h20.61l0,1-.3,29.81Z"/><path class="cls-2" d="M527,306.45v1.7q-2.31.66-4.51,1.52l.57.76c1.29-.49,2.59-.94,3.94-1.32v2.4h-2.54v15.55H506.34v25.69H496.18V282l-18.08-4.44V224.93l18.08-4.44v-40h79.61v72H653.2V352.75h-7.94V311.83h-1.9v.24a38.45,38.45,0,0,0-34.25,38.46c0,.66,0,1.32,0,2v.26H578.34V327.06H550.1V311.51h-2.53v-3.17l0-.19c1.37.26,2.71.56,4,.93l.61-.86a47.13,47.13,0,0,0-4.66-1.08v-1.33l-.24-.29c-.74-.12-1.5-.24-2.27-.34l0,.31v1.28a46.33,46.33,0,0,0-5.55-.34,45,45,0,0,0-10,1.1v-1.66c-.81.17-1.62.36-2.42.58Z"/><path class="cls-2" d="M625,352.75h-15.8v-.26c0-.64,0-1.3,0-2a38.45,38.45,0,0,1,34.25-38.46v40.68Z"/><path class="cls-2" d="M732.51,258.23h18.38v94.52h-7.61V311.83h-2.21v.26a38.5,38.5,0,0,0-34.27,38.44c0,.66,0,1.32.05,2v.26H689.67V263.31H658.28V149.75h92.61v19.34H737.15a6.8,6.8,0,1,0-8.41,7.7,7.35,7.35,0,0,0,1.71.22,6.78,6.78,0,0,0,6.65-5.37h13.79V191H689.05v6.67h61.84v14.58h-19a9.51,9.51,0,0,0,.64,17.69V230h18.38v10.46h-19l-.07-.15a9.69,9.69,0,0,0,.71,17.91Z"/><path class="cls-2" d="M722.67,352.75H706.85v-.26c0-.64-.05-1.3-.05-2a38.5,38.5,0,0,1,34.27-38.44v40.66Z"/><polygon class="cls-2" points="761.05 352.75 755.97 352.75 755.97 321.98 757.88 321.98 758.2 321.98 760.73 321.98 763.58 321.98 763.58 352.75 761.05 352.75"/><path class="cls-2" d="M784.21,352.75h-18.4V322h19.66l.46-4.58a40.88,40.88,0,0,1,6.14,4.64,38.46,38.46,0,0,1,12.42,28.49c0,.75,0,1.49,0,2.22Z"/><path class="cls-2" d="M1068.42,310.72a44.74,44.74,0,0,0-4.57,1.26l.57.95c1.3-.44,2.64-.83,4-1.15v3.55h-2.55v11.73h-23.46v25.69h-21.63c0-.73.06-1.47.06-2.22a38.54,38.54,0,0,0-38.7-38.7h-2.23v40.92H972v-203h154.49V273.13h30.77V289l7.63,1.84,0,.06v52.65l0,.13-7.64,2.09v7h-42.52V327.06h-23.14V315.33H1089v-3.58c1.37.32,2.7.69,4,1.13l.68-.76a48.31,48.31,0,0,0-4.68-1.33v-1.17h-.23c-.76-.12-1.52-.24-2.3-.32v1a45.15,45.15,0,0,0-5.62-.65,46.49,46.49,0,0,0-9.92.58C1070.11,310.36,1069.27,310.53,1068.42,310.72ZM1004,253.47h77.07V150.71H1004V253.47Zm-30.14-78h28.23V152.6H973.89Z"/><polygon class="cls-1" points="1172.78 317.22 1172.78 294.08 1172.78 111.37 1273.01 111.37 1273.01 350.21 1172.78 350.21 1172.78 340.37 1172.78 317.22"/><path class="cls-2" d="M792.14,322l-.07.06a40.88,40.88,0,0,0-6.14-4.64,38.86,38.86,0,0,0-20.12-5.57h-2.23V322H756V260.13h28.54V230a10.49,10.49,0,0,0,5,2A10.31,10.31,0,1,0,792,211.47a10.48,10.48,0,0,0-7.27,1.78h-.22v-30.2H756v-33.3h48.85V137.06h51.39v12.69H961.84v38.7H890.78v-20.3H813.69V296.61h77.09V265.52h71.06v11.1l5.08.32v45H792.14Z"/><path class="cls-2" d="M767.4,322h-1.59V311.83a38.86,38.86,0,0,1,20.12,5.57l-.46,4.58H767.4Z"/><path class="cls-2" d="M545,311.51H529.48v-3a44.69,44.69,0,0,1,9.84-1.08,43.58,43.58,0,0,1,5.74.37l0,.26Z"/><polygon class="cls-1" points="470.49 251.25 470.49 274.4 470.49 302.63 419.09 302.63 419.09 199.86 470.49 199.86 470.49 228.1 470.49 251.25"/><line class="cls-4" x1="818.77" y1="500.55" x2="808.95" y2="500.55"/><line class="cls-4" x1="808.95" y1="522.44" x2="818.77" y2="522.44"/><path class="cls-4" d="M807.2,500.11c-.24.88-.44,1.76-.61,2.67-.14.72-.26,1.47-.34,2.21a36.09,36.09,0,0,0-.34,4.44,39.4,39.4,0,0,0,1.4,10.78c.09.34.19.66.29,1s.27.84.41,1.25"/><path class="cls-4" d="M806.22,500.11a38.92,38.92,0,0,0-1.25,9.3,38.24,38.24,0,0,0,1.4,10.82,7.27,7.27,0,0,0,.29,1c.11.4.25.83.38,1.23"/><polyline class="cls-4" points="808.95 500.55 808.95 502.78 808.95 504.99 808.95 520.21 808.95 521.21 808.95 522.44"/><rect class="cls-4" x="916.48" y="499.93" width="38.38" height="25.69"/><polyline class="cls-4" points="649.08 564 649.38 564 650.02 564 650.66 564 650.97 563.68 652.25 563.68 653.2 563.68 654.14 563.68 655.41 563.68 656.69 563.68 657.63 563.36 658.9 563.36 660.17 563.36 662.72 563.36 664.93 563.36 666.19 563.36 667.48 563.36 668.42 563.36 669.69 563.36 670.65 563.36 671.91 563.36 672.24 563.36 672.86 563.36 673.5 563.68 673.82 563.68 674.45 563.68 674.77 563.68 675.41 563.68 675.71 563.68 676.35 563.68 676.67 563.68 676.98 563.68 677.62 563.68 677.94 563.68 678.26 563.68 678.57 564 678.88 564 679.21 564 679.53 564 679.85 564 680.15 564 680.47 564 680.79 564.3 681.11 564.3"/><polyline class="cls-4" points="681.11 564.3 681.74 564.3 682.38 564.62 683.02 564.62 683.32 564.62 683.32 564.94 683.64 564.94 683.97 565.26 684.29 565.26 684.61 565.57 684.61 565.89 684.91 565.89 684.91 566.21 684.91 566.53 684.91 566.85 684.91 567.15 685.23 567.15 685.23 567.47 685.23 567.79 685.23 568.12 685.23 568.43"/><line class="cls-4" x1="648.44" y1="601.1" x2="645.58" y2="601.1"/><line class="cls-4" x1="660.49" y1="601.1" x2="649.38" y2="601.1"/><polyline class="cls-4" points="644.94 600.47 644.64 599.83 644.64 599.19 644.64 598.88 644.64 598.24"/><polyline class="cls-4" points="644.64 597.92 644.64 597.3 644.64 596.66 644.64 596.01 644.94 595.39"/><polyline class="cls-4" points="644 566.53 644 566.21 643.68 565.89 643.36 565.57 643.05 565.26 642.73 564.94 642.41 564.94 641.77 564.62 641.47 564.62 641.14 564.3 640.5 564.3 639.88 564 639.56 564 638.92 564"/><line class="cls-4" x1="681.74" y1="601.1" x2="683.32" y2="601.1"/><line class="cls-4" x1="660.49" y1="601.1" x2="680.79" y2="601.1"/><polyline class="cls-4" points="684.29 600.47 684.29 599.83 684.29 599.19 684.61 598.88 684.61 598.24"/><polyline class="cls-4" points="684.61 597.92 684.61 597.3 684.29 596.66 684.29 596.01 684.29 595.39"/><polyline class="cls-4" points="683.64 594.75 683.32 594.45 683.02 594.45 682.7 594.45 682.38 594.45 682.06 594.45 681.74 594.45 681.11 594.45 680.79 594.45 680.47 594.13 679.85 594.13 679.53 594.13 678.88 594.13 678.26 594.13 677.94 594.13 677.3 594.13 676.67 594.13 676.03 594.13 675.41 594.13 674.77 594.13 673.5 594.13 672.24 593.8 670.95 593.8 669.37 593.8 668.1 593.8 666.51 593.8 663.66 593.8 660.49 593.8 659.22 593.8 657.63 593.8 656.37 594.13 654.78 594.13 653.52 594.13 652.25 594.13 650.97 594.13 650.34 594.13 649.7 594.13 649.08 594.45 648.44 594.45 647.79 594.45 647.49 594.45 646.85 594.45 646.53 594.45 645.9 594.45 645.58 594.75"/><polyline class="cls-4" points="644 601.42 644.32 601.74 644.32 602.06"/><line class="cls-4" x1="639.88" y1="601.1" x2="642.41" y2="601.1"/><line class="cls-4" x1="627.81" y1="601.1" x2="638.92" y2="601.1"/><polyline class="cls-4" points="643.36 600.47 643.36 599.83 643.36 599.19 643.36 598.88 643.36 598.24"/><polyline class="cls-4" points="643.36 597.92 643.36 597.3 643.36 596.66 643.36 596.01 643.36 595.39"/><line class="cls-4" x1="606.88" y1="601.1" x2="604.97" y2="601.1"/><polyline class="cls-4" points="627.81 601.1 611 601.1 607.52 601.1"/><polyline class="cls-4" points="604.03 600.47 604.03 599.83 604.03 599.19 604.03 598.88 604.03 598.24"/><polyline class="cls-4" points="604.03 597.92 604.03 597.3 604.03 596.66 604.03 596.01 604.03 595.39"/><polyline class="cls-4" points="644 601.1 644 601.42 644 601.74 643.68 601.74 643.68 602.06"/><polyline class="cls-4" points="644 601.1 644 598.24 644 566.53"/><polyline class="cls-4" points="600.22 603.95 600.22 566.53 600.22 566.21"/><line class="cls-4" x1="600.21" y1="566.21" x2="599.91" y2="566.21"/><line class="cls-4" x1="599.91" y1="603.95" x2="599.91" y2="566.21"/><line class="cls-4" x1="600.54" y1="604.27" x2="652.55" y2="604.27"/><polyline class="cls-4" points="729.01 603.95 727.43 603.95 652.55 604.27"/><line class="cls-4" x1="729.32" y1="603.95" x2="729.32" y2="566.21"/><line class="cls-4" x1="729.32" y1="566.21" x2="729.64" y2="566.21"/><line class="cls-4" x1="729.64" y1="603.95" x2="729.64" y2="566.21"/><polyline class="cls-4" points="729.01 604.27 676.98 604.27 652.55 604.27"/><line class="cls-4" x1="729.01" y1="566.21" x2="726.79" y2="566.21"/><polyline class="cls-4" points="684.61 597.92 644.64 597.92 644.32 597.92"/><polyline class="cls-4" points="684.61 598.24 644.64 598.24 644.32 598.24"/><line class="cls-4" x1="644.32" y1="598.24" x2="644.32" y2="597.92"/><line class="cls-4" x1="684.61" y1="598.24" x2="684.61" y2="597.92"/><polyline class="cls-4" points="603.71 597.92 604.03 597.92 643.36 597.92 643.68 597.92"/><polyline class="cls-4" points="603.71 598.24 604.03 598.24 643.36 598.24 643.68 598.24"/><line class="cls-4" x1="643.68" y1="598.24" x2="643.68" y2="597.92"/><line class="cls-4" x1="603.71" y1="598.24" x2="603.71" y2="597.92"/><polyline class="cls-4" points="644 566.53 644.32 566.21 644.32 565.89 644.64 565.57 644.94 565.57 645.26 565.26 645.58 564.94 645.9 564.94 646.21 564.62 646.53 564.62 646.85 564.3 647.49 564.3 648.44 564 648.76 564 649.08 564"/><polyline class="cls-4" points="604.35 594.75 604.67 594.45 604.98 594.45 605.29 594.45 605.62 594.45 606.26 594.45 606.56 594.45 606.88 594.45 607.2 594.45 607.83 594.13 608.15 594.13 608.79 594.13 609.11 594.13 609.73 594.13 610.38 594.13 610.7 594.13 611.32 594.13 611.96 594.13 612.59 594.13 613.23 594.13 614.49 594.13 615.76 593.8 617.03 593.8 618.61 593.8 619.89 593.8 621.48 593.8 624.33 593.8 627.51 593.8 629.09 593.8 630.36 593.8 631.95 594.13 633.21 594.13 634.48 594.13 636.07 594.13 637.33 594.13 637.97 594.13 638.29 594.13 638.92 594.45 639.56 594.45 640.18 594.45 640.82 594.45 641.14 594.45 641.77 594.45 642.09 594.45 642.73 594.75"/><polyline class="cls-4" points="638.92 564 637.97 564 637.01 563.68 636.07 563.68 634.8 563.68 633.85 563.68 632.57 563.68 631.3 563.68 630.36 563.36 627.81 563.36 625.6 563.36 623.07 563.36 621.78 563.36 620.84 563.36 619.57 563.36 618.31 563.36 617.35 563.36 616.08 563.36 615.13 563.36 614.17 563.68 613.23 563.68 612.59 563.68 612.28 563.68 611.96 563.68 611.32 563.68 611 563.68 610.7 563.68 610.38 563.68 609.73 563.68 609.41 564 609.11 564 608.79 564 608.47 564 608.15 564 607.83 564 607.52 564 607.2 564.3"/><polyline class="cls-4" points="727.43 602.36 727.34 602.06 727.11 601.1 726.79 599.83 726.79 598.88 726.47 597.6 726.14 596.66 725.84 595.39 725.84 594.75 725.84 594.45 725.52 593.16 725.52 592.22 725.2 591.27 725.2 589.99 725.2 589.04 724.88 587.78 724.88 586.83 724.88 585.87 724.88 584.61 724.88 583.66 724.88 582.38 724.88 581.43 725.2 580.49 725.2 579.22 725.2 578.26 725.52 577.31 725.52 576.05 725.84 575.09 725.84 574.14 726.14 572.88 726.47 571.91 726.79 570.97 727.11 570.02 727.43 569.08 727.43 569.06 727.73 567.79"/><polyline class="cls-4" points="729.32 566.21 729.01 566.21 729.01 566.53 728.69 566.53 728.69 566.85 728.37 566.85 728.37 567.15 728.05 567.15 728.05 567.47 727.73 567.47 727.73 567.79"/><polyline class="cls-4" points="602.12 602.36 602.44 601.1 602.76 599.83 602.76 598.88 603.08 597.6 603.39 596.66 603.57 595.9 603.71 595.39 603.71 594.75 603.71 594.45 604.03 593.16 604.03 592.22 604.35 591.27 604.35 589.99 604.35 589.04 604.67 587.78 604.67 586.83 604.67 585.87 604.67 584.61 604.67 583.66 604.67 582.38 604.67 581.43 604.35 580.49 604.35 579.22 604.35 578.26 604.03 577.31 604.03 576.05 603.71 575.09 603.71 574.14 603.39 572.88 603.08 571.91 602.76 570.97 602.44 570.02 602.12 569.06 601.8 567.79"/><polyline class="cls-4" points="600.53 566.21 600.53 566.53 600.86 566.53 601.18 566.85 601.5 567.15 601.5 567.47 601.8 567.79"/><polyline class="cls-4" points="727.43 602.36 727.43 602.06 727.34 602.06 727.11 602.06 726.79 602.06 726.47 602.06 726.14 602.06 726.14 601.74 725.84 601.74 725.52 601.74 725.2 601.74 724.88 601.74 724.56 601.74 724.56 601.42 724.25 601.42 723.93 601.42 723.61 601.42 723.29 601.42 722.99 601.42 722.67 601.42 722.67 601.1"/><polyline class="cls-4" points="649.38 601.1 648.76 601.1 648.44 601.1 647.79 601.42 647.17 601.42 646.53 601.74 645.9 601.74 645.26 602.06 644.64 602.06 644.32 602.06"/><polyline class="cls-4" points="602.12 602.36 602.44 602.06 602.76 602.06 603.39 602.06 603.71 601.74 604.35 601.74 604.98 601.42 605.62 601.42 606.26 601.42 606.88 601.1 607.52 601.1"/><polyline class="cls-4" points="638.92 601.1 639.56 601.1 639.88 601.1 640.5 601.42 641.14 601.42 641.77 601.74 642.41 601.74 643.05 602.06 643.36 602.06 643.68 602.06"/><polyline class="cls-4" points="644.32 602.06 644 602.36 643.68 602.06"/><line class="cls-4" x1="685.23" y1="568.44" x2="685.87" y2="569.7"/><polyline class="cls-4" points="607.2 564.3 606.56 564.3 606.26 564.3 605.62 564.62 604.98 564.62 604.35 564.94 604.03 564.94 603.71 565.26 603.39 565.26 603.08 565.57 602.76 565.89 602.76 566.21 602.44 566.21 602.44 566.53 602.44 566.85 602.44 567.15 602.44 567.47"/><line class="cls-4" x1="600.54" y1="566.21" x2="602.44" y2="566.21"/><line class="cls-4" x1="602.44" y1="567.47" x2="602.44" y2="569.7"/><polyline class="cls-4" points="690.94 564 691.26 564 691.9 564 692.22 564 692.84 563.68 693.79 563.68 695.07 563.68 696.02 563.68 697.28 563.68 698.55 563.68 699.51 563.36 700.78 563.36 702.04 563.36 704.57 563.36 706.8 563.36 708.07 563.36 709.33 563.36 710.3 563.36 711.56 563.36 712.51 563.36 713.79 563.36 714.09 563.36 714.74 563.36 715.36 563.68 715.68 563.68 716.32 563.68 716.64 563.68 717.27 563.68 717.59 563.68 718.23 563.68 718.53 563.68 718.85 563.68 719.17 563.68 719.82 563.68 720.12 563.68 720.44 564 720.76 564 721.08 564 721.4 564 721.71 564 722.03 564 722.35 564 722.67 564.3 722.99 564.3"/><polyline class="cls-4" points="722.99 564.3 723.61 564.3 724.25 564.62 724.56 564.62 724.88 564.62 725.2 564.94 725.52 564.94 725.84 565.26 726.14 565.26 726.47 565.57 726.47 565.89 726.79 566.21 726.79 566.53 726.79 566.85 726.79 567.15 727.11 567.47 727.11 567.79 727.11 568.12 727.11 568.43"/><line class="cls-4" x1="690.31" y1="601.1" x2="687.46" y2="601.1"/><line class="cls-4" x1="702.36" y1="601.1" x2="691.26" y2="601.1"/><polyline class="cls-4" points="686.82 600.47 686.5 599.83 686.5 599.19 686.5 598.88 686.5 598.24"/><polyline class="cls-4" points="686.5 597.92 686.5 597.3 686.5 596.66 686.5 596.01 686.82 595.39"/><polyline class="cls-4" points="702.36 601.1 721.4 601.1 722.67 601.1 725.2 601.1"/><polyline class="cls-4" points="726.14 600.47 726.14 599.83 726.14 599.19 726.14 598.88 726.47 598.24"/><polyline class="cls-4" points="726.47 597.92 726.14 597.3 726.14 596.66 726.14 596.01 726.14 595.39"/><polyline class="cls-4" points="725.52 594.75 725.2 594.45 724.88 594.45 724.56 594.45 724.25 594.45 723.93 594.45 723.29 594.45 722.99 594.45 722.67 594.45 722.35 594.13 721.71 594.13 721.4 594.13 720.76 594.13 720.12 594.13 719.82 594.13 719.17 594.13 718.53 594.13 717.91 594.13 717.27 594.13 716.64 594.13 715.36 594.13 714.09 593.8 712.83 593.8 711.24 593.8 709.98 593.8 708.39 593.8 705.54 593.8 702.36 593.8 701.1 593.8 699.51 593.8 697.92 594.13 696.66 594.13 695.38 594.13 694.11 594.13 692.84 594.13 692.22 594.13 691.58 594.13 690.94 594.45 690.31 594.45 689.67 594.45 689.35 594.45 688.73 594.45 688.08 594.45 687.76 594.45 687.46 594.75"/><polyline class="cls-4" points="726.47 597.92 686.5 597.92 686.18 597.92"/><polyline class="cls-4" points="726.47 598.24 686.5 598.24 686.18 598.24"/><line class="cls-4" x1="686.18" y1="598.24" x2="686.18" y2="597.92"/><line class="cls-4" x1="726.47" y1="598.24" x2="726.47" y2="597.92"/><polyline class="cls-4" points="685.87 566.53 686.18 566.21 686.18 565.89 686.5 565.57 686.82 565.57 687.14 565.26 687.46 564.94 687.76 564.94 688.08 564.62 688.4 564.62 688.73 564.3 689.35 564.3 689.99 564 690.63 564 690.94 564"/><line class="cls-4" x1="687.76" y1="601.74" x2="687.14" y2="602.06"/><line class="cls-4" x1="689.05" y1="601.42" x2="688.4" y2="601.74"/><line class="cls-4" x1="690.31" y1="601.1" x2="689.67" y2="601.42"/><polyline class="cls-4" points="727.11 568.43 727.43 569.08 727.73 569.7"/><polyline class="cls-4" points="671.27 789.51 668.07 786.71 661.45 780.93"/><line class="cls-4" x1="661.45" y1="780.94" x2="662.07" y2="779.99"/><polyline class="cls-4" points="750.89 856.75 749.3 856.75 732.02 856.75 731.87 856.75"/><polyline class="cls-4" points="750.89 828.52 732.66 828.52 731.87 828.52"/><line class="cls-4" x1="731.87" y1="810.44" x2="750.89" y2="810.44"/><polyline class="cls-4" points="731.87 838.66 732.63 838.66 749.3 838.66 750.89 838.66"/><polyline class="cls-4" points="731.87 811.38 732 811.38 747.09 811.38"/><polyline class="cls-4" points="747.09 827.57 733 827.57 731.87 827.57"/><line class="cls-4" x1="747.09" y1="811.38" x2="747.09" y2="827.57"/><line class="cls-4" x1="749.3" y1="838.66" x2="749.3" y2="856.75"/><line class="cls-4" x1="726.15" y1="709.25" x2="726.15" y2="709.57"/><polyline class="cls-4" points="726.14 709.57 726.47 709.57 728.05 709.57 728.69 709.57"/><line class="cls-4" x1="728.69" y1="709.57" x2="728.69" y2="709.25"/><polyline class="cls-4" points="726.47 709.57 726.47 722.69 726.47 730.2"/><line class="cls-4" x1="726.47" y1="730.2" x2="728.05" y2="730.2"/><polyline class="cls-4" points="728.05 730.2 728.05 722.6 728.05 709.57"/><path class="cls-4" d="M726,736.83a7,7,0,0,0,1.59.17,7.2,7.2,0,1,0,.45-14.4h-.45a6,6,0,0,0-1.13.1,7.16,7.16,0,0,0-.46,14.14"/><line class="cls-4" x1="1040.51" y1="703.55" x2="1042.41" y2="703.55"/><line class="cls-4" x1="1040.51" y1="703.55" x2="839.4" y2="703.55"/><line class="cls-4" x1="839.4" y1="703.55" x2="839.4" y2="704.19"/><line class="cls-4" x1="839.4" y1="704.49" x2="1042.41" y2="704.49"/><rect class="cls-4" x="857.48" y="615.05" width="133.54" height="31.09"/><line class="cls-4" x1="759.14" y1="646.14" x2="573.9" y2="646.14"/><line class="cls-4" x1="573.9" y1="646.14" x2="573.9" y2="628.07"/><line class="cls-4" x1="573.9" y1="628.07" x2="759.14" y2="628.07"/><line class="cls-4" x1="759.14" y1="628.07" x2="759.14" y2="646.14"/><polyline class="cls-4" points="1126.47 149.75 1126.47 273.13 1157.24 273.13"/><polyline class="cls-4" points="1114.72 327.06 1091.58 327.06 1065.88 327.06 1042.41 327.06 1042.41 352.75"/><rect class="cls-4" x="973.89" y="152.6" width="28.24" height="22.84"/><polyline class="cls-4" points="961.84 265.52 961.84 276.62 966.92 276.94"/><line class="cls-4" x1="961.84" y1="149.75" x2="961.84" y2="188.45"/><polyline class="cls-4" points="966.92 321.98 936.15 321.98 905.06 321.98"/><polyline class="cls-4" points="905.06 321.98 874.29 321.98 843.52 321.98"/><line class="cls-4" x1="843.52" y1="321.98" x2="812.75" y2="321.98"/><polyline class="cls-4" points="812.75 321.98 812.73 322.94 812.43 352.75"/><line class="cls-4" x1="812.75" y1="321.98" x2="810.54" y2="321.98"/><line class="cls-4" x1="809.25" y1="321.98" x2="806.4" y2="321.98"/><line class="cls-4" x1="803.87" y1="321.98" x2="801.34" y2="321.98"/><line class="cls-4" x1="800.06" y1="321.98" x2="797.52" y2="321.98"/><line class="cls-4" x1="794.67" y1="321.98" x2="792.14" y2="321.98"/><line class="cls-4" x1="790.86" y1="321.98" x2="788.33" y2="321.98"/><line class="cls-4" x1="785.47" y1="321.98" x2="782.92" y2="321.98"/><line class="cls-4" x1="781.66" y1="321.98" x2="779.13" y2="321.98"/><line class="cls-4" x1="776.59" y1="321.98" x2="773.73" y2="321.98"/><line class="cls-4" x1="772.46" y1="321.98" x2="769.93" y2="321.98"/><polyline class="cls-4" points="767.4 321.98 765.81 321.98 764.85 321.98"/><line class="cls-4" x1="763.58" y1="321.98" x2="760.73" y2="321.98"/><polyline class="cls-4" points="758.2 321.98 757.88 321.98 755.97 321.98"/><polyline class="cls-4" points="966.92 322.94 936.15 322.94 905.06 322.94 874.29 322.94 812.75 322.94"/><line class="cls-4" x1="936.15" y1="321.98" x2="936.15" y2="322.94"/><line class="cls-4" x1="905.06" y1="321.98" x2="905.06" y2="322.94"/><line class="cls-4" x1="874.29" y1="321.98" x2="874.29" y2="322.94"/><polyline class="cls-4" points="813.69 168.15 813.69 296.61 890.78 296.61 890.78 265.52"/><polyline class="cls-4" points="813.69 168.15 890.78 168.15 890.78 188.45"/><polyline class="cls-4" points="750.89 212.23 749.3 212.23 731.87 212.23"/><polyline class="cls-4" points="731.87 230 732.51 230 749.3 230 750.89 230"/><line class="cls-4" x1="750.89" y1="240.47" x2="731.87" y2="240.47"/><polyline class="cls-4" points="747.09 241.41 732 241.41 731.87 241.41"/><polyline class="cls-4" points="731.87 258.23 732.51 258.23 750.89 258.23"/><polyline class="cls-4" points="731.87 257.28 732.95 257.28 747.09 257.28"/><line class="cls-4" x1="747.09" y1="257.28" x2="747.09" y2="241.42"/><line class="cls-4" x1="749.3" y1="230.01" x2="749.3" y2="212.23"/><polyline class="cls-4" points="689.67 352.75 689.67 263.31 658.28 263.31"/><polyline class="cls-4" points="659.22 264.25 673.99 264.25 688.73 264.25 688.73 278.99 688.73 294.08 665.89 294.08"/><path class="cls-4" d="M666.48,290.8l.67.41a13.92,13.92,0,1,0-1.41-.9"/><polyline class="cls-4" points="661.75 300.4 662.39 300.73 665.75 294.01 667.15 291.21 670.95 283.6"/><line class="cls-4" x1="670.95" y1="283.59" x2="670.01" y2="283.29"/><polyline class="cls-4" points="670.01 283.29 666.46 290.65 666.39 290.77 664.77 294.14 661.75 300.4"/><polyline class="cls-4" points="664.62 294.08 659.22 294.08 659.22 278.99 659.22 264.25"/><polyline class="cls-4" points="991.02 409.52 991.02 427.28 991.02 440.29"/><line class="cls-4" x1="991.02" y1="440.29" x2="803.87" y2="440.29"/><polyline class="cls-4" points="803.87 440.29 803.87 427.28 803.87 409.52"/><polyline class="cls-4" points="990.7 427.28 915.52 427.28 879.37 427.28 803.87 427.28"/><line class="cls-4" x1="915.52" y1="427.28" x2="915.52" y2="433.95"/><line class="cls-4" x1="915.52" y1="433.95" x2="879.37" y2="433.95"/><line class="cls-4" x1="879.37" y1="433.95" x2="879.37" y2="427.28"/><rect class="cls-4" x="880.63" y="496.75" width="110.06" height="61.84"/><polyline class="cls-4" points="880.63 496.75 875.87 496.75 853.66 496.75 846.05 496.75 824.17 496.75 818.77 496.75"/><polyline class="cls-4" points="818.77 496.75 818.77 500.55 818.77 522.44 818.77 530.38 818.77 552.25 818.77 558.6"/><line class="cls-4" x1="699.51" y1="720.68" x2="673.82" y2="720.68"/><polyline class="cls-4" points="750.89 919.24 720.12 919.24 689.05 919.24 658.28 919.24 627.51 919.24 596.42 919.24 565.65 919.24"/><polyline class="cls-4" points="565.65 919.24 565.65 919.86 565.65 949.04 565.65 949.99"/><line class="cls-4" x1="750.89" y1="919.86" x2="720.12" y2="919.86"/><line class="cls-4" x1="720.12" y1="919.86" x2="720.12" y2="919.24"/><line class="cls-4" x1="720.12" y1="919.86" x2="689.05" y2="919.86"/><line class="cls-4" x1="689.05" y1="919.86" x2="689.05" y2="919.24"/><line class="cls-4" x1="689.05" y1="919.86" x2="658.28" y2="919.86"/><line class="cls-4" x1="658.28" y1="919.86" x2="658.28" y2="919.24"/><line class="cls-4" x1="658.28" y1="919.86" x2="627.51" y2="919.86"/><line class="cls-4" x1="627.51" y1="919.86" x2="627.51" y2="919.24"/><line class="cls-4" x1="627.51" y1="919.86" x2="596.42" y2="919.86"/><line class="cls-4" x1="596.42" y1="919.86" x2="596.42" y2="919.24"/><line class="cls-4" x1="596.42" y1="919.86" x2="565.65" y2="919.86"/><line class="cls-4" x1="534.88" y1="949.99" x2="534.88" y2="949.04"/><line class="cls-4" x1="534.88" y1="949.04" x2="565.65" y2="949.04"/><polyline class="cls-4" points="640.18 859.28 623.07 859.28 605.94 859.28 537.41 859.28 537.41 782.2 605.94 782.2 623.07 782.2 640.18 782.2"/><polyline class="cls-4" points="623.07 859.28 623.07 820.9 623.07 782.2"/><line class="cls-4" x1="623.07" y1="820.9" x2="605.94" y2="782.2"/><line class="cls-4" x1="596.42" y1="796.48" x2="623.07" y2="820.9"/><line class="cls-4" x1="623.07" y1="820.9" x2="593.24" y2="847.86"/><line class="cls-4" x1="605.94" y1="859.29" x2="623.07" y2="820.9"/><line class="cls-4" x1="605.94" y1="859.29" x2="593.24" y2="847.86"/><line class="cls-4" x1="596.42" y1="796.48" x2="605.94" y2="782.2"/><rect class="cls-4" x="624.96" y="825.98" width="13.96" height="30.77"/><rect class="cls-4" x="624.96" y="785.07" width="13.96" height="30.75"/><polyline class="cls-4" points="750.89 169.09 737.15 169.09 730.28 169.09 730.28 171.64 737.1 171.64 750.89 171.64"/><path class="cls-4" d="M728.74,176.79a7.35,7.35,0,0,0,1.71.22,6.78,6.78,0,0,0,6.65-5.37,7,7,0,0,0,.15-1.45,5.77,5.77,0,0,0-.1-1.1,6.8,6.8,0,1,0-8.41,7.7"/><path class="cls-4" d="M784.44,229.9l.07,0a10.49,10.49,0,0,0,5,2A10.31,10.31,0,1,0,792,211.47a10.48,10.48,0,0,0-7.27,1.78"/><line class="cls-4" x1="566.59" y1="705.13" x2="607.83" y2="705.13"/><line class="cls-4" x1="607.83" y1="705.13" x2="607.83" y2="707.67"/><line class="cls-4" x1="607.83" y1="707.67" x2="607.83" y2="708.31"/><line class="cls-4" x1="607.83" y1="708.31" x2="566.59" y2="708.31"/><line class="cls-4" x1="566.59" y1="708.31" x2="566.59" y2="709.25"/><line class="cls-4" x1="566.59" y1="705.13" x2="525.68" y2="705.13"/><line class="cls-4" x1="525.68" y1="708.31" x2="566.59" y2="708.31"/><line class="cls-4" x1="566.59" y1="708.31" x2="566.59" y2="705.13"/><line class="cls-4" x1="732.81" y1="776.18" x2="732.81" y2="777.14"/><line class="cls-4" x1="733.76" y1="777.14" x2="733.76" y2="776.18"/><polyline class="cls-4" points="645.26 802.83 702.04 802.83 702.04 777.14"/><path class="cls-4" d="M674.62,797a9.14,9.14,0,0,0,1.41.12,8.26,8.26,0,1,0-7.56-11.58,6.45,6.45,0,0,0-.4,1.17A8.24,8.24,0,0,0,674.62,797"/><polyline class="cls-4" points="662.07 779.99 668.47 785.54 671.91 788.55"/><polyline class="cls-4" points="818.77 558.6 824.17 558.6 846.05 558.6 853.66 558.6 875.87 558.6 880.63 558.6"/><line class="cls-4" x1="873.65" y1="486.91" x2="873.65" y2="484.38"/><polyline class="cls-4" points="871.43 486.91 871.43 483.89 871.43 483.74"/><polyline class="cls-4" points="855.89 486.91 855.89 484.79 855.89 484.38"/><polyline class="cls-4" points="858.12 486.91 858.12 484.26 858.12 483.74"/><line class="cls-4" x1="853.66" y1="496.75" x2="853.66" y2="486.91"/><line class="cls-4" x1="875.87" y1="486.91" x2="875.87" y2="496.75"/><path class="cls-4" d="M877.33,485.22c-1.19-.37-2.4-.69-3.65-1-.74-.13-1.49-.27-2.25-.37a37.84,37.84,0,0,0-13.31.37c-.76.14-1.5.32-2.23.53a30.67,30.67,0,0,0-3.29,1"/><path class="cls-4" d="M877.66,484.63a40.29,40.29,0,0,0-10.61-1.79,39.48,39.48,0,0,0-14.74,2.37"/><polyline class="cls-4" points="853.66 486.91 855.89 486.91 858.12 486.91 871.43 486.91 873.65 486.91 875.87 486.91"/><line class="cls-4" x1="843.84" y1="486.91" x2="843.84" y2="484.38"/><polyline class="cls-4" points="841.61 486.91 841.61 483.96 841.61 483.74"/><polyline class="cls-4" points="826.39 486.91 826.39 484.65 826.39 484.38"/><polyline class="cls-4" points="828.61 486.91 828.61 484.16 828.61 483.74"/><line class="cls-4" x1="824.18" y1="496.75" x2="824.18" y2="486.91"/><line class="cls-4" x1="846.05" y1="486.91" x2="846.05" y2="496.75"/><path class="cls-4" d="M847.87,485.49a34.25,34.25,0,0,0-4-1.11c-.74-.17-1.49-.3-2.23-.42a35.77,35.77,0,0,0-3.9-.42,37,37,0,0,0-9.1.62,19.88,19.88,0,0,0-2.22.49,30.75,30.75,0,0,0-3.31,1"/><path class="cls-4" d="M848.16,484.92a39.75,39.75,0,0,0-25.35,0"/><polyline class="cls-4" points="824.17 486.91 826.39 486.91 828.61 486.91 841.61 486.91 843.84 486.91 846.05 486.91"/><line class="cls-4" x1="873.65" y1="568.74" x2="873.65" y2="571.29"/><line class="cls-4" x1="871.43" y1="568.74" x2="871.43" y2="571.61"/><polyline class="cls-4" points="855.89 568.74 855.89 571.05 855.89 571.29"/><polyline class="cls-4" points="858.12 568.74 858.12 571.59 858.12 571.61"/><line class="cls-4" x1="853.66" y1="558.6" x2="853.66" y2="568.74"/><line class="cls-4" x1="875.87" y1="568.74" x2="875.87" y2="558.6"/><path class="cls-4" d="M854,570.48c.62.2,1.25.4,1.87.57s1.49.39,2.23.54a37.79,37.79,0,0,0,8.89.85,41.4,41.4,0,0,0,4.49-.36c.74-.1,1.49-.24,2.23-.37s1.74-.39,2.58-.62"/><path class="cls-4" d="M853.7,571.07a39.09,39.09,0,0,0,13.33,2,40.81,40.81,0,0,0,9.59-1.39"/><polyline class="cls-4" points="853.66 568.74 855.89 568.74 858.12 568.74 871.43 568.74 873.65 568.74 875.87 568.74"/><polyline class="cls-4" points="843.84 568.74 843.84 571.1 843.84 571.29"/><line class="cls-4" x1="841.61" y1="568.74" x2="841.61" y2="571.61"/><line class="cls-4" x1="826.39" y1="568.74" x2="826.39" y2="571.29"/><line class="cls-4" x1="828.61" y1="568.74" x2="828.61" y2="571.61"/><line class="cls-4" x1="824.18" y1="558.6" x2="824.18" y2="568.74"/><line class="cls-4" x1="846.05" y1="568.74" x2="846.05" y2="558.6"/><path class="cls-4" d="M823.47,571c.92.27,1.87.49,2.83.7.74.15,1.5.28,2.26.38a37.47,37.47,0,0,0,8.16.27,34.07,34.07,0,0,0,4.89-.69c.74-.15,1.49-.34,2.23-.54s1.3-.37,1.94-.57"/><path class="cls-4" d="M823.2,571.68a39.88,39.88,0,0,0,13.4,1.3,40.69,40.69,0,0,0,9.52-1.89"/><polyline class="cls-4" points="824.17 568.74 826.39 568.74 828.61 568.74 841.61 568.74 843.84 568.74 846.05 568.74"/><polyline class="cls-4" points="808.95 550.04 807.3 550.04 806.4 550.04"/><polyline class="cls-4" points="808.95 547.81 806.74 547.81 805.85 547.81 805.78 547.81"/><polyline class="cls-4" points="808.95 532.59 806.64 532.59 806.4 532.59"/><polyline class="cls-4" points="808.95 534.49 806.32 534.49 805.78 534.49"/><line class="cls-4" x1="818.77" y1="530.37" x2="808.95" y2="530.37"/><line class="cls-4" x1="808.95" y1="552.25" x2="818.77" y2="552.25"/><path class="cls-4" d="M807.33,529.62c-.27,1-.51,2-.69,3-.14.62-.24,1.26-.32,1.9a37.62,37.62,0,0,0-.37,4.43,38.33,38.33,0,0,0,.79,8.89c.17.76.34,1.49.56,2.23s.35,1.25.55,1.87"/><path class="cls-4" d="M806.33,529.6a38.63,38.63,0,0,0-.48,18.21c.15.76.33,1.5.55,2.23s.36,1.25.56,1.85"/><polyline class="cls-4" points="808.95 530.38 808.95 532.59 808.95 534.49 808.95 547.81 808.95 550.04 808.95 552.25"/><polyline class="cls-4" points="808.95 520.21 807.31 520.21 806.4 520.21"/><polyline class="cls-4" points="808.95 521.21 807.6 521.21 806.65 521.21 806.4 521.21"/><polyline class="cls-4" points="808.95 502.78 806.59 502.78 806.4 502.78"/><polyline class="cls-4" points="808.95 504.99 806.25 504.99 805.78 504.99"/><polyline class="cls-4" points="685.87 601.1 685.87 597.92 685.87 569.7 685.87 566.53"/><polyline class="cls-4" points="685.87 601.74 686.18 601.74 686.18 602.06"/><polyline class="cls-4" points="685.87 601.1 685.87 601.42 685.87 601.74 685.55 601.74 685.55 602.06"/><polyline class="cls-4" points="691.26 601.1 690.94 601.1 690.63 601.1 690.31 601.1 689.99 601.42 689.67 601.42 689.35 601.42 689.05 601.42 688.73 601.74 688.4 601.74 688.08 601.74 687.76 601.74 687.46 602.06 687.14 602.06 686.5 602.06 686.18 602.06"/><polyline class="cls-4" points="680.79 601.1 681.11 601.1 681.43 601.1 681.74 601.1 682.06 601.42 682.38 601.42 682.7 601.42 683.02 601.42 683.32 601.74 683.64 601.74 683.97 601.74 684.29 601.74 684.61 602.06 684.91 602.06 685.23 602.06 685.55 602.06"/><polyline class="cls-4" points="686.18 602.06 685.87 602.36 685.55 602.06"/><path class="cls-4" d="M599,443.84a12.53,12.53,0,0,0,2,.17,11.68,11.68,0,0,0,11.63-11.65.68.68,0,0,0,0-.2,11.66,11.66,0,1,0-20.12,8.13,10.57,10.57,0,0,0,3.19,2.42,10.87,10.87,0,0,0,3.32,1.13"/><path class="cls-4" d="M585.31,462.13a11.85,11.85,0,0,0,1.81.14,11.66,11.66,0,0,0,8.54-19.56,11.46,11.46,0,0,0-3.19-2.42,11.77,11.77,0,0,0-5.35-1.3,11.65,11.65,0,0,0-3.83,22.64,10.85,10.85,0,0,0,2,.5"/><polyline class="cls-4" points="612.59 432.36 613.87 432.99 614.82 433.63 616.08 434.27 617.03 434.57 617.99 435.21 618.93 435.53 619.89 435.86 620.52 436.48 621.48 436.8 622.43 437.12 623.07 437.44 624.01 437.75 624.65 438.07 625.6 438.39 627.19 439.01 628.77 439.33 630.36 439.65 630.98 439.97 631.95 439.97 633.53 440.6 637.01 441.24 638.92 441.56 639.88 441.56 640.5 441.88 641.47 442.19 642.09 442.19 643.05 442.5 643.68 442.83 644.32 443.15 644.94 443.47 645.58 443.77 646.21 444.09 646.85 444.41 647.17 444.73 647.79 445.05 648.12 445.36 648.44 446 648.76 446.32 649.08 446.94 649.08 447.59 649.38 447.91 649.38 448.53 649.7 449.17 649.7 449.49 649.7 450.12 649.38 450.76 649.38 451.38 649.38 452.02 649.08 452.67 649.08 453.29 648.76 453.93 648.76 454.56 648.44 455.2 648.12 455.52 647.79 456.14 647.49 456.78 647.17 457.41 646.85 458.05 646.53 458.69 645.9 459 645.26 460.28 644.32 461.22 643.68 462.49 642.73 463.44 641.77 464.4 641.14 465.34 640.18 466.3 639.24 466.93 638.6 467.89 637.97 468.84 637.33 469.48 636.71 470.42 636.07 471.05 635.44 472.01 635.12 472.63 634.48 473.27 634.16 474.22 633.85 474.86 633.53 475.5 633.53 476.45 633.21 477.09 633.21 477.71 632.89 478.36 632.89 478.98 632.89 479.3 632.89 480.57 632.57 482.15 632.57 483.12 632.27 483.74 632.27 484.38 631.95 485.33 631.95 485.97 631.63 486.91 631.3 487.55 630.98 488.5 630.68 489.14 630.36 490.09 629.72 490.73 629.4 491.35 628.77 491.99 628.45 492.62 627.81 493.26 627.19 493.9 626.54 494.52 625.92 494.85 625.28 495.47 624.65 495.79 623.69 496.11 623.07 496.43 622.11 496.75 621.48 496.75 620.52 497.06 619.57 497.06 618.93 497.06 618.31 497.06 617.99 497.06 617.35 497.06 617.03 497.06 616.72 497.06 616.08 496.75 615.76 496.75 615.13 496.75 614.82 496.43 614.49 496.43 613.87 496.11 613.55 495.79 613.23 495.79 612.59 495.47 612.28 495.17 611.96 494.85 611.32 494.85 611 494.52 610.7 494.2 610.38 493.9 609.41 492.94 608.79 492.31 608.15 491.35 607.2 490.73 606.56 489.76 605.94 488.82 604.98 487.86 603.71 485.97 603.08 485 602.12 484.06 601.5 483.12 600.86 482.15 599.91 480.89 599.27 479.94 598.32 478.66 597.36 477.71 596.74 477.09 596.42 476.45 595.78 476.13 595.15 475.5 594.83 474.86 594.19 474.22 592.92 472.95 591.66 472.01 590.39 470.74 589.13 469.16 587.84 467.89 586.58 466.61 585.31 465.02 584.69 464.4 584.04 463.75 583.73 462.81 583.1 462.17"/><path class="cls-4" d="M594.54,521.68a10.85,10.85,0,0,0,1.73.12,11.92,11.92,0,0,0,11.88-12,1.72,1.72,0,0,0,0-.32,11.89,11.89,0,1,0-13.59,12.25"/><polyline class="cls-4" points="632.89 478.98 633.53 479.62 634.16 479.94 634.48 480.57 635.12 481.21 635.44 481.83 636.07 482.47 636.38 483.12 636.71 483.74 637.33 484.38 637.65 484.7 637.97 485.33 638.29 485.97 638.6 486.59 638.92 486.91 639.24 487.55 639.56 488.18 639.88 488.5 639.88 489.14 640.18 489.44 640.18 490.09 640.5 490.73 640.82 491.03 640.82 491.67 640.82 491.99 641.14 492.62 641.14 492.94 641.47 493.9 641.47 494.85 641.47 495.79 641.47 496.43 641.47 497.38 641.47 498.34 641.14 498.96 641.14 499.61 640.82 500.55 640.82 501.19 640.5 501.82 640.18 502.46 639.88 503.4 639.56 504.04 639.24 504.37 638.92 504.99 638.6 505.63 638.29 506.25 637.97 506.9 637.65 507.22 637.33 507.84 636.71 508.16 636.38 508.8 636.07 509.11 635.74 509.75 635.44 510.07 635.12 510.39 634.8 510.69 634.16 511.01 633.85 511.34 633.53 511.66 633.21 511.98 632.89 512.28 632.57 512.6 632.27 512.92 631.95 513.24 631.3 513.24 630.98 513.56 630.68 513.87 630.04 514.19 629.4 514.51 628.77 514.51 628.13 514.83 627.51 514.83 626.87 514.83 626.23 514.83 625.6 514.83 624.96 514.83 624.33 514.51 623.69 514.51 623.37 514.19 622.75 514.19 622.11 513.87 620.84 513.24 619.57 512.92 618.93 512.6 618.31 512.28 617.67 512.28 617.03 511.98 616.08 511.98 615.46 511.66 613.87 511.34 613.23 511.34 612.28 511.34 611.64 511.01 611 511.01 610.38 510.69 609.73 510.69 609.41 510.39 609.11 510.39 608.79 510.07 608.47 510.07 608.47 509.75 608.15 509.75 608.15 509.43 608.13 509.43 607.83 509.43 607.83 509.11 607.83 508.8"/><path class="cls-4" d="M742.94,564.2a12.05,12.05,0,1,0-10.45-12A12.06,12.06,0,0,0,742.94,564.2Z"/><polyline class="cls-4" points="470.49 274.4 470.49 302.63 470.49 305.17"/><polyline class="cls-4" points="470.49 197.33 470.49 199.86 470.49 228.1"/><polyline class="cls-4" points="470.49 595.39 470.49 623.61 470.49 626.16"/><polyline class="cls-4" points="470.49 518.31 470.49 520.86 470.49 549.08"/><polyline class="cls-4" points="470.49 932.23 470.49 960.47 470.49 963"/><polyline class="cls-4" points="470.49 855.17 470.49 857.7 470.49 885.92"/><line class="cls-4" x1="1172.78" y1="352.75" x2="1275.56" y2="352.75"/><line class="cls-4" x1="1172.78" y1="350.21" x2="1273.01" y2="350.21"/><line class="cls-4" x1="1275.56" y1="352.75" x2="1275.56" y2="108.51"/><line class="cls-4" x1="1273.01" y1="350.21" x2="1273.01" y2="111.37"/><line class="cls-4" x1="1275.56" y1="108.51" x2="1172.78" y2="108.51"/><polyline class="cls-4" points="1172.78 340.37 1172.78 350.21 1172.78 352.75"/><polyline class="cls-4" points="1172.78 108.51 1172.78 111.37 1172.78 294.08"/><line class="cls-4" x1="1273.01" y1="111.37" x2="1172.78" y2="111.37"/><line class="cls-4" x1="1120.44" y1="368.29" x2="1120.44" y2="681.66"/><line class="cls-4" x1="1122.97" y1="368.29" x2="1122.97" y2="679.12"/><line class="cls-4" x1="1122.97" y1="679.12" x2="1647" y2="679.12"/><line class="cls-4" x1="1120.44" y1="681.66" x2="1644.47" y2="681.66"/><line class="cls-4" x1="1644.47" y1="949.99" x2="1644.47" y2="681.66"/><line class="cls-4" x1="1647" y1="949.99" x2="1647" y2="679.12"/><polyline class="cls-4" points="1122.97 368.29 1120.44 368.29 1068.42 368.29"/><polyline class="cls-4" points="1068.42 368.29 1068.54 438.71 1068.8 602.06 1069.37 950.95"/><line class="cls-4" x1="1644.47" y1="949.99" x2="1069.37" y2="950.95"/><line class="cls-4" x1="1647" y1="949.99" x2="1644.47" y2="949.99"/><line class="cls-4" x1="771.51" y1="731.77" x2="776.59" y2="731.77"/><line class="cls-4" x1="776.59" y1="745.42" x2="776.59" y2="752.07"/><line class="cls-4" x1="776.59" y1="731.77" x2="776.59" y2="741.93"/><line class="cls-4" x1="834.32" y1="745.42" x2="834.32" y2="752.07"/><polyline class="cls-4" points="834.32 704.19 834.32 731.77 834.32 741.93"/><polyline class="cls-4" points="834.32 752.07 805.46 752.07 776.6 752.07"/><line class="cls-4" x1="792.44" y1="782.84" x2="818.15" y2="782.84"/><line class="cls-4" x1="805.46" y1="767.3" x2="818.15" y2="782.84"/><line class="cls-4" x1="805.46" y1="767.3" x2="792.44" y2="782.84"/><polyline class="cls-4" points="805.46 767.3 805.46 752.07 805.46 731.77 805.46 723.53"/><polyline class="cls-4" points="755.97 149.75 755.97 183.05 755.97 184.64 755.97 256.96 755.97 260.13 755.97 321.98 755.97 352.75"/><line class="cls-4" x1="1037.33" y1="731.77" x2="1037.33" y2="741.93"/><line class="cls-4" x1="1037.33" y1="741.93" x2="991.02" y2="741.93"/><line class="cls-4" x1="991.02" y1="741.93" x2="991.02" y2="731.77"/><line class="cls-4" x1="475.57" y1="883.39" x2="475.57" y2="885.92"/><polyline class="cls-4" points="475.57 885.92 475.57 909.08 475.57 932.23"/><line class="cls-4" x1="475.57" y1="932.23" x2="475.57" y2="934.77"/><polyline class="cls-4" points="478.1 882.75 478.1 882.76 478.1 909.08 478.1 935.39 478.1 935.41"/><polyline class="cls-4" points="454.94 909.08 470.49 909.08 475.57 909.08 478.1 909.08 516.8 909.08"/><polyline class="cls-4" points="496.18 878.31 478.1 882.76 475.57 883.39"/><polyline class="cls-4" points="496.18 939.85 478.1 935.39 475.57 934.77"/><line class="cls-4" x1="475.57" y1="723.85" x2="475.57" y2="726.38"/><polyline class="cls-4" points="475.57 726.38 475.57 749.54 475.57 772.7"/><line class="cls-4" x1="475.57" y1="772.7" x2="475.57" y2="775.23"/><polyline class="cls-4" points="478.1 723.21 478.1 723.23 478.1 749.54 478.1 775.87"/><polyline class="cls-4" points="496.18 780.62 496.18 749.54 496.18 718.77"/><polyline class="cls-4" points="454.94 749.54 470.49 749.54 475.57 749.54 478.1 749.54 496.18 749.54 516.8 749.54"/><polyline class="cls-4" points="496.18 718.77 478.1 723.23 475.57 723.85"/><polyline class="cls-4" points="496.18 780.62 478.1 775.89 475.57 775.23"/><line class="cls-4" x1="475.57" y1="225.55" x2="475.57" y2="228.1"/><polyline class="cls-4" points="475.57 228.1 475.57 251.25 475.57 273.13"/><line class="cls-4" x1="475.57" y1="274.4" x2="475.57" y2="276.94"/><polyline class="cls-4" points="478.1 224.93 478.1 251.25 478.1 277.57"/><polyline class="cls-4" points="454.94 251.25 470.49 251.25 475.57 251.25 478.1 251.25 516.8 251.25"/><polyline class="cls-4" points="496.18 220.49 478.1 224.93 475.57 225.55"/><polyline class="cls-4" points="496.18 282.01 478.1 277.57 475.57 276.94"/><line class="cls-4" x1="475.57" y1="228.1" x2="470.49" y2="228.1"/><line class="cls-4" x1="475.57" y1="274.4" x2="470.49" y2="274.4"/><line class="cls-4" x1="475.57" y1="726.38" x2="470.49" y2="726.38"/><line class="cls-4" x1="475.57" y1="772.7" x2="470.49" y2="772.7"/><line class="cls-4" x1="475.57" y1="885.92" x2="470.49" y2="885.92"/><line class="cls-4" x1="475.57" y1="932.23" x2="470.49" y2="932.23"/><line class="cls-4" x1="470.49" y1="857.7" x2="419.09" y2="857.7"/><line class="cls-4" x1="470.49" y1="855.17" x2="416.56" y2="855.17"/><line class="cls-4" x1="419.09" y1="857.7" x2="419.09" y2="960.47"/><line class="cls-4" x1="416.56" y1="855.17" x2="416.56" y2="963"/><line class="cls-4" x1="419.09" y1="960.47" x2="470.49" y2="960.47"/><line class="cls-4" x1="416.56" y1="963" x2="470.49" y2="963"/><line class="cls-4" x1="470.49" y1="199.86" x2="419.09" y2="199.86"/><line class="cls-4" x1="470.49" y1="197.33" x2="416.56" y2="197.33"/><line class="cls-4" x1="419.09" y1="199.86" x2="419.09" y2="302.63"/><line class="cls-4" x1="416.56" y1="197.33" x2="416.56" y2="305.17"/><line class="cls-4" x1="419.09" y1="302.63" x2="470.49" y2="302.63"/><line class="cls-4" x1="416.56" y1="305.17" x2="470.49" y2="305.17"/><polyline class="cls-4" points="695.38 134.52 695.38 135.16 695.38 135.79"/><polyline class="cls-4" points="713.79 134.52 713.79 135.16 713.79 135.79"/><polyline class="cls-4" points="713.79 135.16 704.57 135.16 695.38 135.16"/><line class="cls-4" x1="856.21" y1="124.06" x2="804.82" y2="124.06"/><line class="cls-4" x1="716" y1="124.06" x2="692.84" y2="124.06"/><line class="cls-4" x1="470.49" y1="520.86" x2="419.09" y2="520.86"/><line class="cls-4" x1="470.49" y1="518.31" x2="416.56" y2="518.31"/><line class="cls-4" x1="419.09" y1="520.86" x2="419.09" y2="623.61"/><line class="cls-4" x1="416.56" y1="518.31" x2="416.56" y2="626.16"/><line class="cls-4" x1="419.09" y1="623.61" x2="470.49" y2="623.61"/><line class="cls-4" x1="416.56" y1="626.16" x2="470.49" y2="626.16"/><path class="cls-4" d="M832.43,715.06h0q-.63,0-1.26.15a24.46,24.46,0,0,0-21.25,24.34c0,.67,0,1.33.08,2"/><line class="cls-4" x1="819.09" y1="746.99" x2="819.09" y2="736.85"/><line class="cls-4" x1="832.41" y1="714.97" x2="831.15" y2="714.97"/><line class="cls-4" x1="832.41" y1="741.93" x2="831.15" y2="741.93"/><polyline class="cls-4" points="832.41 714.97 832.41 715.06 832.41 731.77 832.41 741.93"/><polyline class="cls-4" points="831.15 714.97 831.15 715.21 831.15 731.77 831.15 741.93"/><line class="cls-4" x1="832.41" y1="745.42" x2="832.41" y2="741.93"/><line class="cls-4" x1="834.32" y1="745.42" x2="834.32" y2="741.93"/><line class="cls-4" x1="832.41" y1="745.42" x2="834.32" y2="745.42"/><line class="cls-4" x1="832.41" y1="741.93" x2="834.32" y2="741.93"/><line class="cls-4" x1="1042.41" y1="357.83" x2="1023.37" y2="357.83"/><polyline class="cls-4" points="991.02 404.12 990.7 404.12 573.9 404.12 573.26 404.12"/><polyline class="cls-4" points="991.02 409.52 990.7 409.52 803.87 409.52 573.9 409.52 573.26 409.52"/><line class="cls-4" x1="573.26" y1="404.12" x2="573.26" y2="409.52"/><line class="cls-4" x1="991.02" y1="404.12" x2="991.02" y2="409.52"/><line class="cls-4" x1="496.18" y1="704.19" x2="501.26" y2="704.19"/><line class="cls-4" x1="496.18" y1="709.25" x2="501.26" y2="709.25"/><line class="cls-4" x1="658.28" y1="149.75" x2="692.84" y2="149.75"/><line class="cls-4" x1="755.97" y1="149.75" x2="804.82" y2="149.75"/><polyline class="cls-4" points="856.21 149.75 961.84 149.75 966.92 149.75"/><line class="cls-4" x1="1042.41" y1="352.75" x2="1023.37" y2="352.75"/><line class="cls-4" x1="1157.24" y1="352.75" x2="1114.72" y2="352.75"/><line class="cls-4" x1="653.2" y1="252.52" x2="653.2" y2="288.67"/><line class="cls-4" x1="658.28" y1="149.75" x2="658.28" y2="197.65"/><polyline class="cls-4" points="750.89 149.75 750.89 169.09 750.89 171.64 750.89 190.98"/><line class="cls-4" x1="966.92" y1="149.75" x2="966.92" y2="201.13"/><line class="cls-4" x1="971.98" y1="149.75" x2="971.98" y2="352.75"/><polyline class="cls-4" points="971.98 149.75 1126.47 149.75 1157.24 149.75"/><polyline class="cls-4" points="1157.24 149.75 1157.24 273.13 1157.24 289"/><line class="cls-4" x1="496.18" y1="357.83" x2="496.18" y2="383.52"/><line class="cls-4" x1="496.18" y1="445.36" x2="496.18" y2="541.46"/><line class="cls-4" x1="496.18" y1="383.52" x2="496.18" y2="388.9"/><line class="cls-4" x1="496.18" y1="597.92" x2="496.18" y2="704.19"/><line class="cls-4" x1="496.18" y1="780.61" x2="496.18" y2="878.31"/><polyline class="cls-4" points="496.18 949.99 534.88 949.99 565.65 949.99 750.89 949.99"/><polyline class="cls-4" points="750.89 949.99 750.89 919.86 750.89 919.24 750.89 918.92 750.89 872.28"/><line class="cls-4" x1="750.89" y1="736.85" x2="750.89" y2="709.25"/><line class="cls-4" x1="771.51" y1="704.19" x2="771.51" y2="731.77"/><polyline class="cls-4" points="1040.51 731.77 1041.45 731.77 1042.41 731.77"/><line class="cls-4" x1="1042.41" y1="357.83" x2="1042.41" y2="407.94"/><line class="cls-4" x1="475.57" y1="388.9" x2="475.57" y2="391.45"/><polyline class="cls-4" points="475.57 391.45 475.57 414.59 475.57 437.75"/><line class="cls-4" x1="475.57" y1="437.75" x2="475.57" y2="440.29"/><polyline class="cls-4" points="478.1 388.9 478.1 414.59 478.1 440.92"/><polyline class="cls-4" points="496.18 445.36 496.18 414.59 496.18 388.9"/><polyline class="cls-4" points="454.94 414.59 470.49 414.59 475.57 414.59 478.1 414.59 496.18 414.59 516.8 414.59"/><polyline class="cls-4" points="496.18 445.36 478.1 440.92 475.57 440.29"/><line class="cls-4" x1="475.57" y1="391.45" x2="470.49" y2="391.45"/><line class="cls-4" x1="475.57" y1="437.75" x2="470.49" y2="437.75"/><polyline class="cls-4" points="475.57 388.9 478.1 388.9 496.18 388.9"/><line class="cls-4" x1="475.57" y1="546.54" x2="475.57" y2="549.08"/><polyline class="cls-4" points="475.57 549.08 475.57 572.23 475.57 595.39"/><line class="cls-4" x1="475.57" y1="595.39" x2="475.57" y2="597.92"/><polyline class="cls-4" points="478.1 545.9 478.1 545.92 478.1 572.23 478.1 597.92"/><polyline class="cls-4" points="454.94 572.23 470.49 572.23 475.57 572.23 478.1 572.23 516.8 572.23"/><polyline class="cls-4" points="496.18 541.46 478.1 545.92 475.57 546.54"/><line class="cls-4" x1="475.57" y1="549.08" x2="470.49" y2="549.08"/><line class="cls-4" x1="475.57" y1="595.39" x2="470.49" y2="595.39"/><polyline class="cls-4" points="475.57 597.92 478.1 597.92 496.18 597.92"/><line class="cls-4" x1="856.21" y1="137.06" x2="856.21" y2="149.75"/><line class="cls-4" x1="856.21" y1="124.06" x2="856.21" y2="134.2"/><line class="cls-4" x1="804.82" y1="137.06" x2="804.82" y2="149.75"/><line class="cls-4" x1="804.82" y1="124.06" x2="804.82" y2="134.2"/><line class="cls-4" x1="1068.42" y1="415.55" x2="1063.02" y2="415.55"/><line class="cls-4" x1="1068.42" y1="461.85" x2="1063.02" y2="461.85"/><line class="cls-4" x1="1068.42" y1="578.9" x2="1063.02" y2="578.9"/><line class="cls-4" x1="1068.42" y1="625.2" x2="1063.02" y2="625.2"/><line class="cls-4" x1="1063.02" y1="413.02" x2="1063.02" y2="415.55"/><polyline class="cls-4" points="1063.02 415.55 1063.02 438.71 1063.02 461.85"/><polyline class="cls-4" points="1063.02 461.85 1063.02 463.13 1063.02 464.4"/><polyline class="cls-4" points="1060.49 412.38 1060.49 412.39 1060.49 438.71 1060.49 465.02"/><polyline class="cls-4" points="1063.02 413.02 1060.49 412.39 1042.41 407.94"/><polyline class="cls-4" points="1063.02 464.4 1060.49 465.02 1042.41 469.48"/><line class="cls-4" x1="1063.02" y1="576.35" x2="1063.02" y2="578.9"/><polyline class="cls-4" points="1063.02 578.9 1063.02 602.06 1063.02 625.2"/><line class="cls-4" x1="1063.02" y1="625.2" x2="1063.02" y2="627.75"/><polyline class="cls-4" points="1060.49 575.73 1060.49 602.06 1060.49 628.37"/><polyline class="cls-4" points="1063.02 576.35 1060.49 575.73 1042.41 571.29"/><polyline class="cls-4" points="1063.02 627.75 1060.49 628.37 1042.41 632.81"/><line class="cls-4" x1="1172.78" y1="294.08" x2="1167.7" y2="294.08"/><line class="cls-4" x1="1172.78" y1="340.37" x2="1167.7" y2="340.37"/><line class="cls-4" x1="1167.7" y1="291.53" x2="1167.7" y2="294.08"/><polyline class="cls-4" points="1167.7 294.08 1167.7 317.22 1167.7 340.37"/><line class="cls-4" x1="1167.7" y1="340.37" x2="1167.7" y2="342.92"/><polyline class="cls-4" points="1164.85 290.9 1164.85 317.22 1164.85 343.55"/><polyline class="cls-4" points="1167.7 291.53 1164.87 290.83 1157.24 289"/><polyline class="cls-4" points="1167.7 342.92 1164.88 343.68 1157.24 345.77"/><polyline class="cls-4" points="1029.72 438.71 1060.49 438.71 1063.02 438.71 1068.42 438.71 1068.54 438.71 1091.58 438.71"/><polyline class="cls-4" points="1029.72 602.06 1060.49 602.06 1063.02 602.06 1068.42 602.06 1068.8 602.06 1091.58 602.06"/><polyline class="cls-4" points="1136.61 317.22 1164.85 317.22 1167.7 317.22 1172.78 317.22 1198.47 317.22"/><polyline class="cls-4" points="704.57 135.79 704.57 135.16 704.57 134.52"/><line class="cls-4" x1="692.84" y1="149.75" x2="716" y2="149.75"/><polyline class="cls-4" points="851.13 137.06 830.52 137.06 809.9 137.06"/><line class="cls-4" x1="851.13" y1="134.2" x2="833.05" y2="134.2"/><polyline class="cls-4" points="833.05 134.52 830.52 134.49 809.9 134.25 804.82 134.2"/><polyline class="cls-4" points="470.49 228.1 470.49 251.25 470.49 274.4"/><polyline class="cls-4" points="470.49 391.45 470.49 414.59 470.49 437.75"/><polyline class="cls-4" points="470.49 549.08 470.49 572.23 470.49 595.39"/><polyline class="cls-4" points="470.49 726.38 470.49 749.54 470.49 772.7"/><polyline class="cls-4" points="470.49 885.92 470.49 909.08 470.49 932.23"/><polyline class="cls-4" points="1172.78 294.08 1172.78 317.22 1172.78 340.37"/><polyline class="cls-4" points="1068.42 415.55 1068.42 438.71 1068.42 461.85"/><polyline class="cls-4" points="1068.42 578.9 1068.42 602.06 1068.42 625.2"/><polyline class="cls-4" points="692.84 124.06 692.84 134.52 692.84 135.79 692.84 149.75"/><polyline class="cls-4" points="716 124.06 716 134.52 716 135.79 716 149.75"/><line class="cls-4" x1="658.28" y1="288.67" x2="658.28" y2="352.75"/><line class="cls-4" x1="653.2" y1="288.67" x2="653.2" y2="352.75"/><path class="cls-4" d="M805,741.9c.07-.78.11-1.56.11-2.35A24.53,24.53,0,0,0,780.56,715c-.27,0-.54,0-.79,0-.53,0-1,0-1.57.09"/><line class="cls-4" x1="791.82" y1="746.99" x2="791.82" y2="736.85"/><line class="cls-4" x1="778.18" y1="741.93" x2="779.77" y2="741.93"/><line class="cls-4" x1="778.18" y1="714.97" x2="779.77" y2="714.97"/><polyline class="cls-4" points="778.18 741.93 778.18 731.77 778.18 714.97"/><polyline class="cls-4" points="779.77 741.93 779.77 731.77 779.77 714.99 779.77 714.97"/><line class="cls-4" x1="776.59" y1="745.42" x2="776.59" y2="741.93"/><line class="cls-4" x1="778.18" y1="745.42" x2="778.18" y2="741.93"/><line class="cls-4" x1="776.59" y1="745.42" x2="778.18" y2="745.42"/><line class="cls-4" x1="776.59" y1="741.93" x2="778.18" y2="741.93"/><polygon class="cls-4" points="804.82 134.2 809.9 134.2 809.9 134.25 809.9 135.79 809.9 137.06 804.82 137.06 804.82 134.2"/><polygon class="cls-4" points="851.13 134.2 851.13 135.79 851.13 137.06 856.21 137.06 856.21 134.2 851.13 134.2"/><polyline class="cls-4" points="851.13 135.79 830.52 135.79 809.9 135.79"/><polyline class="cls-4" points="830.52 137.06 830.52 135.79 830.52 134.52"/><polyline class="cls-4" points="716 135.79 713.79 135.79 705.86 135.79 704.57 135.79 695.38 135.79 692.84 135.79"/><polyline class="cls-4" points="716 134.52 713.79 134.52 705.86 134.52"/><polyline class="cls-4" points="705.86 134.52 704.57 134.52 695.38 134.52 692.84 134.52"/><polygon class="cls-4" points="1004.03 167.82 1004.03 150.71 1081.1 150.71 1081.1 167.82 1081.1 184.96 1081.1 253.47 1004.03 253.47 1004.03 184.96 1004.03 167.82"/><polyline class="cls-4" points="1081.1 167.82 1042.72 167.82 1004.03 167.82"/><line class="cls-4" x1="1042.72" y1="167.83" x2="1004.03" y2="184.96"/><line class="cls-4" x1="1018.29" y1="194.48" x2="1042.72" y2="167.83"/><line class="cls-4" x1="1042.72" y1="167.83" x2="1069.69" y2="197.97"/><line class="cls-4" x1="1081.1" y1="184.96" x2="1042.72" y2="167.83"/><line class="cls-4" x1="1081.1" y1="184.96" x2="1069.69" y2="197.97"/><line class="cls-4" x1="1018.29" y1="194.48" x2="1004.03" y2="184.96"/><rect class="cls-4" x="1047.8" y="151.98" width="30.77" height="14.26"/><rect class="cls-4" x="1006.56" y="151.98" width="30.77" height="14.26"/><path class="cls-4" d="M1020.78,352.75c0-.73.06-1.47.06-2.22a38.54,38.54,0,0,0-38.7-38.7h-.32c-.64,0-1.27,0-1.91.07"/><polyline class="cls-4" points="1000.22 360.68 1000.22 357.83 1000.22 352.75 1000.22 345.13"/><line class="cls-4" x1="1020.84" y1="357.83" x2="1020.84" y2="352.75"/><line class="cls-4" x1="1020.84" y1="357.83" x2="1023.37" y2="357.83"/><line class="cls-4" x1="1020.84" y1="352.75" x2="1023.37" y2="352.75"/><line class="cls-4" x1="979.91" y1="311.83" x2="981.82" y2="311.83"/><polyline class="cls-4" points="979.91 352.75 979.91 311.9 979.91 311.83"/><line class="cls-4" x1="981.82" y1="352.75" x2="981.82" y2="311.83"/><line class="cls-4" x1="979.91" y1="357.83" x2="979.91" y2="352.75"/><line class="cls-4" x1="977.38" y1="357.83" x2="979.91" y2="357.83"/><line class="cls-4" x1="977.38" y1="352.75" x2="979.91" y2="352.75"/><line class="cls-4" x1="977.38" y1="352.75" x2="977.38" y2="357.83"/><path class="cls-4" d="M645.25,311.9c-.64,0-1.27.1-1.89.17a38.45,38.45,0,0,0-34.25,38.46c0,.66,0,1.32,0,2"/><polyline class="cls-4" points="624.96 360.68 624.96 357.83 624.96 352.75 624.96 345.13"/><line class="cls-4" x1="604.35" y1="357.83" x2="604.35" y2="352.75"/><line class="cls-4" x1="601.8" y1="357.83" x2="604.35" y2="357.83"/><line class="cls-4" x1="601.8" y1="352.75" x2="604.35" y2="352.75"/><line class="cls-4" x1="645.26" y1="311.83" x2="643.36" y2="311.83"/><line class="cls-4" x1="645.26" y1="311.83" x2="645.26" y2="352.75"/><polyline class="cls-4" points="643.36 311.83 643.36 312.07 643.36 352.75"/><line class="cls-4" x1="645.26" y1="357.83" x2="645.26" y2="352.75"/><line class="cls-4" x1="645.26" y1="357.83" x2="648.12" y2="357.83"/><line class="cls-4" x1="645.26" y1="352.75" x2="648.12" y2="352.75"/><line class="cls-4" x1="977.38" y1="352.75" x2="971.98" y2="352.75"/><line class="cls-4" x1="977.38" y1="357.83" x2="807.36" y2="357.83"/><path class="cls-4" d="M804.44,352.75c0-.73,0-1.47,0-2.22A38.46,38.46,0,0,0,792.07,322a40.88,40.88,0,0,0-6.14-4.64,38.86,38.86,0,0,0-20.12-5.57c-.76,0-1.49,0-2.23.07"/><polyline class="cls-4" points="784.21 360.68 784.21 357.83 784.21 352.75 784.21 345.13"/><line class="cls-4" x1="804.82" y1="357.83" x2="804.82" y2="352.75"/><line class="cls-4" x1="804.82" y1="357.83" x2="807.36" y2="357.83"/><line class="cls-4" x1="804.82" y1="352.75" x2="807.36" y2="352.75"/><line class="cls-4" x1="763.58" y1="311.83" x2="765.81" y2="311.83"/><polyline class="cls-4" points="763.58 352.75 763.58 321.98 763.58 311.9 763.58 311.83"/><polyline class="cls-4" points="765.81 352.75 765.81 321.98 765.81 311.83"/><line class="cls-4" x1="761.05" y1="357.83" x2="761.05" y2="352.75"/><line class="cls-4" x1="763.58" y1="357.83" x2="763.58" y2="352.75"/><line class="cls-4" x1="761.05" y1="357.83" x2="763.58" y2="357.83"/><line class="cls-4" x1="761.05" y1="352.75" x2="763.58" y2="352.75"/><line class="cls-4" x1="761.05" y1="352.75" x2="755.97" y2="352.75"/><line class="cls-4" x1="761.05" y1="357.83" x2="745.83" y2="357.83"/><line class="cls-4" x1="750.89" y1="352.75" x2="745.83" y2="352.75"/><polyline class="cls-4" points="966.92 353.07 812.43 352.76 807.36 352.75"/><line class="cls-4" x1="1042.41" y1="352.75" x2="1114.72" y2="352.75"/><line class="cls-4" x1="1114.72" y1="352.75" x2="1114.72" y2="327.06"/><polyline class="cls-4" points="657.96 734.32 655.58 734.32 655.1 734.32"/><polyline class="cls-4" points="657.96 736.85 655.22 736.85 654.46 736.85"/><line class="cls-4" x1="657.96" y1="752.39" x2="656.99" y2="752.39"/><line class="cls-4" x1="673.82" y1="757.47" x2="657.96" y2="757.47"/><line class="cls-4" x1="657.96" y1="731.77" x2="673.82" y2="731.77"/><path class="cls-4" d="M655.17,754.93c.24.82.51,1.65.79,2.46l1.51-.32c-.26-.71-.49-1.42-.7-2.14s-.47-1.68-.67-2.54a44.77,44.77,0,0,1-1.2-10.31,40.92,40.92,0,0,1,.32-5.23c.09-.86.2-1.71.36-2.53.18-1.1.42-2.18.69-3.24l-1.52-.37c-.3,1.19-.57,2.41-.76,3.64h0c-.13.83-.27,1.67-.35,2.52a44.57,44.57,0,0,0,.89,15.52C654.7,753.25,654.92,754.1,655.17,754.93Z"/><polyline class="cls-4" points="657.96 757.47 657.96 754.93 657.96 752.39 657.96 736.85 657.96 734.32 657.96 731.77"/><polyline class="cls-4" points="656.99 752.39 656.1 752.39 654.51 752.39 654.46 752.39 651.93 752.39 652.94 754.93 655.1 754.93 655.17 754.93 656.77 754.93 657.96 754.93 658.01 754.93"/><line class="cls-4" x1="653.52" y1="736.85" x2="651.93" y2="736.85"/><polyline class="cls-4" points="653.84 734.32 652.25 734.32 651.68 736.78 651.66 736.85"/><polyline class="cls-4" points="1089.03 315.33 1089.03 311.75 1089.03 311.19"/><polyline class="cls-4" points="1086.5 315.33 1086.5 311.23 1086.5 310.89"/><line class="cls-4" x1="1068.42" y1="315.33" x2="1068.42" y2="313"/><line class="cls-4" x1="1070.96" y1="315.33" x2="1070.96" y2="312.39"/><line class="cls-4" x1="1065.87" y1="327.06" x2="1065.87" y2="315.33"/><line class="cls-4" x1="1091.58" y1="315.33" x2="1091.58" y2="327.06"/><path class="cls-4" d="M1089,310.79a48.31,48.31,0,0,1,4.68,1.33l-.68.76c-1.3-.44-2.63-.81-4-1.13-.83-.2-1.69-.37-2.53-.53a45.35,45.35,0,0,0-5.5-.6,43.85,43.85,0,0,0-10,.64c-.87.13-1.71.32-2.54.52-1.36.32-2.7.71-4,1.15l-.57-.95a44.74,44.74,0,0,1,4.57-1.26c.85-.19,1.69-.36,2.54-.49a46.49,46.49,0,0,1,9.92-.58,45.15,45.15,0,0,1,5.62.65C1087.34,310.43,1088.19,310.6,1089,310.79Z"/><polyline class="cls-4" points="1065.88 315.33 1068.42 315.33 1070.95 315.33 1086.5 315.33 1089.03 315.33 1091.58 315.33"/><path class="cls-4" d="M1088.8,309.62c-.76-.12-1.52-.24-2.3-.32a2.48,2.48,0,0,0-.27,0"/><polyline class="cls-4" points="1070.95 312.39 1070.95 311.83 1070.95 311.26 1070.95 310.23 1070.95 310.04 1070.95 309.3"/><polyline class="cls-4" points="1068.42 313 1068.42 312.46 1068.42 311.78 1068.42 310.72 1068.42 309.91 1070.95 309.12"/><polyline class="cls-4" points="1086.5 310.89 1086.5 310.3 1086.5 309.99 1086.5 309.3"/><polyline class="cls-4" points="1089.03 311.19 1089.03 310.97 1089.03 310.79 1089.03 309.62 1089.03 309.6"/><path class="cls-4" d="M1071,310h0c-.82.16-1.63.36-2.44.58"/><line class="cls-4" x1="775.95" y1="194.8" x2="779.45" y2="194.8"/><line class="cls-4" x1="779.45" y1="209.06" x2="784.21" y2="209.06"/><line class="cls-4" x1="571.35" y1="149.75" x2="536.46" y2="149.75"/><line class="cls-4" x1="575.79" y1="149.75" x2="573.9" y2="149.75"/><polyline class="cls-4" points="496.18 180.52 575.79 180.52 583.69 180.52 601.99 180.52 608.15 180.52 626.97 180.52 645.3 180.52 653.2 180.52"/><polyline class="cls-4" points="533.61 149.75 530.76 149.75 496.18 149.75"/><polyline class="cls-4" points="649.08 149.75 653.2 149.75 653.2 166.88 653.2 180.52 653.2 184.01 653.2 252.52 575.79 252.52 575.79 184.01 575.79 180.52 575.79 166.88 575.79 149.75 608.79 149.75"/><line class="cls-4" x1="611.32" y1="149.75" x2="646.53" y2="149.75"/><polyline class="cls-4" points="653.2 166.88 614.49 166.88 575.79 166.88"/><polyline class="cls-4" points="614.49 166.88 583.69 180.52 575.79 184.01"/><polyline class="cls-4" points="590.07 193.51 601.99 180.52 614.49 166.88"/><polyline class="cls-4" points="614.49 166.88 626.97 180.52 641.77 196.69"/><polyline class="cls-4" points="653.2 184.01 645.3 180.52 614.49 166.88"/><line class="cls-4" x1="653.2" y1="184.01" x2="641.77" y2="196.69"/><line class="cls-4" x1="590.07" y1="193.51" x2="575.79" y2="184.01"/><polygon class="cls-4" points="649.08 151.01 650.66 151.01 650.66 165.29 619.89 165.29 619.89 151.01 646.53 151.01 649.08 151.01"/><polygon class="cls-4" points="608.79 151.01 578.64 151.01 578.64 165.29 609.41 165.29 609.41 152.3 609.41 151.01 608.79 151.01"/><line class="cls-4" x1="648.12" y1="352.75" x2="648.12" y2="357.83"/><line class="cls-4" x1="653.2" y1="352.75" x2="648.12" y2="352.75"/><line class="cls-4" x1="601.8" y1="357.83" x2="601.8" y2="352.75"/><line class="cls-4" x1="506.34" y1="352.75" x2="496.18" y2="352.75"/><line class="cls-4" x1="601.8" y1="352.75" x2="578.34" y2="352.75"/><line class="cls-4" x1="601.8" y1="357.83" x2="496.18" y2="357.83"/><line class="cls-4" x1="573.26" y1="352.75" x2="578.34" y2="352.75"/><line class="cls-4" x1="506.34" y1="352.75" x2="511.72" y2="352.75"/><line class="cls-4" x1="578.34" y1="352.75" x2="578.34" y2="327.06"/><polyline class="cls-4" points="578.34 327.06 550.1 327.06 524.41 327.06 506.34 327.06"/><line class="cls-4" x1="506.34" y1="327.06" x2="506.34" y2="352.75"/><polyline class="cls-4" points="779.45 211.29 779.45 210.97 779.45 210.32 779.45 210.02"/><line class="cls-4" x1="775.95" y1="210.02" x2="779.45" y2="210.02"/><line class="cls-4" x1="775.95" y1="211.29" x2="779.45" y2="211.29"/><line class="cls-4" x1="779.45" y1="210.33" x2="784.21" y2="210.33"/><line class="cls-4" x1="779.45" y1="210.97" x2="784.21" y2="210.97"/><polyline class="cls-4" points="779.45 216.99 779.45 216.67 779.45 216.35 779.45 216.05"/><line class="cls-4" x1="775.95" y1="216.05" x2="779.45" y2="216.05"/><line class="cls-4" x1="775.95" y1="216.99" x2="779.45" y2="216.99"/><line class="cls-4" x1="779.45" y1="216.35" x2="784.21" y2="216.35"/><line class="cls-4" x1="779.45" y1="216.67" x2="784.21" y2="216.67"/><polyline class="cls-4" points="779.45 214.14 779.45 214.46 779.45 214.78 779.45 215.09"/><line class="cls-4" x1="775.95" y1="215.08" x2="779.45" y2="215.08"/><line class="cls-4" x1="775.95" y1="214.14" x2="779.45" y2="214.14"/><line class="cls-4" x1="779.45" y1="214.78" x2="784.21" y2="214.78"/><line class="cls-4" x1="779.45" y1="214.46" x2="784.21" y2="214.46"/><line class="cls-4" x1="779.45" y1="218.58" x2="784.21" y2="218.58"/><line class="cls-4" x1="779.45" y1="218.26" x2="784.21" y2="218.26"/><line class="cls-4" x1="775.95" y1="218.9" x2="779.45" y2="218.9"/><line class="cls-4" x1="775.95" y1="217.94" x2="779.45" y2="217.94"/><polyline class="cls-4" points="779.45 218.9 779.45 218.58 779.45 218.26 779.45 217.94"/><polyline class="cls-4" points="779.45 203.35 779.45 203.03 779.45 202.71 779.45 202.41"/><line class="cls-4" x1="775.95" y1="202.41" x2="779.45" y2="202.41"/><line class="cls-4" x1="775.95" y1="203.35" x2="779.45" y2="203.35"/><line class="cls-4" x1="779.45" y1="202.71" x2="784.21" y2="202.71"/><line class="cls-4" x1="779.45" y1="203.03" x2="784.21" y2="203.03"/><line class="cls-4" x1="779.45" y1="204.94" x2="784.21" y2="204.94"/><line class="cls-4" x1="779.45" y1="204.62" x2="784.21" y2="204.62"/><line class="cls-4" x1="775.95" y1="205.26" x2="779.45" y2="205.26"/><line class="cls-4" x1="775.95" y1="204.3" x2="779.45" y2="204.3"/><polyline class="cls-4" points="779.45 205.26 779.45 204.94 779.45 204.62 779.45 204.3"/><polyline class="cls-4" points="779.45 194.8 779.45 195.1 779.45 195.42 779.45 195.74"/><line class="cls-4" x1="775.95" y1="195.74" x2="779.45" y2="195.74"/><line class="cls-4" x1="779.45" y1="195.42" x2="784.21" y2="195.42"/><line class="cls-4" x1="779.45" y1="195.1" x2="784.21" y2="195.1"/><polyline class="cls-4" points="779.45 197.65 779.45 197.33 779.45 197.01 779.45 196.69"/><line class="cls-4" x1="775.95" y1="196.69" x2="779.45" y2="196.69"/><line class="cls-4" x1="775.95" y1="197.65" x2="779.45" y2="197.65"/><line class="cls-4" x1="779.45" y1="197.01" x2="784.21" y2="197.01"/><line class="cls-4" x1="779.45" y1="197.33" x2="784.21" y2="197.33"/><polyline class="cls-4" points="779.45 200.5 779.45 200.82 779.45 201.13 779.45 201.45"/><line class="cls-4" x1="775.95" y1="201.45" x2="779.45" y2="201.45"/><line class="cls-4" x1="775.95" y1="200.5" x2="779.45" y2="200.5"/><line class="cls-4" x1="779.45" y1="201.13" x2="784.21" y2="201.13"/><line class="cls-4" x1="779.45" y1="200.82" x2="784.21" y2="200.82"/><polyline class="cls-4" points="755.97 260.13 773.1 260.13 784.51 260.13"/><polyline class="cls-4" points="784.21 249.67 784.21 245.53 784.21 245.23 784.21 243.64 784.21 243.32 784.21 241.74 784.21 241.41 784.21 237.92 784.21 237.62 784.21 236.03 784.21 235.39 784.21 232.22 784.21 231.59 784.21 230 784.21 229.9 784.21 229.69 784.21 228.1 784.21 227.78 784.21 224.28 784.21 223.98 784.21 222.39 784.21 222.07 784.21 218.58 784.21 218.26 784.21 216.67 784.21 216.35 784.21 214.78 784.21 214.46 784.21 210.97 784.21 210.32 784.21 209.06 784.21 208.44 784.21 204.94 784.21 204.62 784.21 203.03 784.21 202.71 784.21 201.13 784.21 200.82 784.21 197.33 784.21 197.01 784.21 195.42 784.21 195.1 784.21 193.51 784.21 189.72"/><path class="cls-4" d="M743.28,311.9c-.75,0-1.49.1-2.21.19a38.5,38.5,0,0,0-34.27,38.44c0,.66,0,1.32.05,2"/><polyline class="cls-4" points="722.67 360.68 722.67 357.83 722.67 352.75 722.67 345.13"/><line class="cls-4" x1="702.04" y1="357.83" x2="702.04" y2="352.75"/><line class="cls-4" x1="699.51" y1="357.83" x2="702.04" y2="357.83"/><line class="cls-4" x1="699.51" y1="352.75" x2="702.04" y2="352.75"/><line class="cls-4" x1="743.28" y1="311.83" x2="741.07" y2="311.83"/><polyline class="cls-4" points="743.28 311.83 743.28 311.9 743.28 352.75"/><polyline class="cls-4" points="741.07 311.83 741.07 312.08 741.07 352.75"/><line class="cls-4" x1="743.28" y1="357.83" x2="743.28" y2="352.75"/><line class="cls-4" x1="743.28" y1="357.83" x2="745.83" y2="357.83"/><line class="cls-4" x1="743.28" y1="352.75" x2="745.83" y2="352.75"/><polyline class="cls-4" points="699.51 352.75 689.67 352.75 658.28 352.75"/><line class="cls-4" x1="648.12" y1="357.83" x2="699.51" y2="357.83"/><polyline class="cls-4" points="640.18 772.06 640.18 782.2 640.18 859.28 640.18 872.28"/><polyline class="cls-4" points="525.68 704.19 525.68 705.13 525.68 708.31 525.68 709.25"/><line class="cls-4" x1="501.26" y1="704.19" x2="525.68" y2="704.19"/><line class="cls-4" x1="501.26" y1="709.25" x2="525.68" y2="709.25"/><line class="cls-4" x1="566.59" y1="704.19" x2="566.59" y2="705.13"/><line class="cls-4" x1="566.59" y1="704.19" x2="771.51" y2="704.19"/><line class="cls-4" x1="566.59" y1="709.25" x2="673.82" y2="709.25"/><line class="cls-4" x1="699.51" y1="872.28" x2="750.89" y2="872.28"/><line class="cls-4" x1="640.18" y1="772.06" x2="673.82" y2="772.06"/><polyline class="cls-4" points="704.57 777.14 704.57 776.18 704.57 709.25"/><polyline class="cls-4" points="645.26 777.14 645.26 802.83 645.26 866.9"/><polyline class="cls-4" points="645.26 777.14 662.07 777.14 676.03 777.14 702.04 777.14 704.57 777.14"/><line class="cls-4" x1="699.51" y1="866.9" x2="745.83" y2="866.9"/><polyline class="cls-4" points="704.57 709.25 726.14 709.25 728.69 709.25 750.89 709.25"/><line class="cls-4" x1="750.89" y1="776.18" x2="750.89" y2="736.85"/><polyline class="cls-4" points="750.89 866.9 750.89 856.75 750.89 838.66 750.89 828.52 750.89 810.44 750.89 777.14"/><line class="cls-4" x1="496.18" y1="709.25" x2="496.18" y2="718.77"/><polygon class="cls-4" points="699.51 772.06 673.82 772.06 673.82 757.47 673.82 731.77 673.82 720.68 673.82 709.25 699.51 709.25 699.51 720.68 699.51 772.06"/><path class="cls-4" d="M696.57,866.91h0c0-.8.09-1.57.09-2.38A38.45,38.45,0,0,0,658,826h-.32c-.65,0-1.27,0-1.91,0"/><polyline class="cls-4" points="676.35 874.83 676.35 872.28 676.35 866.9 676.35 859.28"/><line class="cls-4" x1="696.96" y1="872.28" x2="696.96" y2="866.9"/><line class="cls-4" x1="696.96" y1="872.28" x2="699.51" y2="872.28"/><line class="cls-4" x1="696.96" y1="866.9" x2="699.51" y2="866.9"/><line class="cls-4" x1="655.73" y1="825.98" x2="657.64" y2="825.98"/><polyline class="cls-4" points="655.73 866.9 655.73 826.03 655.73 825.98"/><line class="cls-4" x1="657.64" y1="866.9" x2="657.64" y2="825.98"/><line class="cls-4" x1="655.73" y1="872.28" x2="655.73" y2="866.9"/><line class="cls-4" x1="653.2" y1="872.28" x2="655.73" y2="872.28"/><line class="cls-4" x1="653.2" y1="866.9" x2="655.73" y2="866.9"/><line class="cls-4" x1="745.83" y1="866.9" x2="750.89" y2="866.9"/><line class="cls-4" x1="640.18" y1="872.28" x2="653.2" y2="872.28"/><polyline class="cls-4" points="704.57 777.14 709.98 777.14 712.2 777.14 732.81 777.14 733.76 777.14 749.94 777.14"/><line class="cls-4" x1="645.26" y1="866.9" x2="653.2" y2="866.9"/><line class="cls-4" x1="689.05" y1="190.98" x2="750.89" y2="190.98"/><line class="cls-4" x1="547.57" y1="311.51" x2="547.57" y2="308.34"/><line class="cls-4" x1="545.02" y1="311.51" x2="545.02" y2="308.02"/><polyline class="cls-4" points="526.95 311.51 526.95 309.12 526.95 309"/><polyline class="cls-4" points="529.48 311.51 529.48 308.47 529.48 308.02"/><line class="cls-4" x1="524.41" y1="327.06" x2="524.41" y2="311.51"/><line class="cls-4" x1="550.1" y1="311.51" x2="550.1" y2="327.06"/><path class="cls-4" d="M527,308.15q-2.31.66-4.51,1.52l.57.76c1.29-.49,2.59-.94,3.94-1.32.82-.23,1.67-.45,2.53-.64a44.69,44.69,0,0,1,9.84-1.08,43.58,43.58,0,0,1,5.74.37c.86.11,1.7.24,2.54.39,1.37.26,2.71.56,4,.93l.61-.86a47.13,47.13,0,0,0-4.66-1.08c-.84-.15-1.69-.27-2.55-.37a46.33,46.33,0,0,0-5.55-.34,45,45,0,0,0-10,1.1C528.62,307.71,527.77,307.92,527,308.15Z"/><polyline class="cls-4" points="524.41 311.51 526.95 311.51 529.48 311.51 545.02 311.51 547.57 311.51 550.1 311.51"/><path class="cls-4" d="M547.33,305.52c-.74-.12-1.5-.24-2.27-.34a3.16,3.16,0,0,1-.32,0"/><polyline class="cls-4" points="529.48 307.83 529.48 307.53 529.48 305.87 529.48 305.49"/><polyline class="cls-4" points="526.95 309 526.95 308.34 526.95 308.15 526.95 306.45 526.95 306.08"/><line class="cls-4" x1="545.02" y1="306.75" x2="545.02" y2="305.49"/><polyline class="cls-4" points="547.57 307.39 547.57 307.14 547.57 305.81"/><path class="cls-4" d="M529.56,305.86h-.08c-.81.17-1.62.36-2.42.58"/><line class="cls-4" x1="771.51" y1="183.05" x2="755.97" y2="183.05"/><polyline class="cls-4" points="773.1 260.13 773.1 253.47 773.1 189.72 773.1 183.05"/><polyline class="cls-4" points="775.95 253.47 775.95 249.67 775.95 245.85 775.95 244.91 775.95 243.95 775.95 243 775.95 242.06 775.95 241.09 775.95 238.24 775.95 237.3 775.95 236.34 775.95 235.07 775.95 232.54 775.95 231.27 775.95 230.31 775.95 229.36 775.95 228.42 775.95 227.46 775.95 224.6 775.95 223.66 775.95 222.7 775.95 221.75 775.95 218.9 775.95 217.94 775.95 216.99 775.95 216.05 775.95 215.09 775.95 214.14 775.95 211.29 775.95 210.02 775.95 209.38 775.95 208.11 775.95 205.26 775.95 204.3 775.95 203.35 775.95 202.41 775.95 201.45 775.95 200.5 775.95 197.65 775.95 196.69 775.95 195.74 775.95 194.8 775.95 193.51 775.95 189.72"/><line class="cls-4" x1="768.98" y1="184.64" x2="755.97" y2="184.64"/><line class="cls-4" x1="768.98" y1="256.96" x2="755.97" y2="256.96"/><line class="cls-4" x1="768.98" y1="184.64" x2="768.98" y2="256.96"/><polyline class="cls-4" points="773.1 253.47 775.95 253.47 784.51 253.47"/><polyline class="cls-4" points="784.51 183.05 773.1 183.05 771.51 183.05"/><polyline class="cls-4" points="784.51 260.13 784.51 253.47 784.51 229.96 784.51 213.25 784.51 183.05"/><polyline class="cls-4" points="784.21 189.72 779.45 189.72 775.95 189.72 773.1 189.72"/><line class="cls-4" x1="784.21" y1="193.51" x2="775.95" y2="193.51"/><line class="cls-4" x1="775.95" y1="249.67" x2="784.21" y2="249.67"/><polyline class="cls-4" points="779.45 245.85 779.45 245.53 779.45 245.23 779.45 244.91"/><line class="cls-4" x1="775.95" y1="244.91" x2="779.45" y2="244.91"/><line class="cls-4" x1="775.95" y1="245.85" x2="779.45" y2="245.85"/><line class="cls-4" x1="779.45" y1="245.23" x2="784.21" y2="245.23"/><line class="cls-4" x1="779.45" y1="245.53" x2="784.21" y2="245.53"/><line class="cls-4" x1="779.45" y1="241.74" x2="784.21" y2="241.74"/><line class="cls-4" x1="779.45" y1="241.42" x2="784.21" y2="241.42"/><line class="cls-4" x1="775.95" y1="241.09" x2="779.45" y2="241.09"/><line class="cls-4" x1="775.95" y1="242.06" x2="779.45" y2="242.06"/><polyline class="cls-4" points="779.45 241.09 779.45 241.41 779.45 241.74 779.45 242.06"/><line class="cls-4" x1="779.45" y1="243.64" x2="784.21" y2="243.64"/><line class="cls-4" x1="779.45" y1="243.32" x2="784.21" y2="243.32"/><line class="cls-4" x1="775.95" y1="243.95" x2="779.45" y2="243.95"/><line class="cls-4" x1="775.95" y1="243" x2="779.45" y2="243"/><polyline class="cls-4" points="779.45 243.95 779.45 243.64 779.45 243.32 779.45 243"/><line class="cls-4" x1="779.45" y1="237.92" x2="784.21" y2="237.92"/><line class="cls-4" x1="779.45" y1="237.62" x2="784.21" y2="237.62"/><line class="cls-4" x1="775.95" y1="238.24" x2="779.45" y2="238.24"/><line class="cls-4" x1="775.95" y1="237.3" x2="779.45" y2="237.3"/><polyline class="cls-4" points="779.45 238.24 779.45 237.92 779.45 237.62 779.45 237.3"/><line class="cls-4" x1="779.45" y1="236.03" x2="784.21" y2="236.03"/><line class="cls-4" x1="779.45" y1="235.39" x2="784.21" y2="235.39"/><line class="cls-4" x1="775.95" y1="235.07" x2="779.45" y2="235.07"/><line class="cls-4" x1="775.95" y1="236.33" x2="779.45" y2="236.33"/><polyline class="cls-4" points="779.45 235.07 779.45 235.39 779.45 236.03 779.45 236.34"/><line class="cls-4" x1="779.45" y1="232.22" x2="784.21" y2="232.22"/><line class="cls-4" x1="779.45" y1="231.59" x2="784.21" y2="231.59"/><line class="cls-4" x1="775.95" y1="232.54" x2="779.45" y2="232.54"/><line class="cls-4" x1="775.95" y1="231.27" x2="779.45" y2="231.27"/><polyline class="cls-4" points="779.45 232.54 779.45 232.22 779.45 231.59 779.45 231.27"/><polyline class="cls-4" points="779.45 224.6 779.45 224.28 779.45 223.98 779.45 223.66"/><line class="cls-4" x1="775.95" y1="223.66" x2="779.45" y2="223.66"/><line class="cls-4" x1="775.95" y1="224.6" x2="779.45" y2="224.6"/><line class="cls-4" x1="779.45" y1="223.98" x2="784.21" y2="223.98"/><line class="cls-4" x1="779.45" y1="224.28" x2="784.21" y2="224.28"/><polyline class="cls-4" points="779.45 230.31 779.45 230 779.45 229.69 779.45 229.36"/><line class="cls-4" x1="775.95" y1="229.36" x2="779.45" y2="229.36"/><line class="cls-4" x1="775.95" y1="230.31" x2="779.45" y2="230.31"/><line class="cls-4" x1="779.45" y1="229.68" x2="784.21" y2="229.68"/><line class="cls-4" x1="779.45" y1="230.01" x2="784.21" y2="230.01"/><polyline class="cls-4" points="779.45 227.46 779.45 227.78 779.45 228.1 779.45 228.42"/><line class="cls-4" x1="775.95" y1="228.42" x2="779.45" y2="228.42"/><line class="cls-4" x1="775.95" y1="227.46" x2="779.45" y2="227.46"/><line class="cls-4" x1="779.45" y1="228.1" x2="784.21" y2="228.1"/><line class="cls-4" x1="779.45" y1="227.78" x2="784.21" y2="227.78"/><polyline class="cls-4" points="779.45 221.75 779.45 222.07 779.45 222.39 779.45 222.7"/><line class="cls-4" x1="775.95" y1="222.7" x2="779.45" y2="222.7"/><line class="cls-4" x1="775.95" y1="221.75" x2="779.45" y2="221.75"/><line class="cls-4" x1="779.45" y1="222.39" x2="784.21" y2="222.39"/><line class="cls-4" x1="779.45" y1="222.07" x2="784.21" y2="222.07"/><polyline class="cls-4" points="779.45 208.11 779.45 208.44 779.45 209.06 779.45 209.38"/><line class="cls-4" x1="775.95" y1="209.38" x2="779.45" y2="209.38"/><line class="cls-4" x1="775.95" y1="208.11" x2="779.45" y2="208.11"/><line class="cls-4" x1="779.45" y1="208.43" x2="784.21" y2="208.43"/><polyline class="cls-4" points="966.92 201.13 966.92 276.94 966.92 321.98 966.92 322.94 966.92 352.75 966.92 353.07"/><polygon class="cls-4" points="961.84 265.52 944.7 265.52 927.57 265.52 890.78 265.52 858.74 265.52 858.74 188.45 890.78 188.45 927.57 188.45 944.7 188.45 961.84 188.45 961.84 265.52"/><polyline class="cls-4" points="944.7 265.52 944.7 227.14 944.7 188.45"/><line class="cls-4" x1="944.7" y1="227.14" x2="927.57" y2="188.45"/><line class="cls-4" x1="918.07" y1="202.71" x2="944.7" y2="227.14"/><line class="cls-4" x1="944.7" y1="227.14" x2="914.58" y2="254.11"/><line class="cls-4" x1="927.57" y1="265.52" x2="944.7" y2="227.14"/><line class="cls-4" x1="927.57" y1="265.52" x2="914.58" y2="254.11"/><line class="cls-4" x1="918.07" y1="202.71" x2="927.57" y2="188.45"/><rect class="cls-4" x="946.29" y="232.22" width="14.28" height="30.77"/><rect class="cls-4" x="946.29" y="190.98" width="14.28" height="31.09"/><line class="cls-4" x1="520.28" y1="352.75" x2="532.35" y2="352.75"/><polyline class="cls-4" points="532.35 340.05 511.72 340.05 511.72 352.75 517.75 352.75"/><line class="cls-4" x1="552.63" y1="352.75" x2="552.63" y2="340.05"/><polyline class="cls-4" points="566.59 352.75 573.26 352.75 573.26 340.05 552.63 340.05 532.35 340.05 532.35 352.75 552.63 352.75 564.06 352.75"/><line class="cls-4" x1="750.89" y1="197.65" x2="689.05" y2="197.65"/><line class="cls-4" x1="689.05" y1="197.65" x2="689.05" y2="190.98"/><polyline class="cls-4" points="750.89 197.65 750.89 212.23 750.89 230 750.89 240.47 750.89 258.23 750.89 352.75"/><polyline class="cls-4" points="658.28 197.65 658.28 263.31 658.28 288.68"/><line class="cls-4" x1="699.51" y1="352.75" x2="699.51" y2="357.83"/><line class="cls-4" x1="745.83" y1="352.75" x2="745.83" y2="357.83"/><line class="cls-4" x1="807.36" y1="352.75" x2="807.36" y2="357.83"/><line class="cls-4" x1="1157.24" y1="352.75" x2="1157.24" y2="345.77"/><line class="cls-4" x1="653.2" y1="866.9" x2="653.2" y2="872.28"/><line class="cls-4" x1="699.51" y1="866.9" x2="699.51" y2="872.28"/><polyline class="cls-4" points="1042.41 632.81 1042.41 703.55 1042.41 704.49 1042.41 718.45 1042.41 720.36 1042.41 731.77"/><polyline class="cls-4" points="709.98 777.14 709.98 778.08 712.2 778.08 712.2 777.14"/><line class="cls-4" x1="1023.37" y1="352.75" x2="1023.37" y2="357.83"/><polyline class="cls-4" points="851.45 729.56 853.14 720.36 853.49 718.45 855.25 708.93"/><polyline class="cls-4" points="850.49 729.56 852.21 720.36 852.58 718.45 854.3 709.25"/><polyline class="cls-4" points="874.93 729.56 870.47 720.36 869.54 718.45 865.09 709.25"/><polyline class="cls-4" points="876.2 729.56 871.59 720.36 870.64 718.45 866.03 709.25"/><polyline class="cls-4" points="871.76 729.56 867.3 720.36 866.37 718.45 861.91 709.25"/><polyline class="cls-4" points="870.79 729.56 866.34 720.36 865.43 718.45 860.97 709.25"/><polyline class="cls-4" points="854.3 729.56 856.01 720.36 856.36 718.45 858.12 708.93"/><polyline class="cls-4" points="855.25 729.56 856.97 720.36 857.34 718.45 859.06 709.25"/><polyline class="cls-4" points="845.42 729.56 847.15 720.36 847.5 718.45 849.22 709.25"/><polyline class="cls-4" points="846.37 729.56 848.09 720.36 848.46 718.45 850.18 709.25"/><polyline class="cls-4" points="928.21 729.88 923.67 720.36 922.76 718.45 918.37 709.25"/><polyline class="cls-4" points="929.16 729.56 924.7 720.36 923.79 718.45 919.34 709.25"/><polyline class="cls-4" points="932.65 729.88 927.98 720.36 927.03 718.45 922.51 709.25"/><polyline class="cls-4" points="929.14 720.36 928.23 718.45 923.77 709.25"/><line class="cls-4" x1="933.6" y1="729.56" x2="929.16" y2="720.36"/><polyline class="cls-4" points="897.76 729.56 898.19 720.36 898.29 718.45 898.71 709.25"/><polyline class="cls-4" points="894.59 729.56 895.01 720.36 895.12 718.45 895.54 709.25"/><polyline class="cls-4" points="907.59 729.56 908.03 720.36 908.11 718.45 908.55 709.25"/><polyline class="cls-4" points="906.64 729.56 907.07 720.36 907.17 718.45 907.59 709.25"/><polyline class="cls-4" points="898.71 729.56 899.13 720.36 899.23 718.45 899.66 709.25"/><polyline class="cls-4" points="895.54 729.56 895.98 720.36 896.06 718.45 896.5 709.25"/><polyline class="cls-4" points="887.6 729.56 883.15 720.36 882.24 718.45 877.78 709.25"/><polyline class="cls-4" points="886.66 729.56 882.2 720.36 881.27 718.45 876.82 709.25"/><polyline class="cls-4" points="839.4 718.45 847.5 718.45 848.46 718.45 852.58 718.45 853.49 718.45 856.36 718.45 857.34 718.45 865.43 718.45 866.37 718.45 869.54 718.45 870.64 718.45 881.27 718.45 882.24 718.45 895.12 718.45 896.06 718.45 898.29 718.45 899.23 718.45 907.17 718.45 908.11 718.45 922.76 718.45 923.79 718.45 927.03 718.45 928.23 718.45 929.16 718.45"/><polyline class="cls-4" points="839.4 720.36 847.15 720.36 848.09 720.36 852.21 720.36 853.14 720.36 856.01 720.36 856.97 720.36 866.34 720.36 867.3 720.36 870.47 720.36 871.59 720.36 882.2 720.36 883.15 720.36 895.01 720.36 895.98 720.36 898.19 720.36 899.13 720.36 907.07 720.36 908.03 720.36 923.67 720.36 924.7 720.36 927.98 720.36 929.14 720.36 929.16 720.36"/><line class="cls-4" x1="839.4" y1="704.49" x2="839.4" y2="704.19"/><polyline class="cls-4" points="942.17 729.56 943.86 720.36 944.22 718.45 945.97 708.93"/><polyline class="cls-4" points="941.21 729.56 942.93 720.36 943.3 718.45 945.02 709.25"/><polyline class="cls-4" points="965.65 729.56 961.19 720.36 960.27 718.45 955.81 709.25"/><polyline class="cls-4" points="966.92 729.56 962.31 720.36 961.36 718.45 956.75 709.25"/><polyline class="cls-4" points="962.48 729.56 958.02 720.36 957.09 718.45 952.64 709.25"/><polyline class="cls-4" points="961.51 729.56 957.06 720.36 956.15 718.45 951.69 709.25"/><polyline class="cls-4" points="945.02 729.56 946.73 720.36 947.08 718.45 948.84 708.93"/><polyline class="cls-4" points="945.97 729.56 947.69 720.36 948.06 718.45 949.78 709.25"/><polyline class="cls-4" points="936.15 729.56 937.87 720.36 938.22 718.45 939.95 709.25"/><polyline class="cls-4" points="937.09 729.56 938.81 720.36 939.18 718.45 940.91 709.25"/><polyline class="cls-4" points="1018.94 729.88 1014.39 720.36 1013.48 718.45 1009.1 709.25"/><polyline class="cls-4" points="1019.88 729.56 1015.42 720.36 1014.51 718.45 1010.06 709.25"/><polyline class="cls-4" points="1023.38 729.88 1018.7 720.36 1017.75 718.45 1013.23 709.25"/><polyline class="cls-4" points="1024.32 729.56 1019.86 720.36 1018.95 718.45 1014.5 709.25"/><polyline class="cls-4" points="988.49 729.56 988.91 720.36 989.01 718.45 989.43 709.25"/><polyline class="cls-4" points="985.31 729.56 985.74 720.36 985.84 718.45 986.26 709.25"/><polyline class="cls-4" points="997.99 729.56 998.56 720.36 998.7 718.45 999.27 709.25"/><polyline class="cls-4" points="997.37 729.56 997.79 720.36 997.89 718.45 998.31 709.25"/><polyline class="cls-4" points="989.43 729.56 989.85 720.36 989.96 718.45 990.38 709.25"/><polyline class="cls-4" points="986.26 729.56 986.7 720.36 986.78 718.45 987.22 709.25"/><polyline class="cls-4" points="978.33 729.56 973.87 720.36 972.96 718.45 968.5 709.25"/><polyline class="cls-4" points="977.38 729.56 972.92 720.36 972 718.45 967.54 709.25"/><polyline class="cls-4" points="929.16 718.45 938.22 718.45 939.18 718.45 941.21 718.45 943.3 718.45 944.22 718.45 947.08 718.45 948.06 718.45 956.15 718.45 957.09 718.45 960.27 718.45 961.36 718.45 972 718.45 972.96 718.45 985.84 718.45 986.78 718.45 989.01 718.45 989.96 718.45 997.89 718.45 998.7 718.45 1013.48 718.45 1014.51 718.45 1017.75 718.45 1018.95 718.45 1042.41 718.45"/><polyline class="cls-4" points="929.16 720.36 937.87 720.36 938.81 720.36 941.21 720.36 942.93 720.36 943.86 720.36 946.73 720.36 947.69 720.36 957.06 720.36 958.02 720.36 961.19 720.36 962.31 720.36 972.92 720.36 973.87 720.36 985.74 720.36 986.7 720.36 988.91 720.36 989.85 720.36 997.79 720.36 998.56 720.36 1014.39 720.36 1015.42 720.36 1018.7 720.36 1019.86 720.36 1042.41 720.36"/><line class="cls-4" x1="834.32" y1="704.19" x2="839.4" y2="704.19"/><polyline class="cls-4" points="704.57 776.18 732.81 776.18 733.76 776.18 749.94 776.18"/><rect class="cls-4" x="749.94" y="776.18" width="0.95" height="0.96"/><rect class="cls-4" x="533.61" y="149.75" width="2.85" height="2.55"/><rect class="cls-4" x="571.35" y="149.75" width="2.55" height="2.55"/><polygon class="cls-4" points="608.79 149.75 611.32 149.75 611.32 152.3 609.41 152.3 608.79 152.3 608.79 151.01 608.79 149.75"/><polygon class="cls-4" points="646.53 149.75 649.08 149.75 649.08 151.01 649.08 152.3 646.53 152.3 646.53 151.01 646.53 149.75"/><rect class="cls-4" x="517.75" y="350.21" width="2.53" height="2.53"/><rect class="cls-4" x="564.06" y="350.21" width="2.53" height="2.53"/><line class="cls-4" x1="496.18" y1="939.85" x2="496.18" y2="949.99"/><line class="cls-4" x1="645.26" y1="404.77" x2="578.02" y2="404.77"/><line class="cls-4" x1="712.83" y1="404.77" x2="649.38" y2="404.77"/><line class="cls-4" x1="780.07" y1="404.77" x2="716.95" y2="404.77"/><line class="cls-4" x1="847.64" y1="404.77" x2="784.21" y2="404.77"/><line class="cls-4" x1="914.9" y1="404.77" x2="851.77" y2="404.77"/><line class="cls-4" x1="986.58" y1="404.77" x2="919.02" y2="404.77"/><line class="cls-4" x1="645.26" y1="408.88" x2="578.02" y2="408.88"/><line class="cls-4" x1="712.83" y1="408.88" x2="649.38" y2="408.88"/><line class="cls-4" x1="780.07" y1="408.88" x2="716.95" y2="408.88"/><line class="cls-4" x1="847.64" y1="408.88" x2="784.21" y2="408.88"/><line class="cls-4" x1="914.9" y1="408.88" x2="851.77" y2="408.88"/><line class="cls-4" x1="986.58" y1="408.88" x2="919.02" y2="408.88"/><line class="cls-4" x1="573.9" y1="408.88" x2="573.9" y2="409.52"/><line class="cls-4" x1="573.9" y1="404.12" x2="573.9" y2="404.77"/><line class="cls-4" x1="990.7" y1="408.88" x2="990.7" y2="409.52"/><line class="cls-4" x1="990.7" y1="404.12" x2="990.7" y2="404.77"/><line class="cls-4" x1="990.7" y1="404.77" x2="986.58" y2="404.77"/><line class="cls-4" x1="986.58" y1="408.88" x2="990.7" y2="408.88"/><line class="cls-4" x1="716.95" y1="404.77" x2="712.83" y2="404.77"/><line class="cls-4" x1="712.83" y1="408.88" x2="716.95" y2="408.88"/><line class="cls-4" x1="914.9" y1="404.77" x2="919.02" y2="404.77"/><line class="cls-4" x1="919.02" y1="408.88" x2="914.9" y2="408.88"/><line class="cls-4" x1="847.64" y1="404.77" x2="851.77" y2="404.77"/><line class="cls-4" x1="851.77" y1="408.88" x2="847.64" y2="408.88"/><line class="cls-4" x1="780.07" y1="404.77" x2="784.21" y2="404.77"/><line class="cls-4" x1="784.21" y1="408.88" x2="780.07" y2="408.88"/><line class="cls-4" x1="645.26" y1="404.77" x2="649.38" y2="404.77"/><line class="cls-4" x1="649.38" y1="408.88" x2="645.26" y2="408.88"/><line class="cls-4" x1="573.9" y1="404.77" x2="578.02" y2="404.77"/><line class="cls-4" x1="578.02" y1="408.88" x2="573.9" y2="408.88"/><polyline class="cls-4" points="1020.84 357.83 1000.22 357.83 979.91 357.83"/><polyline class="cls-4" points="1020.84 352.75 1020.77 352.75 1000.22 352.75 981.82 352.75 979.91 352.75"/><polyline class="cls-4" points="804.82 357.83 784.21 357.83 763.58 357.83"/><polyline class="cls-4" points="804.82 352.75 804.44 352.75 784.21 352.75 765.81 352.75 763.58 352.75"/><polyline class="cls-4" points="743.28 357.83 722.67 357.83 702.04 357.83"/><polyline class="cls-4" points="743.28 352.75 741.07 352.75 722.67 352.75 706.85 352.75 702.04 352.75"/><polyline class="cls-4" points="645.26 357.83 624.96 357.83 604.35 357.83"/><polyline class="cls-4" points="645.26 352.75 643.36 352.75 624.96 352.75 609.16 352.75 604.35 352.75"/><polyline class="cls-4" points="696.96 872.28 676.35 872.28 655.73 872.28"/><polyline class="cls-4" points="696.96 866.9 696.57 866.9 676.35 866.9 657.63 866.9 655.73 866.9"/><polyline class="cls-4" points="1040.51 731.77 1037.33 731.77 1036.37 731.77"/><line class="cls-4" x1="1036.37" y1="731.77" x2="1035.43" y2="731.77"/><polyline class="cls-4" points="1035.43 731.77 1018.94 731.77 991.02 731.77 977.38 731.77 941.21 731.77 839.4 731.77"/><polyline class="cls-4" points="839.4 731.77 839.4 720.36 839.4 718.45 839.4 704.49"/><polyline class="cls-4" points="834.32 731.77 832.41 731.77 831.15 731.77 811.14 731.77 805.46 731.77 803.89 731.77 779.77 731.77 778.18 731.77 776.6 731.77"/><line class="cls-4" x1="750.89" y1="149.75" x2="716" y2="149.75"/><polyline class="cls-4" points="496.18 149.75 496.18 180.52 496.18 220.49"/><line class="cls-4" x1="496.18" y1="352.75" x2="496.18" y2="282.01"/><line class="cls-4" x1="1042.41" y1="469.48" x2="1042.41" y2="571.29"/><path class="cls-4" d="M732.59,240c-.27.1-.54.2-.79.32a9.69,9.69,0,0,0,.71,17.91l.13,0"/><path class="cls-4" d="M732.93,241a6.93,6.93,0,0,0-.93.41,8.52,8.52,0,0,0-4.79,7.73,8.62,8.62,0,0,0,5.74,8.13l0,0"/><path class="cls-4" d="M732.46,212a5.17,5.17,0,0,0-.59.23,9.51,9.51,0,0,0,.64,17.69"/><path class="cls-4" d="M732.63,810c-.27.1-.56.2-.81.32a9.65,9.65,0,0,0,.84,17.91"/><path class="cls-4" d="M732.63,838.76a9.65,9.65,0,0,0-.61,18c.2.1.42.17.64.26"/><path class="cls-4" d="M733,811a10.58,10.58,0,0,0-1,.4,8.62,8.62,0,0,0,1,15.87"/></svg>