<svg id="Livello_1" data-name="Livello 1" xmlns="http://www.w3.org/2000/svg" viewBox="0 0 1920 1080"><defs><style>.cls-1{fill:#98afb7;}.cls-2{fill:#687d89;}.cls-3{fill:#fff;}.cls-4{fill:none;stroke:#000;stroke-linecap:round;stroke-linejoin:round;stroke-width:0.5px;}</style></defs><polygon class="cls-1" points="1068.23 440.17 1068.11 369.58 1120.36 369.58 1120.36 683.05 1643.89 683.05 1644.58 951.2 1069.14 951.89 1068.52 603.48 1068.23 440.17"/><polygon class="cls-1" points="1172.61 318.72 1172.61 295.54 1172.61 112.86 1272.95 112.86 1272.95 351.59 1172.61 351.59 1172.61 341.9 1172.61 318.72"/><path class="cls-2" d="M885.41,598.64v-.35h-2.08v41.17H839.39V546.73H996.13v30.8h5.19V541.89H834.2V644.3h49.13v-4.84h2.08Zm175.08-158.47v26.29l-18,4.5V572.68l18.06,4.22-.07.28v52.59l-18,4.5v46h-54V654.68H957.73V639.46H924.16v4.84h28.38v36H926.93v8h5.19v2.08h41.65C971.66,712.74,955,730,934.54,730c-.71,0-1.43,0-2.13-.06l-.29.17h-5.19v2.77H834.2v10h-1.73v-27h-1v.22C817,717.72,806,728,806,740.49h-.52a24.47,24.47,0,0,0-24.57-24.57c-.35,0-.7,0-1,0v0h-1.38v27h-1.73v-10h-5.19v-5.19H751.15v5.19H730.74v4.49H729v36.45a39.31,39.31,0,0,1-35-36.45h.38v-4.49h-7.61V717.31h-.69v-2.08l.31-.3c.7.05,1.4.07,2.11.07,17.51,0,31.77-15.07,33.69-34.71h.57v-1.73H686.1v-2.43h.69v-4.84h64.36v4.84h20.42V541.89H751.15v67.47h15.23V640.5H751.15v10H496.48V599.32h-18V547.15l18-4.57V385.15h30.8v-25.6h126V380h97.92v51.21h20.42v-82H751.15v25.6H658.42v-28h-4.5V345H617.24v1.39h-.15c-.06-.74-.09-1.5-.09-2.26,0-17.92,16.17-32.42,36.91-33.65v-.08h4.5V290H666v-4.5h0v-1.46h0c0-.38,0-.76,0-1.14,0-17.5,15-31.76,34.63-33.75v36.36h1.73V290h74.4V279.63h41.17V290h66.79V210.77h-4.5V209H844c0-.28,0-.57,0-.86,0-17.87,15.86-32.34,36.23-33.64v-.44h4.49V151.26h82.35V284.82h-36V290h41.18V151.26H1157v203.1H839v-2.42H834.2V314.57h-1.73v64h1.73v52.59h5.19V359.55H1042.5v49.82l18,4.2Z"/><path class="cls-2" d="M973.92,688.24h-41.8v-2.76h25.61V659.87h25.6v25.61h59.17v47.4h-5.19v10h-46v-10H932.12v-2.77l.29-.17c.7,0,1.42.06,2.13.06,20.47,0,37.12-17.26,39.23-39.68h.56v-2.08Z"/><path class="cls-2" d="M880.23,174.1v.44c-20.37,1.3-36.23,15.77-36.23,33.64,0,.29,0,.58,0,.86h-.48v1.73h36.68v2.08h-.69v72H823.12v-10H776.76V254H756.34V151.26H879.53V172h.69v2.08Z"/><path class="cls-3" d="M806,740.49c0-12.53,11-22.77,25.43-24.35v26.77h1v3.46h1.73v6.92H805.48v-12.8Z"/><path class="cls-2" d="M478.49,910V883.8l18-4.57V796.89H686.79V738.07H692v-.7h2a39.31,39.31,0,0,0,35,36.45v.23h1.73V737.37h2.42v.7h18V951.2H496.48V940.82l-18-4.57Z"/><path class="cls-2" d="M702.36,249v-.17h-1.73v.32C681,251.14,666,265.4,666,282.9c0,.38,0,.76,0,1.14h0v1.46h-2.41v-.69h-5.19V199h26v-6.57h-26V151.26h92.73v41.18H724.51V199h26.64v85.81H704.78v.69h-2.42Z"/><path class="cls-2" d="M496.48,750.87V671.29H681.6v7.27h4.5v1.73h36.11C720.29,699.93,706,715,688.52,715c-.71,0-1.41,0-2.11-.07l-.31.3h-4.5V791.7H496.48V750.87Z"/><path class="cls-2" d="M478.49,252.64V226.41l18-4.57V151.26H653.23V308h.69v2.5C633.17,311.73,617,326.23,617,344.15c0,.76,0,1.52.09,2.26h.15v.34h36.68v2.42h-.69v5.19H496.48V283.78l-18-4.57Z"/><polygon class="cls-1" points="470.87 910.03 470.87 933.21 470.87 961.23 419.66 961.23 419.66 858.47 470.87 858.47 470.87 886.84 470.87 910.03"/><polygon class="cls-1" points="470.87 573.72 470.87 596.56 470.87 624.93 419.66 624.93 419.66 522.17 470.87 522.17 470.87 550.54 470.87 573.72"/><polygon class="cls-1" points="470.87 252.64 470.87 275.82 470.87 304.19 419.66 304.19 419.66 201.43 470.87 201.43 470.87 229.8 470.87 252.64"/><line class="cls-4" x1="1042.5" y1="359.55" x2="1042.5" y2="409.37"/><line class="cls-4" x1="1042.5" y1="470.96" x2="1042.5" y2="572.68"/><line class="cls-4" x1="1042.5" y1="634.27" x2="1042.5" y2="680.29"/><polyline class="cls-4" points="470.87 275.82 470.87 304.19 470.87 306.61"/><polyline class="cls-4" points="470.87 199.01 470.87 201.43 470.87 229.8"/><polyline class="cls-4" points="470.87 596.56 470.87 624.93 470.87 627.35"/><polyline class="cls-4" points="470.87 519.74 470.87 522.17 470.87 550.54"/><polyline class="cls-4" points="470.87 933.21 470.87 961.23 470.87 964"/><polyline class="cls-4" points="470.87 856.05 470.87 858.47 470.87 886.84"/><line class="cls-4" x1="496.48" y1="940.82" x2="496.48" y2="951.2"/><line class="cls-4" x1="496.48" y1="599.32" x2="496.48" y2="650.53"/><line class="cls-4" x1="496.48" y1="221.84" x2="496.48" y2="151.26"/><line class="cls-4" x1="496.48" y1="283.78" x2="496.48" y2="354.36"/><line class="cls-4" x1="1172.61" y1="354.36" x2="1275.37" y2="354.36"/><line class="cls-4" x1="1172.61" y1="351.59" x2="1272.95" y2="351.59"/><line class="cls-4" x1="1275.37" y1="354.36" x2="1275.37" y2="110.43"/><line class="cls-4" x1="1272.95" y1="351.59" x2="1272.95" y2="112.86"/><line class="cls-4" x1="1275.37" y1="110.43" x2="1172.61" y2="110.43"/><polyline class="cls-4" points="1172.61 341.9 1172.61 351.59 1172.61 354.36"/><polyline class="cls-4" points="1172.61 110.43 1172.61 112.86 1172.61 295.54"/><line class="cls-4" x1="1272.95" y1="112.86" x2="1172.61" y2="112.86"/><line class="cls-4" x1="1120.36" y1="369.58" x2="1120.36" y2="683.05"/><line class="cls-4" x1="1123.12" y1="369.58" x2="1123.12" y2="680.29"/><line class="cls-4" x1="1123.12" y1="680.29" x2="1646.65" y2="680.29"/><line class="cls-4" x1="1120.36" y1="683.05" x2="1643.89" y2="683.05"/><polyline class="cls-4" points="1123.12 369.58 1120.36 369.58 1068.11 369.58"/><polyline class="cls-4" points="1068.11 369.58 1068.23 440.17 1068.52 603.48 1069.14 951.89"/><line class="cls-4" x1="1644.58" y1="951.2" x2="1069.14" y2="951.89"/><line class="cls-4" x1="1646.65" y1="680.29" x2="1647" y2="951.2"/><line class="cls-4" x1="1643.89" y1="683.05" x2="1644.58" y2="951.2"/><line class="cls-4" x1="1647" y1="951.2" x2="1644.58" y2="951.2"/><line class="cls-4" x1="776.76" y1="753.29" x2="776.41" y2="753.29"/><line class="cls-4" x1="756.34" y1="151.26" x2="756.34" y2="254.02"/><line class="cls-4" x1="756.34" y1="254.02" x2="776.76" y2="254.02"/><line class="cls-4" x1="776.76" y1="254.02" x2="776.76" y2="274.78"/><line class="cls-4" x1="776.76" y1="279.63" x2="776.76" y2="290.01"/><line class="cls-4" x1="823.12" y1="274.78" x2="776.76" y2="274.78"/><line class="cls-4" x1="817.93" y1="279.63" x2="776.76" y2="279.63"/><line class="cls-4" x1="884.72" y1="290.01" x2="817.93" y2="290.01"/><line class="cls-4" x1="879.53" y1="284.82" x2="823.12" y2="284.82"/><line class="cls-4" x1="817.93" y1="279.63" x2="817.93" y2="290.01"/><line class="cls-4" x1="823.12" y1="274.78" x2="823.12" y2="284.82"/><line class="cls-4" x1="972.26" y1="290.01" x2="931.08" y2="290.01"/><line class="cls-4" x1="931.08" y1="290.01" x2="931.08" y2="284.82"/><line class="cls-4" x1="931.08" y1="284.82" x2="967.07" y2="284.82"/><line class="cls-4" x1="653.23" y1="349.17" x2="653.23" y2="354.36"/><line class="cls-4" x1="653.23" y1="359.55" x2="653.23" y2="379.96"/><line class="cls-4" x1="658.42" y1="349.17" x2="658.42" y2="374.77"/><line class="cls-4" x1="653.23" y1="379.96" x2="751.15" y2="379.96"/><line class="cls-4" x1="658.42" y1="374.77" x2="751.15" y2="374.77"/><line class="cls-4" x1="653.92" y1="349.17" x2="653.23" y2="349.17"/><line class="cls-4" x1="1042.5" y1="359.55" x2="839.39" y2="359.55"/><line class="cls-4" x1="1037.31" y1="732.88" x2="1037.31" y2="742.91"/><line class="cls-4" x1="1037.31" y1="742.91" x2="991.29" y2="742.91"/><line class="cls-4" x1="991.29" y1="742.91" x2="991.29" y2="732.88"/><line class="cls-4" x1="926.93" y1="639.46" x2="957.73" y2="639.46"/><line class="cls-4" x1="926.93" y1="644.3" x2="952.54" y2="644.3"/><line class="cls-4" x1="957.73" y1="659.87" x2="957.73" y2="685.48"/><line class="cls-4" x1="952.54" y1="644.3" x2="952.54" y2="680.29"/><line class="cls-4" x1="957.73" y1="685.48" x2="932.12" y2="685.48"/><line class="cls-4" x1="952.54" y1="680.29" x2="926.93" y2="680.29"/><line class="cls-4" x1="957.73" y1="639.46" x2="957.73" y2="654.68"/><line class="cls-4" x1="957.73" y1="654.68" x2="988.52" y2="654.68"/><line class="cls-4" x1="957.73" y1="659.87" x2="983.33" y2="659.87"/><line class="cls-4" x1="988.52" y1="654.68" x2="988.52" y2="680.29"/><line class="cls-4" x1="983.33" y1="659.87" x2="983.33" y2="685.48"/><line class="cls-4" x1="988.52" y1="680.29" x2="1042.5" y2="680.29"/><line class="cls-4" x1="983.33" y1="685.48" x2="1042.5" y2="685.48"/><line class="cls-4" x1="926.93" y1="680.29" x2="926.93" y2="685.48"/><line class="cls-4" x1="476.06" y1="884.42" x2="476.06" y2="886.84"/><polyline class="cls-4" points="478.49 883.73 478.49 883.8 478.49 910.03 478.49 936.25 478.49 936.32"/><polyline class="cls-4" points="455.65 910.03 470.87 910.03 476.06 910.03 478.49 910.03 517.24 910.03"/><polyline class="cls-4" points="496.48 879.23 478.49 883.8 476.06 884.42"/><polyline class="cls-4" points="496.48 940.82 478.49 936.25 476.06 935.63"/><line class="cls-4" x1="476.06" y1="724.92" x2="476.06" y2="727.69"/><polyline class="cls-4" points="478.49 724.57 478.49 750.87 478.49 777.09 478.49 777.16"/><polyline class="cls-4" points="455.65 750.87 470.87 750.87 476.06 750.87 478.49 750.87 496.48 750.87 517.24 750.87"/><polyline class="cls-4" points="496.48 720.07 478.44 724.35 476.06 724.92"/><polyline class="cls-4" points="496.48 781.66 478.49 777.09 476.06 776.47"/><line class="cls-4" x1="476.06" y1="227.03" x2="476.06" y2="229.8"/><polyline class="cls-4" points="478.49 226.34 478.49 226.41 478.49 252.64 478.49 279.21 478.49 279.28"/><polyline class="cls-4" points="455.65 252.64 470.87 252.64 476.06 252.64 478.49 252.64 517.24 252.64"/><polyline class="cls-4" points="496.48 221.84 478.49 226.41 476.06 227.03"/><polyline class="cls-4" points="496.48 283.78 478.49 279.21 476.06 278.59"/><line class="cls-4" x1="476.06" y1="229.8" x2="470.87" y2="229.8"/><line class="cls-4" x1="476.06" y1="275.82" x2="470.87" y2="275.82"/><line class="cls-4" x1="476.06" y1="727.69" x2="470.87" y2="727.69"/><line class="cls-4" x1="476.06" y1="774.05" x2="470.87" y2="774.05"/><line class="cls-4" x1="476.06" y1="886.84" x2="470.87" y2="886.84"/><line class="cls-4" x1="476.06" y1="933.21" x2="470.87" y2="933.21"/><line class="cls-4" x1="496.48" y1="379.96" x2="522.43" y2="379.96"/><line class="cls-4" x1="496.48" y1="385.15" x2="527.28" y2="385.15"/><line class="cls-4" x1="527.28" y1="385.15" x2="527.28" y2="359.55"/><line class="cls-4" x1="522.43" y1="379.96" x2="522.43" y2="359.55"/><line class="cls-4" x1="751.15" y1="650.53" x2="751.15" y2="640.5"/><line class="cls-4" x1="751.15" y1="640.5" x2="766.38" y2="640.5"/><line class="cls-4" x1="771.57" y1="640.5" x2="771.57" y2="676.13"/><line class="cls-4" x1="771.57" y1="640.5" x2="771.57" y2="582.72"/><line class="cls-4" x1="766.38" y1="640.5" x2="766.38" y2="609.36"/><line class="cls-4" x1="766.38" y1="609.36" x2="751.15" y2="609.36"/><line class="cls-4" x1="751.15" y1="431.17" x2="771.57" y2="431.17"/><line class="cls-4" x1="751.15" y1="541.89" x2="771.57" y2="541.89"/><line class="cls-4" x1="834.2" y1="431.17" x2="839.39" y2="431.17"/><line class="cls-4" x1="839.39" y1="541.89" x2="834.2" y2="541.89"/><line class="cls-4" x1="751.15" y1="609.36" x2="751.15" y2="582.72"/><line class="cls-4" x1="884.72" y1="151.26" x2="884.72" y2="172.02"/><line class="cls-4" x1="880.22" y1="172.02" x2="879.53" y2="172.02"/><line class="cls-4" x1="880.22" y1="212.85" x2="879.53" y2="212.85"/><line class="cls-4" x1="884.72" y1="212.85" x2="884.72" y2="290.01"/><line class="cls-4" x1="470.87" y1="858.47" x2="419.66" y2="858.47"/><line class="cls-4" x1="470.87" y1="856.05" x2="416.9" y2="856.05"/><line class="cls-4" x1="419.66" y1="858.47" x2="419.66" y2="961.23"/><line class="cls-4" x1="416.9" y1="856.05" x2="416.9" y2="964"/><line class="cls-4" x1="419.66" y1="961.23" x2="470.87" y2="961.23"/><line class="cls-4" x1="416.9" y1="964" x2="470.87" y2="964"/><line class="cls-4" x1="470.87" y1="201.43" x2="419.66" y2="201.43"/><line class="cls-4" x1="470.87" y1="199.01" x2="416.9" y2="199.01"/><line class="cls-4" x1="419.66" y1="201.43" x2="419.66" y2="304.19"/><line class="cls-4" x1="416.9" y1="199.01" x2="416.9" y2="306.61"/><line class="cls-4" x1="496.48" y1="151.26" x2="653.23" y2="151.26"/><line class="cls-4" x1="716.2" y1="151.26" x2="751.15" y2="151.26"/><line class="cls-4" x1="658.42" y1="151.26" x2="693.37" y2="151.26"/><polyline class="cls-4" points="756.34 151.26 804.78 151.26 856.34 151.26 879.53 151.26"/><line class="cls-4" x1="884.72" y1="151.26" x2="967.07" y2="151.26"/><line class="cls-4" x1="1157.03" y1="354.36" x2="839.04" y2="354.36"/><line class="cls-4" x1="653.23" y1="354.36" x2="496.48" y2="354.36"/><line class="cls-4" x1="653.23" y1="359.55" x2="527.28" y2="359.55"/><line class="cls-4" x1="522.43" y1="359.55" x2="496.48" y2="359.55"/><line class="cls-4" x1="653.23" y1="151.26" x2="653.23" y2="290.01"/><line class="cls-4" x1="658.42" y1="199.01" x2="658.42" y2="284.82"/><line class="cls-4" x1="658.42" y1="151.26" x2="658.42" y2="192.44"/><line class="cls-4" x1="751.15" y1="199.01" x2="751.15" y2="284.82"/><line class="cls-4" x1="751.15" y1="151.26" x2="751.15" y2="192.44"/><line class="cls-4" x1="658.42" y1="290.01" x2="663.61" y2="290.01"/><line class="cls-4" x1="663.61" y1="285.51" x2="663.61" y2="284.82"/><line class="cls-4" x1="663.61" y1="284.82" x2="658.42" y2="284.82"/><line class="cls-4" x1="704.78" y1="285.51" x2="704.78" y2="284.82"/><line class="cls-4" x1="704.78" y1="284.82" x2="751.15" y2="284.82"/><line class="cls-4" x1="776.76" y1="290.01" x2="704.78" y2="290.01"/><line class="cls-4" x1="879.53" y1="151.26" x2="879.53" y2="172.02"/><line class="cls-4" x1="879.53" y1="212.85" x2="879.53" y2="284.82"/><line class="cls-4" x1="967.07" y1="151.26" x2="967.07" y2="284.82"/><line class="cls-4" x1="972.26" y1="151.26" x2="972.26" y2="290.01"/><line class="cls-4" x1="972.26" y1="151.26" x2="1157.03" y2="151.26"/><line class="cls-4" x1="1157.03" y1="347.09" x2="1157.03" y2="354.36"/><line class="cls-4" x1="1157.03" y1="151.26" x2="1157.03" y2="290.7"/><line class="cls-4" x1="496.48" y1="359.55" x2="496.48" y2="379.96"/><line class="cls-4" x1="496.48" y1="446.74" x2="496.48" y2="542.58"/><line class="cls-4" x1="496.48" y1="385.15" x2="496.48" y2="390.34"/><polyline class="cls-4" points="496.48 671.29 496.48 720.07 496.48 750.87 496.48 781.66 496.48 791.7"/><line class="cls-4" x1="496.48" y1="671.29" x2="681.6" y2="671.29"/><line class="cls-4" x1="686.79" y1="671.29" x2="751.15" y2="671.29"/><line class="cls-4" x1="496.48" y1="791.7" x2="681.6" y2="791.7"/><line class="cls-4" x1="496.48" y1="796.89" x2="686.79" y2="796.89"/><polyline class="cls-4" points="496.48 796.89 496.48 858.47 496.48 879.23"/><line class="cls-4" x1="496.48" y1="951.2" x2="751.15" y2="951.2"/><line class="cls-4" x1="751.15" y1="951.2" x2="751.15" y2="738.07"/><line class="cls-4" x1="751.15" y1="732.88" x2="751.15" y2="727.69"/><line class="cls-4" x1="681.6" y1="676.13" x2="681.6" y2="671.29"/><line class="cls-4" x1="686.79" y1="676.13" x2="686.79" y2="671.29"/><line class="cls-4" x1="686.79" y1="676.13" x2="686.1" y2="676.13"/><line class="cls-4" x1="681.6" y1="717.31" x2="681.6" y2="791.7"/><line class="cls-4" x1="686.79" y1="717.31" x2="686.79" y2="732.88"/><line class="cls-4" x1="686.79" y1="738.07" x2="686.79" y2="796.89"/><line class="cls-4" x1="686.79" y1="717.31" x2="686.1" y2="717.31"/><line class="cls-4" x1="751.15" y1="671.29" x2="751.15" y2="676.13"/><line class="cls-4" x1="751.15" y1="676.13" x2="771.57" y2="676.13"/><line class="cls-4" x1="496.48" y1="650.53" x2="751.15" y2="650.53"/><line class="cls-4" x1="751.15" y1="582.72" x2="751.15" y2="541.89"/><line class="cls-4" x1="751.15" y1="431.17" x2="751.15" y2="379.96"/><line class="cls-4" x1="751.15" y1="374.77" x2="751.15" y2="349.17"/><line class="cls-4" x1="771.57" y1="582.72" x2="771.57" y2="541.89"/><line class="cls-4" x1="771.57" y1="431.17" x2="771.57" y2="349.17"/><line class="cls-4" x1="751.15" y1="727.69" x2="771.57" y2="727.69"/><line class="cls-4" x1="771.57" y1="727.69" x2="771.57" y2="732.88"/><line class="cls-4" x1="932.12" y1="732.88" x2="991.29" y2="732.88"/><line class="cls-4" x1="834.2" y1="732.88" x2="926.93" y2="732.88"/><line class="cls-4" x1="1037.31" y1="732.88" x2="1042.5" y2="732.88"/><line class="cls-4" x1="771.57" y1="349.17" x2="751.15" y2="349.17"/><line class="cls-4" x1="834.2" y1="378.58" x2="834.2" y2="431.17"/><line class="cls-4" x1="834.2" y1="541.89" x2="834.2" y2="644.3"/><line class="cls-4" x1="839.39" y1="359.55" x2="839.39" y2="431.17"/><line class="cls-4" x1="1042.5" y1="685.48" x2="1042.5" y2="732.88"/><line class="cls-4" x1="839.39" y1="541.89" x2="1001.32" y2="541.89"/><line class="cls-4" x1="839.39" y1="546.73" x2="996.13" y2="546.73"/><line class="cls-4" x1="839.39" y1="546.73" x2="839.39" y2="639.46"/><line class="cls-4" x1="686.79" y1="732.88" x2="691.98" y2="732.88"/><line class="cls-4" x1="691.98" y1="737.37" x2="691.98" y2="738.07"/><line class="cls-4" x1="733.16" y1="737.37" x2="733.16" y2="738.07"/><line class="cls-4" x1="691.98" y1="738.07" x2="686.79" y2="738.07"/><line class="cls-4" x1="733.16" y1="732.88" x2="751.15" y2="732.88"/><line class="cls-4" x1="733.16" y1="738.07" x2="751.15" y2="738.07"/><line class="cls-4" x1="1001.32" y1="541.89" x2="1001.32" y2="577.53"/><line class="cls-4" x1="996.13" y1="546.73" x2="996.13" y2="577.53"/><line class="cls-4" x1="996.13" y1="577.53" x2="1001.32" y2="577.53"/><line class="cls-4" x1="771.57" y1="732.88" x2="776.76" y2="732.88"/><line class="cls-4" x1="776.76" y1="746.37" x2="776.76" y2="753.29"/><line class="cls-4" x1="776.76" y1="732.88" x2="776.76" y2="742.91"/><line class="cls-4" x1="834.2" y1="746.37" x2="834.2" y2="753.29"/><line class="cls-4" x1="834.2" y1="732.88" x2="834.2" y2="742.91"/><polyline class="cls-4" points="834.2 753.29 830.74 753.29 824.51 753.29 812.05 753.29 805.82 753.29 805.48 753.29 793.37 753.29 787.14 753.29 776.76 753.29"/><line class="cls-4" x1="792.67" y1="784.08" x2="818.28" y2="784.08"/><line class="cls-4" x1="805.48" y1="768.51" x2="818.28" y2="784.08"/><line class="cls-4" x1="805.48" y1="768.51" x2="792.67" y2="784.08"/><polyline class="cls-4" points="805.48 768.51 805.48 753.29 805.48 740.49 805.48 724.92"/><line class="cls-4" x1="834.2" y1="644.3" x2="880.56" y2="644.3"/><line class="cls-4" x1="880.56" y1="639.46" x2="839.39" y2="639.46"/><line class="cls-4" x1="884.72" y1="212.85" x2="880.22" y2="212.85"/><line class="cls-4" x1="884.72" y1="210.77" x2="880.22" y2="210.77"/><line class="cls-4" x1="884.72" y1="212.85" x2="884.72" y2="210.77"/><line class="cls-4" x1="880.22" y1="212.85" x2="880.22" y2="210.77"/><path class="cls-4" d="M805.36,742.92q.12-1.2.12-2.43a24.47,24.47,0,0,0-24.57-24.57c-.35,0-.7,0-1,0s-.92,0-1.38.09h0"/><line class="cls-4" x1="791.98" y1="748.1" x2="791.98" y2="738.07"/><line class="cls-4" x1="778.49" y1="742.91" x2="779.87" y2="742.91"/><line class="cls-4" x1="778.49" y1="715.92" x2="779.87" y2="715.92"/><polyline class="cls-4" points="778.49 742.91 778.49 716.04 778.49 715.92"/><polyline class="cls-4" points="779.87 742.91 779.87 715.95 779.87 715.92"/><line class="cls-4" x1="776.76" y1="746.37" x2="776.76" y2="742.91"/><line class="cls-4" x1="778.49" y1="746.37" x2="778.49" y2="742.91"/><line class="cls-4" x1="776.76" y1="746.37" x2="778.49" y2="746.37"/><line class="cls-4" x1="776.76" y1="742.91" x2="778.49" y2="742.91"/><line class="cls-4" x1="834.2" y1="351.94" x2="839.04" y2="351.94"/><line class="cls-4" x1="834.2" y1="354.36" x2="839.04" y2="354.36"/><line class="cls-4" x1="839.04" y1="351.94" x2="839.04" y2="354.36"/><line class="cls-4" x1="832.47" y1="378.58" x2="832.47" y2="314.57"/><line class="cls-4" x1="832.47" y1="378.58" x2="834.2" y2="378.58"/><polyline class="cls-4" points="834.2 378.58 834.2 354.36 834.2 351.94 834.2 314.57"/><line class="cls-4" x1="834.2" y1="314.57" x2="832.47" y2="314.57"/><polyline class="cls-4" points="809.98 136.04 809.98 137.08 809.98 138.46"/><polyline class="cls-4" points="851.15 136.04 851.15 137.08 851.15 138.46"/><polyline class="cls-4" points="851.15 137.08 830.74 137.08 809.98 137.08"/><polyline class="cls-4" points="830.74 138.46 830.74 137.08 830.74 136.04"/><polyline class="cls-4" points="705.82 137.08 704.78 137.08 695.44 137.08"/><line class="cls-4" x1="714.13" y1="136.04" x2="705.82" y2="136.04"/><polyline class="cls-4" points="705.82 136.04 704.78 136.04 695.44 136.04"/><polyline class="cls-4" points="693.37 136.04 695.44 136.04 695.44 136.73 695.44 137.08 693.37 137.08"/><polyline class="cls-4" points="716.2 136.04 714.13 136.04 714.13 136.73 714.13 137.08"/><polyline class="cls-4" points="714.13 136.73 704.78 136.73 695.44 136.73"/><path class="cls-4" d="M924.09,639.42c0-.79.07-1.58.07-2.38a38.25,38.25,0,0,0-38.41-38.41h-.34c-.69,0-1.36,0-2,.06"/><line class="cls-4" x1="903.75" y1="647.07" x2="903.75" y2="631.5"/><line class="cls-4" x1="924.16" y1="644.3" x2="924.16" y2="639.46"/><line class="cls-4" x1="926.93" y1="644.3" x2="926.93" y2="639.46"/><line class="cls-4" x1="924.16" y1="644.3" x2="926.93" y2="644.3"/><line class="cls-4" x1="924.16" y1="639.46" x2="926.93" y2="639.46"/><line class="cls-4" x1="883.33" y1="639.46" x2="885.41" y2="639.46"/><line class="cls-4" x1="883.33" y1="598.29" x2="885.41" y2="598.29"/><line class="cls-4" x1="883.33" y1="639.46" x2="883.33" y2="598.29"/><polyline class="cls-4" points="885.41 639.46 885.41 598.64 885.41 598.29"/><line class="cls-4" x1="880.56" y1="644.3" x2="880.56" y2="639.46"/><line class="cls-4" x1="883.33" y1="644.3" x2="883.33" y2="639.46"/><line class="cls-4" x1="880.56" y1="644.3" x2="883.33" y2="644.3"/><line class="cls-4" x1="880.56" y1="639.46" x2="883.33" y2="639.46"/><line class="cls-4" x1="856.34" y1="125.66" x2="804.78" y2="125.66"/><line class="cls-4" x1="716.2" y1="125.66" x2="693.37" y2="125.66"/><path class="cls-4" d="M702.37,249h0c-.58,0-1.16.09-1.73.15C681,251.14,666,265.4,666,282.9c0,.38,0,.76,0,1.14h0c0,.37,0,.75.07,1.12"/><line class="cls-4" x1="684.37" y1="292.43" x2="684.37" y2="278.59"/><line class="cls-4" x1="663.61" y1="290.01" x2="663.61" y2="285.51"/><line class="cls-4" x1="666.03" y1="290.01" x2="666.03" y2="285.51"/><line class="cls-4" x1="663.61" y1="290.01" x2="666.03" y2="290.01"/><polyline class="cls-4" points="663.61 285.51 666.02 285.51 666.03 285.51"/><line class="cls-4" x1="702.36" y1="248.83" x2="700.63" y2="248.83"/><line class="cls-4" x1="702.36" y1="285.51" x2="700.63" y2="285.51"/><polyline class="cls-4" points="702.36 248.83 702.36 249 702.36 285.51"/><polyline class="cls-4" points="700.63 248.83 700.63 249.15 700.63 285.51"/><line class="cls-4" x1="702.36" y1="290.01" x2="702.36" y2="285.51"/><line class="cls-4" x1="704.78" y1="290.01" x2="704.78" y2="285.51"/><line class="cls-4" x1="702.36" y1="290.01" x2="704.78" y2="290.01"/><line class="cls-4" x1="702.36" y1="285.51" x2="704.78" y2="285.51"/><line class="cls-4" x1="470.87" y1="522.17" x2="419.66" y2="522.17"/><line class="cls-4" x1="470.87" y1="519.74" x2="416.9" y2="519.74"/><line class="cls-4" x1="419.66" y1="522.17" x2="419.66" y2="624.93"/><line class="cls-4" x1="416.9" y1="519.74" x2="416.9" y2="627.35"/><line class="cls-4" x1="419.66" y1="624.93" x2="470.87" y2="624.93"/><line class="cls-4" x1="416.9" y1="627.35" x2="470.87" y2="627.35"/><line class="cls-4" x1="419.66" y1="304.19" x2="470.87" y2="304.19"/><line class="cls-4" x1="416.9" y1="306.61" x2="470.87" y2="306.61"/><line class="cls-4" x1="476.06" y1="390.34" x2="476.06" y2="392.77"/><polyline class="cls-4" points="478.49 390.34 478.49 415.95 478.49 442.17 478.49 442.24"/><polyline class="cls-4" points="496.48 446.74 496.48 415.95 496.48 390.34"/><polyline class="cls-4" points="455.65 415.95 470.87 415.95 476.06 415.95 478.49 415.95 496.48 415.95 517.24 415.95"/><polyline class="cls-4" points="496.48 446.74 478.49 442.17 476.06 441.55"/><line class="cls-4" x1="476.06" y1="392.77" x2="470.87" y2="392.77"/><line class="cls-4" x1="476.06" y1="439.13" x2="470.87" y2="439.13"/><polyline class="cls-4" points="476.06 390.34 478.49 390.34 496.48 390.34"/><line class="cls-4" x1="476.06" y1="547.77" x2="476.06" y2="550.54"/><polyline class="cls-4" points="478.49 547.08 478.49 547.15 478.49 573.72 478.49 599.32"/><polyline class="cls-4" points="455.65 573.72 470.87 573.72 476.06 573.72 478.49 573.72 517.24 573.72"/><polyline class="cls-4" points="496.48 542.58 478.49 547.15 476.06 547.77"/><line class="cls-4" x1="476.06" y1="550.54" x2="470.87" y2="550.54"/><line class="cls-4" x1="476.06" y1="596.56" x2="470.87" y2="596.56"/><polyline class="cls-4" points="476.06 599.32 478.49 599.32 496.48 599.32"/><polyline class="cls-4" points="856.34 125.66 856.34 136.04 856.34 138.46 856.34 151.26"/><polyline class="cls-4" points="804.78 125.66 804.78 136.04 804.78 138.46 804.78 151.26"/><line class="cls-4" x1="1068.11" y1="416.98" x2="1063.26" y2="416.98"/><line class="cls-4" x1="1068.11" y1="463" x2="1063.26" y2="463"/><line class="cls-4" x1="1068.11" y1="580.29" x2="1063.26" y2="580.29"/><line class="cls-4" x1="1068.11" y1="626.31" x2="1063.26" y2="626.31"/><line class="cls-4" x1="1063.26" y1="414.22" x2="1063.26" y2="416.98"/><polyline class="cls-4" points="1060.49 413.52 1060.49 413.57 1060.49 440.17 1060.49 466.46"/><polyline class="cls-4" points="1063.26 414.22 1060.49 413.57 1042.5 409.37"/><polyline class="cls-4" points="1063.26 465.77 1060.49 466.46 1042.5 470.96"/><line class="cls-4" x1="1063.26" y1="577.53" x2="1063.26" y2="580.29"/><polyline class="cls-4" points="1060.49 577.18 1060.49 603.48 1060.49 629.77"/><polyline class="cls-4" points="1063.26 577.53 1060.56 576.9 1042.5 572.68"/><polyline class="cls-4" points="1063.26 629.08 1060.49 629.77 1042.5 634.27"/><line class="cls-4" x1="1172.61" y1="295.54" x2="1167.42" y2="295.54"/><line class="cls-4" x1="1172.61" y1="341.9" x2="1167.42" y2="341.9"/><line class="cls-4" x1="1167.42" y1="293.12" x2="1167.42" y2="295.54"/><polyline class="cls-4" points="1164.99 292.43 1164.99 292.55 1164.99 318.72 1164.99 344.98 1164.99 345.02"/><polyline class="cls-4" points="1157.03 290.7 1157.03 318.72 1157.03 347.09"/><polyline class="cls-4" points="1167.42 293.12 1164.99 292.55 1157.03 290.7"/><polyline class="cls-4" points="1167.42 344.33 1164.99 344.98 1157.03 347.09"/><polyline class="cls-4" points="1029.7 440.17 1060.49 440.17 1063.26 440.17 1068.11 440.17 1068.23 440.17 1091.29 440.17"/><polyline class="cls-4" points="1029.7 603.48 1060.49 603.48 1063.26 603.48 1068.11 603.48 1068.52 603.48 1091.29 603.48"/><polyline class="cls-4" points="1136.62 318.72 1157.03 318.72 1164.99 318.72 1167.42 318.72 1172.61 318.72 1198.21 318.72"/><line class="cls-4" x1="658.42" y1="192.44" x2="658.42" y2="199.01"/><line class="cls-4" x1="724.51" y1="199.01" x2="751.15" y2="199.01"/><line class="cls-4" x1="751.15" y1="199.01" x2="751.15" y2="192.44"/><polyline class="cls-4" points="704.78 137.08 704.78 136.73 704.78 136.04"/><line class="cls-4" x1="693.37" y1="151.26" x2="716.2" y2="151.26"/><polyline class="cls-4" points="856.34 138.46 851.15 138.46 830.74 138.46 809.98 138.46 804.78 138.46"/><polyline class="cls-4" points="716.2 137.08 714.13 137.08 705.82 137.08"/><polyline class="cls-4" points="856.34 136.04 851.15 136.04 833.16 136.04"/><polyline class="cls-4" points="833.16 136.04 830.74 136.04 809.98 136.04 804.78 136.04"/><line class="cls-4" x1="658.42" y1="199.01" x2="684.37" y2="199.01"/><line class="cls-4" x1="684.37" y1="199.01" x2="684.37" y2="192.44"/><line class="cls-4" x1="684.37" y1="192.44" x2="658.42" y2="192.44"/><line class="cls-4" x1="724.51" y1="192.44" x2="724.51" y2="199.01"/><line class="cls-4" x1="724.51" y1="192.44" x2="751.15" y2="192.44"/><polyline class="cls-4" points="470.87 229.8 470.87 252.64 470.87 275.82"/><polyline class="cls-4" points="470.87 392.77 470.87 415.95 470.87 439.13"/><polyline class="cls-4" points="470.87 550.54 470.87 573.72 470.87 596.56"/><polyline class="cls-4" points="470.87 727.69 470.87 750.87 470.87 774.05"/><polyline class="cls-4" points="470.87 886.84 470.87 910.03 470.87 933.21"/><polyline class="cls-4" points="1172.61 295.54 1172.61 318.72 1172.61 341.9"/><polyline class="cls-4" points="1068.11 416.98 1068.11 440.17 1068.11 463"/><polyline class="cls-4" points="1068.11 580.29 1068.11 603.48 1068.11 626.31"/><polyline class="cls-4" points="693.37 125.66 693.37 136.04 693.37 137.08 693.37 151.26"/><polyline class="cls-4" points="716.2 125.66 716.2 136.04 716.2 137.08 716.2 151.26"/><path class="cls-4" d="M932.41,729.94c.7,0,1.42.06,2.13.06,20.47,0,37.12-17.26,39.23-39.68.06-.69.11-1.38.15-2.08v0"/><line class="cls-4" x1="924.16" y1="709" x2="940.08" y2="709"/><line class="cls-4" x1="926.93" y1="730.11" x2="932.12" y2="730.11"/><line class="cls-4" x1="926.93" y1="732.88" x2="932.12" y2="732.88"/><line class="cls-4" x1="926.93" y1="730.11" x2="926.93" y2="732.88"/><line class="cls-4" x1="932.12" y1="730.11" x2="932.12" y2="732.88"/><line class="cls-4" x1="932.12" y1="688.24" x2="932.12" y2="690.32"/><line class="cls-4" x1="974.33" y1="688.24" x2="974.33" y2="690.32"/><polyline class="cls-4" points="932.12 688.24 973.92 688.24 974.33 688.24"/><polyline class="cls-4" points="932.12 690.32 973.77 690.32 974.33 690.32"/><line class="cls-4" x1="926.93" y1="685.48" x2="932.12" y2="685.48"/><line class="cls-4" x1="926.93" y1="688.24" x2="932.12" y2="688.24"/><line class="cls-4" x1="926.93" y1="685.48" x2="926.93" y2="688.24"/><line class="cls-4" x1="932.12" y1="685.48" x2="932.12" y2="688.24"/><path class="cls-4" d="M686.41,714.93c.7.05,1.4.07,2.11.07,17.51,0,31.77-15.07,33.69-34.71.06-.57.11-1.14.14-1.72"/><line class="cls-4" x1="679.53" y1="696.89" x2="693.02" y2="696.89"/><line class="cls-4" x1="681.6" y1="715.23" x2="686.1" y2="715.23"/><line class="cls-4" x1="681.6" y1="717.31" x2="686.1" y2="717.31"/><line class="cls-4" x1="681.6" y1="715.23" x2="681.6" y2="717.31"/><line class="cls-4" x1="686.1" y1="715.23" x2="686.1" y2="717.31"/><line class="cls-4" x1="686.1" y1="678.56" x2="686.1" y2="680.29"/><line class="cls-4" x1="722.78" y1="678.56" x2="722.78" y2="680.29"/><polyline class="cls-4" points="686.1 678.56 722.35 678.56 722.78 678.56"/><polyline class="cls-4" points="686.1 680.29 722.21 680.29 722.78 680.29"/><line class="cls-4" x1="681.6" y1="676.13" x2="686.1" y2="676.13"/><line class="cls-4" x1="681.6" y1="678.56" x2="686.1" y2="678.56"/><line class="cls-4" x1="681.6" y1="676.13" x2="681.6" y2="678.56"/><line class="cls-4" x1="686.1" y1="676.13" x2="686.1" y2="678.56"/><path class="cls-4" d="M694,737.06c0,.1,0,.21,0,.31a39.31,39.31,0,0,0,35,36.45c.57.07,1.15.12,1.73.16l.28,0"/><line class="cls-4" x1="712.4" y1="730.45" x2="712.4" y2="744.29"/><line class="cls-4" x1="694.4" y1="732.88" x2="694.4" y2="737.37"/><line class="cls-4" x1="691.98" y1="732.88" x2="691.98" y2="737.37"/><line class="cls-4" x1="694.4" y1="732.88" x2="691.98" y2="732.88"/><polyline class="cls-4" points="694.4 737.37 694.02 737.37 691.98 737.37"/><line class="cls-4" x1="730.74" y1="737.37" x2="729.01" y2="737.37"/><line class="cls-4" x1="730.74" y1="774.05" x2="729.01" y2="774.05"/><polyline class="cls-4" points="730.74 737.37 730.74 773.98 730.74 774.05"/><polyline class="cls-4" points="729.01 737.37 729.01 773.82 729.01 774.05"/><line class="cls-4" x1="733.16" y1="732.88" x2="733.16" y2="737.37"/><line class="cls-4" x1="730.74" y1="732.88" x2="730.74" y2="737.37"/><line class="cls-4" x1="733.16" y1="732.88" x2="730.74" y2="732.88"/><line class="cls-4" x1="733.16" y1="737.37" x2="730.74" y2="737.37"/><path class="cls-4" d="M653.91,310.5C633.17,311.73,617,326.23,617,344.15c0,.76,0,1.52.09,2.26"/><line class="cls-4" x1="660.84" y1="328.41" x2="647" y2="328.41"/><line class="cls-4" x1="658.42" y1="310.42" x2="653.92" y2="310.42"/><line class="cls-4" x1="658.42" y1="310.42" x2="658.42" y2="308"/><line class="cls-4" x1="653.92" y1="310.42" x2="653.92" y2="308"/><line class="cls-4" x1="653.92" y1="346.75" x2="653.92" y2="345.02"/><polyline class="cls-4" points="617.24 346.75 617.24 346.41 617.24 345.02"/><line class="cls-4" x1="653.92" y1="346.75" x2="617.24" y2="346.75"/><line class="cls-4" x1="653.92" y1="345.02" x2="617.24" y2="345.02"/><line class="cls-4" x1="658.42" y1="349.17" x2="653.92" y2="349.17"/><line class="cls-4" x1="658.42" y1="346.75" x2="653.92" y2="346.75"/><line class="cls-4" x1="658.42" y1="349.17" x2="658.42" y2="346.75"/><line class="cls-4" x1="653.92" y1="349.17" x2="653.92" y2="346.75"/><line class="cls-4" x1="658.42" y1="290.01" x2="658.42" y2="308"/><line class="cls-4" x1="653.23" y1="290.01" x2="653.23" y2="308"/><polyline class="cls-4" points="653.23 308 653.92 308 658.42 308"/><path class="cls-4" d="M880.23,174.54c-20.37,1.3-36.23,15.77-36.23,33.64,0,.29,0,.58,0,.86,0,.47,0,.94.06,1.4"/><line class="cls-4" x1="887.14" y1="192.44" x2="873.3" y2="192.44"/><polyline class="cls-4" points="884.72 174.1 880.23 174.1 880.22 174.1"/><line class="cls-4" x1="884.72" y1="172.02" x2="880.22" y2="172.02"/><line class="cls-4" x1="884.72" y1="174.1" x2="884.72" y2="172.02"/><line class="cls-4" x1="880.22" y1="174.1" x2="880.22" y2="172.02"/><line class="cls-4" x1="880.22" y1="210.77" x2="880.22" y2="209.04"/><line class="cls-4" x1="843.54" y1="210.77" x2="843.54" y2="209.04"/><line class="cls-4" x1="880.22" y1="210.77" x2="843.54" y2="210.77"/><polyline class="cls-4" points="880.22 209.04 844.02 209.04 843.54 209.04"/><path class="cls-4" d="M832.46,716l-1,.1C817,717.72,806,728,806,740.49a19.9,19.9,0,0,0,.1,2"/><line class="cls-4" x1="818.97" y1="748.1" x2="818.97" y2="738.07"/><line class="cls-4" x1="832.47" y1="715.92" x2="831.43" y2="715.92"/><line class="cls-4" x1="832.47" y1="742.91" x2="831.43" y2="742.91"/><line class="cls-4" x1="832.47" y1="715.92" x2="832.47" y2="742.91"/><polyline class="cls-4" points="831.43 715.92 831.43 716.14 831.43 742.91"/><line class="cls-4" x1="832.47" y1="746.37" x2="832.47" y2="742.91"/><line class="cls-4" x1="834.2" y1="746.37" x2="834.2" y2="742.91"/><line class="cls-4" x1="832.47" y1="746.37" x2="834.2" y2="746.37"/><line class="cls-4" x1="832.47" y1="742.91" x2="834.2" y2="742.91"/><polyline class="cls-4" points="476.06 229.8 476.06 252.64 476.06 274.78"/><line class="cls-4" x1="476.06" y1="275.82" x2="476.06" y2="278.59"/><polyline class="cls-4" points="476.06 392.77 476.06 415.95 476.06 439.13"/><line class="cls-4" x1="476.06" y1="439.13" x2="476.06" y2="441.55"/><polyline class="cls-4" points="476.06 886.84 476.06 910.03 476.06 933.21"/><line class="cls-4" x1="476.06" y1="933.21" x2="476.06" y2="935.63"/><polyline class="cls-4" points="476.06 727.69 476.06 750.87 476.06 774.05"/><line class="cls-4" x1="476.06" y1="774.05" x2="476.06" y2="776.47"/><polyline class="cls-4" points="476.06 550.54 476.06 573.72 476.06 596.56"/><line class="cls-4" x1="476.06" y1="596.56" x2="476.06" y2="599.32"/><polyline class="cls-4" points="1063.26 580.29 1063.26 603.48 1063.26 626.31"/><line class="cls-4" x1="1063.26" y1="626.31" x2="1063.26" y2="629.08"/><polyline class="cls-4" points="1063.26 416.98 1063.26 440.17 1063.26 463"/><polyline class="cls-4" points="1063.26 463 1063.26 464.39 1063.26 465.77"/><polyline class="cls-4" points="1167.42 295.54 1167.42 318.72 1167.42 341.9"/><line class="cls-4" x1="1167.42" y1="341.9" x2="1167.42" y2="344.33"/></svg>