<svg xmlns="http://www.w3.org/2000/svg" viewBox="0 0 1190.55 673.38"><defs><style>.cls-1{font-size:143px;font-family:Swiss721BT-BlackCondensed, Swis721 BlkCn BT;font-weight:800;}.cls-1,.cls-3,.cls-4,.cls-7,.cls-8{fill:none;stroke:#1d1d1b;}.cls-2{letter-spacing:-0.04em;}.cls-3,.cls-7{stroke-linecap:round;}.cls-5{fill:#1d1d1b;}.cls-6{fill:#fff;}.cls-7{stroke-linejoin:round;}.cls-8{stroke-miterlimit:10;}</style></defs><g id="SCRITTA"><text class="cls-1" transform="translate(686.04 666.37) rotate(-90)">UPS<tspan class="cls-2" x="241.8" y="0">T</tspan><tspan x="306.46" y="0">AIRS</tspan></text><line class="cls-3" x1="612.17" y1="588.07" x2="626.88" y2="588.03"/><polyline class="cls-4" points="655.83 582.99 661.5 589.24 677.21 573.7"/><polygon class="cls-5" points="673.08 569.32 667.42 575.41 671.58 578.99 676.58 573.57 676.83 572.99 673.08 569.32"/></g><g id="Livello_1" data-name="Livello 1"><g id="BANDA"><rect class="cls-6" x="476.73" y="65.57" width="121.99" height="605.28"/></g><line class="cls-7" x1="561.52" y1="96.76" x2="561.52" y2="96.76"/><line class="cls-7" x1="598.94" y1="456.2" x2="598.94" y2="456.2"/><line class="cls-7" x1="598.72" y1="590.61" x2="598.72" y2="590.61"/><line class="cls-7" x1="535.67" y1="625.79" x2="587.4" y2="618.69"/><line class="cls-7" x1="598.07" y1="619.09" x2="561.57" y2="634.28"/><line class="cls-7" x1="536.16" y1="626.06" x2="535.67" y2="625.79"/><line class="cls-7" x1="538.38" y1="627.24" x2="536.16" y2="626.06"/><line class="cls-7" x1="540.93" y1="628.43" x2="538.38" y2="627.24"/><line class="cls-7" x1="543.75" y1="629.54" x2="540.93" y2="628.43"/><line class="cls-7" x1="546.83" y1="630.6" x2="543.75" y2="629.54"/><line class="cls-7" x1="550.19" y1="631.58" x2="546.83" y2="630.6"/><line class="cls-7" x1="553.77" y1="632.57" x2="550.19" y2="631.58"/><line class="cls-7" x1="561.57" y1="634.28" x2="557.56" y2="633.42"/><line class="cls-7" x1="557.56" y1="633.42" x2="553.77" y2="632.57"/><line class="cls-7" x1="536.16" y1="634.21" x2="538.44" y2="635.4"/><line class="cls-7" x1="540.93" y1="636.58" x2="543.75" y2="637.77"/><line class="cls-7" x1="543.75" y1="637.77" x2="546.83" y2="638.82"/><line class="cls-7" x1="535.67" y1="633.88" x2="535.67" y2="625.79"/><line class="cls-7" x1="557.56" y1="641.71" x2="561.57" y2="642.5"/><line class="cls-7" x1="561.57" y1="642.5" x2="561.57" y2="634.28"/><line class="cls-7" x1="535.67" y1="633.88" x2="536.16" y2="634.21"/><line class="cls-7" x1="538.44" y1="635.4" x2="540.93" y2="636.58"/><line class="cls-7" x1="546.83" y1="638.82" x2="550.19" y2="639.87"/><line class="cls-7" x1="553.77" y1="640.79" x2="557.56" y2="641.71"/><line class="cls-7" x1="562" y1="642.37" x2="561.57" y2="642.5"/><line class="cls-7" x1="561.73" y1="355.24" x2="560.7" y2="355.19"/><line class="cls-7" x1="566.06" y1="355.4" x2="561.73" y2="355.24"/><line class="cls-7" x1="570.56" y1="355.57" x2="566.06" y2="355.4"/><line class="cls-7" x1="575.16" y1="355.73" x2="570.56" y2="355.57"/><line class="cls-7" x1="579.93" y1="355.84" x2="575.16" y2="355.73"/><line class="cls-7" x1="584.86" y1="355.95" x2="579.93" y2="355.84"/><line class="cls-7" x1="589.84" y1="356" x2="584.86" y2="355.95"/><line class="cls-7" x1="598.72" y1="356.05" x2="594.88" y2="356.05"/><line class="cls-7" x1="594.88" y1="356.05" x2="589.84" y2="356"/><line class="cls-7" x1="598.72" y1="364.45" x2="564.87" y2="362.39"/><line class="cls-7" x1="570.56" y1="362.61" x2="575.16" y2="362.72"/><line class="cls-7" x1="575.16" y1="362.72" x2="579.98" y2="362.88"/><line class="cls-7" x1="584.86" y1="362.99" x2="589.84" y2="363.04"/><line class="cls-7" x1="560.7" y1="362.17" x2="560.7" y2="355.19"/><line class="cls-7" x1="560.7" y1="362.17" x2="561.73" y2="362.23"/><line class="cls-7" x1="566.06" y1="362.44" x2="570.56" y2="362.61"/><line class="cls-7" x1="579.98" y1="362.88" x2="584.86" y2="362.99"/><line class="cls-7" x1="589.84" y1="363.04" x2="594.88" y2="363.09"/><line class="cls-7" x1="529.55" y1="639.74" x2="551.27" y2="640.13"/><line class="cls-7" x1="570.61" y1="640.46" x2="598.72" y2="640.92"/><line class="cls-7" x1="598.72" y1="641.91" x2="535.89" y2="650.99"/><line class="cls-7" x1="529.39" y1="640.13" x2="529.55" y2="639.74"/><line class="cls-7" x1="529.12" y1="641.51" x2="529.39" y2="640.13"/><line class="cls-7" x1="529.18" y1="642.9" x2="529.12" y2="641.51"/><line class="cls-7" x1="529.55" y1="644.28" x2="529.18" y2="642.9"/><line class="cls-7" x1="530.2" y1="645.66" x2="529.55" y2="644.28"/><line class="cls-7" x1="531.18" y1="647.04" x2="530.2" y2="645.66"/><line class="cls-7" x1="532.42" y1="648.35" x2="531.18" y2="647.04"/><line class="cls-7" x1="535.89" y1="650.99" x2="534.05" y2="649.74"/><line class="cls-7" x1="534.05" y1="649.74" x2="532.42" y2="648.35"/><line class="cls-7" x1="598.72" y1="657.69" x2="536.54" y2="659.01"/><line class="cls-7" x1="529.18" y1="649.47" x2="529.12" y2="641.51"/><line class="cls-7" x1="529.23" y1="650.85" x2="529.55" y2="652.3"/><line class="cls-7" x1="529.55" y1="652.3" x2="530.2" y2="653.68"/><line class="cls-7" x1="531.18" y1="655.06" x2="532.48" y2="656.44"/><line class="cls-7" x1="534.05" y1="657.83" x2="535.95" y2="659.14"/><line class="cls-7" x1="535.95" y1="659.14" x2="535.89" y2="650.99"/><line class="cls-7" x1="529.18" y1="649.47" x2="529.23" y2="650.85"/><line class="cls-7" x1="530.2" y1="653.68" x2="531.18" y2="655.06"/><line class="cls-7" x1="532.48" y1="656.44" x2="534.05" y2="657.83"/><line class="cls-7" x1="536.54" y1="659.01" x2="535.95" y2="659.14"/><line class="cls-7" x1="599" y1="456.41" x2="598.94" y2="456.36"/><line class="cls-7" x1="598.94" y1="456.36" x2="598.89" y2="456.31"/><line class="cls-7" x1="598.89" y1="456.31" x2="598.89" y2="456.25"/><line class="cls-7" x1="598.89" y1="456.25" x2="598.94" y2="456.2"/><line class="cls-7" x1="598.72" y1="454.79" x2="571.53" y2="447.91"/><line class="cls-7" x1="589.19" y1="447.15" x2="592.77" y2="447.1"/><line class="cls-7" x1="584.64" y1="447.32" x2="589.19" y2="447.15"/><line class="cls-7" x1="580.2" y1="447.48" x2="584.64" y2="447.32"/><line class="cls-7" x1="571.53" y1="447.91" x2="575.81" y2="447.69"/><line class="cls-7" x1="575.81" y1="447.69" x2="580.2" y2="447.48"/><line class="cls-7" x1="598.76" y1="468.49" x2="571.8" y2="454.41"/><line class="cls-7" x1="571.53" y1="454.36" x2="571.53" y2="447.91"/><line class="cls-7" x1="571.8" y1="454.41" x2="571.53" y2="454.36"/><line class="cls-7" x1="528.36" y1="392.18" x2="598.72" y2="392.56"/><line class="cls-7" x1="598.72" y1="392.88" x2="534.81" y2="395.75"/><line class="cls-7" x1="528.25" y1="392.29" x2="528.36" y2="392.18"/><line class="cls-7" x1="527.98" y1="392.72" x2="528.25" y2="392.29"/><line class="cls-7" x1="528.04" y1="393.21" x2="527.98" y2="392.72"/><line class="cls-7" x1="528.36" y1="393.64" x2="528.04" y2="393.21"/><line class="cls-7" x1="529.01" y1="394.07" x2="528.36" y2="393.64"/><line class="cls-7" x1="530.04" y1="394.51" x2="529.01" y2="394.07"/><line class="cls-7" x1="531.29" y1="394.94" x2="530.04" y2="394.51"/><line class="cls-7" x1="534.81" y1="395.75" x2="532.91" y2="395.37"/><line class="cls-7" x1="532.91" y1="395.37" x2="531.29" y2="394.94"/><line class="cls-7" x1="598.72" y1="406.21" x2="535.46" y2="402.58"/><line class="cls-7" x1="527.98" y1="399.49" x2="527.98" y2="392.72"/><line class="cls-7" x1="528.04" y1="399.92" x2="528.42" y2="400.36"/><line class="cls-7" x1="528.42" y1="400.36" x2="529.07" y2="400.85"/><line class="cls-7" x1="530.04" y1="401.28" x2="531.34" y2="401.77"/><line class="cls-7" x1="532.91" y1="402.2" x2="534.86" y2="402.63"/><line class="cls-7" x1="534.86" y1="402.63" x2="534.81" y2="395.75"/><line class="cls-7" x1="527.98" y1="399.49" x2="528.04" y2="399.92"/><line class="cls-7" x1="529.07" y1="400.85" x2="530.04" y2="401.28"/><line class="cls-7" x1="531.34" y1="401.77" x2="532.91" y2="402.2"/><line class="cls-7" x1="535.46" y1="402.58" x2="534.86" y2="402.63"/><line class="cls-7" x1="598.67" y1="590.15" x2="598.72" y2="590.02"/><line class="cls-7" x1="598.62" y1="590.21" x2="598.67" y2="590.15"/><line class="cls-7" x1="598.62" y1="590.28" x2="598.62" y2="590.21"/><line class="cls-7" x1="598.62" y1="590.41" x2="598.62" y2="590.28"/><line class="cls-7" x1="598.67" y1="590.48" x2="598.62" y2="590.41"/><line class="cls-7" x1="598.72" y1="590.61" x2="598.67" y2="590.48"/><line class="cls-7" x1="561.95" y1="607.51" x2="560.92" y2="607.31"/><line class="cls-7" x1="566.22" y1="608.17" x2="561.95" y2="607.51"/><line class="cls-7" x1="570.67" y1="608.83" x2="566.22" y2="608.17"/><line class="cls-7" x1="575.22" y1="609.35" x2="570.67" y2="608.83"/><line class="cls-7" x1="579.98" y1="609.81" x2="575.22" y2="609.35"/><line class="cls-7" x1="584.8" y1="610.14" x2="579.98" y2="609.81"/><line class="cls-7" x1="589.73" y1="610.47" x2="584.8" y2="610.14"/><polyline class="cls-7" points="594.72 610.67 598.72 610.8 598.72 619.09 598.07 619.09"/><line class="cls-7" x1="594.72" y1="610.67" x2="589.73" y2="610.47"/><line class="cls-7" x1="561.95" y1="615.8" x2="566.22" y2="616.52"/><line class="cls-7" x1="570.67" y1="617.11" x2="575.27" y2="617.64"/><line class="cls-7" x1="575.27" y1="617.64" x2="579.98" y2="618.1"/><line class="cls-7" x1="560.97" y1="615.6" x2="560.92" y2="607.31"/><line class="cls-7" x1="560.97" y1="615.6" x2="561.95" y2="615.8"/><line class="cls-7" x1="566.22" y1="616.52" x2="570.67" y2="617.11"/><line class="cls-7" x1="579.98" y1="618.1" x2="584.8" y2="618.49"/><line class="cls-7" x1="589.73" y1="618.82" x2="594.72" y2="619.02"/><line class="cls-7" x1="598.62" y1="590.28" x2="598.62" y2="592.58"/><line class="cls-7" x1="571.7" y1="427.98" x2="598.72" y2="434.15"/><line class="cls-7" x1="598.72" y1="435.08" x2="542.23" y2="430.8"/><line class="cls-7" x1="570.61" y1="428.03" x2="571.7" y2="427.98"/><line class="cls-7" x1="566.5" y1="428.31" x2="570.61" y2="428.03"/><line class="cls-7" x1="562.49" y1="428.58" x2="566.5" y2="428.31"/><line class="cls-7" x1="558.64" y1="428.9" x2="562.49" y2="428.58"/><line class="cls-7" x1="555.01" y1="429.23" x2="558.64" y2="428.9"/><line class="cls-7" x1="551.49" y1="429.6" x2="555.01" y2="429.23"/><line class="cls-7" x1="548.19" y1="429.98" x2="551.49" y2="429.6"/><line class="cls-7" x1="542.23" y1="430.8" x2="545.1" y2="430.36"/><line class="cls-7" x1="545.1" y1="430.36" x2="548.19" y2="429.98"/><line class="cls-7" x1="542.28" y1="437.35" x2="542.23" y2="430.8"/><line class="cls-7" x1="542.77" y1="437.4" x2="542.28" y2="437.35"/><line class="cls-7" x1="561.63" y1="96.69" x2="566.04" y2="96.43"/><line class="cls-7" x1="570.56" y1="96.16" x2="575.3" y2="95.96"/><line class="cls-7" x1="575.3" y1="95.96" x2="580.15" y2="95.76"/><line class="cls-7" x1="598.94" y1="95.49" x2="595.45" y2="95.49"/><line class="cls-7" x1="595.45" y1="95.49" x2="590.33" y2="95.56"/><line class="cls-7" x1="590.33" y1="95.56" x2="585.32" y2="95.69"/><line class="cls-7" x1="585.32" y1="95.69" x2="580.37" y2="95.83"/><line class="cls-7" x1="580.37" y1="95.83" x2="575.57" y2="96.03"/><line class="cls-7" x1="575.57" y1="96.03" x2="570.89" y2="96.23"/><line class="cls-7" x1="585.16" y1="95.63" x2="590.23" y2="95.49"/><line class="cls-7" x1="570.89" y1="96.23" x2="566.37" y2="96.49"/><line class="cls-7" x1="560.59" y1="96.76" x2="560.54" y2="87.96"/><line class="cls-7" x1="595.35" y1="95.43" x2="598.94" y2="95.43"/><line class="cls-7" x1="560.59" y1="96.76" x2="561.63" y2="96.69"/><line class="cls-7" x1="566.04" y1="96.43" x2="570.56" y2="96.16"/><line class="cls-7" x1="580.15" y1="95.76" x2="585.16" y2="95.63"/><line class="cls-7" x1="590.23" y1="95.49" x2="595.35" y2="95.43"/><line class="cls-7" x1="566.37" y1="96.49" x2="562.01" y2="96.76"/><line class="cls-7" x1="542.5" y1="409.57" x2="598.72" y2="413.36"/><line class="cls-7" x1="598.72" y1="413.74" x2="528.63" y2="413.36"/><line class="cls-7" x1="541.8" y1="409.67" x2="542.5" y2="409.57"/><line class="cls-7" x1="539.2" y1="410.11" x2="541.8" y2="409.67"/><line class="cls-7" x1="536.87" y1="410.54" x2="539.2" y2="410.11"/><line class="cls-7" x1="534.81" y1="410.97" x2="536.87" y2="410.54"/><line class="cls-7" x1="533.02" y1="411.41" x2="534.81" y2="410.97"/><line class="cls-7" x1="531.45" y1="411.89" x2="533.02" y2="411.41"/><line class="cls-7" x1="530.26" y1="412.38" x2="531.45" y2="411.89"/><line class="cls-7" x1="528.63" y1="413.36" x2="529.28" y2="412.81"/><line class="cls-7" x1="529.28" y1="412.81" x2="530.26" y2="412.38"/><line class="cls-7" x1="598.72" y1="427.06" x2="529.34" y2="420.02"/><line class="cls-7" x1="528.69" y1="420.02" x2="528.63" y2="413.36"/><line class="cls-7" x1="529.34" y1="420.02" x2="528.69" y2="420.02"/><line class="cls-7" x1="598.72" y1="373.01" x2="560.92" y2="377.5"/><line class="cls-7" x1="535.19" y1="375.12" x2="534.65" y2="375.06"/><line class="cls-7" x1="537.46" y1="375.5" x2="535.19" y2="375.12"/><line class="cls-7" x1="540.01" y1="375.82" x2="537.46" y2="375.5"/><line class="cls-7" x1="542.88" y1="376.15" x2="540.01" y2="375.82"/><line class="cls-7" x1="545.97" y1="376.47" x2="542.88" y2="376.15"/><line class="cls-7" x1="549.38" y1="376.74" x2="545.97" y2="376.47"/><line class="cls-7" x1="553.01" y1="377.01" x2="549.38" y2="376.74"/><line class="cls-7" x1="560.92" y1="377.5" x2="556.85" y2="377.28"/><line class="cls-7" x1="556.85" y1="377.28" x2="553.01" y2="377.01"/><line class="cls-7" x1="535.19" y1="382" x2="537.46" y2="382.38"/><line class="cls-7" x1="540.06" y1="382.76" x2="542.88" y2="383.08"/><line class="cls-7" x1="542.88" y1="383.08" x2="546.02" y2="383.41"/><line class="cls-7" x1="549.38" y1="383.68" x2="553.01" y2="384"/><line class="cls-7" x1="534.7" y1="381.94" x2="534.65" y2="375.06"/><line class="cls-7" x1="556.85" y1="384.27" x2="560.92" y2="384.49"/><line class="cls-7" x1="560.92" y1="384.49" x2="560.92" y2="377.5"/><line class="cls-7" x1="534.7" y1="381.94" x2="535.19" y2="382"/><line class="cls-7" x1="537.46" y1="382.38" x2="540.06" y2="382.76"/><line class="cls-7" x1="546.02" y1="383.41" x2="549.38" y2="383.68"/><line class="cls-7" x1="553.01" y1="384" x2="556.85" y2="384.27"/><line class="cls-7" x1="561.35" y1="384.43" x2="560.92" y2="384.49"/><line class="cls-7" x1="598.72" y1="110.5" x2="560.81" y2="106.6"/><line class="cls-7" x1="534.7" y1="108.7" x2="534.21" y2="108.75"/><line class="cls-7" x1="537.03" y1="108.39" x2="534.7" y2="108.7"/><line class="cls-7" x1="539.63" y1="108.09" x2="537.03" y2="108.39"/><line class="cls-7" x1="542.5" y1="107.78" x2="539.63" y2="108.09"/><line class="cls-7" x1="545.7" y1="107.52" x2="542.5" y2="107.78"/><line class="cls-7" x1="549.11" y1="107.27" x2="545.7" y2="107.52"/><line class="cls-7" x1="552.74" y1="107.01" x2="549.11" y2="107.27"/><line class="cls-7" x1="560.81" y1="106.6" x2="556.69" y2="106.81"/><line class="cls-7" x1="556.69" y1="106.81" x2="552.74" y2="107.01"/><line class="cls-7" x1="598.72" y1="123.11" x2="561.19" y2="113.42"/><line class="cls-7" x1="534.75" y1="115.37" x2="537.03" y2="115.06"/><line class="cls-7" x1="598.72" y1="123.82" x2="535.13" y2="115.42"/><line class="cls-7" x1="535.35" y1="115.37" x2="535.13" y2="115.42"/><line class="cls-7" x1="539.63" y1="114.75" x2="542.55" y2="114.49"/><line class="cls-7" x1="542.55" y1="114.49" x2="545.7" y2="114.24"/><line class="cls-7" x1="560.65" y1="113.42" x2="557.12" y2="113.62"/><line class="cls-7" x1="557.12" y1="113.62" x2="553.22" y2="113.83"/><line class="cls-7" x1="553.22" y1="113.83" x2="549.6" y2="114.03"/><line class="cls-7" x1="549.6" y1="114.03" x2="546.18" y2="114.29"/><line class="cls-7" x1="546.18" y1="114.29" x2="543.1" y2="114.55"/><line class="cls-7" x1="543.1" y1="114.55" x2="540.22" y2="114.8"/><line class="cls-7" x1="549.11" y1="113.98" x2="552.79" y2="113.78"/><line class="cls-7" x1="540.22" y1="114.8" x2="537.62" y2="115.06"/><line class="cls-7" x1="534.27" y1="115.41" x2="534.21" y2="109.06"/><line class="cls-7" x1="556.69" y1="113.57" x2="560.81" y2="113.37"/><line class="cls-7" x1="560.81" y1="113.37" x2="560.81" y2="106.6"/><line class="cls-7" x1="534.27" y1="115.42" x2="534.75" y2="115.37"/><line class="cls-7" x1="537.03" y1="115.06" x2="539.63" y2="114.75"/><line class="cls-7" x1="545.7" y1="114.24" x2="549.11" y2="113.98"/><line class="cls-7" x1="552.79" y1="113.78" x2="556.69" y2="113.57"/><line class="cls-7" x1="537.62" y1="115.06" x2="535.35" y2="115.37"/><line class="cls-7" x1="561.19" y1="113.42" x2="560.81" y2="113.37"/><line class="cls-7" x1="561.63" y1="87.83" x2="560.54" y2="87.96"/><line class="cls-7" x1="565.98" y1="87.56" x2="561.63" y2="87.83"/><line class="cls-7" x1="570.56" y1="87.29" x2="565.98" y2="87.56"/><line class="cls-7" x1="575.3" y1="87.09" x2="570.56" y2="87.29"/><line class="cls-7" x1="580.15" y1="86.89" x2="575.3" y2="87.09"/><line class="cls-7" x1="585.16" y1="86.76" x2="580.15" y2="86.89"/><line class="cls-7" x1="590.23" y1="86.63" x2="585.16" y2="86.76"/><line class="cls-7" x1="598.94" y1="86.49" x2="595.35" y2="86.56"/><line class="cls-7" x1="595.35" y1="86.56" x2="590.23" y2="86.63"/><line class="cls-7" x1="598.72" y1="147.22" x2="528.15" y2="147.47"/><line class="cls-7" x1="598.72" y1="163.1" x2="528.85" y2="155.41"/><line class="cls-7" x1="541.47" y1="157.24" x2="538.87" y2="156.99"/><line class="cls-7" x1="542.28" y1="157.24" x2="542.28" y2="156.93"/><line class="cls-7" x1="541.96" y1="157.18" x2="542.28" y2="157.24"/><line class="cls-7" x1="536.49" y1="156.8" x2="534.37" y2="156.61"/><line class="cls-7" x1="534.37" y1="156.61" x2="532.59" y2="156.36"/><line class="cls-7" x1="528.9" y1="155.41" x2="529.45" y2="155.67"/><line class="cls-7" x1="529.45" y1="155.67" x2="530.42" y2="155.86"/><line class="cls-7" x1="530.42" y1="155.86" x2="531.67" y2="156.11"/><line class="cls-7" x1="531.67" y1="156.11" x2="533.18" y2="156.36"/><line class="cls-7" x1="533.18" y1="156.36" x2="534.97" y2="156.55"/><line class="cls-7" x1="534.97" y1="156.55" x2="537.03" y2="156.8"/><line class="cls-7" x1="531.02" y1="156.11" x2="529.77" y2="155.92"/><line class="cls-7" x1="537.03" y1="156.8" x2="539.41" y2="156.99"/><line class="cls-7" x1="528.8" y1="155.67" x2="528.15" y2="155.41"/><line class="cls-7" x1="528.15" y1="155.41" x2="528.15" y2="147.47"/><line class="cls-7" x1="542.17" y1="157.24" x2="541.47" y2="157.24"/><line class="cls-7" x1="538.87" y1="156.99" x2="536.49" y2="156.8"/><line class="cls-7" x1="532.59" y1="156.36" x2="531.02" y2="156.11"/><line class="cls-7" x1="529.77" y1="155.92" x2="528.8" y2="155.67"/><line class="cls-7" x1="539.41" y1="156.99" x2="541.96" y2="157.18"/><line class="cls-7" x1="528.85" y1="155.41" x2="528.15" y2="155.41"/><line class="cls-7" x1="598.72" y1="131.47" x2="534.37" y2="129.34"/><line class="cls-7" x1="527.5" y1="131.28" x2="527.44" y2="131.59"/><line class="cls-7" x1="527.87" y1="130.92" x2="527.5" y2="131.28"/><line class="cls-7" x1="528.52" y1="130.61" x2="527.87" y2="130.92"/><line class="cls-7" x1="529.5" y1="130.25" x2="528.52" y2="130.61"/><line class="cls-7" x1="530.8" y1="129.94" x2="529.5" y2="130.25"/><line class="cls-7" x1="534.37" y1="129.34" x2="532.42" y2="129.64"/><line class="cls-7" x1="532.42" y1="129.64" x2="530.8" y2="129.94"/><line class="cls-7" x1="527.87" y1="139.74" x2="598.72" y2="147.1"/><line class="cls-7" x1="598.72" y1="146.8" x2="535.02" y2="137.25"/><line class="cls-7" x1="527.77" y1="139.62" x2="527.5" y2="139.32"/><line class="cls-7" x1="527.5" y1="139.32" x2="527.44" y2="131.59"/><line class="cls-7" x1="598.72" y1="147.04" x2="528.47" y2="139.68"/><line class="cls-7" x1="528.47" y1="139.68" x2="528.47" y2="138.77"/><line class="cls-7" x1="528.42" y1="139.62" x2="528.47" y2="139.68"/><line class="cls-7" x1="527.55" y1="139.01" x2="527.87" y2="138.71"/><line class="cls-7" x1="527.87" y1="138.71" x2="528.58" y2="138.4"/><line class="cls-7" x1="534.75" y1="137.25" x2="533.07" y2="137.49"/><line class="cls-7" x1="533.07" y1="137.49" x2="531.5" y2="137.79"/><line class="cls-7" x1="531.5" y1="137.79" x2="530.2" y2="138.1"/><line class="cls-7" x1="530.2" y1="138.1" x2="529.18" y2="138.4"/><line class="cls-7" x1="529.18" y1="138.4" x2="528.52" y2="138.71"/><line class="cls-7" x1="529.55" y1="138.1" x2="530.85" y2="137.79"/><line class="cls-7" x1="528.2" y1="139.01" x2="528.15" y2="139.32"/><line class="cls-7" x1="532.48" y1="137.49" x2="534.37" y2="137.19"/><line class="cls-7" x1="534.37" y1="137.19" x2="534.37" y2="129.34"/><line class="cls-7" x1="527.87" y1="139.74" x2="527.77" y2="139.62"/><line class="cls-7" x1="527.5" y1="139.32" x2="527.55" y2="139.01"/><line class="cls-7" x1="528.58" y1="138.4" x2="529.55" y2="138.1"/><line class="cls-7" x1="530.85" y1="137.79" x2="532.48" y2="137.49"/><line class="cls-7" x1="528.15" y1="139.32" x2="528.42" y2="139.62"/><line class="cls-7" x1="535.02" y1="137.25" x2="534.37" y2="137.19"/><line class="cls-7" x1="599.08" y1="192.95" x2="542.26" y2="194.29"/><line class="cls-7" x1="543.34" y1="201.57" x2="542.26" y2="201.51"/><line class="cls-7" x1="542.26" y1="201.51" x2="542.26" y2="194.29"/><line class="cls-7" x1="542.8" y1="201.51" x2="542.26" y2="201.51"/><line class="cls-7" x1="610.12" y1="450.4" x2="592.77" y2="447.1"/><line class="cls-7" x1="592.77" y1="447.1" x2="542.77" y2="437.4"/><line class="cls-7" x1="598.72" y1="386.06" x2="561.35" y2="384.43"/><line class="cls-7" x1="534.27" y1="115.42" x2="598.72" y2="123.93"/><line class="cls-7" x1="560.65" y1="113.42" x2="598.72" y2="123.26"/><line class="cls-7" x1="560.59" y1="96.76" x2="598.94" y2="110.43"/><line class="cls-7" x1="598.94" y1="110.16" x2="561.52" y2="96.76"/><line class="cls-7" x1="562.01" y1="96.76" x2="561.52" y2="96.76"/><line class="cls-7" x1="599" y1="205.28" x2="543.34" y2="201.57"/><line class="cls-7" x1="543.34" y1="201.57" x2="542.8" y2="201.51"/><line class="cls-7" x1="534.75" y1="137.25" x2="598.72" y2="146.86"/><line class="cls-7" x1="528.52" y1="138.71" x2="528.47" y2="138.77"/><line class="cls-7" x1="528.47" y1="138.77" x2="528.2" y2="139.01"/><line class="cls-7" x1="572.27" y1="224.22" x2="571.89" y2="224.22"/><line class="cls-7" x1="571.89" y1="224.22" x2="571.89" y2="217.17"/><line class="cls-7" x1="572.16" y1="224.22" x2="571.89" y2="224.22"/><line class="cls-7" x1="560.7" y1="355.19" x2="598.72" y2="351.4"/><line class="cls-7" x1="560.7" y1="362.17" x2="598.72" y2="364.5"/><line class="cls-7" x1="561.73" y1="362.23" x2="564.87" y2="362.39"/><line class="cls-7" x1="564.87" y1="362.39" x2="566.06" y2="362.44"/><line class="cls-7" x1="594.88" y1="363.09" x2="598.72" y2="363.15"/><line class="cls-7" x1="550.19" y1="639.87" x2="551.27" y2="640.13"/><line class="cls-7" x1="551.27" y1="640.13" x2="553.77" y2="640.79"/><line class="cls-7" x1="560.92" y1="607.31" x2="598.62" y2="592.58"/><line class="cls-7" x1="598.62" y1="592.58" x2="598.72" y2="592.51"/><line class="cls-7" x1="584.8" y1="618.49" x2="587.4" y2="618.69"/><line class="cls-7" x1="587.4" y1="618.69" x2="589.73" y2="618.82"/><line class="cls-7" x1="594.72" y1="619.02" x2="598.07" y2="619.09"/><line class="cls-7" x1="598.59" y1="632.28" x2="562" y2="642.37"/><line class="cls-7" x1="570.61" y1="640.46" x2="562" y2="642.37"/><line class="cls-7" x1="598.89" y1="454.79" x2="598.89" y2="468.49"/><line class="cls-7" x1="534.65" y1="375.06" x2="598.72" y2="372.52"/><path class="cls-7" d="M571.89,217.17,599.08,216s-.73,13,0,13.68l-26.81-5.41"/><line class="cls-7" x1="598.72" y1="163.1" x2="542.28" y2="156.93"/><line class="cls-7" x1="542.28" y1="156.93" x2="528.9" y2="155.41"/><line class="cls-7" x1="598.72" y1="163.1" x2="542.28" y2="156.93"/><line class="cls-7" x1="542.17" y1="157.24" x2="598.72" y2="163.1"/><line class="cls-7" x1="598.72" y1="163.1" x2="542.28" y2="157.24"/><line class="cls-7" x1="572.27" y1="224.22" x2="572.16" y2="224.22"/><line class="cls-3" x1="599.25" y1="356.21" x2="599.25" y2="351"/><line class="cls-3" x1="599.29" y1="422.05" x2="599.29" y2="430.99"/></g><g id="RICALCO"><polyline class="cls-3" points="602 576.41 607 576.57 612.17 588.07 597.67 588.07 594.83 591.24"/><path class="cls-5" d="M626.19,588.45c-.58-1.13,1.66-4.17,4.62-5.25,1.09-.4,2.33-.41,4.81-.44,3.15,0,3.26.34,5,.06a16.94,16.94,0,0,0,4.76-1.62c1.17-.56.9-.56,2.93-1.63,2.21-1.16,2.53-1.17,4.31-2.18,2-1.12,1.28-.95,2.76-1.75.88-.49,1.45-.73,1.74-1.38a3.18,3.18,0,0,0,.13-1.69c-.08-1.05-.32-1.22-.31-2.12a3.14,3.14,0,0,1,.25-1.44,3.18,3.18,0,0,1,1.75-1.5,2.61,2.61,0,0,1,2.37-.12,3.15,3.15,0,0,1,1.27,1.52,10.14,10.14,0,0,1,.3,1.79c.15,1.32-.16,1.27-.19,1.94a3.84,3.84,0,0,1-1.25,2.43,10.6,10.6,0,0,1-1.88,1.19,13.68,13.68,0,0,0-2,1.19,4.61,4.61,0,0,0-1.18,1.25,3.11,3.11,0,0,0-.57,1.56c0,.79.35,1,.44,1.88a3.93,3.93,0,0,1-.25,1.75c-.36.87-.86.9-2.12,2.06s-1.28,1.53-2.63,2.62a3.11,3.11,0,0,1-3.13.75c-.27-.05-1.5,0-3.93.07-2.73.09-2.74.12-3.88.12s-1.27,0-2.25,0c-1.51,0-1.71.11-2.68.13-1.44,0-1.4-.15-3.44-.25a28.33,28.33,0,0,1-3.5-.19C627.08,589,626.4,588.86,626.19,588.45Z"/><polyline class="cls-8" points="594.25 320.07 591.13 353.57 587 353.57"/><polyline class="cls-8" points="592 319.95 582.25 331.32 599 339.7 598.63 343.7"/><polyline class="cls-8" points="581.63 291.32 587.63 299.82 596 293.32"/><polygon class="cls-5" points="600.25 290.45 599.63 320.57 588.13 319.95 597.13 291.07 600.25 290.45"/><path class="cls-5" d="M597.14,291.12c-.34-.29.55-1.51.24-2.55a6.3,6.3,0,0,0-1.13-1.75,21.15,21.15,0,0,1-1.5-2.12,3.83,3.83,0,0,1,0-3.13,2.92,2.92,0,0,1,1.25-1.25,3.19,3.19,0,0,1,4,1.25c.42.82.1,1.43,0,2.63-.23,2.82,1,4.91.25,6.25A2.46,2.46,0,0,1,597.14,291.12Z"/><polyline class="cls-8" points="583.17 53.91 592.33 65.24 592.62 65.66 593.83 67.41 594.17 84.91 596.33 84.91"/><line class="cls-8" x1="609.5" y1="44.74" x2="593.17" y2="66.41"/><line class="cls-8" x1="586.67" y1="35.07" x2="599.33" y2="29.41"/><line class="cls-8" x1="599.33" y1="29.41" x2="622" y2="24.57"/><path class="cls-5" d="M564.5,26.07a4.06,4.06,0,0,1-.17-3,3.53,3.53,0,0,1,1.5-2,3.49,3.49,0,0,1,2.5-.33A3.61,3.61,0,0,1,570.58,22c.77,1,.6,2.22.42,3.58a5.71,5.71,0,0,1-1,2.92c-.57.76-1,.77-1.17,1.42a3.14,3.14,0,0,0,.67,2.5,4.58,4.58,0,0,0,1.5,1.25,7.7,7.7,0,0,0,2.17.83,12.53,12.53,0,0,0,3.16.33c2.73,0-3.83.51-1.52.57,1.83,0-2.93.07-2.93.12s3-2,2,.56c-.15.4.06,1,.5,2.25a16.51,16.51,0,0,0,2.08,3.92c1.34,2,2.35,1.95,3.25,3.5.63,1.09,1.84,1.17,2.58,2.67.94,1.87,3.43,1.65,3.75,3.08.14.61-3,2.44-3.33,3.17-.59,1.41-2.85,1.68-3.75,1.75-1.48.11-2-1.95-3.33-3.42a23.6,23.6,0,0,1-4.17-6.42c-2.34-5.21-4.79-10.37-4.75-12a20.71,20.71,0,0,1,.17-2.58c.22-1.29.52-1.67.33-2.42A5.2,5.2,0,0,0,566,27.74C565,26.54,564.8,26.65,564.5,26.07Z"/><path class="cls-5" d="M622.67,23.74a4.55,4.55,0,0,0,2.58-.58,5.3,5.3,0,0,0,1.17-1.42,5.71,5.71,0,0,0,.91-1.83,2.13,2.13,0,0,0,0-1.75c-.27-.4-.58-.26-1.08-.75a2.53,2.53,0,0,1-.67-1.25,3,3,0,0,1,.25-1.59c.43-1.14.79-2.09,1.67-2.33a2.12,2.12,0,0,1,2,.67,3.11,3.11,0,0,1,.5,2.5,13,13,0,0,1-.75,2.58c-.48,1.43-.51,1.46-.67,2a24.31,24.31,0,0,0-.58,2.58,33.1,33.1,0,0,0-.25,3.34,12.21,12.21,0,0,1-1.33,4.16c-2.81,6.1-2.22,17.13-6.84,19.09C616,50.69,609.49,46.5,609.42,43s5.31-4,8.25-10.42C619.43,28.72,620.37,24.13,622.67,23.74Z"/><line class="cls-8" x1="573.08" y1="35.66" x2="587" y2="34.91"/></g></svg>