<svg xmlns="http://www.w3.org/2000/svg" viewBox="0 0 628.94 649.18"><defs><style>.cls-1{fill:#cbe2c8;}.cls-1,.cls-2{opacity:0.7;}.cls-2{fill:#e4d7b7;}.cls-3,.cls-4,.cls-5{fill:none;}.cls-3,.cls-5{stroke:#000;}.cls-3,.cls-4{stroke-linecap:round;}.cls-3,.cls-4,.cls-5,.cls-6{stroke-miterlimit:10;}.cls-4{stroke:#910920;stroke-width:2px;}.cls-6{fill:#fff;stroke:#fffefd;}.cls-7{font-size:11px;fill:#1d1d1b;font-family:DejaVuSansMono, DejaVu Sans Mono;}.cls-8{letter-spacing:-0.01em;}.cls-9{letter-spacing:-0.01em;}.cls-10{letter-spacing:-0.02em;}.cls-11{letter-spacing:-0.03em;}.cls-12{letter-spacing:-0.01em;}.cls-13{letter-spacing:-0.01em;}.cls-14{letter-spacing:0.01em;}.cls-15{letter-spacing:0em;}.cls-16{font-size:12px;}</style></defs><title>Tavola disegno 1</title><g id="VERDINO"><path class="cls-1" d="M203.13,94.47a19,19,0,0,1,2.33-8c.76-1.28,1.36-1.88,4.67-5,7.31-6.91,8.24-7.66,9.33-7.33,1.6.48,2.17,2.87,3,6.33.75,3.14,1.38,5.78,0,7.67-1.62,2.21-4.63,1.52-5,3-.48,1.93,4.58,3.46,4.67,6.67.05,2.09-2,3.68-3.33,4.67-2.82,2.15-7.38,3.51-11.33,1.67a8.11,8.11,0,0,1-4-3.67C202.62,98.74,202.81,97.21,203.13,94.47Z"/><path class="cls-1" d="M244.13,159.14a21,21,0,0,1,3.33-9.33c1.41-2.1,2.77-4.14,5.33-5.33,3-1.38,4,0,8-1,4.93-1.22,7.69-4.35,8.33-3.67.5.53-.8,2.74-1,2.67s.3-4.08,2.67-7c1.75-2.15,4.89-4.22,6.33-3.33,1.69,1,1.16,6.16-1,9.67-1.45,2.34-2.55,2.22-3.67,4.67-1.42,3.1-.25,4.63-1.67,6.33-1.14,1.38-2.31.87-6.67,2-3.36.87-6.49,1.68-9.33,4-2,1.61-1.89,2.38-4,3.67-.44.27-4.64,2.78-6.33,1.33C243.58,163,243.78,161.55,244.13,159.14Z"/><path class="cls-1" d="M263.13,185.14c-.18-2.44-.87-3.13-.33-4.67.48-1.38,1.22-1.38,2.33-3,1.36-2,.89-2.93,2-5.67.73-1.79,2-4.92,3.67-5,1.91-.09,4.09,3.85,4.33,7.33.15,2.05-.39,3.73-1.33,6.67-.61,1.9-.89,2.26-2,5-2.64,6.53-2.55,8.22-4,8.67-1.71.53-4.19-1.09-5-3S263.41,188.83,263.13,185.14Z"/><path class="cls-1" d="M199.55,173.93c-1.08.5-.23,3.26-.12,9.25a52.84,52.84,0,0,1-.12,7c-.33,3-.87,4.55,0,6.5.56,1.26,1.76,2.8,2.75,2.63,1.24-.23,2.32-3.2,1.75-5.62-.37-1.56-1.27-2.3-.87-3.5.17-.5.39-.57,1.38-1.87a16.92,16.92,0,0,0,1.38-2c.15-.27,1.65-3.11.5-5.25-.28-.53-.39-.38-1.12-1.25-1.75-2.07-1.47-3.29-2.87-4.62C201.91,174.93,200.43,173.52,199.55,173.93Z"/><path class="cls-1" d="M270.42,308.43c.19-1,1.62-1.42,1.88-1.5,1-.32,1.53,0,2.63,0,1.54,0,1.65-.54,4.63-1.37,2.05-.57,3.1-.85,4-.37a2.72,2.72,0,0,1,1.5,2.63c-.18.86-1,.83-2.25,2.13-.9.91-.73,1.16-2.25,3.25-1.11,1.53-1.67,2.29-2.25,2.38s-.83-.13-3.5-2.25c-1.51-1.19-1.85-1.49-2.25-1.87C271.05,310,270.26,309.24,270.42,308.43Z"/><path class="cls-1" d="M285.17,320.93c-.42-1.57,3.33-3.8,3.88-4.12a13.16,13.16,0,0,1,4.75-1.75,11.72,11.72,0,0,1,4.13.13,13.92,13.92,0,0,1,4.5,2.13c1.73,1.05,2.59,1.58,3,2.38.66,1.29-.14,1.71.13,4.38.24,2.36,1,3.27.38,4.75a3.32,3.32,0,0,1-1,1.38,4.08,4.08,0,0,1-4.62,0,5.46,5.46,0,0,1-1.87-3.12c-.55-1.79-.09-2.43-.75-3.12s-1.94-.7-3.62-.62a35.14,35.14,0,0,0-3.87.5,3.47,3.47,0,0,1-2.25,0c-.39-.19-.47-.39-1.37-1.37C285.36,321.13,285.25,321.2,285.17,320.93Z"/><path class="cls-1" d="M317.92,264.93c-.15.5,1.72,2,3.88,2.13,1.15.06,1.64-.31,2.75,0,.38.11,1.82.51,2.13,1.5s-1,1.75-2.62,4.63c-.15.25-.64,1.29-1.62,3.38-1.38,2.91-1.53,3.34-1.5,4a4.21,4.21,0,0,0,1.88,3.38c1.7,1,3.71.14,4.63-.25a9.36,9.36,0,0,0,2.25-1.5,9.55,9.55,0,0,0,3.13-3.5,7.38,7.38,0,0,0,.63-2.12c.21-1.54-.21-2.26-.37-3.62-.37-3.06,1-5.56.75-5.62s-.62,1-.62,1a5.15,5.15,0,0,0,1.13-3.25c-.09-1-.67-2.18-1.37-2.25s-.87.8-2.37,2.13c-.27.24-1.93,1.71-2.37,1.38s.62-1.47.13-2.75a2.34,2.34,0,0,0-1.87-1.5c-1.4-.07-2.57,1.89-2.75,1.75s.52-1,.38-1.12-1.08,1-2.5,1.63C319.61,265.17,318.05,264.49,317.92,264.93Z"/><path class="cls-1" d="M324,293.3c-.48-1.52,1.11-3.22,1.38-3.5.81-.86,1.24-.75,2.63-1.87,1.23-1,1-1.17,2.13-2.12a11,11,0,0,1,4.75-2.37c.64-.14,2.15-.46,2.38,0s-1.84,1.47-2.62,3.88a4.22,4.22,0,0,0,.13,3.25c.48.87,1.42,1.59,1.88,1.38s.06-1.16.63-1.62a1.82,1.82,0,0,1,2.25.38c.42.51.18,1,0,3.13a21.24,21.24,0,0,0-.12,3.5c.14,2,.6,2.29.25,2.88-.56.93-1.93.44-4.12,1.38a10.16,10.16,0,0,0-2.37,1.5c-2.88,2.21-3.06,4-5.37,4.88-.17.06-1.91.72-2.37.13s.92-2.68,1.25-3.12c1.44-2,2.35-1.84,3-3.37a5.72,5.72,0,0,0,.25-3.37,4.47,4.47,0,0,0-.87-2,3.84,3.84,0,0,0-2.62-1.5c-.06.1.93.66.88.75S324.56,294.94,324,293.3Z"/><path class="cls-1" d="M345.8,271.18c-2.57.53-3.7,4.57-3.87,5.25a12.14,12.14,0,0,0,0,5.25,29.16,29.16,0,0,0,1.63,5.63c1,2.73,1.24,2.76,1.5,4.25.19,1.07.15,1.65.63,2,.88.65,2.68-.14,3.75-1s1.42-1.66,2.38-3.5c.81-1.56.7-1.68,1.5-3.12a9.79,9.79,0,0,1,2.13-3,9.1,9.1,0,0,1,2.5-1.5c1.39-.57,1.92-.4,2.5-1s.31-1.35.75-2.37c1-2.24,4.11-2.47,4-3.25-.08-.57-1.78-.23-3-1.5a3.68,3.68,0,0,1-1-2.87c.24-2,2.39-2.64,2.13-3.37s-3.78-1.13-5.12.5c-.63.76-.21,1.23-1,2.75-.2.39-1.33,2.54-2.75,2.5-.45,0-.53-.23-1.25-.5a6.69,6.69,0,0,0-2.87-.25C347.64,272.11,347.31,270.86,345.8,271.18Z"/><path class="cls-1" d="M315.17,315.93c-1.22.76-.4,3,0,8.75.28,4,.1,6.14,1.13,9.75.54,1.89,1.06,3,2.13,3.63a4.82,4.82,0,0,0,4.75-.12c1.06-.63,1-1.23,2.38-2.87a12.29,12.29,0,0,1,4.25-3.75c.83-.38,1-.28,5.88-.87,3.38-.41,3.7-.51,4.13-.75,2-1.13,2.67-3.35,3.25-5.25.65-2.11,1.28-4.18.13-5.75a3.79,3.79,0,0,0-2.75-1.5c-1.64-.09-2.46,1.1-4.87,2.88-1.07.79-6,4.44-8,3.13-.75-.51-.42-1.32-1.25-1.75-1.22-.63-2.32.91-4.75.88-.71,0-2.23,0-3-1-1.16-1.45.52-3.59-.62-4.87A2.39,2.39,0,0,0,315.17,315.93Z"/><path class="cls-1" d="M364.92,315.93a5.54,5.54,0,0,0-.62,4.5,9.17,9.17,0,0,0,1.63,3.38c.82,1.1,1.35,1.31,1.63,2.25a3.34,3.34,0,0,1-.25,2.63c-1.14,1.59-3.79,0-5.75,1.5-1.58,1.24-1.61,3.65-1.62,5.25s0,3.19,1.13,4.25c1.63,1.49,4.34.67,4.5.63,2.17-.68,2.25-2.2,5.75-5.37,2.42-2.2,2.63-1.7,3.38-2.87,1.14-1.79,1.17-3.9,1.25-8.12,0-1.92-.09-1.94,0-3.62.14-2.67.48-3.23,0-4s-1.66-1-4.12-1.75a10.26,10.26,0,0,0-2.87-.62A5.29,5.29,0,0,0,364.92,315.93Z"/><path class="cls-1" d="M377.3,357.3c.84-2.09,2.94-1.4,7.63-4.5,2.49-1.65,4.12-2.87,4.12-2.87,2.09-1.56,2.74-2.22,3.5-2,1.33.39,1.63,3.08,1.75,4.13a7.08,7.08,0,0,1-.37,4c-1,2.07-2.53,1.77-4.5,4.13-1.37,1.64-.74,1.92-2.37,4.38-1.82,2.72-2.62,2.39-4,4.75s-.87,3.19-2.25,4.5c-1.11,1.06-3.14,2.13-4.5,1.38-1.09-.61-1.3-2.15-1.37-2.75-.22-1.67.52-2,1-5.12.18-1.14.11-1.31.38-3,.2-1.28.32-1.74.5-2.75C377.37,358.31,376.93,358.23,377.3,357.3Z"/><path class="cls-1" d="M454,272.55c-2.33.29-3.73,3.17-4.75,5.25-.94,1.93-1.84,3.77-1,5.25s2.68,1.67,3.25,1.75c2.26.32,4.06-.83,5.5-1.75a10.88,10.88,0,0,0,3.75-3.75c.37-.64,2-3.46,1-4.75-.48-.61-1.15-.35-3.25-.75C455.5,273.23,455.36,272.39,454,272.55Z"/><path class="cls-1" d="M474.3,460.05c-.57-.18-1.31,1.6-3,3.75a19.71,19.71,0,0,1-4.75,4.63c-1.53,1-2.22,1.07-2.62,2-.2.46-.1.6-.37,3.75a3.33,3.33,0,0,1-.5,1.75c-.4.58-.76.59-1.12,1-.62.71-.38,1.62-.25,3.38.17,2.31-.17,1.89,0,4.25s.51,3,0,3.88c-.41.71-.74.54-1.62,1.63a7,7,0,0,0-1.37,2.63c-.24.95-.48,1.89,0,2.5.78,1,2.94.43,4.13.13a7.08,7.08,0,0,0,3-1.37c1-.84.94-1.36,2.38-3.25,1.2-1.58,1.8-2.37,2.25-2.25,1.11.3-.64,5.6,1.88,7.63a2.73,2.73,0,0,0,2.88.5c.88-.56.82-2,.75-3.5a10.64,10.64,0,0,0-1.62-5.62c-.62-.94-.89-1-2.37-3a10.76,10.76,0,0,1-1.37-2.12,7.46,7.46,0,0,1,0-4.37,33.15,33.15,0,0,1,1.38-3.87c1.26-4,.31-6.32,1.75-7.12.95-.53,1.76.24,2.63-.5a2.38,2.38,0,0,0,.5-2.87c-.33-.46-.7-.3-1.25-.75C474.4,461.86,474.84,460.22,474.3,460.05Z"/><path class="cls-1" d="M493.42,482.05c-.86-.41-2.38,1-3.12,2a5.06,5.06,0,0,0-1,2.25c-.26,1.65.62,2.09.38,3.75a5.76,5.76,0,0,1-1,2.38c-.94,1.39-1.81,1.5-1.75,2,.11,1,3.65,2.25,5.88.75a4.49,4.49,0,0,0,1.63-2.25c.41-1.11.13-1.47,0-5a31.3,31.3,0,0,0-.25-3.5C493.9,482.4,493.63,482.15,493.42,482.05Z"/><path class="cls-1" d="M503.92,497.93c.12-.33,1.76.45,4.25.25a11.79,11.79,0,0,0,4.75-1.5,27.88,27.88,0,0,0,3.75-2.87c2.42-2,2.9-2.6,4.13-2.87a3.73,3.73,0,0,1,3.25.5,3.67,3.67,0,0,1,.88,3.25c-.23,1.16-1.07,2-2.75,3.5a21.56,21.56,0,0,1-3,2.38c-2.07,1.36-3.19,2.09-4.87,2.25a8.34,8.34,0,0,1-4.13-.75,18.52,18.52,0,0,1-2.62-1.62C504.79,498.65,503.83,498.18,503.92,497.93Z"/><path class="cls-1" d="M539.3,596.55c-.74.87-3.3,3.87-2.25,5.75.3.54,1.16.94,2.88,1.75s2.43.9,2.5,1.38c.1.7-1.36,1-2.5,2.75-.44.68-1.06,1.65-.75,2.38.21.49.85.88,5.63,1.13,3.53.18,3.44,0,4.75.25a38.46,38.46,0,0,1,4.5,1.12,3.47,3.47,0,0,0,2.13.38,3.24,3.24,0,0,0,2-2.25c.63-2.2-1-4.91-3.12-5.87a7.9,7.9,0,0,0-3.37-.5c-1.56,0-1.84.25-3.5.25-1.47,0-3.37,0-3.75-.87-.25-.57.4-.92.75-2.37.11-.45.63-2.6-.37-3.62-.73-.75-1.52-.11-2.62-1-.83-.67-.88-1.43-1.5-1.5S539.74,596,539.3,596.55Z"/></g><g id="MARRONCINO"><path class="cls-2" d="M159.46,247.14a13.85,13.85,0,0,1,0-5.17c.52-2.27,1.37-2.49,3.17-5.83,2.17-4.06,1.52-4.84,3.33-7a12.74,12.74,0,0,1,4.83-3.5c1.78-.77,4.28-1.86,6.33-.83,1.38.69,1.15,1.62,3,3.83s2.41,1.83,5.17,4.33A24.61,24.61,0,0,1,190,238.3a18.15,18.15,0,0,1,2.5,6.17c.41,2.07.61,3.1,0,3.83-1.19,1.42-3.78-.33-6.67,1.33a6.79,6.79,0,0,0-2.33,2.33,8.6,8.6,0,0,0-1.17,5.33c.06,1.38.17,3.71,1.5,4.33.68.32,1.28,0,2.5-.33a15.34,15.34,0,0,1,6.17-.5c2.88.53,4.67,2.94,5.33,3.83s2.91,3.93,2,7.33a5.79,5.79,0,0,1-2.5,3.67c-2.54,1.4-4.46-1.11-7.5,0-1.74.63-1.25,1.5-4.83,4.17-3.1,2.3-4.28,2.26-4.83,2.17s-1.37-.38-3-2.17a24.7,24.7,0,0,1-3.67-5.5c-2.34-4.36-2.16-3.34-4.67-8-2.21-4.13-2-4.2-3.33-6.33-2.15-3.36-2.76-3.18-4-5.67A21.08,21.08,0,0,1,159.46,247.14Z"/><path class="cls-2" d="M214,227.3c1.58-2.51,0-6.14,0-11.5,0-3.5.68-2.57,1-7.83a73.6,73.6,0,0,0,0-9c-.34-4.56-.95-5.44-.17-7.17s1.92-2.07,5-4.33a38.35,38.35,0,0,0,7.17-6.33c1.65-2,2.71-4.46,4.83-9.33s2-5.67,3.5-7.67c1.34-1.8,3.5-4.7,7-5.17,3.75-.49,6.76,2.1,8,3.17,1.87,1.61,2.26,2.78,5.5,8.67,2.93,5.32,4.39,8,5.5,9.33,3.83,4.66,5.75,3.89,8,7.83,1.25,2.19,1.66,4.51,2.5,9.17a74.41,74.41,0,0,1,1,8.83c.36,5.23.59,8.66,0,13.17-.44,3.41-.72,2.56-1.67,8.17-.81,4.81-.74,6.21-2,8.17-.37.57-2.59,4-6,4.17-2.53.11-4.4-1.67-6.67-3.83-2.58-2.46-2.46-3.41-6.67-8.5-2.28-2.75-3.18-3.52-4.17-4.17a22.27,22.27,0,0,0-5.83-2.33c-3.35-1-5-1.57-6.5-1.5-1.19.06-5,.45-6.83,3.17-1,1.57-.27,2.18-1.33,4.5a9.92,9.92,0,0,1-5,5c-.71.29-3.64,1.48-5.5,0a3.33,3.33,0,0,1-.67-4.67Z"/><path class="cls-2" d="M214.63,134.8c-.09-1.48-.22-3.78,1.33-5.67a7.2,7.2,0,0,1,4.67-2.33A10,10,0,0,1,226.8,128c2.81,1.46,2.5,2.82,5.5,4.5,1.31.74,3.68,2.06,6,1.33.4-.13,1-.37,3.67-3.17,3.09-3.21,3.07-3.67,4.33-4.5,1.43-.95,3-1.2,6-1.67a57.52,57.52,0,0,1,8-.5c7-.13,8,.27,8.83.83a6.61,6.61,0,0,1,3,5.33c-.19,3.62-4.82,6-8.67,8-3.68,1.9-4.78,1.59-9.17,4-2.87,1.58-2.52,1.78-5.33,3.33-5.05,2.79-5.69,1.88-10.17,4.33-3.84,2.11-5.38,3.88-7.17,3.17-.61-.25-1.3-1-2.67-2.5-1.1-1.21-1.74-2.08-2.33-2.83-2.09-2.67-3.13-4-4.5-5-2.86-2.08-4.35-1-6-3A7.87,7.87,0,0,1,214.63,134.8Z"/><path class="cls-2" d="M305.13,358.8c-.13-.57.06-1,2.83-5s3.22-4.57,3.83-5.17a19,19,0,0,1,4.33-3.17,20.26,20.26,0,0,1,6-2,21.91,21.91,0,0,1,7.33,0c3.28.57,3.78,1.48,6.33,1.33a12.4,12.4,0,0,0,4.5-1.17c2.46-1.2,2.5-2.31,4.17-2.67,2.31-.49,4.48,1.17,5.33,1.83a11.67,11.67,0,0,1,3.83,6c1,3,.2,3.47,1,7.17.53,2.45.9,2.35,2.67,7.33,1.51,4.27,2.27,6.44,2.17,8.33,0,.7-.11.94-2.17,6.83-1.88,5.41-2.1,6-2.67,7.17A20.85,20.85,0,0,1,351,391.3c-1.5,1.59-3.11,3.28-5.67,3.83s-4.87-.36-7.17-1.33a14.21,14.21,0,0,1-4.83-3c-.77-.75-3.72-3.64-3.67-7.5a15.57,15.57,0,0,1,1.17-4.83,27.59,27.59,0,0,0,1.33-3.67,19.93,19.93,0,0,0,0-4.83,19.23,19.23,0,0,0-.67-4.5,4.61,4.61,0,0,0-.83-2c-1.06-1-2.66-.36-6.17,0a35.92,35.92,0,0,1-5.67.17,27,27,0,0,1-6.17-1.17C308,361.16,305.51,360.46,305.13,358.8Z"/><path class="cls-2" d="M316.8,500c.09-3.33.13-5,.33-7.17a30.92,30.92,0,0,1,1-6.33c.76-2.61,1.22-4.21,2.67-5.67a8.92,8.92,0,0,1,7.5-2.5c2,.36,4.81,1.65,5.67,4,.61,1.68-.11,3,.83,3.83.75.66,1.83.38,3.33.17,1.12-.16,5.56-.79,9,.33.49.16,4.37,1.47,4.5,3.67.11,1.85-2.51,3.39-3.83,4.17-3.39,2-4.92,1-7.33,3a8.93,8.93,0,0,0-2.83,4.33,12,12,0,0,0,0,4.67c.49,4.52,1.39,5.36.67,6.83a4.82,4.82,0,0,1-4.33,2.5c-2-.11-2.13-1.77-4.67-2.5a9.38,9.38,0,0,0-5.5.33c-1.73.67-2.33,1.56-4.17,1.67a3.38,3.38,0,0,1-2.33-.5c-.48-.37-1-1.08-1.17-3.33a20.62,20.62,0,0,1,.5-5.17C316.85,504.87,316.66,505.24,316.8,500Z"/><path class="cls-2" d="M360.8,491a16.59,16.59,0,0,1,4.17-4c1.91-1.29,2.2-.92,4.5-2.33a40.79,40.79,0,0,0,4.5-3.5c1.45-1.21,2.64-2.21,4.17-3.67,2.54-2.42,2.48-2.76,3.83-3.67a15.07,15.07,0,0,1,4.67-2,30.51,30.51,0,0,1,6.17-.83c5.36-.41,5.36-.07,7.83-.5,3.51-.61,3.62-1.31,5.67-1.17a13.07,13.07,0,0,1,6,2.33c3,1.8,2.66,2.57,4.67,3.5,2.68,1.24,3.74.11,8,.67a18.23,18.23,0,0,1,8.17,2.83,14.19,14.19,0,0,1,5.33,6.5c.54,1.41,1.13,3,.5,4.5-.78,1.89-2.5,1.43-4.5,3.5-1.81,1.87-1,2.89-3.5,7-1.32,2.18-2,3.28-3.33,3.67-1.94.57-3-1-4.5-.33s-.85,2.54-2.83,5a7.82,7.82,0,0,1-3.67,2.67,7,7,0,0,1-4.5,0c-1.76-.65-1.65-1.56-3.5-2.33a10.05,10.05,0,0,0-4.33-.5c-3.11,0-3.14.55-5.33.5a10.52,10.52,0,0,1-6.33-1.83c-1.52-1.17-1.18-1.83-2.5-2.67-1.67-1.06-3.27-.65-6.83-.33-5.94.53-5.21-.27-8.33.33-4.33.84-5.15,2.28-8.17,1.83a9.27,9.27,0,0,1-4.33-1.83,9.69,9.69,0,0,1-3-4.17,8.72,8.72,0,0,1-.83-4.67A9.43,9.43,0,0,1,360.8,491Z"/><path class="cls-2" d="M471.3,500.47c.58-1.25,2.14-1.63,10.5-2.33a78.75,78.75,0,0,1,10.17-.5,36.13,36.13,0,0,1,6.5.67c4.5.95,4.74,2.11,9.67,3.67,5.1,1.61,6.34.84,10.33,2.83,2,1,3.64,1.85,4.83,3.67,1.42,2.17.77,3.55,1.33,8a32.14,32.14,0,0,0,3.17,10.83,53.1,53.1,0,0,0,4.17,6.17c2.2,3,3,3.76,4.5,6.17,2.1,3.31,3.15,5,3,6.5-.26,2.64-2.67,2.71-6,7.17-2.77,3.71-2,4.81-4.67,7.5-1.68,1.66-1.86,1.12-5.5,4-3.48,2.76-3.58,3.48-5.67,4.5a16,16,0,0,1-6.17,1.5,25.39,25.39,0,0,1-7.17-.67,37.54,37.54,0,0,1-7-1.83c-4.22-1.6-6.52-2.44-8.17-4.5-3.12-3.92-2.45-10.35-.17-14.5,1.8-3.28,3.1-2.39,8-8.17a56.33,56.33,0,0,0,5.67-8.17c2.77-4.54,3.28-6.35,3.33-8.17,0-1.25.11-3.5-1.33-5.17s-2.89-1.37-7.5-2.33a84.15,84.15,0,0,1-8.5-2.33,52.47,52.47,0,0,1-8.17-3.5c-7-3.77-8.34-6.73-8.67-7.5C471.3,502.78,470.79,501.57,471.3,500.47Z"/></g><g id="NERO"><path class="cls-3" d="M93.3,237.3a15.27,15.27,0,0,0,7.75,4c4,.7,7.48-.49,9.75-1.25,3.42-1.15,3.33-1.89,5.75-2.25.71-.1,5.43-.8,8.5,2,1.95,1.77,1.25,3.14,2.75,4,2.5,1.43,5-2,11.75-3.75.26-.07,3.85-.46,11-1.25,6-.66,6-.66,6.5-.75,5.77-1.14,7.49-2.84,9.75-1.75s3,3.76,3.25,4.5c.7,2.26-.22,2.67.5,5.5a13.78,13.78,0,0,0,2.5,5,7,7,0,0,0,2,2c2.22,1.3,3.58-.23,5.75.75,1.77.81,1.31,2,4,4.25,1.54,1.27,2.5,2.06,3.75,2,2.13-.1,2.37-2.57,5-3.25,1.47-.38,2.72,0,4.75.75,1,.35,2,.8,5.5,3,2.46,1.54,3.69,2.31,4.25,2.75,3.31,2.58,3.55,4.63,5.5,6.75,2.46,2.68,4.26,1.79,15.25,4.75,8,2.17,8.23,3,11.75,3,4.87.07,5.21-1.42,10.25-1,3.74.32,6.5,1.38,8.25-.25.71-.66.48-1,1.25-2.5,1.29-2.44,2.69-2.83,6.25-6,1.76-1.56,3-2.85,4.75-4.75a58.31,58.31,0,0,0,4-4.5c2.59-3.39,2.6-4.6,4.25-5.25s2.27.44,4.75,0c3.3-.58,3.94-2.85,5.75-2.5s1.82,3.09,4.25,5.25c1.93,1.72,4.23,2,7.75,2.25a122.72,122.72,0,0,0,14.75.5c16.16-.46,18.92,2.6,23.75-.75,3.14-2.17,5.26-5.75,6.75-8.25,3.18-5.34,2.83-8,5.75-9.75,3.34-2,5.41.52,9.5-1.25,4.78-2.07,3.64-6.23,8-8.75,5.86-3.38,10.77,2.49,16.5-1,2.81-1.71,1.43-3,7.25-9.25,2.54-2.73,3.83-3.58,5.5-6.25s2.16-4.78,3-7a30.59,30.59,0,0,1,8-11.5"/><path class="cls-3" d="M229.3,381.3a16.86,16.86,0,0,0,7-4.75c1.49-1.75,1.4-2.47,3.5-5.25a21.84,21.84,0,0,1,5.25-5.5c3.39-2.29,5-1.35,6.75-3.5,1.62-1.94.54-2.94,2.25-5.5,1.32-2,3.1-3.08,5.75-4.75s3.56-1.78,4.5-3.25a7.61,7.61,0,0,0,1-4c.2-3.86-1.39-5.27-1.75-10,0-.13,0-.1,0-3.5,0-8,0-9-.25-10.75-.38-2.61-.63-4.21-1.75-6-1-1.64-1.69-1.71-2.75-3.5A12.66,12.66,0,0,1,257,305.3c0-.58,0-2.34,2-7,2.24-5.12,3.11-4.92,4-8,.47-1.63.56-3.76.75-8,.26-5.91-.16-6.19.5-7.75.43-1,1-1.92,6-6.25,2-1.78,4.77-9.48,6-10.5"/><path class="cls-3" d="M114.46,273.8c1.15-2.81,2-5.2,2.67-7a26.07,26.07,0,0,0,1.67-6,13.38,13.38,0,0,0,0-5c-.36-1.79,4.67-8.24,11.17-11.5"/><path class="cls-3" d="M291.8,370.47c2.75-.16,6.17.1,8,2.33,2.51,3.07,1.33,4.35,1.63,4.38s-.19.6-.47,1a16.17,16.17,0,0,0-3.16,6.95c-.37,2.58.67,2.94.33,5.67s-1.46,2.87-2.67,6.67a17.79,17.79,0,0,0-1,7,16.7,16.7,0,0,0,1.33,5.33c1.18,2.9,2.2,5.41,4.33,6,1,.27,2.32,0,5-.67,1.07-.25,1-.3,2.5-.67,1.75-.44,3-.66,4.83-1,3.91-.71,4.45-.63,5-.33.93.51.7,1,2,2,1.06.79,1.5.65,3.17,1.5a9.69,9.69,0,0,1,3,2c1,1.08.79,1.6,2,3.67a20.53,20.53,0,0,0,2.17,3,24.64,24.64,0,0,0,3.67,3.5,34.66,34.66,0,0,0,4.5,3c3.11,1.76,3.68,1.51,4.33,2.5,1.55,2.35,0,3.25.63,3.47s-.92,2.69-1.19,2.44,0,.77-2.77.59c-1.6-.1-2.11-1.23-3.67-1-1.33.2-1.28,1.06-2.67,1.67-2.62,1.14-4.45-1.22-7.67,0a4.46,4.46,0,0,0-1.5.83c-1.92,1.69-.79,4.07-1.67,6.83-1.29,4.07-5.14,3.35-6.67,7.83a12.26,12.26,0,0,0-.33,5.67c.34,2.39,1,2.63,1.67,5.33a16.32,16.32,0,0,1,.33,7.5c-.7,3.15-2,3-2.67,6.17s.42,3.65-.33,6.83a12.78,12.78,0,0,1-2.67,5.5c-2.54,3-5,2.53-5.5,4.5s1.7,2.79,2.5,6.17c.56,2.36-.13,4.52-1.5,8.83-1.31,4.12-2.07,6.49-4.33,8.67a16,16,0,0,1-4.83,3,30.73,30.73,0,0,1-9.33,2.67"/><path class="cls-3" d="M322.8,562.8a16.36,16.36,0,0,1,7-3c3.23-.52,6.11.1,9.5.83,4.6,1,5.6,1.92,8.33,1.5a17.66,17.66,0,0,0,5-1.83A45.5,45.5,0,0,0,358.3,557c6.23-4,5.39-3.27,7.67-4.83,5.38-3.69,4.88-4.14,7.17-5,3.07-1.16,4.57-.59,7.17-2.33a14.66,14.66,0,0,0,3.33-3.33,33.54,33.54,0,0,0,4.17-7c1.8-3.78,1.45-4,3-7,1.63-3.13,2.45-4.69,4.17-5.83,2-1.35,4.12-1.41,7.17-1.5,4-.11,4.75.74,8.83.67a17.74,17.74,0,0,0,6.83-1c2.48-1,4-2.69,7.83-8.17,4.85-6.9,4.57-7.27,7.17-10.67,3.26-4.26,3.41-3.31,9-9.83,4.32-5,6.37-8.1,8-11.5,1.39-2.88,2.08-4.32,2.17-6.33.18-4-1.9-6.27-.5-8.67.55-.94,1.31-1.35,2.83-2.17,3.72-2,5.53-.8,8.17-2.33,1-.6,1.28-1.09,4.33-5.67,0,0,2.5-3.76,4.5-6.67s5.3-6.34,11.83-9.5"/><path class="cls-3" d="M422.13,521.3a10.74,10.74,0,0,0-.83,3.67,11.58,11.58,0,0,0,2.5,7.5c1.26,1.52,1.73,1.17,2.5,2.5,1.36,2.33.21,3.89,1.5,5.33a4.53,4.53,0,0,0,4.67,1c1.83-.68,1.46-2.26,3.5-3.5,2.28-1.39,3.84-.1,5.17-1.5s.28-2.77,1.67-4.33a5.77,5.77,0,0,1,3-1.5c3.23-1,4.3,0,7-1,1.22-.46,1-.65,3.17-1.67a19.63,19.63,0,0,1,4-1.5c.81-.16,2.77-.39,6.83,1.67,5.06,2.57,4.87,4.37,9.5,6.83a32.48,32.48,0,0,0,7.5,2.67,33.23,33.23,0,0,0,9,1.5,33.82,33.82,0,0,0,9-1.33,62.49,62.49,0,0,0,6.83-2.17c3.06-1.11,3.23-1.36,6.67-2.67,4.26-1.62,6.44-2.43,8.5-2.5a16.47,16.47,0,0,1,6.83,1.33,14.39,14.39,0,0,1,6.67,4.83c.57.8,1.74,2.47,1.17,3.67-.39.83-1.3.75-1.5,1.5-.28,1.06,1.44,1.67,2,3.67a4.44,4.44,0,0,1-.33,3.33c-.66,1-1.61,1.06-4,2.17-.63.29-1.53.81-3.33,1.83-3.73,2.13-5.6,3.19-6.33,4.33-1.34,2.07-1.7,5.41-.17,7.33,1,1.28,2.85,1.58,6.5,2.17s4.61.17,6.17,1c1.88,1,2.53,2.65,3.83,5.33A101,101,0,0,0,549,586.47c2.45,3.48,4.62,5.58,3.83,7.33-.63,1.41-2.6,1.31-2.67,2.17-.15,2,11.06,2.86,12.17,7.67.41,1.77-.7,3.42.33,4.33s2.39-.25,4,.5c1.21.56,1.49,1.68,2.67,4.67a68.41,68.41,0,0,0,3.5,7.67c1.5,2.74,2.28,4.13,3.67,4.83s2.38.51,6.5.17c1.94-.16,4.18-.34,6.67-.5"/><path class="cls-3" d="M316.92,470.18c1-.68,5-3.54,7.21-4.37,1.69-.64,2.38-.69,4.17-1.33a27.34,27.34,0,0,0,5.5-2.67c1.8-1.2,2.32-2.09,5.5-6a89.46,89.46,0,0,1,6.17-7.17c3.39-3.36,5.14-5.05,7.67-5.33,2.37-.26,3.36.83,5.5,0,1.45-.56,2.27-1.56,3.83-3.5,1.69-2.1,1.79-2.83,3.67-5.67a51.77,51.77,0,0,1,4.17-5.5c2.11-2.41,3.16-3.61,4.83-4.67a14.75,14.75,0,0,1,8.33-2.33,34.78,34.78,0,0,1,6,1.5c4.43,1.29,5.11,1.72,7.67,2.17a15.41,15.41,0,0,0,5.83.17,7.53,7.53,0,0,0,4-1.67c1.28-1.18,1.75-2.72,2.33-4.67.74-2.45.34-2.82,1-3.67,1.32-1.69,4.2-1.88,6.17-1.5,2.65.52,2.72,1.91,5.83,2.67,1.22.3,3.31.81,5.17-.17,1.4-.74,1.58-1.75,3-3.5a16.6,16.6,0,0,1,4.83-4"/></g><g id="ROSSO"><path class="cls-4" d="M221.8,401.47a10.18,10.18,0,0,1,5.33-5.67c3.51-1.38,7,.12,9,1,3.46,1.5,3.89,3,8,5.33,3,1.7,4.58,2.37,6.33,2.67a9.59,9.59,0,0,0,5.33-.33,8.83,8.83,0,0,0,3.33-2.33c1.87-2.11,1.21-3.44,2.67-4.67,2.2-1.84,5.91-.64,6.33-.5,2.3.78,3.67,2.4,5.17,4.17,2.5,3,2.33,4.35,4.33,5.33a7.81,7.81,0,0,0,4.5.5c1.57-.19,2.49-.69,4.83-1.83,4.09-2,6.13-3,7-3.17,1.6-.31,3.45-.1,7.17.33a55.06,55.06,0,0,0,5.67.67,25,25,0,0,0,5.17-.33,37.67,37.67,0,0,0,5.5-1.67c3.93-1.25,3.94-.88,7.33-2,3.19-1,4.82-1.6,6.5-3a9.69,9.69,0,0,0,3.17-4.17c.64-1.77.32-2.9.17-5.5a46.64,46.64,0,0,1,.5-9.17,23.76,23.76,0,0,1,2.5-7.83c2.39-4.39,4.54-4.42,5.67-8.17a12.83,12.83,0,0,0,.17-6.33c-.3-1.49-.94-4.61-3.33-6.5-1.64-1.29-2.69-.89-8.33-1.67-5-.68-7.52-1.05-10.33-2.5a16.33,16.33,0,0,1-5.5-4.33c-2-2.48-2.57-4.84-3.67-9.33-1-4-1.47-6-1-7.83a10.79,10.79,0,0,1,7.67-7.5c3-.7,6,.34,9.83,1.67,2.77,1,3,1.45,4.5,1.5,1,0,3-.11,8.17-4,4.2-3.15,3.87-3.79,7-5.67,2.7-1.62,5.27-3.1,7.83-2.33,1.46.44,2.22,1.39,3.17,1s1.3-2.15,1.5-3.67c.29-2.2,0-3.2-.17-5.67a17.13,17.13,0,0,1,.33-6,12.2,12.2,0,0,1,3.67-5.67,12.54,12.54,0,0,1,5.83-2.83c3.25-.61,3.94.66,9.17.83,2.73.09,4.78.14,7.17-.83a15.67,15.67,0,0,0,5-3.5,23.07,23.07,0,0,0,4.5-5.67c1.78-3.28,1.17-4.69,2.33-12.33.79-5.17,1.29-8.33,2.83-12.33.55-1.41.33-.63,3.17-7a32.75,32.75,0,0,1,3.17-6.17c1.49-2.14,2.89-4.08,5-4.33,1.62-.2,1.82.82,3.83.83,2.18,0,2.59-1.18,5.83-2.17a11,11,0,0,1,5.17-.67c2.73.44,3,2,5.33,2.5s3.67-.58,7.5-2a72.18,72.18,0,0,1,8.67-2.33c9-2,11.58,3.29,23.17,2.67a31.53,31.53,0,0,0,11.5-2.5c3.11-1.36,2.65-1.83,9.17-5.5,4.84-2.73,6.24-3.11,8.67-5.33a24.24,24.24,0,0,0,4.5-5.5,32,32,0,0,0,2.5-5.83c1.53-4.22,1.31-4.89,2.33-6.83a17.2,17.2,0,0,1,4.67-5.33,27.84,27.84,0,0,1,11.5-5.67"/><path class="cls-4" d="M200.13,343.8a41.28,41.28,0,0,0,5.67-4.5,23.89,23.89,0,0,0,4.33-5,26,26,0,0,0,2.17-4.67c1.18-3,1.77-4.51,1.67-6.17-.14-2.27-1.26-2.51-1.67-4.5s.29-3.52,3.83-9.67c4.26-7.39,4.78-7.77,5-9.67.31-2.64-.62-2.51-.67-8,0-3.69.39-3.75.17-6.83-.17-2.39-.5-3.44,0-5.17s1.06-1.63,2-3.67a19.41,19.41,0,0,0,1.5-6.67c.32-3.16-.1-3.57.5-5.33a10.92,10.92,0,0,1,2.5-4c1.37-1.4,2.45-1.73,6.5-3.5,6-2.63,5.74-2.81,6.67-2.83,4.32-.1,6.24,3.94,8.5,3,1.14-.48,1.12-1.7,2.5-6.67s2.15-7.67,3.83-10.33,2.33-2.24,3.67-4.67c2.1-3.8,2.06-7.61,2-10.33-.06-2.93-.66-5.27-1.83-9.83-1-3.7-1.87-6.46-3.67-11.83-3-8.9-3.1-8.44-3.5-10.67-.9-5-.45-8.62-1.83-9-.82-.22-1.78.83-2.83,2a24.63,24.63,0,0,0-4,6.67c-1.59,3.08-4.51,4.66-10.33,7.83A52.9,52.9,0,0,1,222,204.14a50.14,50.14,0,0,1-9.17,2c-5.22.6-7.83.9-10.17,0-5.82-2.24-3.89-8.91-12.33-21.83-3.59-5.5-5.39-8.25-7.5-10.67s-3.74-3.83-4.83-6.67c-1-2.5-.71-3.88-2.17-5.67a10.17,10.17,0,0,0-5-3c-3.8-1.32-5-.2-9.17-1.67a15.81,15.81,0,0,1-3.83-1.83,22.8,22.8,0,0,1-4-3.67c-1.43-1.5-2.75-3.07-2.83-3.17-1.79-2.12-2.1-2.73-3.17-3.33a6.76,6.76,0,0,0-3.33-.83c-.53,0-2.47.07-6.33,3-3,2.25-2.57,2.77-5.33,4.67a24.85,24.85,0,0,1-5,2.67c-2,.76-2.45.62-3.83,1.17-.92.36-2.42,1.09-5.67,4.5-3.76,3.94-5.63,5.91-6.33,8.17-1.12,3.62.23,5.61-1.67,7.67a7.94,7.94,0,0,1-4,2,10.83,10.83,0,0,1-6.17,0c-.94-.3-2.19-.69-2.33-1.5s1-1.44,2.17-2.83a11.29,11.29,0,0,0,2-4.67c.63-3.44-1.95-4.49-3.83-11-.73-2.53-1.24-4.34-.83-6.67.45-2.61,1.5-2.74,2.33-5.67.31-1.1,1.73-6-.83-9.17a7.75,7.75,0,0,0-4-2.33c-4.49-1.39-7.46.79-8.83-.83-.68-.81,0-1.4-.67-4.17A11,11,0,0,0,83.8,125c-1.58-2.28-3.27-1.67-6.33-4.17-2.28-1.86-1.56-2.37-3.5-3.67-2.17-1.45-3.14-.86-6.83-2.5A26,26,0,0,1,63,112.3a17.19,17.19,0,0,1-4.33-3.83c-1.19-1.57-2.76-3.63-2.5-6s1.94-2.5,4.5-6.67C62.19,93.27,63,92,63,90.47c0-2.5-1.77-3.18-5.33-8.5-2.13-3.18-3.21-4.82-3.5-7.17A13.49,13.49,0,0,1,55,68.64c.6-1.73,1-2.08,3.33-6,1.93-3.31,2.89-5,3.17-6a13.93,13.93,0,0,0-.67-8.5,16.63,16.63,0,0,0-3.17-5c-2-2.23-2.69-2-3.5-3.33-1.26-2.06-.21-3.78.83-9.67,0-.2.47-3.91,1.33-11.33.29-2.48.52-4.51.67-5.83"/><path class="cls-4" d="M220.63,284.8c1.34-.41,5.05-1.54,7.5-1.33,3.66.31,4.35,1.77,8.83,3.17,4.27,1.33,4.17.16,11,1.67,3.82.84,4.68,1.39,6.67,1a12.46,12.46,0,0,0,6.33-3.83c1.66-1.84,1.33-2.57,3-4.17a12.21,12.21,0,0,1,5.17-2.83c1.07-.32,7-2.08,9.5.67,1.37,1.49.39,2.82,1.83,5.17.9,1.47,2,2.1,5.5,4,8.24,4.47,8.57,4.45,9.5,5.5,2,2.29,1,2.95,3.83,7.17a29.79,29.79,0,0,0,5,5.67,31.13,31.13,0,0,0,6,4c2.76,1.51,4.14,2.26,6,2.5,2,.26,2.69-.24,5.5-.17,2.16.05,7.73,4.06,8.83,4.33"/></g><g id="MACCHINE"><path d="M310.49,505.94c-.78,1.35-5,13.55-6,15.71a2.58,2.58,0,0,1-.47.7,2.41,2.41,0,0,1-1,.62,2.58,2.58,0,0,1-1.16.06,6.9,6.9,0,0,1-1.68-.46,22,22,0,0,1-2.55-1.07c-.91-.46-.7-.45-1.1-.62a1.75,1.75,0,0,1-.67-.47l-.07-.08a2.2,2.2,0,0,1-.39-.94,3.16,3.16,0,0,1,0-.78,3.25,3.25,0,0,1,.1-.64h0l6-15.71c.08-.12.27-.62.43-.85.39-.59.42-.67.55-.78s.22-.16,1-.25a6,6,0,0,1,1.29-.07,5.56,5.56,0,0,1,1.46.21c.62.2.6.18,1.24.39a4.19,4.19,0,0,1,1.14.51c.26.14.19.05,1.13.87a2.82,2.82,0,0,1,.66.84,2.59,2.59,0,0,1,.35.9,3.14,3.14,0,0,1,0,.78A3.51,3.51,0,0,1,310.49,505.94Z"/><line class="cls-5" x1="301.5" y1="502.26" x2="295.52" y2="517.97"/><path class="cls-5" d="M301.5,502.26c.08-.12.27-.62.43-.85.39-.59.42-.67.55-.78s.22-.16,1-.25a6,6,0,0,1,1.29-.07,5.56,5.56,0,0,1,1.46.21c.62.2.6.18,1.24.39a4.19,4.19,0,0,1,1.14.51c.26.14.19.05,1.13.87a2.82,2.82,0,0,1,.66.84,2.59,2.59,0,0,1,.35.9,3.14,3.14,0,0,1,0,.78,3.51,3.51,0,0,1-.28,1.12c-.78,1.35-5,13.55-6,15.71a2.58,2.58,0,0,1-.47.7,2.41,2.41,0,0,1-1,.62,2.58,2.58,0,0,1-1.16.06,6.9,6.9,0,0,1-1.68-.46,22,22,0,0,1-2.55-1.07c-.91-.46-.7-.45-1.1-.62a1.75,1.75,0,0,1-.67-.47l-.07-.08a2.2,2.2,0,0,1-.39-.94,3.16,3.16,0,0,1,0-.78,3.25,3.25,0,0,1,.1-.64v0"/><path class="cls-6" d="M301,506.87c.43-.62,2.11-.1,3,.17.53.17,3.93,1.25,3.83,2.35a6.48,6.48,0,0,1-.59,1l-.54.77c-.2.28-.31.42-.46.45s-.32-.11-.5-.26a7.22,7.22,0,0,0-1.19-.71,8.07,8.07,0,0,0-1.12-.45,9,9,0,0,0-1.33-.41c-.3-.05-.59-.17-.89-.24a.54.54,0,0,1-.33-.15c-.12-.15-.08-.34-.05-.67,0-.6,0-.56,0-1A2,2,0,0,1,301,506.87Z"/><path class="cls-6" d="M304,519.4c-.44.61-2.11.06-3-.23-.53-.18-3.91-1.32-3.79-2.42a6.47,6.47,0,0,1,.6-1l.56-.76c.21-.28.31-.42.47-.44s.32.12.49.27a7.23,7.23,0,0,0,1.18.73,8.07,8.07,0,0,0,1.11.47,9,9,0,0,0,1.32.43c.3.06.59.18.89.25a.54.54,0,0,1,.33.16c.12.15.07.34,0,.67-.06.59,0,.56,0,1A2,2,0,0,1,304,519.4Z"/><path class="cls-6" d="M304.57,501.6c0-.11-.25-.07-.78-.09s-.77-.1-1,0a.76.76,0,0,0-.31.47.55.55,0,0,0,.09.47.44.44,0,0,0,.28.11,1.88,1.88,0,0,0,1-.29,1.53,1.53,0,0,0,.43-.26C304.37,502,304.62,501.74,304.57,501.6Z"/><path class="cls-6" d="M308.61,503.29s0,.05.13.66a4.3,4.3,0,0,0,.17.52,2,2,0,0,0,.35.55c.15.16.22.25.35.26A.48.48,0,0,0,310,505a.57.57,0,0,0,0-.3.83.83,0,0,0-.15-.36,1.77,1.77,0,0,0-.19-.25,2.53,2.53,0,0,0-.4-.36C308.88,503.39,308.67,503.24,308.61,503.29Z"/><path d="M309.68,507.76c.1,0,.18.06.33.21a.88.88,0,0,1,.22.29.87.87,0,0,1,.07.34c0,.17,0,.3-.07.38a.3.3,0,0,1-.22.06.45.45,0,0,1-.3-.13l-.12-.16-.14-.21a.88.88,0,0,1-.1-.22C309.33,508.09,309.49,507.78,309.68,507.76Z"/><path d="M300.87,504.13c-.05-.05-.22,0-.54,0s-.41.09-.48.14-.21.18-.18.36a.34.34,0,0,0,.15.21.56.56,0,0,0,.42.08l.22-.07.28-.1A.49.49,0,0,0,300.87,504.13Z"/><path d="M551.57,589.4c1,1.22,10.78,9.6,12.42,11.33a2.55,2.55,0,0,1,.48.7,2.41,2.41,0,0,1,.22,1.12,2.57,2.57,0,0,1-.36,1.1,7,7,0,0,1-1,1.39,22,22,0,0,1-1.93,2c-.76.68-.67.49-1,.8a1.76,1.76,0,0,1-.69.45l-.1,0a2.2,2.2,0,0,1-1,0,3.17,3.17,0,0,1-.74-.24,3.35,3.35,0,0,1-.56-.33h0l-12.43-11.33c-.08-.12-.47-.48-.64-.71-.41-.58-.47-.64-.52-.8s-.07-.26.14-1a6,6,0,0,1,.41-1.22,5.54,5.54,0,0,1,.74-1.28c.42-.5.38-.49.82-1a4.19,4.19,0,0,1,.89-.88c.22-.19.11-.15,1.22-.74a2.8,2.8,0,0,1,1-.3,2.58,2.58,0,0,1,1,0,3.14,3.14,0,0,1,.72.3A3.49,3.49,0,0,1,551.57,589.4Z"/><line class="cls-5" x1="544.85" y1="596.41" x2="557.28" y2="607.74"/><path class="cls-5" d="M544.85,596.41c-.08-.12-.47-.48-.64-.71-.41-.58-.47-.64-.52-.8s-.07-.26.14-1a6,6,0,0,1,.41-1.22,5.54,5.54,0,0,1,.74-1.28c.42-.5.38-.49.82-1a4.19,4.19,0,0,1,.89-.88c.22-.19.11-.15,1.22-.74a2.8,2.8,0,0,1,1-.3,2.58,2.58,0,0,1,1,0,3.14,3.14,0,0,1,.72.3,3.49,3.49,0,0,1,.94.67c1,1.22,10.78,9.6,12.42,11.33a2.55,2.55,0,0,1,.48.7,2.41,2.41,0,0,1,.22,1.12,2.57,2.57,0,0,1-.36,1.1,7,7,0,0,1-1,1.39,22,22,0,0,1-1.93,2c-.76.68-.67.49-1,.8a1.76,1.76,0,0,1-.69.45l-.1,0a2.2,2.2,0,0,1-1,0,3.17,3.17,0,0,1-.74-.24,3.35,3.35,0,0,1-.56-.33l0,0"/><path class="cls-6" d="M549,598.53c-.41-.63.68-2,1.25-2.69.35-.43,2.61-3.2,3.59-2.7a6.48,6.48,0,0,1,.74.92l.51.79c.19.29.28.44.25.59s-.22.26-.42.37a7.22,7.22,0,0,0-1.1.85,8.07,8.07,0,0,0-.83.88,9,9,0,0,0-.87,1.09c-.16.26-.37.49-.55.74a.54.54,0,0,1-.26.25c-.18.06-.34,0-.64-.2-.54-.26-.54-.16-1-.39A2,2,0,0,1,549,598.53Z"/><path class="cls-6" d="M561.71,600.39c.4.64-.72,2-1.3,2.67-.36.43-2.67,3.15-3.64,2.63a6.47,6.47,0,0,1-.72-.93l-.5-.8c-.18-.29-.27-.45-.24-.6s.23-.25.43-.36a7.23,7.23,0,0,0,1.11-.83,8.07,8.07,0,0,0,.84-.86,9,9,0,0,0,.89-1.07c.17-.26.38-.48.56-.73a.54.54,0,0,1,.26-.25c.18-.06.34.06.64.21.53.27.54.17,1,.41A2,2,0,0,1,561.71,600.39Z"/><path class="cls-6" d="M545.36,593.32c-.12,0-.15.2-.37.69s-.38.68-.33.92a.76.76,0,0,0,.32.46.55.55,0,0,0,.47.09.44.44,0,0,0,.21-.22,1.88,1.88,0,0,0,.1-1,1.53,1.53,0,0,0-.09-.49C545.63,593.63,545.51,593.32,545.36,593.32Z"/><path class="cls-6" d="M548.41,590.18s0,.06.66.12a4.3,4.3,0,0,0,.54,0,2,2,0,0,0,.64-.12c.21-.08.31-.12.36-.23a.48.48,0,0,0-.14-.49.57.57,0,0,0-.27-.14.83.83,0,0,0-.39,0,1.77,1.77,0,0,0-.31.09,2.53,2.53,0,0,0-.48.24C548.61,590,548.39,590.1,548.41,590.18Z"/><path d="M553,590.83c0-.09.12-.14.32-.23a.88.88,0,0,1,.35-.1.87.87,0,0,1,.35.06c.16.05.29.09.33.2a.3.3,0,0,1,0,.22.45.45,0,0,1-.23.23l-.2,0-.25.05a.88.88,0,0,1-.24,0C553.15,591.27,552.92,591,553,590.83Z"/><path d="M546.36,597.69c-.07,0-.1.19-.18.51s-.07.42,0,.49.09.26.27.3a.34.34,0,0,0,.25-.07.56.56,0,0,0,.22-.36,2.21,2.21,0,0,0,0-.23c0-.19,0-.28,0-.3C546.86,597.81,546.53,597.61,546.36,597.69Z"/><path d="M155,245.2c-1.55-.15-14.4,1-16.78,1a2.58,2.58,0,0,1-.84-.14,2.4,2.4,0,0,1-1-.62,2.56,2.56,0,0,1-.54-1,6.9,6.9,0,0,1-.27-1.72,22,22,0,0,1-.08-2.76c0-1,.12-.82.11-1.26a1.77,1.77,0,0,1,.16-.81l0-.09a2.19,2.19,0,0,1,.7-.74,3.09,3.09,0,0,1,.69-.37,3.25,3.25,0,0,1,.63-.17h0l16.78-1c.14,0,.68,0,1,0a3.42,3.42,0,0,1,.94.19c.08,0,.23.13.65.83a6,6,0,0,1,.59,1.14,5.53,5.53,0,0,1,.41,1.42c.07.65.09.62.16,1.29a4.2,4.2,0,0,1,0,1.25,4.32,4.32,0,0,1-.33,1.39,2.82,2.82,0,0,1-.49.94,2.59,2.59,0,0,1-.68.69,3.14,3.14,0,0,1-.72.31A3.51,3.51,0,0,1,155,245.2Z"/><line class="cls-5" x1="154.68" y1="235.5" x2="137.9" y2="236.52"/><path class="cls-5" d="M154.68,235.5c.14,0,.68,0,1,0a3.42,3.42,0,0,1,.94.19c.08,0,.23.13.65.83a6,6,0,0,1,.59,1.14,5.53,5.53,0,0,1,.41,1.42c.07.65.09.62.16,1.29a4.2,4.2,0,0,1,0,1.25,4.32,4.32,0,0,1-.33,1.39,2.82,2.82,0,0,1-.49.94,2.59,2.59,0,0,1-.68.69,3.14,3.14,0,0,1-.72.31,3.51,3.51,0,0,1-1.14.21c-1.55-.15-14.4,1-16.78,1a2.58,2.58,0,0,1-.84-.14,2.4,2.4,0,0,1-1-.62,2.56,2.56,0,0,1-.54-1,6.9,6.9,0,0,1-.27-1.72,22,22,0,0,1-.08-2.76c0-1,.12-.82.11-1.26a1.77,1.77,0,0,1,.16-.81l0-.09a2.19,2.19,0,0,1,.7-.74,3.09,3.09,0,0,1,.69-.37,3.25,3.25,0,0,1,.63-.17h0"/><path class="cls-6" d="M150.29,237c.74.14,1,1.88,1.06,2.77.06.55.48,4.1-.56,4.45a6.48,6.48,0,0,1-1.18-.11l-.92-.18c-.34-.07-.51-.1-.6-.24s0-.34,0-.56a7.22,7.22,0,0,0,.16-1.38,8.07,8.07,0,0,0-.06-1.21,9,9,0,0,0-.17-1.38c-.08-.3-.09-.61-.15-.91a.54.54,0,0,1,0-.36c.08-.17.27-.21.59-.32.56-.2.49-.28,1-.42A2,2,0,0,1,150.29,237Z"/><path class="cls-6" d="M140.08,244.82c-.74-.16-.92-1.9-1-2.79-.05-.55-.4-4.11.64-4.45a6.47,6.47,0,0,1,1.17.13l.92.2c.34.07.51.11.59.25s0,.34,0,.56a7.23,7.23,0,0,0-.18,1.38,8.07,8.07,0,0,0,0,1.21,9,9,0,0,0,.15,1.38c.07.3.08.61.13.91a.54.54,0,0,1,0,.36c-.09.17-.28.21-.59.31-.57.19-.5.27-1,.4A2,2,0,0,1,140.08,244.82Z"/><path class="cls-6" d="M156.54,238c.08-.08,0-.25-.24-.74s-.22-.75-.42-.88a.76.76,0,0,0-.55-.09.55.55,0,0,0-.39.28.44.44,0,0,0,0,.31c0,.08.11.31.68.79a1.53,1.53,0,0,0,.42.28C156.13,238,156.44,238.13,156.54,238Z"/><path class="cls-6" d="M156.67,242.4s-.07,0-.55.39a4.3,4.3,0,0,0-.4.37,2,2,0,0,0-.36.54c-.09.2-.13.31-.09.42a.48.48,0,0,0,.45.24.57.57,0,0,0,.29-.09.83.83,0,0,0,.26-.29,1.77,1.77,0,0,0,.15-.28,2.53,2.53,0,0,0,.16-.51C156.69,242.69,156.74,242.44,156.67,242.4Z"/><path d="M153,245.21c0,.08,0,.19-.06.39a.88.88,0,0,1-.17.32.87.87,0,0,1-.28.21c-.15.08-.27.14-.37.09a.3.3,0,0,1-.14-.17.45.45,0,0,1,0-.32l.1-.17.14-.21a.88.88,0,0,1,.16-.18C152.59,245,152.94,245.05,153,245.21Z"/><path d="M152.71,235.69c0-.07-.06-.21-.24-.48s-.25-.34-.32-.38a.43.43,0,0,0-.4,0,.34.34,0,0,0-.12.22.56.56,0,0,0,.1.41l.15.17.21.22A.49.49,0,0,0,152.71,235.69Z"/><path d="M402.37,516.61c1.52-.35,13.32-5.56,15.59-6.29a2.58,2.58,0,0,1,.84-.13,2.41,2.41,0,0,1,1.1.28,2.56,2.56,0,0,1,.83.8,6.91,6.91,0,0,1,.81,1.54,22,22,0,0,1,1,2.59c.28,1,.15.82.29,1.23a1.77,1.77,0,0,1,.11.82s0,0,0,.1a2.2,2.2,0,0,1-.43.92,3.16,3.16,0,0,1-.54.57,3.29,3.29,0,0,1-.54.36h0l-15.59,6.29c-.14,0-.64.22-.92.27a3.43,3.43,0,0,1-.95.12c-.09,0-.26-.05-.88-.58a6,6,0,0,1-.92-.9,5.49,5.49,0,0,1-.84-1.22c-.27-.59-.28-.56-.56-1.17a4.2,4.2,0,0,1-.41-1.18,4.32,4.32,0,0,1-.13-1.42,2.83,2.83,0,0,1,.17-1.05,2.59,2.59,0,0,1,.42-.87,3.15,3.15,0,0,1,.58-.52A3.49,3.49,0,0,1,402.37,516.61Z"/><line class="cls-5" x1="405.78" y1="525.7" x2="421.37" y2="519.41"/><path class="cls-5" d="M405.78,525.7c-.14,0-.64.22-.92.27a3.43,3.43,0,0,1-.95.12c-.09,0-.26-.05-.88-.58a6,6,0,0,1-.92-.9,5.49,5.49,0,0,1-.84-1.22c-.27-.59-.28-.56-.56-1.17a4.2,4.2,0,0,1-.41-1.18,4.32,4.32,0,0,1-.13-1.42,2.83,2.83,0,0,1,.17-1.05,2.59,2.59,0,0,1,.42-.87,3.15,3.15,0,0,1,.58-.52,3.49,3.49,0,0,1,1-.56c1.52-.35,13.32-5.56,15.59-6.29a2.58,2.58,0,0,1,.84-.13,2.41,2.41,0,0,1,1.1.28,2.56,2.56,0,0,1,.83.8,6.91,6.91,0,0,1,.81,1.54,22,22,0,0,1,1,2.59c.28,1,.15.82.29,1.23a1.77,1.77,0,0,1,.11.82s0,0,0,.1a2.2,2.2,0,0,1-.43.92,3.16,3.16,0,0,1-.54.57,3.29,3.29,0,0,1-.54.36l0,0"/><path class="cls-6" d="M409.47,522.9c-.75.1-1.51-1.48-1.89-2.29-.24-.5-1.75-3.73-.88-4.4a6.48,6.48,0,0,1,1.15-.27l.93-.12c.34,0,.52-.06.64,0s.14.31.15.54a7.22,7.22,0,0,0,.29,1.36,8.07,8.07,0,0,0,.44,1.13,9,9,0,0,0,.6,1.25c.17.26.28.55.43.82a.54.54,0,0,1,.11.34c0,.19-.19.29-.46.49-.47.37-.38.42-.77.7A2,2,0,0,1,409.47,522.9Z"/><path class="cls-6" d="M416.67,512.23c.75-.09,1.48,1.51,1.84,2.33.23.51,1.69,3.77.8,4.42a6.47,6.47,0,0,1-1.15.25l-.93.11c-.35,0-.52.05-.64,0s-.13-.32-.14-.54a7.23,7.23,0,0,0-.27-1.36,8.07,8.07,0,0,0-.41-1.13,9,9,0,0,0-.58-1.26c-.16-.26-.27-.55-.42-.82a.54.54,0,0,1-.11-.35c0-.19.2-.28.46-.49.48-.36.39-.41.78-.68A2,2,0,0,1,416.67,512.23Z"/><path class="cls-6" d="M403.22,523.9c0,.11.12.23.46.63s.45.64.68.7a.76.76,0,0,0,.55-.09.55.55,0,0,0,.28-.39.44.44,0,0,0-.11-.29c0-.07-.2-.26-.89-.53a1.53,1.53,0,0,0-.48-.14C403.62,523.8,403.28,523.77,403.22,523.9Z"/><path class="cls-6" d="M401.71,519.79s.07,0,.4-.55a4.3,4.3,0,0,0,.27-.48,2,2,0,0,0,.17-.63c0-.22,0-.33,0-.43a.48.48,0,0,0-.5-.09.57.57,0,0,0-.25.18.83.83,0,0,0-.16.35,1.77,1.77,0,0,0-.06.31,2.53,2.53,0,0,0,0,.54C401.6,519.52,401.62,519.78,401.71,519.79Z"/><path d="M404.26,516c-.07-.06-.07-.17-.07-.39a.88.88,0,0,1,.06-.36.87.87,0,0,1,.2-.29c.12-.12.21-.22.32-.21a.3.3,0,0,1,.19.12.45.45,0,0,1,.11.31,1.84,1.84,0,0,1,0,.2c0,.13,0,.19-.06.24a.88.88,0,0,1-.1.22C404.74,516,404.4,516.09,404.26,516Z"/><path d="M407.59,524.9c0,.07.13.18.38.38s.34.25.43.26a.43.43,0,0,0,.39-.12.34.34,0,0,0,0-.25.56.56,0,0,0-.23-.36l-.2-.11-.26-.14C407.92,524.5,407.59,524.71,407.59,524.9Z"/><path d="M299.58,396.35c.09,1.55,3.27,14.06,3.61,16.42a2.58,2.58,0,0,1,0,.85,2.42,2.42,0,0,1-.46,1,2.58,2.58,0,0,1-.93.69,6.91,6.91,0,0,1-1.65.54,22,22,0,0,1-2.72.51c-1,.12-.83,0-1.26.08a1.76,1.76,0,0,1-.82,0l-.1,0a2.2,2.2,0,0,1-.84-.57,3.17,3.17,0,0,1-.47-.63,3.3,3.3,0,0,1-.27-.59h0l-3.61-16.42c0-.14-.11-.67-.11-.95a3.42,3.42,0,0,1,0-1c0-.08.1-.25.72-.77a6.05,6.05,0,0,1,1-.76,5.55,5.55,0,0,1,1.34-.62c.63-.17.6-.18,1.25-.35a4.19,4.19,0,0,1,1.23-.2,4.3,4.3,0,0,1,1.42.11,2.83,2.83,0,0,1,1,.34,2.6,2.6,0,0,1,.79.56,3.15,3.15,0,0,1,.41.66A3.49,3.49,0,0,1,299.58,396.35Z"/><line class="cls-5" x1="290.05" y1="398.2" x2="293.66" y2="414.62"/><path class="cls-5" d="M290.05,398.2c0-.14-.11-.67-.11-.95a3.42,3.42,0,0,1,0-1c0-.08.1-.25.72-.77a6.05,6.05,0,0,1,1-.76,5.55,5.55,0,0,1,1.34-.62c.63-.17.6-.18,1.25-.35a4.19,4.19,0,0,1,1.23-.2,4.3,4.3,0,0,1,1.42.11,2.83,2.83,0,0,1,1,.34,2.6,2.6,0,0,1,.79.56,3.15,3.15,0,0,1,.41.66,3.49,3.49,0,0,1,.39,1.09c.09,1.55,3.27,14.06,3.61,16.42a2.58,2.58,0,0,1,0,.85,2.42,2.42,0,0,1-.46,1,2.58,2.58,0,0,1-.93.69,6.91,6.91,0,0,1-1.65.54,22,22,0,0,1-2.72.51c-1,.12-.83,0-1.26.08a1.76,1.76,0,0,1-.82,0l-.1,0a2.2,2.2,0,0,1-.84-.57,3.17,3.17,0,0,1-.47-.63,3.3,3.3,0,0,1-.27-.59v0"/><path class="cls-6" d="M292.2,402.3c0-.75,1.71-1.24,2.57-1.48.54-.15,4-1.11,4.49-.13a6.48,6.48,0,0,1,.07,1.18s0,.34,0,.94c0,.35,0,.52-.14.63s-.33.08-.56.06a7.22,7.22,0,0,0-1.39.06,8.07,8.07,0,0,0-1.18.24,9,9,0,0,0-1.34.38c-.28.12-.59.18-.88.29a.54.54,0,0,1-.36.05c-.18-.05-.25-.24-.41-.53-.29-.52-.35-.44-.56-.87A2,2,0,0,1,292.2,402.3Z"/><path class="cls-6" d="M301.52,411.18c0,.75-1.73,1.21-2.6,1.43-.54.14-4,1-4.49.05a6.47,6.47,0,0,1-.05-1.18s0-.34.05-.94c0-.35,0-.52.15-.62s.33-.08.56,0a7.23,7.23,0,0,0,1.39,0,8.07,8.07,0,0,0,1.19-.22,9,9,0,0,0,1.34-.36c.29-.12.59-.17.88-.27a.54.54,0,0,1,.36,0c.18.06.25.24.4.54.28.53.34.45.54.88A2,2,0,0,1,301.52,411.18Z"/><path class="cls-6" d="M292.25,396c-.1-.07-.24.08-.7.35s-.7.34-.8.56a.76.76,0,0,0,0,.56c0,.05.12.3.33.34a.44.44,0,0,0,.3-.06c.07,0,.29-.15.68-.79a1.53,1.53,0,0,0,.21-.45C292.29,396.38,292.37,396.05,292.25,396Z"/><path class="cls-6" d="M296.56,395.16s0,.07.47.48a4.3,4.3,0,0,0,.42.34,2,2,0,0,0,.59.27c.21.06.32.09.43,0a.48.48,0,0,0,.17-.48.57.57,0,0,0-.13-.27.83.83,0,0,0-.32-.21,1.77,1.77,0,0,0-.3-.11,2.53,2.53,0,0,0-.53-.08C296.84,395.1,296.59,395.09,296.56,395.16Z"/><path d="M299.9,398.32c.08-.06.18,0,.39,0a.88.88,0,0,1,.34.12.87.87,0,0,1,.25.25c.1.14.18.24.15.35a.3.3,0,0,1-.15.17.45.45,0,0,1-.32.05l-.19-.07-.23-.1a.88.88,0,0,1-.2-.13C299.79,398.79,299.76,398.44,299.9,398.32Z"/><path d="M290.54,400.11c-.07,0-.19.1-.44.31s-.3.3-.32.38a.43.43,0,0,0,.05.4.34.34,0,0,0,.24.09.56.56,0,0,0,.39-.17l.15-.18.18-.24C290.89,400.51,290.73,400.15,290.54,400.11Z"/><path d="M392,228.63c-1.51.37-13.22,5.79-15.48,6.55a2.58,2.58,0,0,1-.84.14,2.41,2.41,0,0,1-1.11-.26,2.58,2.58,0,0,1-.85-.79,6.9,6.9,0,0,1-.83-1.53,22,22,0,0,1-1-2.58c-.3-1-.16-.82-.31-1.22a1.76,1.76,0,0,1-.12-.81V228a2.21,2.21,0,0,1,.41-.93,3.19,3.19,0,0,1,.53-.58,3.25,3.25,0,0,1,.53-.37h0l15.48-6.55c.14,0,.64-.23.91-.28a3.39,3.39,0,0,1,.94-.14c.09,0,.27,0,.89.56a6,6,0,0,1,.94.88,5.53,5.53,0,0,1,.86,1.2c.28.59.29.55.58,1.16a4.18,4.18,0,0,1,.43,1.18,4.27,4.27,0,0,1,.16,1.42,2.82,2.82,0,0,1-.15,1.05,2.58,2.58,0,0,1-.41.88,3.14,3.14,0,0,1-.57.53A3.51,3.51,0,0,1,392,228.63Z"/><line class="cls-5" x1="388.43" y1="219.6" x2="372.95" y2="226.16"/><path class="cls-5" d="M388.43,219.6c.14,0,.64-.23.91-.28a3.39,3.39,0,0,1,.94-.14c.09,0,.27,0,.89.56a6,6,0,0,1,.94.88,5.53,5.53,0,0,1,.86,1.2c.28.59.29.55.58,1.16a4.18,4.18,0,0,1,.43,1.18,4.27,4.27,0,0,1,.16,1.42,2.82,2.82,0,0,1-.15,1.05,2.58,2.58,0,0,1-.41.88,3.14,3.14,0,0,1-.57.53,3.51,3.51,0,0,1-1,.58c-1.51.37-13.22,5.79-15.48,6.55a2.58,2.58,0,0,1-.84.14,2.41,2.41,0,0,1-1.11-.26,2.58,2.58,0,0,1-.85-.79,6.9,6.9,0,0,1-.83-1.53,22,22,0,0,1-1-2.58c-.3-1-.16-.82-.31-1.22a1.76,1.76,0,0,1-.12-.81V228a2.21,2.21,0,0,1,.41-.93,3.19,3.19,0,0,1,.53-.58,3.25,3.25,0,0,1,.53-.37l0,0"/><path class="cls-6" d="M384.79,222.46c.74-.11,1.53,1.46,1.92,2.26.25.5,1.82,3.7,1,4.39a6.48,6.48,0,0,1-1.15.29l-.93.14c-.34,0-.52.07-.64,0s-.14-.31-.16-.54a7.22,7.22,0,0,0-.31-1.35,8.07,8.07,0,0,0-.45-1.12,9,9,0,0,0-.62-1.24c-.17-.26-.29-.54-.45-.81a.54.54,0,0,1-.12-.34c0-.19.19-.29.45-.5.46-.38.37-.42.76-.71A2,2,0,0,1,384.79,222.46Z"/><path class="cls-6" d="M377.77,233.25c-.75.1-1.5-1.48-1.88-2.29-.24-.5-1.75-3.74-.87-4.41a6.47,6.47,0,0,1,1.15-.27l.93-.12c.34,0,.52-.06.64,0s.14.31.15.54a7.23,7.23,0,0,0,.29,1.36,8.07,8.07,0,0,0,.43,1.13,9,9,0,0,0,.6,1.25c.17.26.28.55.43.82a.54.54,0,0,1,.11.34c0,.19-.19.29-.46.49-.47.37-.38.42-.77.7A2,2,0,0,1,377.77,233.25Z"/><path class="cls-6" d="M391,221.36c0-.11-.12-.23-.47-.62s-.46-.63-.69-.69a.76.76,0,0,0-.55.1.55.55,0,0,0-.28.39.44.44,0,0,0,.12.28c0,.07.2.26.9.52a1.53,1.53,0,0,0,.49.13C390.63,221.47,391,221.49,391,221.36Z"/><path class="cls-6" d="M392.61,225.44s-.07,0-.39.55a4.3,4.3,0,0,0-.26.48,2,2,0,0,0-.16.63c0,.22,0,.33.05.43a.48.48,0,0,0,.51.08.57.57,0,0,0,.24-.18.83.83,0,0,0,.15-.36,1.77,1.77,0,0,0,0-.31,2.53,2.53,0,0,0,0-.54C392.72,225.71,392.69,225.46,392.61,225.44Z"/><path d="M390.12,229.31c.07.06.08.17.08.38a.88.88,0,0,1-.05.36.87.87,0,0,1-.2.29c-.12.13-.21.22-.32.21a.3.3,0,0,1-.19-.11.45.45,0,0,1-.11-.31,1.84,1.84,0,0,1,0-.2c0-.13,0-.19.06-.25a.88.88,0,0,1,.09-.22C389.64,229.29,390,229.19,390.12,229.31Z"/><path d="M386.64,220.44c0-.07-.13-.17-.39-.37s-.35-.24-.43-.25a.43.43,0,0,0-.38.12.34.34,0,0,0,0,.25.56.56,0,0,0,.24.36l.2.11.27.14C386.32,220.84,386.64,220.63,386.64,220.44Z"/><text class="cls-7" transform="translate(405.77 191.27)"><tspan class="cls-8">A</tspan><tspan x="6.57" y="0">s</tspan><tspan class="cls-9" x="13.19" y="0">c</tspan><tspan x="19.75" y="0">oli</tspan></text><text class="cls-7" transform="translate(301.03 255.71)"><tspan class="cls-9">C</tspan><tspan x="6.56" y="0">as</tspan><tspan class="cls-8" x="19.8" y="0">t</tspan><tspan x="26.37" y="0">el di </tspan><tspan class="cls-10" x="66.1" y="0">L</tspan><tspan x="72.56" y="0">u</tspan><tspan class="cls-9" x="79.18" y="0">c</tspan><tspan x="85.74" y="0">o</tspan></text><text class="cls-7" transform="translate(92.01 207.05)"><tspan class="cls-11">P</tspan><tspan x="6.34" y="0">a</tspan><tspan class="cls-12" x="12.96" y="0">r</tspan><tspan class="cls-13" x="19.48" y="0">c</tspan><tspan x="26.04" y="0">o Nazionale </tspan></text><text class="cls-7" transform="translate(92.01 221.45)">dei <tspan class="cls-14" x="26.49" y="0">M</tspan><tspan x="33.17" y="0">o</tspan><tspan class="cls-15" x="39.79" y="0">n</tspan><tspan x="46.37" y="0">ti Sibillini</tspan></text><text class="cls-7" transform="translate(320.52 480.92)"><tspan class="cls-11">P</tspan><tspan x="6.34" y="0">a</tspan><tspan class="cls-12" x="12.96" y="0">r</tspan><tspan class="cls-8" x="19.48" y="0">c</tspan><tspan x="26.05" y="0">o Nazionale del</tspan><tspan x="0" y="14.4">G</tspan><tspan class="cls-8" x="6.62" y="14.4">r</tspan><tspan x="13.19" y="14.4">an Sasso</tspan><tspan class="cls-16" x="66.17" y="14.4"> </tspan></text></g></svg>