<svg xmlns="http://www.w3.org/2000/svg" width="420mm" height="229.02mm" viewBox="0 0 1190.55 649.18">
  <defs>
    <style>
      .cls-1 {
        fill: #cbe2c8;
      }

      .cls-1, .cls-2 {
        opacity: 0.7;
      }

      .cls-2 {
        fill: #e4d7b7;
      }

      .cls-3, .cls-4, .cls-5 {
        fill: none;
      }

      .cls-3, .cls-5 {
        stroke: #000;
      }

      .cls-3, .cls-4 {
        stroke-linecap: round;
      }

      .cls-3, .cls-4, .cls-5, .cls-6 {
        stroke-miterlimit: 10;
      }

      .cls-4 {
        stroke: #910920;
        stroke-width: 2px;
      }

      .cls-6 {
        fill: #fff;
        stroke: #fffefd;
      }

      .cls-7 {
        font-size: 11px;
        fill: #1d1d1b;
        font-family: DejaVuSansMono, DejaVu Sans Mono;
      }

      .cls-8 {
        letter-spacing: -0.01em;
      }

      .cls-9 {
        letter-spacing: -0.01em;
      }

      .cls-10 {
        letter-spacing: -0.02em;
      }

      .cls-11 {
        letter-spacing: -0.03em;
      }

      .cls-12 {
        letter-spacing: -0.01em;
      }

      .cls-13 {
        letter-spacing: -0.01em;
      }

      .cls-14 {
        letter-spacing: 0.01em;
      }

      .cls-15 {
        letter-spacing: 0em;
      }

      .cls-16 {
        font-size: 12px;
      }
    </style>
  </defs>
  <g id="VERDINO">
    <path class="cls-1" d="M475.6,94.47a19,19,0,0,1,2.34-8c.75-1.28,1.36-1.88,4.66-5,7.31-6.91,8.24-7.66,9.34-7.33,1.59.48,2.17,2.87,3,6.33.75,3.14,1.38,5.78,0,7.67-1.63,2.21-4.64,1.52-5,3-.48,1.93,4.58,3.46,4.66,6.66.06,2.09-2,3.68-3.33,4.67-2.82,2.15-7.38,3.51-11.33,1.67a8.1,8.1,0,0,1-4-3.67C475.1,98.74,475.28,97.21,475.6,94.47Z"/>
    <path class="cls-1" d="M516.6,159.14a21.09,21.09,0,0,1,3.34-9.34c1.41-2.1,2.77-4.13,5.33-5.33,3-1.38,4,0,8-1,4.93-1.22,7.69-4.35,8.33-3.67.5.53-.79,2.74-1,2.67s.3-4.08,2.67-7c1.75-2.15,4.89-4.22,6.33-3.33,1.69,1,1.16,6.16-1,9.66-1.44,2.35-2.55,2.22-3.66,4.67-1.42,3.1-.26,4.62-1.67,6.33-1.15,1.38-2.31.87-6.67,2-3.35.87-6.49,1.68-9.33,4-2,1.61-1.89,2.38-4,3.67-.44.27-4.64,2.78-6.33,1.33C516.05,163.05,516.25,161.55,516.6,159.14Z"/>
    <path class="cls-1" d="M535.6,185.14c-.18-2.44-.86-3.13-.33-4.67.48-1.38,1.22-1.38,2.33-3,1.37-2,.89-2.93,2-5.67.73-1.79,2-4.92,3.67-5,1.91-.08,4.08,3.85,4.33,7.34.15,2.05-.39,3.73-1.33,6.66-.61,1.9-.89,2.26-2,5-2.64,6.54-2.55,8.22-4,8.67-1.71.53-4.2-1.09-5-3S535.88,188.83,535.6,185.14Z"/>
    <path class="cls-1" d="M472,173.93c-1.08.5-.24,3.26-.13,9.25a51.07,51.07,0,0,1-.12,7c-.33,3-.87,4.55,0,6.5.56,1.26,1.76,2.8,2.75,2.62,1.23-.22,2.32-3.19,1.75-5.62-.37-1.56-1.28-2.3-.88-3.5.17-.5.4-.57,1.38-1.88a16.43,16.43,0,0,0,1.37-2c.15-.27,1.65-3.11.5-5.25-.28-.53-.39-.38-1.12-1.25-1.75-2.07-1.47-3.28-2.88-4.62C474.38,174.93,472.9,173.52,472,173.93Z"/>
    <path class="cls-1" d="M542.89,308.43c.2-1,1.62-1.42,1.88-1.5,1-.32,1.53,0,2.62,0,1.54,0,1.65-.55,4.63-1.38,2.05-.57,3.1-.85,4-.37a2.71,2.71,0,0,1,1.5,2.62c-.18.86-1,.83-2.25,2.13-.9.91-.73,1.15-2.25,3.25-1.11,1.52-1.67,2.29-2.25,2.37s-.83-.13-3.5-2.25a28.91,28.91,0,0,1-2.25-1.87C543.52,310,542.73,309.24,542.89,308.43Z"/>
    <path class="cls-1" d="M557.64,320.93c-.41-1.57,3.34-3.8,3.88-4.13a13.38,13.38,0,0,1,4.75-1.75,11.8,11.8,0,0,1,4.12.13,13.88,13.88,0,0,1,4.5,2.12c1.73,1.06,2.6,1.58,3,2.38.67,1.29-.14,1.71.13,4.37.23,2.36,1,3.27.37,4.75a3.25,3.25,0,0,1-1,1.38,4.08,4.08,0,0,1-4.62,0,5.52,5.52,0,0,1-1.88-3.13c-.55-1.79-.08-2.43-.75-3.12s-1.94-.71-3.62-.63a34.7,34.7,0,0,0-3.88.5,3.47,3.47,0,0,1-2.25,0c-.39-.19-.47-.39-1.37-1.37C557.83,321.13,557.72,321.2,557.64,320.93Z"/>
    <path class="cls-1" d="M590.39,264.93c-.14.5,1.73,2,3.88,2.12,1.15.07,1.64-.31,2.75,0,.38.11,1.82.52,2.12,1.5s-1,1.76-2.62,4.63c-.15.25-.64,1.29-1.63,3.37-1.38,2.92-1.53,3.34-1.5,4a4.21,4.21,0,0,0,1.88,3.38c1.7,1,3.71.14,4.62-.25a9.2,9.2,0,0,0,2.25-1.5,9.62,9.62,0,0,0,3.13-3.5,7.28,7.28,0,0,0,.62-2.13c.21-1.54-.2-2.26-.37-3.62-.38-3.07,1-5.56.75-5.63s-.63,1-.63,1a5.12,5.12,0,0,0,1.13-3.25c-.09-1-.67-2.18-1.38-2.25s-.87.8-2.37,2.13c-.28.24-1.93,1.7-2.38,1.37s.62-1.47.13-2.75a2.34,2.34,0,0,0-1.88-1.5c-1.4-.06-2.57,1.9-2.75,1.75s.53-1,.38-1.12-1.09,1-2.5,1.62C592.08,265.17,590.52,264.49,590.39,264.93Z"/>
    <path class="cls-1" d="M596.52,293.3c-.48-1.52,1.11-3.22,1.37-3.5.81-.86,1.24-.75,2.63-1.87,1.22-1,1-1.17,2.12-2.13a11,11,0,0,1,4.75-2.37c.65-.14,2.15-.46,2.38,0s-1.84,1.47-2.63,3.87a4.26,4.26,0,0,0,.13,3.25c.47.87,1.42,1.59,1.87,1.38s.06-1.16.63-1.63a1.82,1.82,0,0,1,2.25.38c.41.5.18,1,0,3.12a21.32,21.32,0,0,0-.13,3.5c.14,2,.6,2.3.25,2.88-.56.93-1.92.43-4.12,1.37a10.38,10.38,0,0,0-2.38,1.5c-2.87,2.21-3,4-5.37,4.88-.17.06-1.91.72-2.38.12s.93-2.67,1.25-3.12c1.45-2,2.35-1.85,3-3.38a5.64,5.64,0,0,0,.25-3.37,4.44,4.44,0,0,0-.87-2,3.86,3.86,0,0,0-2.63-1.5c0,.1.93.66.88.75S597,294.94,596.52,293.3Z"/>
    <path class="cls-1" d="M618.27,271.18c-2.57.53-3.7,4.57-3.88,5.25a12.22,12.22,0,0,0,0,5.25A29.09,29.09,0,0,0,616,287.3c1,2.74,1.24,2.77,1.5,4.25.19,1.08.15,1.66.62,2,.89.65,2.68-.14,3.75-1s1.42-1.66,2.38-3.5c.81-1.55.7-1.68,1.5-3.12a9.77,9.77,0,0,1,2.12-3,9.22,9.22,0,0,1,2.5-1.5c1.4-.57,1.93-.4,2.5-1s.32-1.35.75-2.38c1-2.23,4.12-2.47,4-3.25-.08-.57-1.77-.23-3-1.5a3.71,3.71,0,0,1-1-2.87c.24-2,2.39-2.65,2.13-3.38s-3.78-1.13-5.13.5c-.63.77-.2,1.23-1,2.75-.2.39-1.32,2.54-2.75,2.5-.45,0-.53-.23-1.25-.5a6.69,6.69,0,0,0-2.87-.25C620.12,272.11,619.78,270.86,618.27,271.18Z"/>
    <path class="cls-1" d="M587.64,315.93c-1.21.76-.4,3,0,8.75.29,4.05.11,6.14,1.13,9.75.54,1.89,1.06,3,2.12,3.62a4.84,4.84,0,0,0,4.75-.12c1.06-.63,1.05-1.23,2.38-2.88a12.34,12.34,0,0,1,4.25-3.75c.83-.38,1-.28,5.87-.87,3.39-.41,3.71-.51,4.13-.75,2-1.13,2.67-3.35,3.25-5.25.65-2.12,1.28-4.18.12-5.75a3.76,3.76,0,0,0-2.75-1.5c-1.64-.1-2.46,1.1-4.87,2.87-1.07.79-6,4.44-8,3.13-.75-.51-.42-1.32-1.25-1.75-1.22-.64-2.32.91-4.75.87-.71,0-2.23,0-3-1-1.16-1.45.52-3.59-.63-4.87A2.37,2.37,0,0,0,587.64,315.93Z"/>
    <path class="cls-1" d="M637.39,315.93a5.53,5.53,0,0,0-.62,4.5,9.23,9.23,0,0,0,1.62,3.37c.82,1.1,1.35,1.31,1.63,2.25a3.35,3.35,0,0,1-.25,2.63c-1.15,1.59-3.79,0-5.75,1.5-1.58,1.23-1.61,3.65-1.63,5.25s0,3.19,1.13,4.25c1.63,1.48,4.34.67,4.5.62,2.17-.68,2.25-2.2,5.75-5.37,2.42-2.2,2.63-1.7,3.37-2.88,1.14-1.78,1.18-3.9,1.25-8.12,0-1.93-.08-1.95,0-3.63.14-2.67.49-3.23,0-4s-1.65-1-4.12-1.75a10.21,10.21,0,0,0-2.88-.62A5.27,5.27,0,0,0,637.39,315.93Z"/>
    <path class="cls-1" d="M649.77,357.3c.84-2.09,2.94-1.39,7.62-4.5,2.49-1.65,4.13-2.87,4.13-2.87,2.09-1.56,2.74-2.22,3.5-2,1.33.39,1.63,3.08,1.75,4.12a7.06,7.06,0,0,1-.38,4c-1,2.07-2.52,1.77-4.5,4.13-1.37,1.63-.73,1.92-2.37,4.37-1.82,2.73-2.62,2.4-4,4.75s-.87,3.19-2.25,4.5c-1.11,1.06-3.14,2.14-4.5,1.38-1.1-.61-1.3-2.15-1.38-2.75-.21-1.67.52-2,1-5.13.18-1.14.11-1.3.38-3,.2-1.28.32-1.74.5-2.75C649.84,358.31,649.4,358.23,649.77,357.3Z"/>
    <path class="cls-1" d="M726.52,272.55c-2.33.3-3.73,3.17-4.75,5.25s-1.84,3.77-1,5.25,2.68,1.67,3.25,1.75c2.26.32,4.06-.83,5.5-1.75a10.79,10.79,0,0,0,3.75-3.75c.37-.64,2-3.46,1-4.75-.48-.61-1.15-.35-3.25-.75C728,273.23,727.83,272.39,726.52,272.55Z"/>
    <path class="cls-1" d="M746.77,460.05c-.57-.18-1.31,1.61-3,3.75a19.77,19.77,0,0,1-4.75,4.63c-1.53,1-2.22,1.07-2.63,2-.2.46-.1.6-.37,3.75a3.37,3.37,0,0,1-.5,1.75c-.4.58-.76.59-1.13,1-.62.7-.37,1.62-.25,3.37.17,2.32-.16,1.89,0,4.25s.52,3,0,3.88c-.4.71-.74.54-1.62,1.62a7.17,7.17,0,0,0-1.38,2.63c-.24.95-.48,1.89,0,2.5.78,1,3,.43,4.13.12a7,7,0,0,0,3-1.37c1-.84.94-1.37,2.37-3.25,1.2-1.58,1.8-2.38,2.25-2.25,1.11.3-.63,5.59,1.88,7.62a2.7,2.7,0,0,0,2.87.5c.88-.55.82-2,.75-3.5a10.5,10.5,0,0,0-1.62-5.62c-.62-.94-.89-1-2.38-3A10.78,10.78,0,0,1,743,482.3c-.16-.4-.59-1.69,0-4.37a33.61,33.61,0,0,1,1.37-3.88c1.27-4,.32-6.31,1.75-7.12,1-.53,1.76.24,2.63-.5a2.4,2.4,0,0,0,.5-2.88c-.33-.46-.7-.29-1.25-.75C746.87,461.86,747.31,460.22,746.77,460.05Z"/>
    <path class="cls-1" d="M765.89,482.05c-.85-.4-2.37,1-3.12,2a5,5,0,0,0-1,2.25c-.26,1.65.62,2.09.37,3.75a5.69,5.69,0,0,1-1,2.38c-.94,1.39-1.8,1.5-1.75,2,.11,1,3.66,2.25,5.88.75a4.5,4.5,0,0,0,1.62-2.25c.42-1.11.13-1.47,0-5a29,29,0,0,0-.25-3.5C766.37,482.4,766.1,482.15,765.89,482.05Z"/>
    <path class="cls-1" d="M776.39,497.93c.12-.33,1.76.45,4.25.25a11.9,11.9,0,0,0,4.75-1.5,27.4,27.4,0,0,0,3.75-2.88c2.42-2,2.9-2.6,4.13-2.87a3.71,3.71,0,0,1,3.25.5,3.66,3.66,0,0,1,.87,3.25c-.23,1.16-1.07,1.95-2.75,3.5a21.18,21.18,0,0,1-3,2.37c-2.07,1.36-3.19,2.09-4.87,2.25a8.31,8.31,0,0,1-4.13-.75,18,18,0,0,1-2.62-1.62C777.26,498.65,776.3,498.18,776.39,497.93Z"/>
    <path class="cls-1" d="M811.77,596.55c-.74.87-3.3,3.88-2.25,5.75.3.54,1.16.94,2.87,1.75s2.43.91,2.5,1.38c.11.7-1.36,1-2.5,2.75-.44.68-1.06,1.65-.75,2.37.22.49.86.88,5.63,1.13,3.53.18,3.44,0,4.75.25a38.51,38.51,0,0,1,4.5,1.12,3.46,3.46,0,0,0,2.12.38,3.24,3.24,0,0,0,2-2.25c.64-2.21-1-4.91-3.12-5.88a7.93,7.93,0,0,0-3.38-.5c-1.55,0-1.84.25-3.5.25-1.47,0-3.37,0-3.75-.87-.24-.57.4-.93.75-2.38.11-.44.64-2.6-.37-3.62-.74-.75-1.53-.12-2.63-1-.82-.67-.88-1.43-1.5-1.5S812.21,596,811.77,596.55Z"/>
  </g>
  <g id="MARRONCINO">
    <path class="cls-2" d="M431.94,247.14a13.6,13.6,0,0,1,0-5.17c.52-2.27,1.37-2.49,3.16-5.83,2.18-4.06,1.52-4.84,3.34-7a12.53,12.53,0,0,1,4.83-3.5c1.78-.78,4.28-1.86,6.33-.84,1.38.69,1.16,1.62,3,3.84s2.41,1.83,5.17,4.33a24.75,24.75,0,0,1,4.67,5.33,18.28,18.28,0,0,1,2.5,6.17c.4,2.07.61,3.1,0,3.83-1.2,1.42-3.79-.32-6.67,1.34a6.66,6.66,0,0,0-2.33,2.33,8.55,8.55,0,0,0-1.17,5.33c.06,1.38.17,3.71,1.5,4.34.68.32,1.28,0,2.5-.34a15.47,15.47,0,0,1,6.17-.5c2.88.53,4.67,2.94,5.33,3.84s2.91,3.93,2,7.33a5.84,5.84,0,0,1-2.5,3.67c-2.54,1.4-4.46-1.11-7.5,0-1.74.63-1.25,1.5-4.83,4.16-3.1,2.3-4.28,2.26-4.84,2.17s-1.37-.38-3-2.17a24.55,24.55,0,0,1-3.66-5.5c-2.35-4.35-2.17-3.33-4.67-8-2.22-4.12-2-4.19-3.33-6.33-2.16-3.36-2.77-3.18-4-5.67A20.76,20.76,0,0,1,431.94,247.14Z"/>
    <path class="cls-2" d="M486.44,227.3c1.58-2.5,0-6.14,0-11.5,0-3.5.67-2.56,1-7.83a74.64,74.64,0,0,0,0-9c-.35-4.56-.95-5.44-.17-7.17s1.92-2.06,5-4.33a38.37,38.37,0,0,0,7.17-6.33c1.65-2,2.71-4.46,4.83-9.34s2-5.67,3.5-7.66c1.34-1.8,3.5-4.71,7-5.17,3.75-.5,6.76,2.1,8,3.17,1.87,1.61,2.26,2.78,5.5,8.66,2.93,5.33,4.39,8,5.5,9.34,3.83,4.66,5.75,3.88,8,7.83,1.24,2.18,1.66,4.51,2.5,9.17a73.62,73.62,0,0,1,1,8.83c.35,5.23.59,8.66,0,13.17-.45,3.4-.72,2.55-1.67,8.16-.81,4.82-.73,6.21-2,8.17-.36.57-2.59,4-6,4.17-2.53.11-4.39-1.67-6.66-3.84-2.58-2.46-2.46-3.41-6.67-8.5-2.28-2.75-3.18-3.52-4.17-4.16-1.47-1-3-1.44-5.83-2.34-3.35-1-5-1.57-6.5-1.5-1.19.06-5,.45-6.83,3.17-1.05,1.57-.27,2.18-1.34,4.5a9.9,9.9,0,0,1-5,5c-.71.29-3.64,1.48-5.5,0a3.34,3.34,0,0,1-.66-4.67Z"/>
    <path class="cls-2" d="M487.1,134.8c-.08-1.48-.22-3.78,1.34-5.66a7.19,7.19,0,0,1,4.66-2.34,10,10,0,0,1,6.17,1.17c2.81,1.46,2.5,2.82,5.5,4.5,1.31.74,3.68,2.06,6,1.33.4-.12,1-.37,3.67-3.16,3.08-3.22,3.07-3.67,4.33-4.5,1.43-1,3-1.2,6-1.67a55.93,55.93,0,0,1,8-.5c7-.13,8,.27,8.83.83a6.6,6.6,0,0,1,3,5.34c-.18,3.62-4.81,6-8.66,8-3.69,1.9-4.78,1.58-9.17,4-2.87,1.58-2.52,1.77-5.33,3.33-5.06,2.79-5.69,1.88-10.17,4.33-3.84,2.11-5.38,3.88-7.17,3.17-.61-.25-1.3-1-2.66-2.5-1.1-1.21-1.75-2.08-2.34-2.83-2.08-2.67-3.13-4-4.5-5-2.86-2.08-4.35-1-6-3A7.92,7.92,0,0,1,487.1,134.8Z"/>
    <path class="cls-2" d="M577.6,358.8c-.13-.57.06-1,2.84-5s3.21-4.56,3.83-5.16a18.77,18.77,0,0,1,4.33-3.17,20.52,20.52,0,0,1,6-2,21.71,21.71,0,0,1,7.34,0c3.28.57,3.78,1.48,6.33,1.33a12.5,12.5,0,0,0,4.5-1.16c2.46-1.2,2.5-2.32,4.17-2.67,2.3-.49,4.47,1.17,5.33,1.83a11.67,11.67,0,0,1,3.83,6c1,3,.2,3.47,1,7.17.53,2.45.9,2.35,2.67,7.33,1.51,4.27,2.26,6.44,2.17,8.34,0,.69-.12.93-2.17,6.83a62,62,0,0,1-2.67,7.17,21,21,0,0,1-3.66,5.66c-1.51,1.59-3.11,3.28-5.67,3.84s-4.87-.37-7.17-1.34a14.19,14.19,0,0,1-4.83-3c-.77-.75-3.72-3.64-3.67-7.5a15.48,15.48,0,0,1,1.17-4.83,28,28,0,0,0,1.33-3.67,32.23,32.23,0,0,0-.66-9.33,4.67,4.67,0,0,0-.84-2c-1.05-1-2.65-.37-6.16,0a37.59,37.59,0,0,1-5.67.17,27.43,27.43,0,0,1-6.17-1.17C580.49,361.16,578,360.46,577.6,358.8Z"/>
    <path class="cls-2" d="M589.27,500c.09-3.33.13-5,.33-7.17a31,31,0,0,1,1-6.33c.76-2.61,1.22-4.21,2.67-5.67a9,9,0,0,1,7.5-2.5c2,.36,4.81,1.65,5.67,4,.61,1.69-.12,3,.83,3.84.75.66,1.82.38,3.33.16,1.12-.16,5.56-.79,9,.34.49.16,4.37,1.47,4.5,3.66.11,1.85-2.51,3.39-3.83,4.17-3.39,2-4.92,1-7.33,3a8.88,8.88,0,0,0-2.84,4.33,12.16,12.16,0,0,0,0,4.67c.49,4.52,1.39,5.36.67,6.83a4.8,4.8,0,0,1-4.33,2.5c-2-.11-2.14-1.77-4.67-2.5a9.34,9.34,0,0,0-5.5.34c-1.74.66-2.33,1.56-4.17,1.66a3.35,3.35,0,0,1-2.33-.5c-.48-.36-1-1.08-1.17-3.33a20.57,20.57,0,0,1,.5-5.17C589.32,504.87,589.13,505.24,589.27,500Z"/>
    <path class="cls-2" d="M633.27,491a16.41,16.41,0,0,1,4.17-4c1.91-1.29,2.2-.92,4.5-2.33a43.8,43.8,0,0,0,4.5-3.5c1.45-1.22,2.64-2.22,4.16-3.67,2.54-2.42,2.49-2.76,3.84-3.67a15.19,15.19,0,0,1,4.66-2,30.81,30.81,0,0,1,6.17-.83c5.36-.41,5.36-.07,7.83-.5,3.51-.61,3.62-1.31,5.67-1.17a13.07,13.07,0,0,1,6,2.34c3,1.8,2.66,2.57,4.67,3.5,2.67,1.24,3.74.1,8,.66a18.22,18.22,0,0,1,8.16,2.84,14.19,14.19,0,0,1,5.34,6.5c.53,1.41,1.12,3,.5,4.5-.79,1.89-2.51,1.43-4.5,3.5-1.81,1.87-1,2.88-3.5,7-1.32,2.18-2,3.27-3.34,3.66-1.94.57-3-1-4.5-.33s-.84,2.54-2.83,5a7.8,7.8,0,0,1-3.67,2.67,7.08,7.08,0,0,1-4.5,0c-1.76-.65-1.65-1.56-3.5-2.34a10,10,0,0,0-4.33-.5c-3.11,0-3.14.55-5.33.5A10.57,10.57,0,0,1,665.1,507c-1.52-1.17-1.18-1.83-2.5-2.67-1.67-1.06-3.27-.65-6.83-.33-5.94.53-5.21-.27-8.33.33-4.33.85-5.15,2.28-8.17,1.84a9.26,9.26,0,0,1-4.33-1.84,9.51,9.51,0,0,1-3-4.16,8.76,8.76,0,0,1-.84-4.67A9.38,9.38,0,0,1,633.27,491Z"/>
    <path class="cls-2" d="M743.77,500.47c.58-1.25,2.14-1.63,10.5-2.33a78.07,78.07,0,0,1,10.17-.5,36.47,36.47,0,0,1,6.5.66c4.5.95,4.73,2.11,9.66,3.67,5.1,1.61,6.34.84,10.34,2.83,2,1,3.64,1.85,4.83,3.67,1.42,2.17.77,3.55,1.33,8a32.19,32.19,0,0,0,3.17,10.83,51.36,51.36,0,0,0,4.17,6.17c2.19,3,3,3.76,4.5,6.17,2.1,3.31,3.15,5,3,6.5-.27,2.64-2.68,2.71-6,7.16-2.78,3.71-2,4.82-4.67,7.5-1.68,1.67-1.86,1.12-5.5,4-3.48,2.76-3.58,3.48-5.67,4.5a15.93,15.93,0,0,1-6.16,1.5,25.19,25.19,0,0,1-7.17-.66,38,38,0,0,1-7-1.84c-4.23-1.6-6.52-2.43-8.17-4.5-3.12-3.91-2.44-10.34-.16-14.5,1.8-3.28,3.1-2.39,8-8.16A57.07,57.07,0,0,0,775.1,533c2.77-4.54,3.28-6.35,3.34-8.17,0-1.24.1-3.5-1.34-5.16s-2.89-1.38-7.5-2.34a83.64,83.64,0,0,1-8.5-2.33,51.78,51.78,0,0,1-8.16-3.5c-7-3.77-8.35-6.73-8.67-7.5C743.77,502.78,743.26,501.57,743.77,500.47Z"/>
  </g>
  <g id="NERO">
    <path class="cls-3" d="M365.77,237.3a15.25,15.25,0,0,0,7.75,4c4,.7,7.48-.48,9.75-1.25,3.42-1.15,3.33-1.89,5.75-2.25.71-.1,5.43-.8,8.5,2,2,1.78,1.25,3.14,2.75,4,2.5,1.43,5-2,11.75-3.75.26-.06,3.84-.46,11-1.25,6-.66,6-.65,6.5-.75,5.77-1.14,7.49-2.83,9.75-1.75s3,3.77,3.25,4.5c.7,2.26-.22,2.67.5,5.5a13.76,13.76,0,0,0,2.5,5,6.85,6.85,0,0,0,2,2c2.22,1.3,3.58-.23,5.75.75,1.77.81,1.31,2,4,4.25,1.54,1.27,2.5,2.06,3.75,2,2.13-.1,2.37-2.57,5-3.25,1.47-.38,2.72.05,4.75.75,1,.35,2,.8,5.5,3,2.46,1.55,3.69,2.32,4.25,2.75,3.31,2.58,3.54,4.63,5.5,6.75,2.46,2.68,4.26,1.79,15.25,4.75,8,2.17,8.23,3,11.75,3,4.87.07,5.21-1.42,10.25-1,3.74.32,6.5,1.39,8.25-.25.71-.66.48-1,1.25-2.5,1.29-2.44,2.69-2.82,6.25-6,1.76-1.56,3-2.85,4.75-4.75a60.11,60.11,0,0,0,4-4.5c2.59-3.38,2.6-4.6,4.25-5.25s2.27.44,4.75,0c3.3-.58,3.94-2.84,5.75-2.5s1.82,3.09,4.25,5.25c1.93,1.72,4.23,2,7.75,2.25a121.72,121.72,0,0,0,14.75.5c16.16-.46,18.92,2.6,23.75-.75,3.14-2.17,5.26-5.74,6.75-8.25,3.17-5.34,2.83-8,5.75-9.75,3.34-2,5.41.52,9.5-1.25,4.78-2.06,3.63-6.23,8-8.75,5.86-3.38,10.77,2.49,16.5-1,2.81-1.71,1.43-3,7.25-9.25,2.54-2.73,3.83-3.58,5.5-6.25a31.4,31.4,0,0,0,3-7,30.64,30.64,0,0,1,8-11.5"/>
    <path class="cls-3" d="M501.77,381.3a16.81,16.81,0,0,0,7-4.75c1.49-1.75,1.4-2.47,3.5-5.25a21.85,21.85,0,0,1,5.25-5.5c3.39-2.29,5-1.35,6.75-3.5,1.62-1.94.53-2.94,2.25-5.5,1.31-2,3.09-3.08,5.75-4.75s3.56-1.77,4.5-3.25a7.65,7.65,0,0,0,1-4c.2-3.85-1.39-5.27-1.75-10,0-.12,0-.1,0-3.5,0-8,0-9-.25-10.75-.38-2.61-.64-4.21-1.75-6s-1.69-1.71-2.75-3.5a12.68,12.68,0,0,1-1.75-5.75c0-.57,0-2.34,2-7,2.24-5.12,3.11-4.92,4-8,.47-1.63.56-3.75.75-8,.26-5.91-.16-6.19.5-7.75.43-1,1.05-1.92,6-6.25,2-1.78,4.77-9.48,6-10.5"/>
    <path class="cls-3" d="M386.94,273.8c1.15-2.81,2-5.2,2.66-7a25.87,25.87,0,0,0,1.67-6,13.35,13.35,0,0,0,0-5c-.36-1.79,4.67-8.24,11.17-11.5"/>
    <path class="cls-3" d="M564.27,370.47c2.74-.16,6.17.1,8,2.33,2.51,3.07,1.33,4.36,1.62,4.38s-.19.6-.46,1a16,16,0,0,0-3.16,6.95c-.38,2.58.67,2.93.33,5.66s-1.45,2.87-2.66,6.67a17.65,17.65,0,0,0-1,7,16.44,16.44,0,0,0,1.33,5.33c1.18,2.91,2.2,5.42,4.33,6,1,.27,2.32,0,5-.66,1.07-.25,1-.3,2.5-.67,1.75-.44,3-.66,4.84-1,3.9-.71,4.45-.64,5-.33.92.51.7,1,2,2,1.06.79,1.49.65,3.16,1.5a9.43,9.43,0,0,1,3,2c1,1.07.79,1.6,2,3.66a20.62,20.62,0,0,0,2.17,3,23.59,23.59,0,0,0,3.67,3.5,33.15,33.15,0,0,0,4.5,3c3.1,1.76,3.67,1.51,4.33,2.5,1.55,2.35,0,3.25.62,3.47s-.91,2.69-1.18,2.44,0,.77-2.77.59c-1.6-.1-2.12-1.23-3.67-1-1.33.2-1.28,1.07-2.67,1.67-2.61,1.13-4.45-1.22-7.66,0a4.46,4.46,0,0,0-1.5.83c-1.93,1.69-.8,4.07-1.67,6.84-1.29,4.07-5.14,3.35-6.67,7.83a12.25,12.25,0,0,0-.33,5.67c.34,2.39,1,2.63,1.67,5.33a16.37,16.37,0,0,1,.33,7.5c-.7,3.15-2,3-2.67,6.17s.42,3.65-.33,6.83a12.9,12.9,0,0,1-2.67,5.5c-2.54,2.95-5,2.53-5.5,4.5s1.7,2.79,2.5,6.17c.56,2.36-.12,4.51-1.5,8.83-1.31,4.12-2.06,6.49-4.33,8.67a16.45,16.45,0,0,1-4.83,3,31,31,0,0,1-9.34,2.66"/>
    <path class="cls-3" d="M595.27,562.8a16.36,16.36,0,0,1,7-3c3.23-.52,6.11.1,9.5.84,4.6,1,5.6,1.92,8.33,1.5a17.8,17.8,0,0,0,5-1.84,45.5,45.5,0,0,0,5.67-3.33c6.23-4,5.39-3.27,7.67-4.83,5.37-3.7,4.87-4.14,7.16-5,3.08-1.16,4.57-.59,7.17-2.34a14.59,14.59,0,0,0,3.33-3.33,33.27,33.27,0,0,0,4.17-7c1.8-3.78,1.44-4,3-7,1.63-3.13,2.45-4.69,4.17-5.83,2-1.36,4.11-1.42,7.16-1.5,4-.12,4.76.74,8.84.66a17.57,17.57,0,0,0,6.83-1c2.48-1,4-2.69,7.83-8.16,4.85-6.91,4.57-7.27,7.17-10.67,3.26-4.26,3.41-3.31,9-9.83,4.32-5,6.37-8.11,8-11.5,1.38-2.88,2.08-4.32,2.17-6.34.17-4-1.9-6.26-.5-8.66.54-.94,1.3-1.35,2.83-2.17,3.72-2,5.53-.8,8.17-2.33,1-.61,1.28-1.1,4.33-5.67,0,0,2.5-3.76,4.5-6.67s5.3-6.34,11.83-9.5"/>
    <path class="cls-3" d="M694.6,521.3a11,11,0,0,0-.83,3.67,11.59,11.59,0,0,0,2.5,7.5c1.26,1.52,1.72,1.17,2.5,2.5,1.36,2.33.21,3.89,1.5,5.33a4.53,4.53,0,0,0,4.67,1c1.82-.68,1.46-2.25,3.5-3.5,2.27-1.39,3.84-.1,5.16-1.5s.28-2.77,1.67-4.33a5.8,5.8,0,0,1,3-1.5c3.23-1,4.3,0,7-1,1.22-.46,1-.65,3.17-1.67a19.74,19.74,0,0,1,4-1.5c.81-.16,2.77-.39,6.83,1.67,5.06,2.57,4.87,4.37,9.5,6.83a32.33,32.33,0,0,0,7.5,2.67,33.46,33.46,0,0,0,9,1.5,33.82,33.82,0,0,0,9-1.33,63.44,63.44,0,0,0,6.83-2.17c3.06-1.11,3.23-1.36,6.67-2.67,4.26-1.62,6.43-2.43,8.5-2.5a16.36,16.36,0,0,1,6.83,1.34,14.32,14.32,0,0,1,6.67,4.83c.57.8,1.73,2.47,1.17,3.67-.4.83-1.31.75-1.5,1.5-.29,1.06,1.43,1.67,2,3.66a4.47,4.47,0,0,1-.34,3.34c-.66,1-1.61,1.06-4,2.16-.63.29-1.53.81-3.33,1.84-3.73,2.12-5.6,3.19-6.33,4.33-1.34,2.07-1.71,5.41-.17,7.33,1,1.28,2.85,1.58,6.5,2.17s4.61.17,6.17,1c1.87,1,2.52,2.65,3.83,5.33a100.59,100.59,0,0,0,7.67,13.67c2.45,3.48,4.62,5.58,3.83,7.33-.63,1.41-2.6,1.32-2.67,2.17-.15,2,11.06,2.85,12.17,7.67.41,1.76-.7,3.41.33,4.33s2.39-.25,4,.5c1.21.56,1.49,1.68,2.67,4.67a66.35,66.35,0,0,0,3.5,7.66c1.5,2.75,2.28,4.13,3.67,4.84s2.38.51,6.5.16c1.94-.16,4.17-.33,6.66-.5"/>
    <path class="cls-3" d="M589.39,470.18c1-.68,5-3.54,7.21-4.38,1.69-.64,2.38-.69,4.17-1.33a27.27,27.27,0,0,0,5.5-2.67c1.8-1.19,2.32-2.09,5.5-6a85.69,85.69,0,0,1,6.17-7.16c3.39-3.37,5.14-5.05,7.66-5.34s3.36.83,5.5,0c1.45-.56,2.27-1.56,3.84-3.5,1.69-2.1,1.78-2.82,3.66-5.66a51.68,51.68,0,0,1,4.17-5.5c2.1-2.41,3.16-3.61,4.83-4.67a14.77,14.77,0,0,1,8.34-2.33,33.91,33.91,0,0,1,6,1.5c4.42,1.29,5.1,1.72,7.66,2.16a15.37,15.37,0,0,0,5.84.17,7.56,7.56,0,0,0,4-1.67c1.28-1.18,1.74-2.71,2.33-4.66.74-2.46.34-2.82,1-3.67,1.32-1.69,4.2-1.88,6.17-1.5,2.64.52,2.72,1.9,5.83,2.67,1.22.3,3.31.81,5.17-.17,1.4-.74,1.57-1.75,3-3.5a16.41,16.41,0,0,1,4.83-4"/>
  </g>
  <g id="ROSSO">
    <path class="cls-4" d="M494.27,401.47a10.17,10.17,0,0,1,5.33-5.67c3.52-1.38,7,.12,9,1,3.46,1.51,3.9,3,8,5.34,3,1.69,4.58,2.37,6.34,2.66a9.6,9.6,0,0,0,5.33-.33,8.75,8.75,0,0,0,3.33-2.33c1.88-2.11,1.21-3.45,2.67-4.67,2.2-1.84,5.91-.64,6.33-.5,2.3.78,3.67,2.4,5.17,4.17,2.5,2.95,2.33,4.35,4.33,5.33a7.86,7.86,0,0,0,4.5.5c1.58-.2,2.49-.69,4.84-1.83,4.08-2,6.12-3,7-3.17,1.59-.31,3.45-.1,7.16.33a55.25,55.25,0,0,0,5.67.67,25,25,0,0,0,5.17-.33,38.37,38.37,0,0,0,5.5-1.67c3.93-1.25,3.94-.88,7.33-2,3.19-1.05,4.81-1.6,6.5-3a9.79,9.79,0,0,0,3.17-4.17c.63-1.77.31-2.9.16-5.5a46.39,46.39,0,0,1,.5-9.16,23.77,23.77,0,0,1,2.5-7.84c2.39-4.38,4.54-4.41,5.67-8.16a13,13,0,0,0,.17-6.34c-.31-1.49-.94-4.61-3.34-6.5-1.64-1.29-2.68-.89-8.33-1.66-5-.69-7.52-1.06-10.33-2.5a16.36,16.36,0,0,1-5.5-4.34c-2-2.48-2.57-4.83-3.67-9.33-1-4-1.47-6-1-7.83a10.78,10.78,0,0,1,7.67-7.5c3-.7,6,.33,9.83,1.66,2.77,1,3,1.45,4.5,1.5,1,0,3-.11,8.17-4,4.2-3.15,3.87-3.79,7-5.66,2.7-1.62,5.26-3.11,7.83-2.34,1.46.44,2.22,1.4,3.17,1s1.3-2.14,1.5-3.66c.28-2.21-.05-3.21-.17-5.67a17.12,17.12,0,0,1,.33-6,12.27,12.27,0,0,1,3.67-5.67,12.53,12.53,0,0,1,5.83-2.83c3.25-.61,3.95.66,9.17.83,2.73.09,4.77.14,7.17-.83a15.71,15.71,0,0,0,5-3.5,23.32,23.32,0,0,0,4.5-5.67c1.77-3.28,1.17-4.69,2.33-12.33.79-5.17,1.28-8.33,2.83-12.33.55-1.41.33-.63,3.17-7a32.79,32.79,0,0,1,3.17-6.17c1.49-2.14,2.89-4.08,5-4.33,1.61-.2,1.82.82,3.83.83,2.18,0,2.59-1.18,5.83-2.17a11,11,0,0,1,5.17-.66c2.73.43,3,2,5.33,2.5s3.67-.58,7.5-2a73.15,73.15,0,0,1,8.67-2.34c9-2,11.58,3.29,23.17,2.67a31.58,31.58,0,0,0,11.5-2.5c3.1-1.36,2.64-1.83,9.16-5.5,4.84-2.73,6.24-3.11,8.67-5.33a24.44,24.44,0,0,0,4.5-5.5,33,33,0,0,0,2.5-5.84c1.52-4.22,1.31-4.89,2.33-6.83a17.08,17.08,0,0,1,4.67-5.33,27.75,27.75,0,0,1,11.5-5.67"/>
    <path class="cls-4" d="M472.6,343.8a40.89,40.89,0,0,0,5.67-4.5,23.45,23.45,0,0,0,4.33-5,26.13,26.13,0,0,0,2.17-4.66c1.18-3,1.77-4.52,1.67-6.17-.15-2.27-1.26-2.51-1.67-4.5s.29-3.52,3.83-9.67c4.27-7.39,4.78-7.77,5-9.66.31-2.64-.62-2.51-.66-8,0-3.7.38-3.75.16-6.84-.17-2.38-.49-3.43,0-5.16s1.06-1.63,2-3.67a19.44,19.44,0,0,0,1.5-6.67c.33-3.16-.1-3.57.5-5.33a10.9,10.9,0,0,1,2.5-4c1.37-1.4,2.45-1.73,6.5-3.5,6-2.63,5.74-2.81,6.67-2.83,4.32-.11,6.24,3.94,8.5,3,1.14-.48,1.12-1.71,2.5-6.67s2.15-7.67,3.83-10.33,2.33-2.24,3.67-4.67c2.1-3.8,2.06-7.61,2-10.33-.07-2.94-.66-5.28-1.83-9.84-1-3.69-1.88-6.46-3.67-11.83-3-8.9-3.1-8.44-3.5-10.67-.9-5-.45-8.62-1.83-9-.83-.22-1.79.83-2.84,2a24.89,24.89,0,0,0-4,6.67c-1.59,3.08-4.51,4.66-10.33,7.83a53.46,53.46,0,0,1-10.83,4.34,50.93,50.93,0,0,1-9.17,2c-5.22.6-7.83.89-10.17,0-5.82-2.25-3.89-8.91-12.33-21.84-3.6-5.5-5.39-8.25-7.5-10.66-2.24-2.57-3.74-3.83-4.83-6.67-1-2.5-.71-3.88-2.17-5.67a10.23,10.23,0,0,0-5-3c-3.81-1.31-5-.2-9.17-1.66a15.79,15.79,0,0,1-3.83-1.84,22.74,22.74,0,0,1-4-3.66c-1.43-1.51-2.75-3.07-2.83-3.17-1.8-2.12-2.1-2.73-3.17-3.33a6.7,6.7,0,0,0-3.33-.84c-.53,0-2.47.07-6.34,3-3,2.25-2.57,2.78-5.33,4.67a25.3,25.3,0,0,1-5,2.67c-2,.76-2.45.62-3.83,1.16-.92.36-2.42,1.09-5.67,4.5-3.76,3.94-5.64,5.91-6.33,8.17-1.13,3.62.23,5.61-1.67,7.67a8,8,0,0,1-4,2,10.86,10.86,0,0,1-6.17,0c-.94-.3-2.18-.7-2.33-1.5s1-1.45,2.17-2.84a11.29,11.29,0,0,0,2-4.66c.62-3.45-1.95-4.49-3.84-11-.73-2.53-1.23-4.34-.83-6.67.45-2.61,1.49-2.74,2.33-5.67.32-1.09,1.73-6-.83-9.16a7.78,7.78,0,0,0-4-2.34c-4.49-1.39-7.46.79-8.83-.83-.69-.81,0-1.41-.67-4.17a11.11,11.11,0,0,0-1.5-3.83c-1.59-2.28-3.28-1.68-6.33-4.17-2.28-1.85-1.56-2.36-3.5-3.66-2.18-1.46-3.15-.86-6.84-2.5a26.6,26.6,0,0,1-4.16-2.34,17.05,17.05,0,0,1-4.34-3.83c-1.19-1.57-2.76-3.63-2.5-6s1.94-2.5,4.5-6.67c1.56-2.53,2.33-3.79,2.34-5.33,0-2.5-1.77-3.19-5.34-8.5-2.13-3.18-3.2-4.82-3.5-7.17a13.43,13.43,0,0,1,.84-6.16c.59-1.74,1-2.08,3.33-6,1.93-3.31,2.89-5,3.17-6a14,14,0,0,0-.67-8.5,16.48,16.48,0,0,0-3.17-5c-2-2.23-2.69-2-3.5-3.34-1.26-2-.2-3.78.84-9.66,0-.21.46-3.92,1.33-11.34.29-2.48.52-4.51.67-5.83"/>
    <path class="cls-4" d="M493.1,284.8c1.34-.41,5.06-1.53,7.5-1.33,3.66.31,4.35,1.77,8.84,3.17,4.26,1.32,4.17.16,11,1.66,3.81.85,4.68,1.39,6.66,1a12.54,12.54,0,0,0,6.34-3.83c1.66-1.84,1.33-2.57,3-4.17a12.18,12.18,0,0,1,5.16-2.83c1.08-.32,7-2.08,9.5.67,1.37,1.48.39,2.81,1.84,5.16.9,1.47,2,2.1,5.5,4,8.24,4.48,8.57,4.46,9.5,5.5,2,2.29.95,2.95,3.83,7.17a29.84,29.84,0,0,0,5,5.67,31.24,31.24,0,0,0,6,4c2.76,1.51,4.14,2.26,6,2.5s2.69-.24,5.5-.17c2.16,0,7.73,4.06,8.83,4.33"/>
  </g>
  <g id="MACCHINE">
    <g>
      <g>
        <path d="M583,505.94c-.78,1.35-5,13.55-6,15.71a2.68,2.68,0,0,1-.48.7,2.44,2.44,0,0,1-1,.62,2.53,2.53,0,0,1-1.16.06,6.89,6.89,0,0,1-1.67-.45,21.07,21.07,0,0,1-2.55-1.07c-.91-.45-.71-.44-1.1-.62a1.67,1.67,0,0,1-.68-.47l-.06-.08a2.2,2.2,0,0,1-.39-.94,3.18,3.18,0,0,1-.05-.78,4.27,4.27,0,0,1,.1-.65h0l6-15.71c.07-.12.27-.62.42-.85a3.69,3.69,0,0,1,.56-.78c.07-.05.22-.16,1-.25a6,6,0,0,1,1.28-.06,5.48,5.48,0,0,1,1.47.21l1.24.39a3.78,3.78,0,0,1,1.14.51c.26.13.18.05,1.13.86a2.84,2.84,0,0,1,.66.84,2.49,2.49,0,0,1,.35.9,3.41,3.41,0,0,1,0,.78A3.56,3.56,0,0,1,583,505.94Z"/>
        <g>
          <line class="cls-5" x1="573.98" y1="502.26" x2="567.99" y2="517.97"/>
          <path class="cls-5" d="M574,502.26c.07-.12.27-.62.42-.85a3.69,3.69,0,0,1,.56-.78c.07-.05.22-.16,1-.25a6,6,0,0,1,1.28-.06,5.48,5.48,0,0,1,1.47.21l1.24.39a3.78,3.78,0,0,1,1.14.51c.26.13.18.05,1.13.86a2.84,2.84,0,0,1,.66.84,2.49,2.49,0,0,1,.35.9,3.41,3.41,0,0,1,0,.78,3.56,3.56,0,0,1-.28,1.13c-.78,1.35-5,13.55-6,15.71a2.68,2.68,0,0,1-.48.7,2.44,2.44,0,0,1-1,.62,2.53,2.53,0,0,1-1.16.06,6.89,6.89,0,0,1-1.67-.45,21.07,21.07,0,0,1-2.55-1.07c-.91-.45-.71-.44-1.1-.62a1.67,1.67,0,0,1-.68-.47l-.06-.08a2.2,2.2,0,0,1-.39-.94,3.18,3.18,0,0,1-.05-.78,4.27,4.27,0,0,1,.1-.65v0"/>
        </g>
      </g>
      <path class="cls-6" d="M573.52,506.87c.43-.61,2.11-.1,3,.17.53.17,3.93,1.26,3.83,2.35a6.35,6.35,0,0,1-.59,1s-.19.28-.54.76c-.2.29-.31.43-.46.45s-.32-.11-.5-.26a7.76,7.76,0,0,0-1.19-.71,7.87,7.87,0,0,0-1.13-.44,8.28,8.28,0,0,0-1.32-.41c-.31-.06-.6-.17-.9-.24a.56.56,0,0,1-.33-.15c-.12-.15-.08-.34-.05-.67.05-.59,0-.56,0-1A2,2,0,0,1,573.52,506.87Z"/>
      <path class="cls-6" d="M576.45,519.4c-.44.61-2.11.06-3-.23-.52-.18-3.9-1.32-3.78-2.42a7.45,7.45,0,0,1,.6-1l.56-.76c.21-.28.31-.42.47-.43s.32.11.49.26a6.62,6.62,0,0,0,1.18.73,8.2,8.2,0,0,0,1.12.47,8.57,8.57,0,0,0,1.32.44c.3.06.59.17.89.25a.52.52,0,0,1,.32.16c.12.14.08.33,0,.67-.06.59,0,.56,0,1A1.9,1.9,0,0,1,576.45,519.4Z"/>
      <path class="cls-6" d="M577,501.6c0-.11-.25-.07-.78-.09s-.77-.1-1,0a.82.82,0,0,0-.32.46.53.53,0,0,0,.1.47.43.43,0,0,0,.28.11,1.88,1.88,0,0,0,1-.29,1.41,1.41,0,0,0,.43-.26C576.84,502,577.09,501.74,577,501.6Z"/>
      <path class="cls-6" d="M581.08,503.29s0,0,.13.66a5.28,5.28,0,0,0,.17.52,1.91,1.91,0,0,0,.35.55c.15.16.22.25.34.26a.53.53,0,0,0,.45-.61.87.87,0,0,0-.15-.36,1.81,1.81,0,0,0-.2-.25,2.13,2.13,0,0,0-.4-.36C581.35,503.39,581.14,503.24,581.08,503.29Z"/>
      <path d="M582.15,507.76c.09,0,.17.07.33.21a1,1,0,0,1,.22.29,1,1,0,0,1,.08.34c0,.17,0,.3-.07.38a.32.32,0,0,1-.22.06.41.41,0,0,1-.29-.13l-.12-.17-.14-.21a.73.73,0,0,1-.09-.22C581.8,508.09,582,507.78,582.15,507.76Z"/>
      <path d="M573.34,504.13c-.06-.05-.22,0-.54,0a1.08,1.08,0,0,0-.48.14s-.21.19-.17.36a.36.36,0,0,0,.15.21.56.56,0,0,0,.42.08l.22-.07.28-.1A.49.49,0,0,0,573.34,504.13Z"/>
    </g>
    <g>
      <g>
        <path d="M824,589.4c1,1.22,10.78,9.6,12.42,11.33a2.41,2.41,0,0,1,.48.7,2.3,2.3,0,0,1,.22,1.11,2.52,2.52,0,0,1-.36,1.1,6.82,6.82,0,0,1-1,1.39,21.27,21.27,0,0,1-1.93,2c-.75.67-.67.49-1,.79a1.56,1.56,0,0,1-.68.45l-.1,0a2.32,2.32,0,0,1-1,0,2.8,2.8,0,0,1-.74-.24,3.31,3.31,0,0,1-.56-.33h0l-12.43-11.33c-.08-.12-.47-.48-.63-.71-.41-.58-.47-.64-.52-.8s-.07-.26.14-1a5.91,5.91,0,0,1,.41-1.22,5.52,5.52,0,0,1,.74-1.28c.41-.5.38-.5.81-1a4.25,4.25,0,0,1,.89-.87c.22-.19.12-.16,1.23-.74a2.68,2.68,0,0,1,1-.3,2.51,2.51,0,0,1,1,0,3.06,3.06,0,0,1,.72.3A3.56,3.56,0,0,1,824,589.4Z"/>
        <g>
          <line class="cls-5" x1="817.32" y1="596.41" x2="829.75" y2="607.74"/>
          <path class="cls-5" d="M817.32,596.41c-.08-.12-.47-.48-.63-.71-.41-.58-.47-.64-.52-.8s-.07-.26.14-1a5.91,5.91,0,0,1,.41-1.22,5.52,5.52,0,0,1,.74-1.28c.41-.5.38-.5.81-1a4.25,4.25,0,0,1,.89-.87c.22-.19.12-.16,1.23-.74a2.68,2.68,0,0,1,1-.3,2.51,2.51,0,0,1,1,0,3.06,3.06,0,0,1,.72.3,3.56,3.56,0,0,1,.95.67c1,1.22,10.78,9.6,12.42,11.33a2.41,2.41,0,0,1,.48.7,2.3,2.3,0,0,1,.22,1.11,2.52,2.52,0,0,1-.36,1.1,6.82,6.82,0,0,1-1,1.39,21.27,21.27,0,0,1-1.93,2c-.75.67-.67.49-1,.79a1.56,1.56,0,0,1-.68.45l-.1,0a2.32,2.32,0,0,1-1,0,2.8,2.8,0,0,1-.74-.24,3.31,3.31,0,0,1-.56-.33l0,0"/>
        </g>
      </g>
      <path class="cls-6" d="M821.44,598.53c-.41-.63.69-2,1.25-2.7.35-.43,2.61-3.19,3.59-2.7a6.68,6.68,0,0,1,.74.92l.51.79c.19.29.29.44.25.59s-.22.26-.42.37a7.16,7.16,0,0,0-1.1.85,8.49,8.49,0,0,0-.83.88,9.91,9.91,0,0,0-.87,1.09c-.16.26-.37.49-.54.74a.56.56,0,0,1-.26.25c-.19.07-.35-.05-.65-.19-.53-.27-.54-.16-1-.39A2.2,2.2,0,0,1,821.44,598.53Z"/>
      <path class="cls-6" d="M834.18,600.39c.4.64-.72,2-1.3,2.67-.36.43-2.67,3.15-3.64,2.64a6.18,6.18,0,0,1-.72-.94s-.19-.29-.5-.79c-.18-.3-.28-.45-.24-.6s.23-.25.43-.36a7.11,7.11,0,0,0,1.12-.83,17.57,17.57,0,0,0,1.73-1.94c.17-.25.38-.48.56-.73s.14-.21.27-.25.34.06.63.21c.53.28.54.17,1,.41A2.14,2.14,0,0,1,834.18,600.39Z"/>
      <path class="cls-6" d="M817.83,593.32c-.11,0-.15.21-.37.69s-.38.68-.33.91a.84.84,0,0,0,.32.47.53.53,0,0,0,.47.08s.12-.06.21-.22a1.93,1.93,0,0,0,.09-1,1.72,1.72,0,0,0-.08-.49C818.1,593.63,818,593.32,817.83,593.32Z"/>
      <path class="cls-6" d="M820.88,590.18s0,.06.67.12a4.31,4.31,0,0,0,.54,0,1.91,1.91,0,0,0,.64-.12c.21-.08.32-.12.37-.23a.48.48,0,0,0-.14-.49.68.68,0,0,0-.27-.15.82.82,0,0,0-.38,0,1.58,1.58,0,0,0-.31.08,2.36,2.36,0,0,0-.48.25C821.08,590,820.86,590.1,820.88,590.18Z"/>
      <path d="M825.44,590.83c0-.1.12-.14.31-.23a1,1,0,0,1,.35-.11.85.85,0,0,1,.35.06c.16.05.29.09.33.2a.26.26,0,0,1,0,.22.39.39,0,0,1-.23.23l-.19,0-.25,0a1,1,0,0,1-.24,0C825.62,591.27,825.39,591,825.44,590.83Z"/>
      <path d="M818.83,597.69c-.07,0-.11.19-.18.51s-.07.41,0,.49.09.27.27.3a.36.36,0,0,0,.25-.07.53.53,0,0,0,.22-.36s0,0,0-.23,0-.29,0-.3C819.33,597.81,819,597.61,818.83,597.69Z"/>
    </g>
    <g>
      <g>
        <path d="M427.5,245.2c-1.55-.15-14.39,1.05-16.78,1a2.6,2.6,0,0,1-.84-.14,2.35,2.35,0,0,1-.95-.62,2.52,2.52,0,0,1-.54-1,6.87,6.87,0,0,1-.27-1.72A20.69,20.69,0,0,1,408,240c0-1,.12-.83.11-1.26a1.78,1.78,0,0,1,.16-.81l.05-.09a2.17,2.17,0,0,1,.69-.74,3.48,3.48,0,0,1,.69-.37,3.55,3.55,0,0,1,.63-.17h0l16.78-1c.14,0,.68,0,1,0a3.16,3.16,0,0,1,.93.19c.08,0,.24.13.65.83a7,7,0,0,1,1,2.56c.06.65.08.62.15,1.29a4.14,4.14,0,0,1,0,1.25,4.34,4.34,0,0,1-.32,1.39,2.83,2.83,0,0,1-.5.95,2.75,2.75,0,0,1-.67.69,3.42,3.42,0,0,1-.72.3A3.14,3.14,0,0,1,427.5,245.2Z"/>
        <g>
          <line class="cls-5" x1="427.15" y1="235.5" x2="410.37" y2="236.52"/>
          <path class="cls-5" d="M427.15,235.5c.14,0,.68,0,1,0a3.16,3.16,0,0,1,.93.19c.08,0,.24.13.65.83a7,7,0,0,1,1,2.56c.06.65.08.62.15,1.29a4.14,4.14,0,0,1,0,1.25,4.34,4.34,0,0,1-.32,1.39,2.83,2.83,0,0,1-.5.95,2.75,2.75,0,0,1-.67.69,3.42,3.42,0,0,1-.72.3,3.14,3.14,0,0,1-1.14.21c-1.55-.15-14.39,1.05-16.78,1a2.6,2.6,0,0,1-.84-.14,2.35,2.35,0,0,1-.95-.62,2.52,2.52,0,0,1-.54-1,6.87,6.87,0,0,1-.27-1.72A20.69,20.69,0,0,1,408,240c0-1,.12-.83.11-1.26a1.78,1.78,0,0,1,.16-.81l.05-.09a2.17,2.17,0,0,1,.69-.74,3.48,3.48,0,0,1,.69-.37,3.55,3.55,0,0,1,.63-.17h0"/>
        </g>
      </g>
      <path class="cls-6" d="M422.76,237c.74.14,1,1.88,1.06,2.77.07.55.48,4.09-.56,4.45a6.48,6.48,0,0,1-1.17-.11l-.93-.18c-.34-.07-.51-.1-.59-.23s0-.35,0-.57a6.9,6.9,0,0,0,.15-1.38,14.73,14.73,0,0,0-.23-2.58c-.07-.3-.09-.61-.15-.91a.55.55,0,0,1,0-.36c.08-.18.28-.22.59-.33.56-.2.49-.27,1-.42A1.89,1.89,0,0,1,422.76,237Z"/>
      <path class="cls-6" d="M412.55,244.82c-.74-.16-.92-1.9-1-2.79-.05-.56-.4-4.11.65-4.45a8,8,0,0,1,1.17.13l.92.2c.34.07.51.11.59.25s0,.34,0,.56a8,8,0,0,0-.18,1.38,7.39,7.39,0,0,0,0,1.2,9.19,9.19,0,0,0,.15,1.39c.07.3.08.61.14.91a.62.62,0,0,1,0,.36c-.09.17-.28.21-.6.31-.56.19-.49.27-.95.4A2.08,2.08,0,0,1,412.55,244.82Z"/>
      <path class="cls-6" d="M429,238c.08-.08,0-.25-.23-.74s-.23-.75-.43-.88a.73.73,0,0,0-.55-.09.54.54,0,0,0-.39.27.45.45,0,0,0,0,.31c0,.08.11.31.68.79a1.22,1.22,0,0,0,.42.28C428.6,238,428.91,238.13,429,238Z"/>
      <path class="cls-6" d="M429.14,242.4s-.07,0-.55.39a4.25,4.25,0,0,0-.4.37,2.2,2.2,0,0,0-.36.55c-.09.2-.13.3-.09.42a.49.49,0,0,0,.45.24.52.52,0,0,0,.29-.09.74.74,0,0,0,.26-.29,1.41,1.41,0,0,0,.15-.28,2.1,2.1,0,0,0,.16-.51C429.16,242.69,429.21,242.44,429.14,242.4Z"/>
      <path d="M425.5,245.21c.05.09,0,.19-.05.39a1,1,0,0,1-.17.33,1.13,1.13,0,0,1-.28.21c-.16.07-.27.14-.38.09a.31.31,0,0,1-.14-.17.45.45,0,0,1,0-.33l.1-.17a1.46,1.46,0,0,1,.14-.21.69.69,0,0,1,.16-.18C425.06,245,425.41,245.05,425.5,245.21Z"/>
      <path d="M425.19,235.69c0-.07-.07-.2-.25-.48s-.24-.34-.32-.37a.41.41,0,0,0-.4,0,.46.46,0,0,0-.13.23.52.52,0,0,0,.11.41l.15.17.21.22A.5.5,0,0,0,425.19,235.69Z"/>
    </g>
    <g>
      <g>
        <path d="M674.84,516.61c1.52-.35,13.32-5.56,15.59-6.29a2.54,2.54,0,0,1,.84-.13,2.43,2.43,0,0,1,1.1.28,2.48,2.48,0,0,1,.84.8,7.61,7.61,0,0,1,.8,1.54,20.74,20.74,0,0,1,1,2.6c.29,1,.15.82.3,1.23a1.84,1.84,0,0,1,.11.81.42.42,0,0,0,0,.11,2.25,2.25,0,0,1-.43.92,3.23,3.23,0,0,1-.54.57,2.8,2.8,0,0,1-.54.36h0l-15.59,6.29c-.14,0-.64.22-.91.26a3.77,3.77,0,0,1-1,.13c-.09,0-.26-.06-.88-.58a7.17,7.17,0,0,1-1.76-2.12c-.27-.59-.27-.56-.55-1.17a4.19,4.19,0,0,1-.41-1.18,4.4,4.4,0,0,1-.13-1.43,2.68,2.68,0,0,1,.17-1.05,2.6,2.6,0,0,1,.42-.87,3.31,3.31,0,0,1,.58-.52A3.7,3.7,0,0,1,674.84,516.61Z"/>
        <g>
          <line class="cls-5" x1="678.25" y1="525.7" x2="693.84" y2="519.41"/>
          <path class="cls-5" d="M678.25,525.7c-.14,0-.64.22-.91.26a3.77,3.77,0,0,1-1,.13c-.09,0-.26-.06-.88-.58a7.17,7.17,0,0,1-1.76-2.12c-.27-.59-.27-.56-.55-1.17a4.19,4.19,0,0,1-.41-1.18,4.4,4.4,0,0,1-.13-1.43,2.68,2.68,0,0,1,.17-1.05,2.6,2.6,0,0,1,.42-.87,3.31,3.31,0,0,1,.58-.52,3.7,3.7,0,0,1,1-.56c1.52-.35,13.32-5.56,15.59-6.29a2.54,2.54,0,0,1,.84-.13,2.43,2.43,0,0,1,1.1.28,2.48,2.48,0,0,1,.84.8,7.61,7.61,0,0,1,.8,1.54,20.74,20.74,0,0,1,1,2.6c.29,1,.15.82.3,1.23a1.84,1.84,0,0,1,.11.81.42.42,0,0,0,0,.11,2.25,2.25,0,0,1-.43.92,3.23,3.23,0,0,1-.54.57,2.8,2.8,0,0,1-.54.36h0"/>
        </g>
      </g>
      <path class="cls-6" d="M681.94,522.9c-.74.1-1.5-1.48-1.88-2.29-.24-.5-1.76-3.73-.88-4.4a6.33,6.33,0,0,1,1.15-.27l.93-.12c.34-.05.52-.07.64,0s.14.31.15.54a7,7,0,0,0,.29,1.36,7.68,7.68,0,0,0,.44,1.13,10.07,10.07,0,0,0,.6,1.25c.17.26.28.55.43.82a.56.56,0,0,1,.12.34c0,.19-.2.29-.46.49-.47.37-.38.42-.77.7A2,2,0,0,1,681.94,522.9Z"/>
      <path class="cls-6" d="M689.14,512.23c.75-.08,1.48,1.51,1.84,2.33.23.51,1.69,3.77.8,4.42a7.62,7.62,0,0,1-1.15.25l-.93.1c-.35,0-.52.06-.64,0s-.13-.32-.14-.55a7.47,7.47,0,0,0-.27-1.36,8.85,8.85,0,0,0-.41-1.14,10.33,10.33,0,0,0-.58-1.26c-.17-.26-.27-.56-.42-.83a.5.5,0,0,1-.11-.34c0-.19.2-.28.47-.49.47-.36.38-.41.78-.68A2,2,0,0,1,689.14,512.23Z"/>
      <path class="cls-6" d="M675.69,523.9c-.05.11.12.23.46.63s.45.64.68.7a.72.72,0,0,0,.55-.09.55.55,0,0,0,.29-.38.51.51,0,0,0-.11-.29,1.93,1.93,0,0,0-.9-.53,1.59,1.59,0,0,0-.48-.14C676.09,523.8,675.75,523.77,675.69,523.9Z"/>
      <path class="cls-6" d="M674.18,519.79s.07,0,.39-.55a3,3,0,0,0,.27-.47,2,2,0,0,0,.17-.63c0-.22,0-.34,0-.43a.47.47,0,0,0-.51-.09.56.56,0,0,0-.24.18.81.81,0,0,0-.16.35,2.16,2.16,0,0,0,0,.32,2.27,2.27,0,0,0,0,.53C674.07,519.52,674.1,519.78,674.18,519.79Z"/>
      <path d="M676.73,516c-.07-.07-.07-.17-.07-.39a.82.82,0,0,1,.06-.36,1,1,0,0,1,.2-.29c.12-.12.21-.21.33-.2a.28.28,0,0,1,.19.11.46.46,0,0,1,.1.31,1.21,1.21,0,0,1,0,.2,2,2,0,0,1-.06.24.62.62,0,0,1-.1.22A.49.49,0,0,1,676.73,516Z"/>
      <path d="M680.06,524.9c0,.07.12.17.38.37s.34.25.42.26a.42.42,0,0,0,.39-.12.36.36,0,0,0,0-.25.58.58,0,0,0-.23-.36l-.2-.11a2.32,2.32,0,0,0-.27-.14C680.39,524.5,680.06,524.71,680.06,524.9Z"/>
    </g>
    <g>
      <g>
        <path d="M572.05,396.35c.1,1.55,3.27,14.06,3.61,16.42a2.65,2.65,0,0,1,0,.85,2.44,2.44,0,0,1-.46,1,2.66,2.66,0,0,1-.94.69,6.73,6.73,0,0,1-1.65.53,21.63,21.63,0,0,1-2.72.51c-1,.12-.83,0-1.26.08a1.61,1.61,0,0,1-.82,0l-.1,0a2.29,2.29,0,0,1-.84-.57,3.07,3.07,0,0,1-.47-.63,3.45,3.45,0,0,1-.26-.59h0l-3.61-16.42c0-.14-.11-.67-.1-.95a3.7,3.7,0,0,1,0-.95c0-.08.1-.25.72-.77a6.18,6.18,0,0,1,1-.76,5.21,5.21,0,0,1,1.34-.62c.63-.17.6-.18,1.25-.36a4.19,4.19,0,0,1,1.23-.2,4.43,4.43,0,0,1,1.43.11,2.69,2.69,0,0,1,1,.34,2.44,2.44,0,0,1,.78.56,3.31,3.31,0,0,1,.42.66A3.41,3.41,0,0,1,572.05,396.35Z"/>
        <g>
          <line class="cls-5" x1="562.52" y1="398.2" x2="566.13" y2="414.62"/>
          <path class="cls-5" d="M562.52,398.2c0-.14-.11-.67-.1-.95a3.7,3.7,0,0,1,0-.95c0-.08.1-.25.72-.77a6.18,6.18,0,0,1,1-.76,5.21,5.21,0,0,1,1.34-.62c.63-.17.6-.18,1.25-.36a4.19,4.19,0,0,1,1.23-.2,4.43,4.43,0,0,1,1.43.11,2.69,2.69,0,0,1,1,.34,2.44,2.44,0,0,1,.78.56,3.31,3.31,0,0,1,.42.66,3.41,3.41,0,0,1,.38,1.09c.1,1.55,3.27,14.06,3.61,16.42a2.65,2.65,0,0,1,0,.85,2.44,2.44,0,0,1-.46,1,2.66,2.66,0,0,1-.94.69,6.73,6.73,0,0,1-1.65.53,21.63,21.63,0,0,1-2.72.51c-1,.12-.83,0-1.26.08a1.61,1.61,0,0,1-.82,0l-.1,0a2.29,2.29,0,0,1-.84-.57,3.07,3.07,0,0,1-.47-.63,3.45,3.45,0,0,1-.26-.59v0"/>
        </g>
      </g>
      <path class="cls-6" d="M564.67,402.3c0-.75,1.71-1.23,2.57-1.47.54-.15,4-1.11,4.49-.14a6.64,6.64,0,0,1,.07,1.18c0,.05,0,.35,0,.94,0,.35,0,.52-.14.63s-.34.08-.56.06a6.56,6.56,0,0,0-1.39.06,8.12,8.12,0,0,0-1.18.24,9.53,9.53,0,0,0-1.34.38c-.28.12-.59.19-.88.29a.56.56,0,0,1-.35.06c-.19-.06-.25-.24-.41-.53-.29-.53-.35-.45-.56-.88A1.93,1.93,0,0,1,564.67,402.3Z"/>
      <path class="cls-6" d="M574,411.18c0,.75-1.74,1.21-2.6,1.43-.54.14-4,1-4.49.05a6.07,6.07,0,0,1-.06-1.18s0-.34.06-.94c0-.34,0-.52.15-.62s.33-.08.56-.05a6.74,6.74,0,0,0,1.39,0,8.91,8.91,0,0,0,1.18-.22,9.44,9.44,0,0,0,1.35-.36c.28-.12.59-.18.88-.28a.57.57,0,0,1,.36,0c.18.05.24.24.4.53.27.53.34.46.54.89A1.93,1.93,0,0,1,574,411.18Z"/>
      <path class="cls-6" d="M564.72,396c-.09-.07-.24.08-.69.35s-.71.33-.81.55a.74.74,0,0,0,0,.56c0,.05.12.3.33.35a.44.44,0,0,0,.3-.06c.08,0,.29-.16.68-.8a1.48,1.48,0,0,0,.21-.45C564.76,396.38,564.84,396.05,564.72,396Z"/>
      <path class="cls-6" d="M569,395.16s0,.07.47.49a4,4,0,0,0,.43.34,2.2,2.2,0,0,0,.59.27c.22.06.33.08.43,0a.48.48,0,0,0,.17-.48.56.56,0,0,0-.13-.27.78.78,0,0,0-.32-.21,1.46,1.46,0,0,0-.3-.11,2.35,2.35,0,0,0-.54-.08C569.32,395.1,569.06,395.09,569,395.16Z"/>
      <path d="M572.37,398.32c.08-.06.18,0,.4,0a1,1,0,0,1,.34.11.84.84,0,0,1,.25.25c.1.14.18.24.15.36a.27.27,0,0,1-.15.16.46.46,0,0,1-.32.06l-.18-.08-.24-.1a1.13,1.13,0,0,1-.2-.13A.5.5,0,0,1,572.37,398.32Z"/>
      <path d="M563,400.11c-.08,0-.2.1-.44.32s-.3.29-.32.37a.4.4,0,0,0,0,.4.32.32,0,0,0,.24.09.54.54,0,0,0,.39-.17,1.06,1.06,0,0,0,.15-.18l.18-.23A.51.51,0,0,0,563,400.11Z"/>
    </g>
    <g>
      <g>
        <path d="M664.47,228.63c-1.51.38-13.23,5.79-15.49,6.56a2.67,2.67,0,0,1-.83.14,2.54,2.54,0,0,1-1.11-.26,2.63,2.63,0,0,1-.84-.79,6.89,6.89,0,0,1-.84-1.53,23,23,0,0,1-1-2.58c-.3-1-.16-.81-.31-1.22a1.67,1.67,0,0,1-.13-.81l0-.11a2.19,2.19,0,0,1,.41-.93,3,3,0,0,1,.53-.57,2.72,2.72,0,0,1,.53-.37h0l15.48-6.56c.14,0,.64-.23.92-.28a3.21,3.21,0,0,1,.94-.13c.09,0,.27,0,.89.56a5.79,5.79,0,0,1,.93.88,5.29,5.29,0,0,1,.86,1.21c.28.58.29.55.58,1.16a4.14,4.14,0,0,1,.42,1.18,3.93,3.93,0,0,1,.16,1.42,2.76,2.76,0,0,1-.15,1.05,2.41,2.41,0,0,1-.41.88,2.81,2.81,0,0,1-.57.52A3.42,3.42,0,0,1,664.47,228.63Z"/>
        <g>
          <line class="cls-5" x1="660.9" y1="219.6" x2="645.42" y2="226.16"/>
          <path class="cls-5" d="M660.9,219.6c.14,0,.64-.23.92-.28a3.21,3.21,0,0,1,.94-.13c.09,0,.27,0,.89.56a5.79,5.79,0,0,1,.93.88,5.29,5.29,0,0,1,.86,1.21c.28.58.29.55.58,1.16a4.14,4.14,0,0,1,.42,1.18,3.93,3.93,0,0,1,.16,1.42,2.76,2.76,0,0,1-.15,1.05,2.41,2.41,0,0,1-.41.88,2.81,2.81,0,0,1-.57.52,3.42,3.42,0,0,1-1,.58c-1.51.38-13.23,5.79-15.49,6.56a2.67,2.67,0,0,1-.83.14,2.54,2.54,0,0,1-1.11-.26,2.63,2.63,0,0,1-.84-.79,6.89,6.89,0,0,1-.84-1.53,23,23,0,0,1-1-2.58c-.3-1-.16-.81-.31-1.22a1.67,1.67,0,0,1-.13-.81l0-.11a2.19,2.19,0,0,1,.41-.93,3,3,0,0,1,.53-.57,2.72,2.72,0,0,1,.53-.37l0,0"/>
        </g>
      </g>
      <path class="cls-6" d="M657.26,222.46c.74-.11,1.53,1.46,1.92,2.26.25.5,1.82,3.71,1,4.39a7.43,7.43,0,0,1-1.15.29l-.93.14c-.34.05-.52.07-.64,0s-.14-.31-.16-.54a6.72,6.72,0,0,0-.31-1.35,7.84,7.84,0,0,0-.46-1.12,8.62,8.62,0,0,0-.62-1.24c-.17-.26-.29-.55-.45-.81a.5.5,0,0,1-.11-.34c0-.19.18-.29.44-.5.47-.38.38-.43.76-.71A2.19,2.19,0,0,1,657.26,222.46Z"/>
      <path class="cls-6" d="M650.24,233.25c-.74.1-1.5-1.48-1.88-2.29-.24-.51-1.75-3.74-.87-4.41a6.91,6.91,0,0,1,1.15-.26l.93-.13c.34,0,.52-.06.64,0s.14.31.15.54a7.1,7.1,0,0,0,.29,1.36,8.63,8.63,0,0,0,.43,1.13,10.07,10.07,0,0,0,.6,1.25c.17.26.28.55.43.82a.59.59,0,0,1,.12.34c0,.19-.2.29-.46.49-.47.37-.38.42-.77.7A2,2,0,0,1,650.24,233.25Z"/>
      <path class="cls-6" d="M663.5,221.36c0-.11-.12-.23-.47-.62s-.46-.63-.69-.69a.75.75,0,0,0-.56.1s-.27.17-.27.39a.44.44,0,0,0,.11.28c0,.07.21.26.9.52a1.6,1.6,0,0,0,.49.13C663.1,221.47,663.44,221.49,663.5,221.36Z"/>
      <path class="cls-6" d="M665.08,225.44s-.07,0-.39.56a4.34,4.34,0,0,0-.26.48,2,2,0,0,0-.15.63c0,.22,0,.33.05.43a.49.49,0,0,0,.51.08.56.56,0,0,0,.24-.18.89.89,0,0,0,.15-.36,1.82,1.82,0,0,0,0-.31,2.27,2.27,0,0,0,0-.54C665.19,225.71,665.16,225.46,665.08,225.44Z"/>
      <path d="M662.59,229.31c.07.06.07.17.07.38a.77.77,0,0,1,0,.36,1,1,0,0,1-.19.3c-.12.12-.21.22-.33.21a.33.33,0,0,1-.19-.12.44.44,0,0,1-.11-.3s0-.08,0-.2,0-.19.06-.25a1.28,1.28,0,0,1,.09-.22A.5.5,0,0,1,662.59,229.31Z"/>
      <path d="M659.11,220.44c0-.08-.13-.18-.38-.37s-.35-.24-.43-.25a.42.42,0,0,0-.39.12.34.34,0,0,0,0,.25.59.59,0,0,0,.24.36l.2.11.26.13C658.79,220.84,659.11,220.63,659.11,220.44Z"/>
    </g>
    <text class="cls-7" transform="translate(678.24 191.27)"><tspan class="cls-8">A</tspan><tspan x="6.57" y="0">s</tspan><tspan class="cls-9" x="13.19" y="0">c</tspan><tspan x="19.75" y="0">oli</tspan></text>
    <text class="cls-7" transform="translate(573.5 255.71)"><tspan class="cls-9">C</tspan><tspan x="6.56" y="0">as</tspan><tspan class="cls-8" x="19.8" y="0">t</tspan><tspan x="26.37" y="0">el di </tspan><tspan class="cls-10" x="66.1" y="0">L</tspan><tspan x="72.56" y="0">u</tspan><tspan class="cls-9" x="79.18" y="0">c</tspan><tspan x="85.74" y="0">o</tspan></text>
    <text class="cls-7" transform="translate(364.49 207.05)"><tspan class="cls-11">P</tspan><tspan x="6.34" y="0">a</tspan><tspan class="cls-12" x="12.96" y="0">r</tspan><tspan class="cls-13" x="19.48" y="0">c</tspan><tspan x="26.04" y="0">o Nazionale </tspan></text>
    <text class="cls-7" transform="translate(364.49 221.45)">dei <tspan class="cls-14" x="26.49" y="0">M</tspan><tspan x="33.17" y="0">o</tspan><tspan class="cls-15" x="39.79" y="0">n</tspan><tspan x="46.37" y="0">ti Sibillini</tspan></text>
    <text class="cls-7" transform="translate(592.99 480.92)"><tspan class="cls-11">P</tspan><tspan x="6.34" y="0">a</tspan><tspan class="cls-12" x="12.96" y="0">r</tspan><tspan class="cls-8" x="19.48" y="0">c</tspan><tspan x="26.05" y="0">o Nazionale del</tspan><tspan x="0" y="14.4">G</tspan><tspan class="cls-8" x="6.62" y="14.4">r</tspan><tspan x="13.19" y="14.4">an Sasso</tspan><tspan class="cls-16" x="66.17" y="14.4"> </tspan></text>
  </g>
</svg>
